<?xml version="1.0" encoding="utf-8" standalone="no"?>
<!DOCTYPE svg PUBLIC "-//W3C//DTD SVG 1.1//EN"
  "http://www.w3.org/Graphics/SVG/1.1/DTD/svg11.dtd">
<svg xmlns:xlink="http://www.w3.org/1999/xlink" width="453.543307pt" height="453.543307pt" viewBox="0 0 453.543307 453.543307" xmlns="http://www.w3.org/2000/svg" version="1.1">
 <metadata>
  <rdf:RDF xmlns:dc="http://purl.org/dc/elements/1.1/" xmlns:cc="http://creativecommons.org/ns#" xmlns:rdf="http://www.w3.org/1999/02/22-rdf-syntax-ns#">
   <cc:Work>
    <dc:type rdf:resource="http://purl.org/dc/dcmitype/StillImage"/>
    <dc:date>2025-06-09T16:21:34.290371</dc:date>
    <dc:format>image/svg+xml</dc:format>
    <dc:creator>
     <cc:Agent>
      <dc:title>Matplotlib v3.10.3, https://matplotlib.org/</dc:title>
     </cc:Agent>
    </dc:creator>
   </cc:Work>
  </rdf:RDF>
 </metadata>
 <defs>
  <style type="text/css">*{stroke-linejoin: round; stroke-linecap: butt}</style>
 </defs>
 <g id="figure_1">
  <g id="patch_1">
   <path d="M 0 453.543307 
L 453.543307 453.543307 
L 453.543307 0 
L 0 0 
z
" style="fill: #ffffff"/>
  </g>
  <g id="axes_1">
   <g id="patch_2">
    <path d="M 64.124213 405.675307 
L 443.175307 405.675307 
L 443.175307 10.368 
L 64.124213 10.368 
z
" style="fill: #ffffff"/>
   </g>
   <g id="matplotlib.axis_1">
    <g id="xtick_1">
     <g id="line2d_1">
      <defs>
       <path id="m60285d06f9" d="M 0 0 
L 0 4.8 
" style="stroke: #262626"/>
      </defs>
      <g>
       <use xlink:href="#m60285d06f9" x="81.353808" y="405.675307" style="fill: #262626; stroke: #262626"/>
      </g>
     </g>
     <g id="text_1">
      <!-- 0.00 -->
      <g style="fill: #262626" transform="translate(67.994433 423.093432) scale(0.12 -0.12)">
       <defs>
        <path id="DejaVuSans-30" d="M 2034 4250 
Q 1547 4250 1301 3770 
Q 1056 3291 1056 2328 
Q 1056 1369 1301 889 
Q 1547 409 2034 409 
Q 2525 409 2770 889 
Q 3016 1369 3016 2328 
Q 3016 3291 2770 3770 
Q 2525 4250 2034 4250 
z
M 2034 4750 
Q 2819 4750 3233 4129 
Q 3647 3509 3647 2328 
Q 3647 1150 3233 529 
Q 2819 -91 2034 -91 
Q 1250 -91 836 529 
Q 422 1150 422 2328 
Q 422 3509 836 4129 
Q 1250 4750 2034 4750 
z
" transform="scale(0.015625)"/>
        <path id="DejaVuSans-2e" d="M 684 794 
L 1344 794 
L 1344 0 
L 684 0 
L 684 794 
z
" transform="scale(0.015625)"/>
       </defs>
       <use xlink:href="#DejaVuSans-30"/>
       <use xlink:href="#DejaVuSans-2e" transform="translate(63.623047 0)"/>
       <use xlink:href="#DejaVuSans-30" transform="translate(95.410156 0)"/>
       <use xlink:href="#DejaVuSans-30" transform="translate(159.033203 0)"/>
      </g>
     </g>
    </g>
    <g id="xtick_2">
     <g id="line2d_2">
      <g>
       <use xlink:href="#m60285d06f9" x="115.812998" y="405.675307" style="fill: #262626; stroke: #262626"/>
      </g>
     </g>
     <g id="text_2">
      <!-- 0.02 -->
      <g style="fill: #262626" transform="translate(102.453623 423.093432) scale(0.12 -0.12)">
       <defs>
        <path id="DejaVuSans-32" d="M 1228 531 
L 3431 531 
L 3431 0 
L 469 0 
L 469 531 
Q 828 903 1448 1529 
Q 2069 2156 2228 2338 
Q 2531 2678 2651 2914 
Q 2772 3150 2772 3378 
Q 2772 3750 2511 3984 
Q 2250 4219 1831 4219 
Q 1534 4219 1204 4116 
Q 875 4013 500 3803 
L 500 4441 
Q 881 4594 1212 4672 
Q 1544 4750 1819 4750 
Q 2544 4750 2975 4387 
Q 3406 4025 3406 3419 
Q 3406 3131 3298 2873 
Q 3191 2616 2906 2266 
Q 2828 2175 2409 1742 
Q 1991 1309 1228 531 
z
" transform="scale(0.015625)"/>
       </defs>
       <use xlink:href="#DejaVuSans-30"/>
       <use xlink:href="#DejaVuSans-2e" transform="translate(63.623047 0)"/>
       <use xlink:href="#DejaVuSans-30" transform="translate(95.410156 0)"/>
       <use xlink:href="#DejaVuSans-32" transform="translate(159.033203 0)"/>
      </g>
     </g>
    </g>
    <g id="xtick_3">
     <g id="line2d_3">
      <g>
       <use xlink:href="#m60285d06f9" x="150.272189" y="405.675307" style="fill: #262626; stroke: #262626"/>
      </g>
     </g>
     <g id="text_3">
      <!-- 0.04 -->
      <g style="fill: #262626" transform="translate(136.912814 423.093432) scale(0.12 -0.12)">
       <defs>
        <path id="DejaVuSans-34" d="M 2419 4116 
L 825 1625 
L 2419 1625 
L 2419 4116 
z
M 2253 4666 
L 3047 4666 
L 3047 1625 
L 3713 1625 
L 3713 1100 
L 3047 1100 
L 3047 0 
L 2419 0 
L 2419 1100 
L 313 1100 
L 313 1709 
L 2253 4666 
z
" transform="scale(0.015625)"/>
       </defs>
       <use xlink:href="#DejaVuSans-30"/>
       <use xlink:href="#DejaVuSans-2e" transform="translate(63.623047 0)"/>
       <use xlink:href="#DejaVuSans-30" transform="translate(95.410156 0)"/>
       <use xlink:href="#DejaVuSans-34" transform="translate(159.033203 0)"/>
      </g>
     </g>
    </g>
    <g id="xtick_4">
     <g id="line2d_4">
      <g>
       <use xlink:href="#m60285d06f9" x="184.731379" y="405.675307" style="fill: #262626; stroke: #262626"/>
      </g>
     </g>
     <g id="text_4">
      <!-- 0.06 -->
      <g style="fill: #262626" transform="translate(171.372004 423.093432) scale(0.12 -0.12)">
       <defs>
        <path id="DejaVuSans-36" d="M 2113 2584 
Q 1688 2584 1439 2293 
Q 1191 2003 1191 1497 
Q 1191 994 1439 701 
Q 1688 409 2113 409 
Q 2538 409 2786 701 
Q 3034 994 3034 1497 
Q 3034 2003 2786 2293 
Q 2538 2584 2113 2584 
z
M 3366 4563 
L 3366 3988 
Q 3128 4100 2886 4159 
Q 2644 4219 2406 4219 
Q 1781 4219 1451 3797 
Q 1122 3375 1075 2522 
Q 1259 2794 1537 2939 
Q 1816 3084 2150 3084 
Q 2853 3084 3261 2657 
Q 3669 2231 3669 1497 
Q 3669 778 3244 343 
Q 2819 -91 2113 -91 
Q 1303 -91 875 529 
Q 447 1150 447 2328 
Q 447 3434 972 4092 
Q 1497 4750 2381 4750 
Q 2619 4750 2861 4703 
Q 3103 4656 3366 4563 
z
" transform="scale(0.015625)"/>
       </defs>
       <use xlink:href="#DejaVuSans-30"/>
       <use xlink:href="#DejaVuSans-2e" transform="translate(63.623047 0)"/>
       <use xlink:href="#DejaVuSans-30" transform="translate(95.410156 0)"/>
       <use xlink:href="#DejaVuSans-36" transform="translate(159.033203 0)"/>
      </g>
     </g>
    </g>
    <g id="xtick_5">
     <g id="line2d_5">
      <g>
       <use xlink:href="#m60285d06f9" x="219.190569" y="405.675307" style="fill: #262626; stroke: #262626"/>
      </g>
     </g>
     <g id="text_5">
      <!-- 0.08 -->
      <g style="fill: #262626" transform="translate(205.831194 423.093432) scale(0.12 -0.12)">
       <defs>
        <path id="DejaVuSans-38" d="M 2034 2216 
Q 1584 2216 1326 1975 
Q 1069 1734 1069 1313 
Q 1069 891 1326 650 
Q 1584 409 2034 409 
Q 2484 409 2743 651 
Q 3003 894 3003 1313 
Q 3003 1734 2745 1975 
Q 2488 2216 2034 2216 
z
M 1403 2484 
Q 997 2584 770 2862 
Q 544 3141 544 3541 
Q 544 4100 942 4425 
Q 1341 4750 2034 4750 
Q 2731 4750 3128 4425 
Q 3525 4100 3525 3541 
Q 3525 3141 3298 2862 
Q 3072 2584 2669 2484 
Q 3125 2378 3379 2068 
Q 3634 1759 3634 1313 
Q 3634 634 3220 271 
Q 2806 -91 2034 -91 
Q 1263 -91 848 271 
Q 434 634 434 1313 
Q 434 1759 690 2068 
Q 947 2378 1403 2484 
z
M 1172 3481 
Q 1172 3119 1398 2916 
Q 1625 2713 2034 2713 
Q 2441 2713 2670 2916 
Q 2900 3119 2900 3481 
Q 2900 3844 2670 4047 
Q 2441 4250 2034 4250 
Q 1625 4250 1398 4047 
Q 1172 3844 1172 3481 
z
" transform="scale(0.015625)"/>
       </defs>
       <use xlink:href="#DejaVuSans-30"/>
       <use xlink:href="#DejaVuSans-2e" transform="translate(63.623047 0)"/>
       <use xlink:href="#DejaVuSans-30" transform="translate(95.410156 0)"/>
       <use xlink:href="#DejaVuSans-38" transform="translate(159.033203 0)"/>
      </g>
     </g>
    </g>
    <g id="xtick_6">
     <g id="line2d_6">
      <g>
       <use xlink:href="#m60285d06f9" x="253.64976" y="405.675307" style="fill: #262626; stroke: #262626"/>
      </g>
     </g>
     <g id="text_6">
      <!-- 0.10 -->
      <g style="fill: #262626" transform="translate(240.290385 423.093432) scale(0.12 -0.12)">
       <defs>
        <path id="DejaVuSans-31" d="M 794 531 
L 1825 531 
L 1825 4091 
L 703 3866 
L 703 4441 
L 1819 4666 
L 2450 4666 
L 2450 531 
L 3481 531 
L 3481 0 
L 794 0 
L 794 531 
z
" transform="scale(0.015625)"/>
       </defs>
       <use xlink:href="#DejaVuSans-30"/>
       <use xlink:href="#DejaVuSans-2e" transform="translate(63.623047 0)"/>
       <use xlink:href="#DejaVuSans-31" transform="translate(95.410156 0)"/>
       <use xlink:href="#DejaVuSans-30" transform="translate(159.033203 0)"/>
      </g>
     </g>
    </g>
    <g id="xtick_7">
     <g id="line2d_7">
      <g>
       <use xlink:href="#m60285d06f9" x="288.10895" y="405.675307" style="fill: #262626; stroke: #262626"/>
      </g>
     </g>
     <g id="text_7">
      <!-- 0.12 -->
      <g style="fill: #262626" transform="translate(274.749575 423.093432) scale(0.12 -0.12)">
       <use xlink:href="#DejaVuSans-30"/>
       <use xlink:href="#DejaVuSans-2e" transform="translate(63.623047 0)"/>
       <use xlink:href="#DejaVuSans-31" transform="translate(95.410156 0)"/>
       <use xlink:href="#DejaVuSans-32" transform="translate(159.033203 0)"/>
      </g>
     </g>
    </g>
    <g id="xtick_8">
     <g id="line2d_8">
      <g>
       <use xlink:href="#m60285d06f9" x="322.568141" y="405.675307" style="fill: #262626; stroke: #262626"/>
      </g>
     </g>
     <g id="text_8">
      <!-- 0.14 -->
      <g style="fill: #262626" transform="translate(309.208766 423.093432) scale(0.12 -0.12)">
       <use xlink:href="#DejaVuSans-30"/>
       <use xlink:href="#DejaVuSans-2e" transform="translate(63.623047 0)"/>
       <use xlink:href="#DejaVuSans-31" transform="translate(95.410156 0)"/>
       <use xlink:href="#DejaVuSans-34" transform="translate(159.033203 0)"/>
      </g>
     </g>
    </g>
    <g id="xtick_9">
     <g id="line2d_9">
      <g>
       <use xlink:href="#m60285d06f9" x="357.027331" y="405.675307" style="fill: #262626; stroke: #262626"/>
      </g>
     </g>
     <g id="text_9">
      <!-- 0.16 -->
      <g style="fill: #262626" transform="translate(343.667956 423.093432) scale(0.12 -0.12)">
       <use xlink:href="#DejaVuSans-30"/>
       <use xlink:href="#DejaVuSans-2e" transform="translate(63.623047 0)"/>
       <use xlink:href="#DejaVuSans-31" transform="translate(95.410156 0)"/>
       <use xlink:href="#DejaVuSans-36" transform="translate(159.033203 0)"/>
      </g>
     </g>
    </g>
    <g id="xtick_10">
     <g id="line2d_10">
      <g>
       <use xlink:href="#m60285d06f9" x="391.486521" y="405.675307" style="fill: #262626; stroke: #262626"/>
      </g>
     </g>
     <g id="text_10">
      <!-- 0.18 -->
      <g style="fill: #262626" transform="translate(378.127146 423.093432) scale(0.12 -0.12)">
       <use xlink:href="#DejaVuSans-30"/>
       <use xlink:href="#DejaVuSans-2e" transform="translate(63.623047 0)"/>
       <use xlink:href="#DejaVuSans-31" transform="translate(95.410156 0)"/>
       <use xlink:href="#DejaVuSans-38" transform="translate(159.033203 0)"/>
      </g>
     </g>
    </g>
    <g id="xtick_11">
     <g id="line2d_11">
      <g>
       <use xlink:href="#m60285d06f9" x="425.945712" y="405.675307" style="fill: #262626; stroke: #262626"/>
      </g>
     </g>
     <g id="text_11">
      <!-- 0.20 -->
      <g style="fill: #262626" transform="translate(412.586337 423.093432) scale(0.12 -0.12)">
       <use xlink:href="#DejaVuSans-30"/>
       <use xlink:href="#DejaVuSans-2e" transform="translate(63.623047 0)"/>
       <use xlink:href="#DejaVuSans-32" transform="translate(95.410156 0)"/>
       <use xlink:href="#DejaVuSans-30" transform="translate(159.033203 0)"/>
      </g>
     </g>
    </g>
    <g id="text_12">
     <!-- $\sigma$ -->
     <g style="fill: #262626" transform="translate(249.16976 440.22687) scale(0.14 -0.14)">
      <defs>
       <path id="DejaVuSans-Oblique-3c3" d="M 2219 3044 
Q 1744 3044 1422 2700 
Q 1081 2341 969 1747 
Q 844 1119 1044 756 
Q 1241 397 1706 397 
Q 2166 397 2503 759 
Q 2844 1122 2966 1747 
Q 3075 2319 2881 2700 
Q 2700 3044 2219 3044 
z
M 2309 3503 
L 4219 3500 
L 4106 2925 
L 3463 2925 
Q 3706 2438 3575 1747 
Q 3406 888 2884 400 
Q 2359 -91 1609 -91 
Q 856 -91 525 400 
Q 194 888 363 1747 
Q 528 2609 1050 3097 
Q 1484 3503 2309 3503 
z
" transform="scale(0.015625)"/>
      </defs>
      <use xlink:href="#DejaVuSans-Oblique-3c3" transform="translate(0 0.265625)"/>
     </g>
    </g>
   </g>
   <g id="matplotlib.axis_2">
    <g id="ytick_1">
     <g id="line2d_12">
      <defs>
       <path id="m4ea8ff997d" d="M 0 0 
L -4.8 0 
" style="stroke: #262626"/>
      </defs>
      <g>
       <use xlink:href="#m4ea8ff997d" x="64.124213" y="405.675307" style="fill: #262626; stroke: #262626"/>
      </g>
     </g>
     <g id="text_13">
      <!-- $\mathdefault{10^{-4}}$ -->
      <g style="fill: #262626" transform="translate(27.624213 410.23437) scale(0.12 -0.12)">
       <defs>
        <path id="DejaVuSans-2212" d="M 678 2272 
L 4684 2272 
L 4684 1741 
L 678 1741 
L 678 2272 
z
" transform="scale(0.015625)"/>
       </defs>
       <use xlink:href="#DejaVuSans-31" transform="translate(0 0.684375)"/>
       <use xlink:href="#DejaVuSans-30" transform="translate(63.623047 0.684375)"/>
       <use xlink:href="#DejaVuSans-2212" transform="translate(128.203125 38.965625) scale(0.7)"/>
       <use xlink:href="#DejaVuSans-34" transform="translate(186.855469 38.965625) scale(0.7)"/>
      </g>
     </g>
    </g>
    <g id="ytick_2">
     <g id="line2d_13">
      <g>
       <use xlink:href="#m4ea8ff997d" x="64.124213" y="303.662131" style="fill: #262626; stroke: #262626"/>
      </g>
     </g>
     <g id="text_14">
      <!-- $\mathdefault{10^{-3}}$ -->
      <g style="fill: #262626" transform="translate(27.624213 308.221193) scale(0.12 -0.12)">
       <defs>
        <path id="DejaVuSans-33" d="M 2597 2516 
Q 3050 2419 3304 2112 
Q 3559 1806 3559 1356 
Q 3559 666 3084 287 
Q 2609 -91 1734 -91 
Q 1441 -91 1130 -33 
Q 819 25 488 141 
L 488 750 
Q 750 597 1062 519 
Q 1375 441 1716 441 
Q 2309 441 2620 675 
Q 2931 909 2931 1356 
Q 2931 1769 2642 2001 
Q 2353 2234 1838 2234 
L 1294 2234 
L 1294 2753 
L 1863 2753 
Q 2328 2753 2575 2939 
Q 2822 3125 2822 3475 
Q 2822 3834 2567 4026 
Q 2313 4219 1838 4219 
Q 1578 4219 1281 4162 
Q 984 4106 628 3988 
L 628 4550 
Q 988 4650 1302 4700 
Q 1616 4750 1894 4750 
Q 2613 4750 3031 4423 
Q 3450 4097 3450 3541 
Q 3450 3153 3228 2886 
Q 3006 2619 2597 2516 
z
" transform="scale(0.015625)"/>
       </defs>
       <use xlink:href="#DejaVuSans-31" transform="translate(0 0.765625)"/>
       <use xlink:href="#DejaVuSans-30" transform="translate(63.623047 0.765625)"/>
       <use xlink:href="#DejaVuSans-2212" transform="translate(128.203125 39.046875) scale(0.7)"/>
       <use xlink:href="#DejaVuSans-33" transform="translate(186.855469 39.046875) scale(0.7)"/>
      </g>
     </g>
    </g>
    <g id="ytick_3">
     <g id="line2d_14">
      <g>
       <use xlink:href="#m4ea8ff997d" x="64.124213" y="201.648955" style="fill: #262626; stroke: #262626"/>
      </g>
     </g>
     <g id="text_15">
      <!-- $\mathdefault{10^{-2}}$ -->
      <g style="fill: #262626" transform="translate(27.624213 206.208017) scale(0.12 -0.12)">
       <use xlink:href="#DejaVuSans-31" transform="translate(0 0.765625)"/>
       <use xlink:href="#DejaVuSans-30" transform="translate(63.623047 0.765625)"/>
       <use xlink:href="#DejaVuSans-2212" transform="translate(128.203125 39.046875) scale(0.7)"/>
       <use xlink:href="#DejaVuSans-32" transform="translate(186.855469 39.046875) scale(0.7)"/>
      </g>
     </g>
    </g>
    <g id="ytick_4">
     <g id="line2d_15">
      <g>
       <use xlink:href="#m4ea8ff997d" x="64.124213" y="99.635779" style="fill: #262626; stroke: #262626"/>
      </g>
     </g>
     <g id="text_16">
      <!-- $\mathdefault{10^{-1}}$ -->
      <g style="fill: #262626" transform="translate(27.624213 104.194841) scale(0.12 -0.12)">
       <use xlink:href="#DejaVuSans-31" transform="translate(0 0.684375)"/>
       <use xlink:href="#DejaVuSans-30" transform="translate(63.623047 0.684375)"/>
       <use xlink:href="#DejaVuSans-2212" transform="translate(128.203125 38.965625) scale(0.7)"/>
       <use xlink:href="#DejaVuSans-31" transform="translate(186.855469 38.965625) scale(0.7)"/>
      </g>
     </g>
    </g>
    <g id="text_17">
     <!-- rmse train -->
     <g style="fill: #262626" transform="translate(20.71265 244.066185) rotate(-90) scale(0.14 -0.14)">
      <defs>
       <path id="DejaVuSans-72" d="M 2631 2963 
Q 2534 3019 2420 3045 
Q 2306 3072 2169 3072 
Q 1681 3072 1420 2755 
Q 1159 2438 1159 1844 
L 1159 0 
L 581 0 
L 581 3500 
L 1159 3500 
L 1159 2956 
Q 1341 3275 1631 3429 
Q 1922 3584 2338 3584 
Q 2397 3584 2469 3576 
Q 2541 3569 2628 3553 
L 2631 2963 
z
" transform="scale(0.015625)"/>
       <path id="DejaVuSans-6d" d="M 3328 2828 
Q 3544 3216 3844 3400 
Q 4144 3584 4550 3584 
Q 5097 3584 5394 3201 
Q 5691 2819 5691 2113 
L 5691 0 
L 5113 0 
L 5113 2094 
Q 5113 2597 4934 2840 
Q 4756 3084 4391 3084 
Q 3944 3084 3684 2787 
Q 3425 2491 3425 1978 
L 3425 0 
L 2847 0 
L 2847 2094 
Q 2847 2600 2669 2842 
Q 2491 3084 2119 3084 
Q 1678 3084 1418 2786 
Q 1159 2488 1159 1978 
L 1159 0 
L 581 0 
L 581 3500 
L 1159 3500 
L 1159 2956 
Q 1356 3278 1631 3431 
Q 1906 3584 2284 3584 
Q 2666 3584 2933 3390 
Q 3200 3197 3328 2828 
z
" transform="scale(0.015625)"/>
       <path id="DejaVuSans-73" d="M 2834 3397 
L 2834 2853 
Q 2591 2978 2328 3040 
Q 2066 3103 1784 3103 
Q 1356 3103 1142 2972 
Q 928 2841 928 2578 
Q 928 2378 1081 2264 
Q 1234 2150 1697 2047 
L 1894 2003 
Q 2506 1872 2764 1633 
Q 3022 1394 3022 966 
Q 3022 478 2636 193 
Q 2250 -91 1575 -91 
Q 1294 -91 989 -36 
Q 684 19 347 128 
L 347 722 
Q 666 556 975 473 
Q 1284 391 1588 391 
Q 1994 391 2212 530 
Q 2431 669 2431 922 
Q 2431 1156 2273 1281 
Q 2116 1406 1581 1522 
L 1381 1569 
Q 847 1681 609 1914 
Q 372 2147 372 2553 
Q 372 3047 722 3315 
Q 1072 3584 1716 3584 
Q 2034 3584 2315 3537 
Q 2597 3491 2834 3397 
z
" transform="scale(0.015625)"/>
       <path id="DejaVuSans-65" d="M 3597 1894 
L 3597 1613 
L 953 1613 
Q 991 1019 1311 708 
Q 1631 397 2203 397 
Q 2534 397 2845 478 
Q 3156 559 3463 722 
L 3463 178 
Q 3153 47 2828 -22 
Q 2503 -91 2169 -91 
Q 1331 -91 842 396 
Q 353 884 353 1716 
Q 353 2575 817 3079 
Q 1281 3584 2069 3584 
Q 2775 3584 3186 3129 
Q 3597 2675 3597 1894 
z
M 3022 2063 
Q 3016 2534 2758 2815 
Q 2500 3097 2075 3097 
Q 1594 3097 1305 2825 
Q 1016 2553 972 2059 
L 3022 2063 
z
" transform="scale(0.015625)"/>
       <path id="DejaVuSans-20" transform="scale(0.015625)"/>
       <path id="DejaVuSans-74" d="M 1172 4494 
L 1172 3500 
L 2356 3500 
L 2356 3053 
L 1172 3053 
L 1172 1153 
Q 1172 725 1289 603 
Q 1406 481 1766 481 
L 2356 481 
L 2356 0 
L 1766 0 
Q 1100 0 847 248 
Q 594 497 594 1153 
L 594 3053 
L 172 3053 
L 172 3500 
L 594 3500 
L 594 4494 
L 1172 4494 
z
" transform="scale(0.015625)"/>
       <path id="DejaVuSans-61" d="M 2194 1759 
Q 1497 1759 1228 1600 
Q 959 1441 959 1056 
Q 959 750 1161 570 
Q 1363 391 1709 391 
Q 2188 391 2477 730 
Q 2766 1069 2766 1631 
L 2766 1759 
L 2194 1759 
z
M 3341 1997 
L 3341 0 
L 2766 0 
L 2766 531 
Q 2569 213 2275 61 
Q 1981 -91 1556 -91 
Q 1019 -91 701 211 
Q 384 513 384 1019 
Q 384 1609 779 1909 
Q 1175 2209 1959 2209 
L 2766 2209 
L 2766 2266 
Q 2766 2663 2505 2880 
Q 2244 3097 1772 3097 
Q 1472 3097 1187 3025 
Q 903 2953 641 2809 
L 641 3341 
Q 956 3463 1253 3523 
Q 1550 3584 1831 3584 
Q 2591 3584 2966 3190 
Q 3341 2797 3341 1997 
z
" transform="scale(0.015625)"/>
       <path id="DejaVuSans-69" d="M 603 3500 
L 1178 3500 
L 1178 0 
L 603 0 
L 603 3500 
z
M 603 4863 
L 1178 4863 
L 1178 4134 
L 603 4134 
L 603 4863 
z
" transform="scale(0.015625)"/>
       <path id="DejaVuSans-6e" d="M 3513 2113 
L 3513 0 
L 2938 0 
L 2938 2094 
Q 2938 2591 2744 2837 
Q 2550 3084 2163 3084 
Q 1697 3084 1428 2787 
Q 1159 2491 1159 1978 
L 1159 0 
L 581 0 
L 581 3500 
L 1159 3500 
L 1159 2956 
Q 1366 3272 1645 3428 
Q 1925 3584 2291 3584 
Q 2894 3584 3203 3211 
Q 3513 2838 3513 2113 
z
" transform="scale(0.015625)"/>
      </defs>
      <use xlink:href="#DejaVuSans-72"/>
      <use xlink:href="#DejaVuSans-6d" transform="translate(39.363281 0)"/>
      <use xlink:href="#DejaVuSans-73" transform="translate(136.775391 0)"/>
      <use xlink:href="#DejaVuSans-65" transform="translate(188.875 0)"/>
      <use xlink:href="#DejaVuSans-20" transform="translate(250.398438 0)"/>
      <use xlink:href="#DejaVuSans-74" transform="translate(282.185547 0)"/>
      <use xlink:href="#DejaVuSans-72" transform="translate(321.394531 0)"/>
      <use xlink:href="#DejaVuSans-61" transform="translate(362.507812 0)"/>
      <use xlink:href="#DejaVuSans-69" transform="translate(423.787109 0)"/>
      <use xlink:href="#DejaVuSans-6e" transform="translate(451.570312 0)"/>
     </g>
    </g>
   </g>
   <g id="line2d_16">
    <path d="M 81.353808 204.576697 
L 115.812998 197.748588 
L 150.272189 180.328783 
L 184.731379 165.851166 
L 219.190569 152.444508 
L 253.64976 131.81314 
L 288.10895 141.417622 
L 322.568141 116.221741 
L 357.027331 109.408655 
L 391.486521 99.60388 
L 425.945712 102.605769 
" clip-path="url(#pe033fbc72f)" style="fill: none; stroke: #de2d26; stroke-width: 1.2; stroke-linecap: round"/>
    <defs>
     <path id="m422a674bc5" d="M 0 4 
C 1.060812 4 2.078319 3.578535 2.828427 2.828427 
C 3.578535 2.078319 4 1.060812 4 0 
C 4 -1.060812 3.578535 -2.078319 2.828427 -2.828427 
C 2.078319 -3.578535 1.060812 -4 0 -4 
C -1.060812 -4 -2.078319 -3.578535 -2.828427 -2.828427 
C -3.578535 -2.078319 -4 -1.060812 -4 0 
C -4 1.060812 -3.578535 2.078319 -2.828427 2.828427 
C -2.078319 3.578535 -1.060812 4 0 4 
z
" style="stroke: #ffffff; stroke-width: 0.75"/>
    </defs>
    <g clip-path="url(#pe033fbc72f)">
     <use xlink:href="#m422a674bc5" x="81.353808" y="204.576697" style="fill: #de2d26; stroke: #ffffff; stroke-width: 0.75"/>
     <use xlink:href="#m422a674bc5" x="115.812998" y="197.748588" style="fill: #de2d26; stroke: #ffffff; stroke-width: 0.75"/>
     <use xlink:href="#m422a674bc5" x="150.272189" y="180.328783" style="fill: #de2d26; stroke: #ffffff; stroke-width: 0.75"/>
     <use xlink:href="#m422a674bc5" x="184.731379" y="165.851166" style="fill: #de2d26; stroke: #ffffff; stroke-width: 0.75"/>
     <use xlink:href="#m422a674bc5" x="219.190569" y="152.444508" style="fill: #de2d26; stroke: #ffffff; stroke-width: 0.75"/>
     <use xlink:href="#m422a674bc5" x="253.64976" y="131.81314" style="fill: #de2d26; stroke: #ffffff; stroke-width: 0.75"/>
     <use xlink:href="#m422a674bc5" x="288.10895" y="141.417622" style="fill: #de2d26; stroke: #ffffff; stroke-width: 0.75"/>
     <use xlink:href="#m422a674bc5" x="322.568141" y="116.221741" style="fill: #de2d26; stroke: #ffffff; stroke-width: 0.75"/>
     <use xlink:href="#m422a674bc5" x="357.027331" y="109.408655" style="fill: #de2d26; stroke: #ffffff; stroke-width: 0.75"/>
     <use xlink:href="#m422a674bc5" x="391.486521" y="99.60388" style="fill: #de2d26; stroke: #ffffff; stroke-width: 0.75"/>
     <use xlink:href="#m422a674bc5" x="425.945712" y="102.605769" style="fill: #de2d26; stroke: #ffffff; stroke-width: 0.75"/>
    </g>
   </g>
   <g id="LineCollection_1">
    <path d="M 81.353808 220.091663 
L 81.353808 201.143294 
" clip-path="url(#pe033fbc72f)" style="fill: none; stroke: #de2d26; stroke-width: 1.2; stroke-linecap: round"/>
    <path d="M 115.812998 204.049857 
L 115.812998 194.115051 
" clip-path="url(#pe033fbc72f)" style="fill: none; stroke: #de2d26; stroke-width: 1.2; stroke-linecap: round"/>
    <path d="M 150.272189 187.400625 
L 150.272189 173.160331 
" clip-path="url(#pe033fbc72f)" style="fill: none; stroke: #de2d26; stroke-width: 1.2; stroke-linecap: round"/>
    <path d="M 184.731379 171.97546 
L 184.731379 162.837036 
" clip-path="url(#pe033fbc72f)" style="fill: none; stroke: #de2d26; stroke-width: 1.2; stroke-linecap: round"/>
    <path d="M 219.190569 157.252192 
L 219.190569 146.316926 
" clip-path="url(#pe033fbc72f)" style="fill: none; stroke: #de2d26; stroke-width: 1.2; stroke-linecap: round"/>
    <path d="M 253.64976 140.850096 
L 253.64976 127.008417 
" clip-path="url(#pe033fbc72f)" style="fill: none; stroke: #de2d26; stroke-width: 1.2; stroke-linecap: round"/>
    <path d="M 288.10895 147.194908 
L 288.10895 133.438446 
" clip-path="url(#pe033fbc72f)" style="fill: none; stroke: #de2d26; stroke-width: 1.2; stroke-linecap: round"/>
    <path d="M 322.568141 121.021872 
L 322.568141 109.239026 
" clip-path="url(#pe033fbc72f)" style="fill: none; stroke: #de2d26; stroke-width: 1.2; stroke-linecap: round"/>
    <path d="M 357.027331 125.919149 
L 357.027331 100.973015 
" clip-path="url(#pe033fbc72f)" style="fill: none; stroke: #de2d26; stroke-width: 1.2; stroke-linecap: round"/>
    <path d="M 391.486521 103.681768 
L 391.486521 94.27249 
" clip-path="url(#pe033fbc72f)" style="fill: none; stroke: #de2d26; stroke-width: 1.2; stroke-linecap: round"/>
    <path d="M 425.945712 109.581734 
L 425.945712 92.278031 
" clip-path="url(#pe033fbc72f)" style="fill: none; stroke: #de2d26; stroke-width: 1.2; stroke-linecap: round"/>
   </g>
   <g id="line2d_17">
    <path d="M 81.353808 251.585185 
L 115.812998 191.890595 
L 150.272189 168.981926 
L 184.731379 157.247509 
L 219.190569 151.043637 
L 253.64976 144.249971 
L 288.10895 139.387101 
L 322.568141 129.429937 
L 357.027331 123.329075 
L 391.486521 121.471425 
L 425.945712 108.770696 
" clip-path="url(#pe033fbc72f)" style="fill: none; stroke: #3182bd; stroke-width: 1.2; stroke-linecap: round"/>
    <defs>
     <path id="m07864f3817" d="M -4 4 
L 4 4 
L 4 -4 
L -4 -4 
z
" style="stroke: #ffffff; stroke-width: 0.75; stroke-linejoin: miter"/>
    </defs>
    <g clip-path="url(#pe033fbc72f)">
     <use xlink:href="#m07864f3817" x="81.353808" y="251.585185" style="fill: #3182bd; stroke: #ffffff; stroke-width: 0.75; stroke-linejoin: miter"/>
     <use xlink:href="#m07864f3817" x="115.812998" y="191.890595" style="fill: #3182bd; stroke: #ffffff; stroke-width: 0.75; stroke-linejoin: miter"/>
     <use xlink:href="#m07864f3817" x="150.272189" y="168.981926" style="fill: #3182bd; stroke: #ffffff; stroke-width: 0.75; stroke-linejoin: miter"/>
     <use xlink:href="#m07864f3817" x="184.731379" y="157.247509" style="fill: #3182bd; stroke: #ffffff; stroke-width: 0.75; stroke-linejoin: miter"/>
     <use xlink:href="#m07864f3817" x="219.190569" y="151.043637" style="fill: #3182bd; stroke: #ffffff; stroke-width: 0.75; stroke-linejoin: miter"/>
     <use xlink:href="#m07864f3817" x="253.64976" y="144.249971" style="fill: #3182bd; stroke: #ffffff; stroke-width: 0.75; stroke-linejoin: miter"/>
     <use xlink:href="#m07864f3817" x="288.10895" y="139.387101" style="fill: #3182bd; stroke: #ffffff; stroke-width: 0.75; stroke-linejoin: miter"/>
     <use xlink:href="#m07864f3817" x="322.568141" y="129.429937" style="fill: #3182bd; stroke: #ffffff; stroke-width: 0.75; stroke-linejoin: miter"/>
     <use xlink:href="#m07864f3817" x="357.027331" y="123.329075" style="fill: #3182bd; stroke: #ffffff; stroke-width: 0.75; stroke-linejoin: miter"/>
     <use xlink:href="#m07864f3817" x="391.486521" y="121.471425" style="fill: #3182bd; stroke: #ffffff; stroke-width: 0.75; stroke-linejoin: miter"/>
     <use xlink:href="#m07864f3817" x="425.945712" y="108.770696" style="fill: #3182bd; stroke: #ffffff; stroke-width: 0.75; stroke-linejoin: miter"/>
    </g>
   </g>
   <g id="LineCollection_2">
    <path d="M 81.353808 260.696535 
L 81.353808 228.729597 
" clip-path="url(#pe033fbc72f)" style="fill: none; stroke: #3182bd; stroke-width: 1.2; stroke-linecap: round"/>
    <path d="M 115.812998 200.86439 
L 115.812998 181.90714 
" clip-path="url(#pe033fbc72f)" style="fill: none; stroke: #3182bd; stroke-width: 1.2; stroke-linecap: round"/>
    <path d="M 150.272189 179.418753 
L 150.272189 159.515554 
" clip-path="url(#pe033fbc72f)" style="fill: none; stroke: #3182bd; stroke-width: 1.2; stroke-linecap: round"/>
    <path d="M 184.731379 170.74606 
L 184.731379 153.581442 
" clip-path="url(#pe033fbc72f)" style="fill: none; stroke: #3182bd; stroke-width: 1.2; stroke-linecap: round"/>
    <path d="M 219.190569 153.673721 
L 219.190569 143.064557 
" clip-path="url(#pe033fbc72f)" style="fill: none; stroke: #3182bd; stroke-width: 1.2; stroke-linecap: round"/>
    <path d="M 253.64976 152.803564 
L 253.64976 133.207284 
" clip-path="url(#pe033fbc72f)" style="fill: none; stroke: #3182bd; stroke-width: 1.2; stroke-linecap: round"/>
    <path d="M 288.10895 147.875916 
L 288.10895 121.19198 
" clip-path="url(#pe033fbc72f)" style="fill: none; stroke: #3182bd; stroke-width: 1.2; stroke-linecap: round"/>
    <path d="M 322.568141 143.334674 
L 322.568141 108.490525 
" clip-path="url(#pe033fbc72f)" style="fill: none; stroke: #3182bd; stroke-width: 1.2; stroke-linecap: round"/>
    <path d="M 357.027331 133.479938 
L 357.027331 108.704071 
" clip-path="url(#pe033fbc72f)" style="fill: none; stroke: #3182bd; stroke-width: 1.2; stroke-linecap: round"/>
    <path d="M 391.486521 131.210356 
L 391.486521 109.025253 
" clip-path="url(#pe033fbc72f)" style="fill: none; stroke: #3182bd; stroke-width: 1.2; stroke-linecap: round"/>
    <path d="M 425.945712 127.573014 
L 425.945712 94.046853 
" clip-path="url(#pe033fbc72f)" style="fill: none; stroke: #3182bd; stroke-width: 1.2; stroke-linecap: round"/>
   </g>
   <g id="line2d_18">
    <path d="M 81.353808 206.505914 
L 115.812998 200.927355 
L 150.272189 186.167589 
L 184.731379 180.221216 
L 219.190569 165.339621 
L 253.64976 151.409307 
L 288.10895 143.710453 
L 322.568141 122.782378 
L 357.027331 133.059603 
L 391.486521 107.414647 
L 425.945712 107.228153 
" clip-path="url(#pe033fbc72f)" style="fill: none; stroke: #fc9272; stroke-width: 1.2; stroke-linecap: round"/>
    <defs>
     <path id="m531fd4da10" d="M 0 4 
C 1.060812 4 2.078319 3.578535 2.828427 2.828427 
C 3.578535 2.078319 4 1.060812 4 0 
C 4 -1.060812 3.578535 -2.078319 2.828427 -2.828427 
C 2.078319 -3.578535 1.060812 -4 0 -4 
C -1.060812 -4 -2.078319 -3.578535 -2.828427 -2.828427 
C -3.578535 -2.078319 -4 -1.060812 -4 0 
C -4 1.060812 -3.578535 2.078319 -2.828427 2.828427 
C -2.078319 3.578535 -1.060812 4 0 4 
z
" style="stroke: #ffffff; stroke-width: 0.75"/>
    </defs>
    <g clip-path="url(#pe033fbc72f)">
     <use xlink:href="#m531fd4da10" x="81.353808" y="206.505914" style="fill: #fc9272; stroke: #ffffff; stroke-width: 0.75"/>
     <use xlink:href="#m531fd4da10" x="115.812998" y="200.927355" style="fill: #fc9272; stroke: #ffffff; stroke-width: 0.75"/>
     <use xlink:href="#m531fd4da10" x="150.272189" y="186.167589" style="fill: #fc9272; stroke: #ffffff; stroke-width: 0.75"/>
     <use xlink:href="#m531fd4da10" x="184.731379" y="180.221216" style="fill: #fc9272; stroke: #ffffff; stroke-width: 0.75"/>
     <use xlink:href="#m531fd4da10" x="219.190569" y="165.339621" style="fill: #fc9272; stroke: #ffffff; stroke-width: 0.75"/>
     <use xlink:href="#m531fd4da10" x="253.64976" y="151.409307" style="fill: #fc9272; stroke: #ffffff; stroke-width: 0.75"/>
     <use xlink:href="#m531fd4da10" x="288.10895" y="143.710453" style="fill: #fc9272; stroke: #ffffff; stroke-width: 0.75"/>
     <use xlink:href="#m531fd4da10" x="322.568141" y="122.782378" style="fill: #fc9272; stroke: #ffffff; stroke-width: 0.75"/>
     <use xlink:href="#m531fd4da10" x="357.027331" y="133.059603" style="fill: #fc9272; stroke: #ffffff; stroke-width: 0.75"/>
     <use xlink:href="#m531fd4da10" x="391.486521" y="107.414647" style="fill: #fc9272; stroke: #ffffff; stroke-width: 0.75"/>
     <use xlink:href="#m531fd4da10" x="425.945712" y="107.228153" style="fill: #fc9272; stroke: #ffffff; stroke-width: 0.75"/>
    </g>
   </g>
   <g id="LineCollection_3">
    <path d="M 81.353808 228.441142 
L 81.353808 201.001798 
" clip-path="url(#pe033fbc72f)" style="fill: none; stroke: #fc9272; stroke-width: 1.2; stroke-linecap: round"/>
    <path d="M 115.812998 203.797308 
L 115.812998 197.610039 
" clip-path="url(#pe033fbc72f)" style="fill: none; stroke: #fc9272; stroke-width: 1.2; stroke-linecap: round"/>
    <path d="M 150.272189 190.82829 
L 150.272189 180.269623 
" clip-path="url(#pe033fbc72f)" style="fill: none; stroke: #fc9272; stroke-width: 1.2; stroke-linecap: round"/>
    <path d="M 184.731379 186.866235 
L 184.731379 174.335892 
" clip-path="url(#pe033fbc72f)" style="fill: none; stroke: #fc9272; stroke-width: 1.2; stroke-linecap: round"/>
    <path d="M 219.190569 171.834616 
L 219.190569 157.760226 
" clip-path="url(#pe033fbc72f)" style="fill: none; stroke: #fc9272; stroke-width: 1.2; stroke-linecap: round"/>
    <path d="M 253.64976 156.895877 
L 253.64976 144.556379 
" clip-path="url(#pe033fbc72f)" style="fill: none; stroke: #fc9272; stroke-width: 1.2; stroke-linecap: round"/>
    <path d="M 288.10895 153.369527 
L 288.10895 133.645458 
" clip-path="url(#pe033fbc72f)" style="fill: none; stroke: #fc9272; stroke-width: 1.2; stroke-linecap: round"/>
    <path d="M 322.568141 131.448711 
L 322.568141 118.573693 
" clip-path="url(#pe033fbc72f)" style="fill: none; stroke: #fc9272; stroke-width: 1.2; stroke-linecap: round"/>
    <path d="M 357.027331 142.830928 
L 357.027331 126.389301 
" clip-path="url(#pe033fbc72f)" style="fill: none; stroke: #fc9272; stroke-width: 1.2; stroke-linecap: round"/>
    <path d="M 391.486521 121.840632 
L 391.486521 101.57712 
" clip-path="url(#pe033fbc72f)" style="fill: none; stroke: #fc9272; stroke-width: 1.2; stroke-linecap: round"/>
    <path d="M 425.945712 116.841526 
L 425.945712 103.59834 
" clip-path="url(#pe033fbc72f)" style="fill: none; stroke: #fc9272; stroke-width: 1.2; stroke-linecap: round"/>
   </g>
   <g id="line2d_19">
    <path d="M 81.353808 259.879386 
L 115.812998 201.811153 
L 150.272189 181.505742 
L 184.731379 171.875221 
L 219.190569 163.115501 
L 253.64976 152.504694 
L 288.10895 150.983288 
L 322.568141 152.442725 
L 357.027331 146.035679 
L 391.486521 134.749851 
L 425.945712 125.920964 
" clip-path="url(#pe033fbc72f)" style="fill: none; stroke: #9ecae1; stroke-width: 1.2; stroke-linecap: round"/>
    <defs>
     <path id="mcda5f3efac" d="M -4 4 
L 4 4 
L 4 -4 
L -4 -4 
z
" style="stroke: #ffffff; stroke-width: 0.75; stroke-linejoin: miter"/>
    </defs>
    <g clip-path="url(#pe033fbc72f)">
     <use xlink:href="#mcda5f3efac" x="81.353808" y="259.879386" style="fill: #9ecae1; stroke: #ffffff; stroke-width: 0.75; stroke-linejoin: miter"/>
     <use xlink:href="#mcda5f3efac" x="115.812998" y="201.811153" style="fill: #9ecae1; stroke: #ffffff; stroke-width: 0.75; stroke-linejoin: miter"/>
     <use xlink:href="#mcda5f3efac" x="150.272189" y="181.505742" style="fill: #9ecae1; stroke: #ffffff; stroke-width: 0.75; stroke-linejoin: miter"/>
     <use xlink:href="#mcda5f3efac" x="184.731379" y="171.875221" style="fill: #9ecae1; stroke: #ffffff; stroke-width: 0.75; stroke-linejoin: miter"/>
     <use xlink:href="#mcda5f3efac" x="219.190569" y="163.115501" style="fill: #9ecae1; stroke: #ffffff; stroke-width: 0.75; stroke-linejoin: miter"/>
     <use xlink:href="#mcda5f3efac" x="253.64976" y="152.504694" style="fill: #9ecae1; stroke: #ffffff; stroke-width: 0.75; stroke-linejoin: miter"/>
     <use xlink:href="#mcda5f3efac" x="288.10895" y="150.983288" style="fill: #9ecae1; stroke: #ffffff; stroke-width: 0.75; stroke-linejoin: miter"/>
     <use xlink:href="#mcda5f3efac" x="322.568141" y="152.442725" style="fill: #9ecae1; stroke: #ffffff; stroke-width: 0.75; stroke-linejoin: miter"/>
     <use xlink:href="#mcda5f3efac" x="357.027331" y="146.035679" style="fill: #9ecae1; stroke: #ffffff; stroke-width: 0.75; stroke-linejoin: miter"/>
     <use xlink:href="#mcda5f3efac" x="391.486521" y="134.749851" style="fill: #9ecae1; stroke: #ffffff; stroke-width: 0.75; stroke-linejoin: miter"/>
     <use xlink:href="#mcda5f3efac" x="425.945712" y="125.920964" style="fill: #9ecae1; stroke: #ffffff; stroke-width: 0.75; stroke-linejoin: miter"/>
    </g>
   </g>
   <g id="LineCollection_4">
    <path d="M 81.353808 265.721563 
L 81.353808 234.108167 
" clip-path="url(#pe033fbc72f)" style="fill: none; stroke: #9ecae1; stroke-width: 1.2; stroke-linecap: round"/>
    <path d="M 115.812998 211.069315 
L 115.812998 196.302642 
" clip-path="url(#pe033fbc72f)" style="fill: none; stroke: #9ecae1; stroke-width: 1.2; stroke-linecap: round"/>
    <path d="M 150.272189 195.66119 
L 150.272189 170.241643 
" clip-path="url(#pe033fbc72f)" style="fill: none; stroke: #9ecae1; stroke-width: 1.2; stroke-linecap: round"/>
    <path d="M 184.731379 177.475158 
L 184.731379 161.10435 
" clip-path="url(#pe033fbc72f)" style="fill: none; stroke: #9ecae1; stroke-width: 1.2; stroke-linecap: round"/>
    <path d="M 219.190569 171.618785 
L 219.190569 153.495492 
" clip-path="url(#pe033fbc72f)" style="fill: none; stroke: #9ecae1; stroke-width: 1.2; stroke-linecap: round"/>
    <path d="M 253.64976 155.495058 
L 253.64976 148.393813 
" clip-path="url(#pe033fbc72f)" style="fill: none; stroke: #9ecae1; stroke-width: 1.2; stroke-linecap: round"/>
    <path d="M 288.10895 155.133666 
L 288.10895 143.572947 
" clip-path="url(#pe033fbc72f)" style="fill: none; stroke: #9ecae1; stroke-width: 1.2; stroke-linecap: round"/>
    <path d="M 322.568141 155.374843 
L 322.568141 139.793937 
" clip-path="url(#pe033fbc72f)" style="fill: none; stroke: #9ecae1; stroke-width: 1.2; stroke-linecap: round"/>
    <path d="M 357.027331 152.114974 
L 357.027331 130.269055 
" clip-path="url(#pe033fbc72f)" style="fill: none; stroke: #9ecae1; stroke-width: 1.2; stroke-linecap: round"/>
    <path d="M 391.486521 146.26575 
L 391.486521 123.837007 
" clip-path="url(#pe033fbc72f)" style="fill: none; stroke: #9ecae1; stroke-width: 1.2; stroke-linecap: round"/>
    <path d="M 425.945712 142.751454 
L 425.945712 112.041617 
" clip-path="url(#pe033fbc72f)" style="fill: none; stroke: #9ecae1; stroke-width: 1.2; stroke-linecap: round"/>
   </g>
   <g id="line2d_20">
    <path d="M 81.353808 249.115142 
L 115.812998 237.163763 
L 150.272189 223.774385 
L 184.731379 206.019657 
L 219.190569 194.213448 
L 253.64976 186.68485 
L 288.10895 174.090442 
L 322.568141 174.386498 
L 357.027331 155.787309 
L 391.486521 147.335246 
L 425.945712 150.194985 
" clip-path="url(#pe033fbc72f)" style="fill: none; stroke: #fee0d2; stroke-width: 1.2; stroke-linecap: round"/>
    <defs>
     <path id="m4481814e46" d="M 0 4 
C 1.060812 4 2.078319 3.578535 2.828427 2.828427 
C 3.578535 2.078319 4 1.060812 4 0 
C 4 -1.060812 3.578535 -2.078319 2.828427 -2.828427 
C 2.078319 -3.578535 1.060812 -4 0 -4 
C -1.060812 -4 -2.078319 -3.578535 -2.828427 -2.828427 
C -3.578535 -2.078319 -4 -1.060812 -4 0 
C -4 1.060812 -3.578535 2.078319 -2.828427 2.828427 
C -2.078319 3.578535 -1.060812 4 0 4 
z
" style="stroke: #ffffff; stroke-width: 0.75"/>
    </defs>
    <g clip-path="url(#pe033fbc72f)">
     <use xlink:href="#m4481814e46" x="81.353808" y="249.115142" style="fill: #fee0d2; stroke: #ffffff; stroke-width: 0.75"/>
     <use xlink:href="#m4481814e46" x="115.812998" y="237.163763" style="fill: #fee0d2; stroke: #ffffff; stroke-width: 0.75"/>
     <use xlink:href="#m4481814e46" x="150.272189" y="223.774385" style="fill: #fee0d2; stroke: #ffffff; stroke-width: 0.75"/>
     <use xlink:href="#m4481814e46" x="184.731379" y="206.019657" style="fill: #fee0d2; stroke: #ffffff; stroke-width: 0.75"/>
     <use xlink:href="#m4481814e46" x="219.190569" y="194.213448" style="fill: #fee0d2; stroke: #ffffff; stroke-width: 0.75"/>
     <use xlink:href="#m4481814e46" x="253.64976" y="186.68485" style="fill: #fee0d2; stroke: #ffffff; stroke-width: 0.75"/>
     <use xlink:href="#m4481814e46" x="288.10895" y="174.090442" style="fill: #fee0d2; stroke: #ffffff; stroke-width: 0.75"/>
     <use xlink:href="#m4481814e46" x="322.568141" y="174.386498" style="fill: #fee0d2; stroke: #ffffff; stroke-width: 0.75"/>
     <use xlink:href="#m4481814e46" x="357.027331" y="155.787309" style="fill: #fee0d2; stroke: #ffffff; stroke-width: 0.75"/>
     <use xlink:href="#m4481814e46" x="391.486521" y="147.335246" style="fill: #fee0d2; stroke: #ffffff; stroke-width: 0.75"/>
     <use xlink:href="#m4481814e46" x="425.945712" y="150.194985" style="fill: #fee0d2; stroke: #ffffff; stroke-width: 0.75"/>
    </g>
   </g>
   <g id="LineCollection_5">
    <path d="M 81.353808 262.751167 
L 81.353808 233.675314 
" clip-path="url(#pe033fbc72f)" style="fill: none; stroke: #fee0d2; stroke-width: 1.2; stroke-linecap: round"/>
    <path d="M 115.812998 244.28962 
L 115.812998 225.272741 
" clip-path="url(#pe033fbc72f)" style="fill: none; stroke: #fee0d2; stroke-width: 1.2; stroke-linecap: round"/>
    <path d="M 150.272189 229.199332 
L 150.272189 210.007962 
" clip-path="url(#pe033fbc72f)" style="fill: none; stroke: #fee0d2; stroke-width: 1.2; stroke-linecap: round"/>
    <path d="M 184.731379 209.544844 
L 184.731379 201.35128 
" clip-path="url(#pe033fbc72f)" style="fill: none; stroke: #fee0d2; stroke-width: 1.2; stroke-linecap: round"/>
    <path d="M 219.190569 197.445087 
L 219.190569 190.931315 
" clip-path="url(#pe033fbc72f)" style="fill: none; stroke: #fee0d2; stroke-width: 1.2; stroke-linecap: round"/>
    <path d="M 253.64976 190.567444 
L 253.64976 182.65695 
" clip-path="url(#pe033fbc72f)" style="fill: none; stroke: #fee0d2; stroke-width: 1.2; stroke-linecap: round"/>
    <path d="M 288.10895 177.848156 
L 288.10895 171.309705 
" clip-path="url(#pe033fbc72f)" style="fill: none; stroke: #fee0d2; stroke-width: 1.2; stroke-linecap: round"/>
    <path d="M 322.568141 178.999065 
L 322.568141 166.212625 
" clip-path="url(#pe033fbc72f)" style="fill: none; stroke: #fee0d2; stroke-width: 1.2; stroke-linecap: round"/>
    <path d="M 357.027331 167.802692 
L 357.027331 148.670184 
" clip-path="url(#pe033fbc72f)" style="fill: none; stroke: #fee0d2; stroke-width: 1.2; stroke-linecap: round"/>
    <path d="M 391.486521 156.923009 
L 391.486521 137.677239 
" clip-path="url(#pe033fbc72f)" style="fill: none; stroke: #fee0d2; stroke-width: 1.2; stroke-linecap: round"/>
    <path d="M 425.945712 155.963855 
L 425.945712 136.795468 
" clip-path="url(#pe033fbc72f)" style="fill: none; stroke: #fee0d2; stroke-width: 1.2; stroke-linecap: round"/>
   </g>
   <g id="line2d_21">
    <path d="M 81.353808 278.440875 
L 115.812998 229.710816 
L 150.272189 209.687483 
L 184.731379 195.064297 
L 219.190569 193.938983 
L 253.64976 179.612511 
L 288.10895 174.33541 
L 322.568141 172.735451 
L 357.027331 172.28031 
L 391.486521 165.747443 
L 425.945712 163.420889 
" clip-path="url(#pe033fbc72f)" style="fill: none; stroke: #deebf7; stroke-width: 1.2; stroke-linecap: round"/>
    <defs>
     <path id="mf0db2e17ef" d="M -4 4 
L 4 4 
L 4 -4 
L -4 -4 
z
" style="stroke: #ffffff; stroke-width: 0.75; stroke-linejoin: miter"/>
    </defs>
    <g clip-path="url(#pe033fbc72f)">
     <use xlink:href="#mf0db2e17ef" x="81.353808" y="278.440875" style="fill: #deebf7; stroke: #ffffff; stroke-width: 0.75; stroke-linejoin: miter"/>
     <use xlink:href="#mf0db2e17ef" x="115.812998" y="229.710816" style="fill: #deebf7; stroke: #ffffff; stroke-width: 0.75; stroke-linejoin: miter"/>
     <use xlink:href="#mf0db2e17ef" x="150.272189" y="209.687483" style="fill: #deebf7; stroke: #ffffff; stroke-width: 0.75; stroke-linejoin: miter"/>
     <use xlink:href="#mf0db2e17ef" x="184.731379" y="195.064297" style="fill: #deebf7; stroke: #ffffff; stroke-width: 0.75; stroke-linejoin: miter"/>
     <use xlink:href="#mf0db2e17ef" x="219.190569" y="193.938983" style="fill: #deebf7; stroke: #ffffff; stroke-width: 0.75; stroke-linejoin: miter"/>
     <use xlink:href="#mf0db2e17ef" x="253.64976" y="179.612511" style="fill: #deebf7; stroke: #ffffff; stroke-width: 0.75; stroke-linejoin: miter"/>
     <use xlink:href="#mf0db2e17ef" x="288.10895" y="174.33541" style="fill: #deebf7; stroke: #ffffff; stroke-width: 0.75; stroke-linejoin: miter"/>
     <use xlink:href="#mf0db2e17ef" x="322.568141" y="172.735451" style="fill: #deebf7; stroke: #ffffff; stroke-width: 0.75; stroke-linejoin: miter"/>
     <use xlink:href="#mf0db2e17ef" x="357.027331" y="172.28031" style="fill: #deebf7; stroke: #ffffff; stroke-width: 0.75; stroke-linejoin: miter"/>
     <use xlink:href="#mf0db2e17ef" x="391.486521" y="165.747443" style="fill: #deebf7; stroke: #ffffff; stroke-width: 0.75; stroke-linejoin: miter"/>
     <use xlink:href="#mf0db2e17ef" x="425.945712" y="163.420889" style="fill: #deebf7; stroke: #ffffff; stroke-width: 0.75; stroke-linejoin: miter"/>
    </g>
   </g>
   <g id="LineCollection_6">
    <path d="M 81.353808 286.442723 
L 81.353808 252.562294 
" clip-path="url(#pe033fbc72f)" style="fill: none; stroke: #deebf7; stroke-width: 1.2; stroke-linecap: round"/>
    <path d="M 115.812998 242.192609 
L 115.812998 218.387514 
" clip-path="url(#pe033fbc72f)" style="fill: none; stroke: #deebf7; stroke-width: 1.2; stroke-linecap: round"/>
    <path d="M 150.272189 216.714154 
L 150.272189 200.822953 
" clip-path="url(#pe033fbc72f)" style="fill: none; stroke: #deebf7; stroke-width: 1.2; stroke-linecap: round"/>
    <path d="M 184.731379 201.868842 
L 184.731379 190.840986 
" clip-path="url(#pe033fbc72f)" style="fill: none; stroke: #deebf7; stroke-width: 1.2; stroke-linecap: round"/>
    <path d="M 219.190569 199.678159 
L 219.190569 183.042201 
" clip-path="url(#pe033fbc72f)" style="fill: none; stroke: #deebf7; stroke-width: 1.2; stroke-linecap: round"/>
    <path d="M 253.64976 185.171247 
L 253.64976 168.175936 
" clip-path="url(#pe033fbc72f)" style="fill: none; stroke: #deebf7; stroke-width: 1.2; stroke-linecap: round"/>
    <path d="M 288.10895 180.584601 
L 288.10895 163.960049 
" clip-path="url(#pe033fbc72f)" style="fill: none; stroke: #deebf7; stroke-width: 1.2; stroke-linecap: round"/>
    <path d="M 322.568141 179.180453 
L 322.568141 158.097421 
" clip-path="url(#pe033fbc72f)" style="fill: none; stroke: #deebf7; stroke-width: 1.2; stroke-linecap: round"/>
    <path d="M 357.027331 176.975456 
L 357.027331 161.138682 
" clip-path="url(#pe033fbc72f)" style="fill: none; stroke: #deebf7; stroke-width: 1.2; stroke-linecap: round"/>
    <path d="M 391.486521 177.340727 
L 391.486521 155.182153 
" clip-path="url(#pe033fbc72f)" style="fill: none; stroke: #deebf7; stroke-width: 1.2; stroke-linecap: round"/>
    <path d="M 425.945712 173.305567 
L 425.945712 154.220927 
" clip-path="url(#pe033fbc72f)" style="fill: none; stroke: #deebf7; stroke-width: 1.2; stroke-linecap: round"/>
   </g>
   <g id="line2d_22"/>
   <g id="line2d_23"/>
   <g id="line2d_24"/>
   <g id="line2d_25"/>
   <g id="line2d_26"/>
   <g id="line2d_27"/>
   <g id="patch_3">
    <path d="M 64.124213 405.675307 
L 64.124213 10.368 
" style="fill: none; stroke: #262626; stroke-linejoin: miter; stroke-linecap: square"/>
   </g>
   <g id="patch_4">
    <path d="M 64.124213 405.675307 
L 443.175307 405.675307 
" style="fill: none; stroke: #262626; stroke-linejoin: miter; stroke-linecap: square"/>
   </g>
  </g>
 </g>
 <defs>
  <clipPath id="pe033fbc72f">
   <rect x="64.124213" y="10.368" width="379.051095" height="395.307307"/>
  </clipPath>
 </defs>
</svg>
