<?xml version="1.0" encoding="utf-8" standalone="no"?>
<!DOCTYPE svg PUBLIC "-//W3C//DTD SVG 1.1//EN"
  "http://www.w3.org/Graphics/SVG/1.1/DTD/svg11.dtd">
<svg xmlns:xlink="http://www.w3.org/1999/xlink" width="283.464567pt" height="255.11811pt" viewBox="0 0 283.464567 255.11811" xmlns="http://www.w3.org/2000/svg" version="1.1">
 <metadata>
  <rdf:RDF xmlns:dc="http://purl.org/dc/elements/1.1/" xmlns:cc="http://creativecommons.org/ns#" xmlns:rdf="http://www.w3.org/1999/02/22-rdf-syntax-ns#">
   <cc:Work>
    <dc:type rdf:resource="http://purl.org/dc/dcmitype/StillImage"/>
    <dc:date>2024-11-05T13:22:46.322289</dc:date>
    <dc:format>image/svg+xml</dc:format>
    <dc:creator>
     <cc:Agent>
      <dc:title>Matplotlib v3.9.2, https://matplotlib.org/</dc:title>
     </cc:Agent>
    </dc:creator>
   </cc:Work>
  </rdf:RDF>
 </metadata>
 <defs>
  <style type="text/css">*{stroke-linejoin: round; stroke-linecap: butt}</style>
 </defs>
 <g id="figure_1">
  <g id="patch_1">
   <path d="M 0 255.11811 
L 283.464567 255.11811 
L 283.464567 0 
L 0 0 
z
" style="fill: #ffffff"/>
  </g>
  <g id="axes_1">
   <g id="patch_2">
    <path d="M 35.433071 227.055118 
L 255.11811 227.055118 
L 255.11811 30.614173 
L 35.433071 30.614173 
z
" style="fill: #ffffff"/>
   </g>
   <g id="matplotlib.axis_1">
    <g id="xtick_1">
     <g id="line2d_1">
      <defs>
       <path id="mc522e61ca8" d="M 0 0 
L 0 6 
" style="stroke: #262626; stroke-width: 1.25"/>
      </defs>
      <g>
       <use xlink:href="#mc522e61ca8" x="38.112157" y="227.055118" style="fill: #262626; stroke: #262626; stroke-width: 1.25"/>
      </g>
     </g>
     <g id="text_1">
      <!-- −2 -->
      <g style="fill: #262626" transform="translate(32.952391 241.874024) scale(0.07 -0.07)">
       <defs>
        <path id="DejaVuSans-2212" d="M 678 2272 
L 4684 2272 
L 4684 1741 
L 678 1741 
L 678 2272 
z
" transform="scale(0.015625)"/>
        <path id="DejaVuSans-32" d="M 1228 531 
L 3431 531 
L 3431 0 
L 469 0 
L 469 531 
Q 828 903 1448 1529 
Q 2069 2156 2228 2338 
Q 2531 2678 2651 2914 
Q 2772 3150 2772 3378 
Q 2772 3750 2511 3984 
Q 2250 4219 1831 4219 
Q 1534 4219 1204 4116 
Q 875 4013 500 3803 
L 500 4441 
Q 881 4594 1212 4672 
Q 1544 4750 1819 4750 
Q 2544 4750 2975 4387 
Q 3406 4025 3406 3419 
Q 3406 3131 3298 2873 
Q 3191 2616 2906 2266 
Q 2828 2175 2409 1742 
Q 1991 1309 1228 531 
z
" transform="scale(0.015625)"/>
       </defs>
       <use xlink:href="#DejaVuSans-2212"/>
       <use xlink:href="#DejaVuSans-32" x="83.789062"/>
      </g>
     </g>
    </g>
    <g id="xtick_2">
     <g id="line2d_2">
      <g>
       <use xlink:href="#mc522e61ca8" x="91.693874" y="227.055118" style="fill: #262626; stroke: #262626; stroke-width: 1.25"/>
      </g>
     </g>
     <g id="text_2">
      <!-- −1 -->
      <g style="fill: #262626" transform="translate(86.534108 241.874024) scale(0.07 -0.07)">
       <defs>
        <path id="DejaVuSans-31" d="M 794 531 
L 1825 531 
L 1825 4091 
L 703 3866 
L 703 4441 
L 1819 4666 
L 2450 4666 
L 2450 531 
L 3481 531 
L 3481 0 
L 794 0 
L 794 531 
z
" transform="scale(0.015625)"/>
       </defs>
       <use xlink:href="#DejaVuSans-2212"/>
       <use xlink:href="#DejaVuSans-31" x="83.789062"/>
      </g>
     </g>
    </g>
    <g id="xtick_3">
     <g id="line2d_3">
      <g>
       <use xlink:href="#mc522e61ca8" x="145.275591" y="227.055118" style="fill: #262626; stroke: #262626; stroke-width: 1.25"/>
      </g>
     </g>
     <g id="text_3">
      <!-- 0 -->
      <g style="fill: #262626" transform="translate(143.048716 241.874024) scale(0.07 -0.07)">
       <defs>
        <path id="DejaVuSans-30" d="M 2034 4250 
Q 1547 4250 1301 3770 
Q 1056 3291 1056 2328 
Q 1056 1369 1301 889 
Q 1547 409 2034 409 
Q 2525 409 2770 889 
Q 3016 1369 3016 2328 
Q 3016 3291 2770 3770 
Q 2525 4250 2034 4250 
z
M 2034 4750 
Q 2819 4750 3233 4129 
Q 3647 3509 3647 2328 
Q 3647 1150 3233 529 
Q 2819 -91 2034 -91 
Q 1250 -91 836 529 
Q 422 1150 422 2328 
Q 422 3509 836 4129 
Q 1250 4750 2034 4750 
z
" transform="scale(0.015625)"/>
       </defs>
       <use xlink:href="#DejaVuSans-30"/>
      </g>
     </g>
    </g>
    <g id="xtick_4">
     <g id="line2d_4">
      <g>
       <use xlink:href="#mc522e61ca8" x="198.857307" y="227.055118" style="fill: #262626; stroke: #262626; stroke-width: 1.25"/>
      </g>
     </g>
     <g id="text_4">
      <!-- 1 -->
      <g style="fill: #262626" transform="translate(196.630432 241.874024) scale(0.07 -0.07)">
       <use xlink:href="#DejaVuSans-31"/>
      </g>
     </g>
    </g>
    <g id="xtick_5">
     <g id="line2d_5">
      <g>
       <use xlink:href="#mc522e61ca8" x="252.439024" y="227.055118" style="fill: #262626; stroke: #262626; stroke-width: 1.25"/>
      </g>
     </g>
     <g id="text_5">
      <!-- 2 -->
      <g style="fill: #262626" transform="translate(250.212149 241.874024) scale(0.07 -0.07)">
       <use xlink:href="#DejaVuSans-32"/>
      </g>
     </g>
    </g>
    <g id="text_6">
     <!-- x -->
     <g style="fill: #262626" transform="translate(142.908091 253.408556) scale(0.08 -0.08)">
      <defs>
       <path id="DejaVuSans-78" d="M 3513 3500 
L 2247 1797 
L 3578 0 
L 2900 0 
L 1881 1375 
L 863 0 
L 184 0 
L 1544 1831 
L 300 3500 
L 978 3500 
L 1906 2253 
L 2834 3500 
L 3513 3500 
z
" transform="scale(0.015625)"/>
      </defs>
      <use xlink:href="#DejaVuSans-78"/>
     </g>
    </g>
   </g>
   <g id="matplotlib.axis_2">
    <g id="ytick_1">
     <g id="line2d_6">
      <defs>
       <path id="ma335502f33" d="M 0 0 
L -6 0 
" style="stroke: #262626; stroke-width: 1.25"/>
      </defs>
      <g>
       <use xlink:href="#ma335502f33" x="35.433071" y="227.055118" style="fill: #262626; stroke: #262626; stroke-width: 1.25"/>
      </g>
     </g>
     <g id="text_7">
      <!-- 0.0 -->
      <g style="fill: #262626" transform="translate(14.800883 229.714571) scale(0.07 -0.07)">
       <defs>
        <path id="DejaVuSans-2e" d="M 684 794 
L 1344 794 
L 1344 0 
L 684 0 
L 684 794 
z
" transform="scale(0.015625)"/>
       </defs>
       <use xlink:href="#DejaVuSans-30"/>
       <use xlink:href="#DejaVuSans-2e" x="63.623047"/>
       <use xlink:href="#DejaVuSans-30" x="95.410156"/>
      </g>
     </g>
    </g>
    <g id="ytick_2">
     <g id="line2d_7">
      <g>
       <use xlink:href="#ma335502f33" x="35.433071" y="137.76378" style="fill: #262626; stroke: #262626; stroke-width: 1.25"/>
      </g>
     </g>
     <g id="text_8">
      <!-- 0.5 -->
      <g style="fill: #262626" transform="translate(14.800883 140.423233) scale(0.07 -0.07)">
       <defs>
        <path id="DejaVuSans-35" d="M 691 4666 
L 3169 4666 
L 3169 4134 
L 1269 4134 
L 1269 2991 
Q 1406 3038 1543 3061 
Q 1681 3084 1819 3084 
Q 2600 3084 3056 2656 
Q 3513 2228 3513 1497 
Q 3513 744 3044 326 
Q 2575 -91 1722 -91 
Q 1428 -91 1123 -41 
Q 819 9 494 109 
L 494 744 
Q 775 591 1075 516 
Q 1375 441 1709 441 
Q 2250 441 2565 725 
Q 2881 1009 2881 1497 
Q 2881 1984 2565 2268 
Q 2250 2553 1709 2553 
Q 1456 2553 1204 2497 
Q 953 2441 691 2322 
L 691 4666 
z
" transform="scale(0.015625)"/>
       </defs>
       <use xlink:href="#DejaVuSans-30"/>
       <use xlink:href="#DejaVuSans-2e" x="63.623047"/>
       <use xlink:href="#DejaVuSans-35" x="95.410156"/>
      </g>
     </g>
    </g>
    <g id="ytick_3">
     <g id="line2d_8">
      <g>
       <use xlink:href="#ma335502f33" x="35.433071" y="48.472441" style="fill: #262626; stroke: #262626; stroke-width: 1.25"/>
      </g>
     </g>
     <g id="text_9">
      <!-- 1.0 -->
      <g style="fill: #262626" transform="translate(14.800883 51.131894) scale(0.07 -0.07)">
       <use xlink:href="#DejaVuSans-31"/>
       <use xlink:href="#DejaVuSans-2e" x="63.623047"/>
       <use xlink:href="#DejaVuSans-30" x="95.410156"/>
      </g>
     </g>
    </g>
    <g id="text_10">
     <!-- y -->
     <g style="fill: #262626" transform="translate(9.137133 131.202146) rotate(-90) scale(0.08 -0.08)">
      <defs>
       <path id="DejaVuSans-79" d="M 2059 -325 
Q 1816 -950 1584 -1140 
Q 1353 -1331 966 -1331 
L 506 -1331 
L 506 -850 
L 844 -850 
Q 1081 -850 1212 -737 
Q 1344 -625 1503 -206 
L 1606 56 
L 191 3500 
L 800 3500 
L 1894 763 
L 2988 3500 
L 3597 3500 
L 2059 -325 
z
" transform="scale(0.015625)"/>
      </defs>
      <use xlink:href="#DejaVuSans-79"/>
     </g>
    </g>
   </g>
   <g id="line2d_9">
    <defs>
     <path id="mae6285f6e1" d="M 0 0.75 
C 0.198902 0.75 0.389685 0.670975 0.53033 0.53033 
C 0.670975 0.389685 0.75 0.198902 0.75 0 
C 0.75 -0.198902 0.670975 -0.389685 0.53033 -0.53033 
C 0.389685 -0.670975 0.198902 -0.75 0 -0.75 
C -0.198902 -0.75 -0.389685 -0.670975 -0.53033 -0.53033 
C -0.670975 -0.389685 -0.75 -0.198902 -0.75 0 
C -0.75 0.198902 -0.670975 0.389685 -0.53033 0.53033 
C -0.389685 0.670975 -0.198902 0.75 0 0.75 
z
" style="stroke: #4c72b0"/>
    </defs>
    <g clip-path="url(#p393585e8c6)">
     <use xlink:href="#mae6285f6e1" x="40.791243" y="217.735716" style="fill: #4c72b0; stroke: #4c72b0"/>
     <use xlink:href="#mae6285f6e1" x="43.470328" y="216.945762" style="fill: #4c72b0; stroke: #4c72b0"/>
     <use xlink:href="#mae6285f6e1" x="46.149414" y="216.039104" style="fill: #4c72b0; stroke: #4c72b0"/>
     <use xlink:href="#mae6285f6e1" x="48.8285" y="214.988474" style="fill: #4c72b0; stroke: #4c72b0"/>
     <use xlink:href="#mae6285f6e1" x="51.507586" y="213.759342" style="fill: #4c72b0; stroke: #4c72b0"/>
     <use xlink:href="#mae6285f6e1" x="54.186672" y="212.307988" style="fill: #4c72b0; stroke: #4c72b0"/>
     <use xlink:href="#mae6285f6e1" x="56.865758" y="210.579211" style="fill: #4c72b0; stroke: #4c72b0"/>
     <use xlink:href="#mae6285f6e1" x="59.544843" y="208.503801" style="fill: #4c72b0; stroke: #4c72b0"/>
     <use xlink:href="#mae6285f6e1" x="62.223929" y="205.996147" style="fill: #4c72b0; stroke: #4c72b0"/>
     <use xlink:href="#mae6285f6e1" x="64.903015" y="202.95286" style="fill: #4c72b0; stroke: #4c72b0"/>
     <use xlink:href="#mae6285f6e1" x="67.582101" y="199.25411" style="fill: #4c72b0; stroke: #4c72b0"/>
     <use xlink:href="#mae6285f6e1" x="70.261187" y="194.770604" style="fill: #4c72b0; stroke: #4c72b0"/>
     <use xlink:href="#mae6285f6e1" x="72.940273" y="189.380314" style="fill: #4c72b0; stroke: #4c72b0"/>
     <use xlink:href="#mae6285f6e1" x="75.619359" y="182.999025" style="fill: #4c72b0; stroke: #4c72b0"/>
     <use xlink:href="#mae6285f6e1" x="78.298444" y="175.624807" style="fill: #4c72b0; stroke: #4c72b0"/>
     <use xlink:href="#mae6285f6e1" x="80.97753" y="167.386156" style="fill: #4c72b0; stroke: #4c72b0"/>
     <use xlink:href="#mae6285f6e1" x="83.656616" y="158.569182" style="fill: #4c72b0; stroke: #4c72b0"/>
     <use xlink:href="#mae6285f6e1" x="86.335702" y="149.593863" style="fill: #4c72b0; stroke: #4c72b0"/>
     <use xlink:href="#mae6285f6e1" x="89.014788" y="140.929913" style="fill: #4c72b0; stroke: #4c72b0"/>
     <use xlink:href="#mae6285f6e1" x="91.693874" y="132.984191" style="fill: #4c72b0; stroke: #4c72b0"/>
     <use xlink:href="#mae6285f6e1" x="94.372959" y="126.016568" style="fill: #4c72b0; stroke: #4c72b0"/>
     <use xlink:href="#mae6285f6e1" x="97.052045" y="120.120726" style="fill: #4c72b0; stroke: #4c72b0"/>
     <use xlink:href="#mae6285f6e1" x="99.731131" y="115.261063" style="fill: #4c72b0; stroke: #4c72b0"/>
     <use xlink:href="#mae6285f6e1" x="102.410217" y="111.330034" style="fill: #4c72b0; stroke: #4c72b0"/>
     <use xlink:href="#mae6285f6e1" x="105.089303" y="108.195526" style="fill: #4c72b0; stroke: #4c72b0"/>
     <use xlink:href="#mae6285f6e1" x="107.768389" y="105.727412" style="fill: #4c72b0; stroke: #4c72b0"/>
     <use xlink:href="#mae6285f6e1" x="110.447475" y="103.806946" style="fill: #4c72b0; stroke: #4c72b0"/>
     <use xlink:href="#mae6285f6e1" x="113.12656" y="102.327077" style="fill: #4c72b0; stroke: #4c72b0"/>
     <use xlink:href="#mae6285f6e1" x="115.805646" y="101.189866" style="fill: #4c72b0; stroke: #4c72b0"/>
     <use xlink:href="#mae6285f6e1" x="118.484732" y="100.303987" style="fill: #4c72b0; stroke: #4c72b0"/>
     <use xlink:href="#mae6285f6e1" x="121.163818" y="99.583017" style="fill: #4c72b0; stroke: #4c72b0"/>
     <use xlink:href="#mae6285f6e1" x="123.842904" y="98.944254" style="fill: #4c72b0; stroke: #4c72b0"/>
     <use xlink:href="#mae6285f6e1" x="126.52199" y="98.307642" style="fill: #4c72b0; stroke: #4c72b0"/>
     <use xlink:href="#mae6285f6e1" x="129.201075" y="97.594589" style="fill: #4c72b0; stroke: #4c72b0"/>
     <use xlink:href="#mae6285f6e1" x="131.880161" y="96.726774" style="fill: #4c72b0; stroke: #4c72b0"/>
     <use xlink:href="#mae6285f6e1" x="134.559247" y="95.62534" style="fill: #4c72b0; stroke: #4c72b0"/>
     <use xlink:href="#mae6285f6e1" x="137.238333" y="94.211278" style="fill: #4c72b0; stroke: #4c72b0"/>
     <use xlink:href="#mae6285f6e1" x="139.917419" y="92.408192" style="fill: #4c72b0; stroke: #4c72b0"/>
     <use xlink:href="#mae6285f6e1" x="142.596505" y="90.149087" style="fill: #4c72b0; stroke: #4c72b0"/>
     <use xlink:href="#mae6285f6e1" x="145.275591" y="87.388942" style="fill: #4c72b0; stroke: #4c72b0"/>
     <use xlink:href="#mae6285f6e1" x="147.954676" y="84.123888" style="fill: #4c72b0; stroke: #4c72b0"/>
     <use xlink:href="#mae6285f6e1" x="150.633762" y="80.414491" style="fill: #4c72b0; stroke: #4c72b0"/>
     <use xlink:href="#mae6285f6e1" x="153.312848" y="76.404137" style="fill: #4c72b0; stroke: #4c72b0"/>
     <use xlink:href="#mae6285f6e1" x="155.991934" y="72.316288" style="fill: #4c72b0; stroke: #4c72b0"/>
     <use xlink:href="#mae6285f6e1" x="158.67102" y="68.415956" style="fill: #4c72b0; stroke: #4c72b0"/>
     <use xlink:href="#mae6285f6e1" x="161.350106" y="64.941012" style="fill: #4c72b0; stroke: #4c72b0"/>
     <use xlink:href="#mae6285f6e1" x="164.029191" y="62.03751" style="fill: #4c72b0; stroke: #4c72b0"/>
     <use xlink:href="#mae6285f6e1" x="166.708277" y="59.736826" style="fill: #4c72b0; stroke: #4c72b0"/>
     <use xlink:href="#mae6285f6e1" x="169.387363" y="57.980071" style="fill: #4c72b0; stroke: #4c72b0"/>
     <use xlink:href="#mae6285f6e1" x="172.066449" y="56.662808" style="fill: #4c72b0; stroke: #4c72b0"/>
     <use xlink:href="#mae6285f6e1" x="174.745535" y="55.672132" style="fill: #4c72b0; stroke: #4c72b0"/>
     <use xlink:href="#mae6285f6e1" x="177.424621" y="54.906726" style="fill: #4c72b0; stroke: #4c72b0"/>
     <use xlink:href="#mae6285f6e1" x="180.103707" y="54.284076" style="fill: #4c72b0; stroke: #4c72b0"/>
     <use xlink:href="#mae6285f6e1" x="182.782792" y="53.741413" style="fill: #4c72b0; stroke: #4c72b0"/>
     <use xlink:href="#mae6285f6e1" x="185.461878" y="53.234419" style="fill: #4c72b0; stroke: #4c72b0"/>
     <use xlink:href="#mae6285f6e1" x="188.140964" y="52.735195" style="fill: #4c72b0; stroke: #4c72b0"/>
     <use xlink:href="#mae6285f6e1" x="190.82005" y="52.229908" style="fill: #4c72b0; stroke: #4c72b0"/>
     <use xlink:href="#mae6285f6e1" x="193.499136" y="51.71617" style="fill: #4c72b0; stroke: #4c72b0"/>
     <use xlink:href="#mae6285f6e1" x="196.178222" y="51.200234" style="fill: #4c72b0; stroke: #4c72b0"/>
     <use xlink:href="#mae6285f6e1" x="198.857307" y="50.694141" style="fill: #4c72b0; stroke: #4c72b0"/>
     <use xlink:href="#mae6285f6e1" x="201.536393" y="50.212961" style="fill: #4c72b0; stroke: #4c72b0"/>
     <use xlink:href="#mae6285f6e1" x="204.215479" y="49.772275" style="fill: #4c72b0; stroke: #4c72b0"/>
     <use xlink:href="#mae6285f6e1" x="206.894565" y="49.386017" style="fill: #4c72b0; stroke: #4c72b0"/>
     <use xlink:href="#mae6285f6e1" x="209.573651" y="49.064751" style="fill: #4c72b0; stroke: #4c72b0"/>
     <use xlink:href="#mae6285f6e1" x="212.252737" y="48.814498" style="fill: #4c72b0; stroke: #4c72b0"/>
     <use xlink:href="#mae6285f6e1" x="214.931823" y="48.63618" style="fill: #4c72b0; stroke: #4c72b0"/>
     <use xlink:href="#mae6285f6e1" x="217.610908" y="48.525733" style="fill: #4c72b0; stroke: #4c72b0"/>
     <use xlink:href="#mae6285f6e1" x="220.289994" y="48.474884" style="fill: #4c72b0; stroke: #4c72b0"/>
     <use xlink:href="#mae6285f6e1" x="222.96908" y="48.472441" style="fill: #4c72b0; stroke: #4c72b0"/>
     <use xlink:href="#mae6285f6e1" x="225.648166" y="48.505879" style="fill: #4c72b0; stroke: #4c72b0"/>
     <use xlink:href="#mae6285f6e1" x="228.327252" y="48.562921" style="fill: #4c72b0; stroke: #4c72b0"/>
     <use xlink:href="#mae6285f6e1" x="231.006338" y="48.63285" style="fill: #4c72b0; stroke: #4c72b0"/>
     <use xlink:href="#mae6285f6e1" x="233.685423" y="48.707369" style="fill: #4c72b0; stroke: #4c72b0"/>
     <use xlink:href="#mae6285f6e1" x="236.364509" y="48.78097" style="fill: #4c72b0; stroke: #4c72b0"/>
     <use xlink:href="#mae6285f6e1" x="239.043595" y="48.850856" style="fill: #4c72b0; stroke: #4c72b0"/>
     <use xlink:href="#mae6285f6e1" x="241.722681" y="48.916561" style="fill: #4c72b0; stroke: #4c72b0"/>
     <use xlink:href="#mae6285f6e1" x="244.401767" y="48.979399" style="fill: #4c72b0; stroke: #4c72b0"/>
     <use xlink:href="#mae6285f6e1" x="247.080853" y="49.041884" style="fill: #4c72b0; stroke: #4c72b0"/>
     <use xlink:href="#mae6285f6e1" x="249.759939" y="49.107193" style="fill: #4c72b0; stroke: #4c72b0"/>
     <use xlink:href="#mae6285f6e1" x="252.439024" y="49.178735" style="fill: #4c72b0; stroke: #4c72b0"/>
    </g>
   </g>
   <g id="line2d_10">
    <path d="M 40.791243 241.210578 
L 43.470328 218.729301 
L 46.149414 245.519273 
L 48.8285 219.957166 
L 51.507586 197.390165 
L 54.186672 212.383768 
L 56.865758 202.475216 
L 59.544843 221.029491 
L 62.223929 202.7751 
L 64.903015 213.985569 
L 67.582101 195.014028 
L 70.261187 204.887739 
L 72.940273 194.857416 
L 75.619359 173.447886 
L 78.298444 167.682516 
L 80.97753 171.875165 
L 83.656616 162.777053 
L 86.335702 160.005122 
L 89.014788 127.596571 
L 91.693874 129.741103 
L 94.372959 126.030739 
L 97.052045 105.829087 
L 99.731131 110.505061 
L 102.410217 129.385984 
L 105.089303 102.053886 
L 107.768389 98.412041 
L 110.447475 94.935276 
L 113.12656 94.081997 
L 115.805646 98.031472 
L 118.484732 106.933937 
L 121.163818 106.356379 
L 123.842904 104.791585 
L 126.52199 92.570319 
L 129.201075 94.393502 
L 131.880161 103.54808 
L 134.559247 93.879881 
L 137.238333 91.231541 
L 139.917419 94.513343 
L 142.596505 103.544027 
L 145.275591 87.718098 
L 147.954676 98.606254 
L 150.633762 76.476673 
L 153.312848 70.637469 
L 155.991934 75.718667 
L 158.67102 58.88543 
L 161.350106 64.320258 
L 164.029191 64.074634 
L 166.708277 55.618783 
L 169.387363 55.528161 
L 172.066449 66.190672 
L 174.745535 63.762799 
L 177.424621 55.514555 
L 180.103707 45.613335 
L 182.782792 58.161499 
L 185.461878 54.486193 
L 188.140964 60.419327 
L 190.82005 43.733572 
L 193.499136 50.78103 
L 196.178222 33.698105 
L 198.857307 60.588171 
L 201.536393 56.784433 
L 204.215479 59.406014 
L 206.894565 64.452681 
L 209.573651 54.496933 
L 212.252737 60.112014 
L 214.931823 51.299242 
L 217.610908 32.592683 
L 220.289994 31.262552 
L 222.96908 39.144447 
L 225.648166 36.716561 
L 228.327252 64.216655 
L 231.006338 60.167572 
L 233.685423 45.073623 
L 236.364509 55.36783 
L 239.043595 58.571294 
L 241.722681 47.3491 
L 244.401767 43.847956 
L 247.080853 55.573803 
L 249.759939 57.940916 
L 252.439024 49.866625 
" clip-path="url(#p393585e8c6)" style="fill: none; stroke: #ffa500; stroke-width: 1.5; stroke-linecap: round"/>
   </g>
   <g id="patch_3">
    <path d="M 35.433071 227.055118 
L 35.433071 30.614173 
" style="fill: none; stroke: #262626; stroke-width: 1.25; stroke-linejoin: miter; stroke-linecap: square"/>
   </g>
   <g id="patch_4">
    <path d="M 255.11811 227.055118 
L 255.11811 30.614173 
" style="fill: none; stroke: #262626; stroke-width: 1.25; stroke-linejoin: miter; stroke-linecap: square"/>
   </g>
   <g id="patch_5">
    <path d="M 35.433071 227.055118 
L 255.11811 227.055118 
" style="fill: none; stroke: #262626; stroke-width: 1.25; stroke-linejoin: miter; stroke-linecap: square"/>
   </g>
   <g id="patch_6">
    <path d="M 35.433071 30.614173 
L 255.11811 30.614173 
" style="fill: none; stroke: #262626; stroke-width: 1.25; stroke-linejoin: miter; stroke-linecap: square"/>
   </g>
  </g>
 </g>
 <defs>
  <clipPath id="p393585e8c6">
   <rect x="35.433071" y="30.614173" width="219.685039" height="196.440945"/>
  </clipPath>
 </defs>
</svg>
