<?xml version="1.0" encoding="utf-8" standalone="no"?>
<!DOCTYPE svg PUBLIC "-//W3C//DTD SVG 1.1//EN"
  "http://www.w3.org/Graphics/SVG/1.1/DTD/svg11.dtd">
<svg xmlns:xlink="http://www.w3.org/1999/xlink" width="453.543307pt" height="453.543307pt" viewBox="0 0 453.543307 453.543307" xmlns="http://www.w3.org/2000/svg" version="1.1">
 <metadata>
  <rdf:RDF xmlns:dc="http://purl.org/dc/elements/1.1/" xmlns:cc="http://creativecommons.org/ns#" xmlns:rdf="http://www.w3.org/1999/02/22-rdf-syntax-ns#">
   <cc:Work>
    <dc:type rdf:resource="http://purl.org/dc/dcmitype/StillImage"/>
    <dc:date>2025-06-11T15:22:29.058523</dc:date>
    <dc:format>image/svg+xml</dc:format>
    <dc:creator>
     <cc:Agent>
      <dc:title>Matplotlib v3.10.3, https://matplotlib.org/</dc:title>
     </cc:Agent>
    </dc:creator>
   </cc:Work>
  </rdf:RDF>
 </metadata>
 <defs>
  <style type="text/css">*{stroke-linejoin: round; stroke-linecap: butt}</style>
 </defs>
 <g id="figure_1">
  <g id="patch_1">
   <path d="M 0 453.543307 
L 453.543307 453.543307 
L 453.543307 0 
L 0 0 
z
" style="fill: #ffffff"/>
  </g>
  <g id="axes_1">
   <g id="patch_2">
    <path d="M 69.444018 405.103307 
L 442.743307 405.103307 
L 442.743307 29.832 
L 69.444018 29.832 
z
" style="fill: #ffffff"/>
   </g>
   <g id="matplotlib.axis_1">
    <g id="xtick_1">
     <g id="line2d_1">
      <defs>
       <path id="mb8a4b74acd" d="M 0 0 
L 0 3.5 
" style="stroke: #000000; stroke-width: 0.8"/>
      </defs>
      <g>
       <use xlink:href="#mb8a4b74acd" x="86.412168" y="405.103307" style="stroke: #000000; stroke-width: 0.8"/>
      </g>
     </g>
     <g id="text_1">
      <!-- 0.0 -->
      <g transform="translate(76.870293 421.221432) scale(0.12 -0.12)">
       <defs>
        <path id="DejaVuSans-30" d="M 2034 4250 
Q 1547 4250 1301 3770 
Q 1056 3291 1056 2328 
Q 1056 1369 1301 889 
Q 1547 409 2034 409 
Q 2525 409 2770 889 
Q 3016 1369 3016 2328 
Q 3016 3291 2770 3770 
Q 2525 4250 2034 4250 
z
M 2034 4750 
Q 2819 4750 3233 4129 
Q 3647 3509 3647 2328 
Q 3647 1150 3233 529 
Q 2819 -91 2034 -91 
Q 1250 -91 836 529 
Q 422 1150 422 2328 
Q 422 3509 836 4129 
Q 1250 4750 2034 4750 
z
" transform="scale(0.015625)"/>
        <path id="DejaVuSans-2e" d="M 684 794 
L 1344 794 
L 1344 0 
L 684 0 
L 684 794 
z
" transform="scale(0.015625)"/>
       </defs>
       <use xlink:href="#DejaVuSans-30"/>
       <use xlink:href="#DejaVuSans-2e" transform="translate(63.623047 0)"/>
       <use xlink:href="#DejaVuSans-30" transform="translate(95.410156 0)"/>
      </g>
     </g>
    </g>
    <g id="xtick_2">
     <g id="line2d_2">
      <g>
       <use xlink:href="#mb8a4b74acd" x="120.348467" y="405.103307" style="stroke: #000000; stroke-width: 0.8"/>
      </g>
     </g>
     <g id="text_2">
      <!-- 0.02 -->
      <g transform="translate(106.989092 421.221432) scale(0.12 -0.12)">
       <defs>
        <path id="DejaVuSans-32" d="M 1228 531 
L 3431 531 
L 3431 0 
L 469 0 
L 469 531 
Q 828 903 1448 1529 
Q 2069 2156 2228 2338 
Q 2531 2678 2651 2914 
Q 2772 3150 2772 3378 
Q 2772 3750 2511 3984 
Q 2250 4219 1831 4219 
Q 1534 4219 1204 4116 
Q 875 4013 500 3803 
L 500 4441 
Q 881 4594 1212 4672 
Q 1544 4750 1819 4750 
Q 2544 4750 2975 4387 
Q 3406 4025 3406 3419 
Q 3406 3131 3298 2873 
Q 3191 2616 2906 2266 
Q 2828 2175 2409 1742 
Q 1991 1309 1228 531 
z
" transform="scale(0.015625)"/>
       </defs>
       <use xlink:href="#DejaVuSans-30"/>
       <use xlink:href="#DejaVuSans-2e" transform="translate(63.623047 0)"/>
       <use xlink:href="#DejaVuSans-30" transform="translate(95.410156 0)"/>
       <use xlink:href="#DejaVuSans-32" transform="translate(159.033203 0)"/>
      </g>
     </g>
    </g>
    <g id="xtick_3">
     <g id="line2d_3">
      <g>
       <use xlink:href="#mb8a4b74acd" x="154.284766" y="405.103307" style="stroke: #000000; stroke-width: 0.8"/>
      </g>
     </g>
     <g id="text_3">
      <!-- 0.04 -->
      <g transform="translate(140.925391 421.221432) scale(0.12 -0.12)">
       <defs>
        <path id="DejaVuSans-34" d="M 2419 4116 
L 825 1625 
L 2419 1625 
L 2419 4116 
z
M 2253 4666 
L 3047 4666 
L 3047 1625 
L 3713 1625 
L 3713 1100 
L 3047 1100 
L 3047 0 
L 2419 0 
L 2419 1100 
L 313 1100 
L 313 1709 
L 2253 4666 
z
" transform="scale(0.015625)"/>
       </defs>
       <use xlink:href="#DejaVuSans-30"/>
       <use xlink:href="#DejaVuSans-2e" transform="translate(63.623047 0)"/>
       <use xlink:href="#DejaVuSans-30" transform="translate(95.410156 0)"/>
       <use xlink:href="#DejaVuSans-34" transform="translate(159.033203 0)"/>
      </g>
     </g>
    </g>
    <g id="xtick_4">
     <g id="line2d_4">
      <g>
       <use xlink:href="#mb8a4b74acd" x="188.221065" y="405.103307" style="stroke: #000000; stroke-width: 0.8"/>
      </g>
     </g>
     <g id="text_4">
      <!-- 0.06 -->
      <g transform="translate(174.86169 421.221432) scale(0.12 -0.12)">
       <defs>
        <path id="DejaVuSans-36" d="M 2113 2584 
Q 1688 2584 1439 2293 
Q 1191 2003 1191 1497 
Q 1191 994 1439 701 
Q 1688 409 2113 409 
Q 2538 409 2786 701 
Q 3034 994 3034 1497 
Q 3034 2003 2786 2293 
Q 2538 2584 2113 2584 
z
M 3366 4563 
L 3366 3988 
Q 3128 4100 2886 4159 
Q 2644 4219 2406 4219 
Q 1781 4219 1451 3797 
Q 1122 3375 1075 2522 
Q 1259 2794 1537 2939 
Q 1816 3084 2150 3084 
Q 2853 3084 3261 2657 
Q 3669 2231 3669 1497 
Q 3669 778 3244 343 
Q 2819 -91 2113 -91 
Q 1303 -91 875 529 
Q 447 1150 447 2328 
Q 447 3434 972 4092 
Q 1497 4750 2381 4750 
Q 2619 4750 2861 4703 
Q 3103 4656 3366 4563 
z
" transform="scale(0.015625)"/>
       </defs>
       <use xlink:href="#DejaVuSans-30"/>
       <use xlink:href="#DejaVuSans-2e" transform="translate(63.623047 0)"/>
       <use xlink:href="#DejaVuSans-30" transform="translate(95.410156 0)"/>
       <use xlink:href="#DejaVuSans-36" transform="translate(159.033203 0)"/>
      </g>
     </g>
    </g>
    <g id="xtick_5">
     <g id="line2d_5">
      <g>
       <use xlink:href="#mb8a4b74acd" x="222.157364" y="405.103307" style="stroke: #000000; stroke-width: 0.8"/>
      </g>
     </g>
     <g id="text_5">
      <!-- 0.08 -->
      <g transform="translate(208.797989 421.221432) scale(0.12 -0.12)">
       <defs>
        <path id="DejaVuSans-38" d="M 2034 2216 
Q 1584 2216 1326 1975 
Q 1069 1734 1069 1313 
Q 1069 891 1326 650 
Q 1584 409 2034 409 
Q 2484 409 2743 651 
Q 3003 894 3003 1313 
Q 3003 1734 2745 1975 
Q 2488 2216 2034 2216 
z
M 1403 2484 
Q 997 2584 770 2862 
Q 544 3141 544 3541 
Q 544 4100 942 4425 
Q 1341 4750 2034 4750 
Q 2731 4750 3128 4425 
Q 3525 4100 3525 3541 
Q 3525 3141 3298 2862 
Q 3072 2584 2669 2484 
Q 3125 2378 3379 2068 
Q 3634 1759 3634 1313 
Q 3634 634 3220 271 
Q 2806 -91 2034 -91 
Q 1263 -91 848 271 
Q 434 634 434 1313 
Q 434 1759 690 2068 
Q 947 2378 1403 2484 
z
M 1172 3481 
Q 1172 3119 1398 2916 
Q 1625 2713 2034 2713 
Q 2441 2713 2670 2916 
Q 2900 3119 2900 3481 
Q 2900 3844 2670 4047 
Q 2441 4250 2034 4250 
Q 1625 4250 1398 4047 
Q 1172 3844 1172 3481 
z
" transform="scale(0.015625)"/>
       </defs>
       <use xlink:href="#DejaVuSans-30"/>
       <use xlink:href="#DejaVuSans-2e" transform="translate(63.623047 0)"/>
       <use xlink:href="#DejaVuSans-30" transform="translate(95.410156 0)"/>
       <use xlink:href="#DejaVuSans-38" transform="translate(159.033203 0)"/>
      </g>
     </g>
    </g>
    <g id="xtick_6">
     <g id="line2d_6">
      <g>
       <use xlink:href="#mb8a4b74acd" x="256.093663" y="405.103307" style="stroke: #000000; stroke-width: 0.8"/>
      </g>
     </g>
     <g id="text_6">
      <!-- 0.1 -->
      <g transform="translate(246.551788 421.221432) scale(0.12 -0.12)">
       <defs>
        <path id="DejaVuSans-31" d="M 794 531 
L 1825 531 
L 1825 4091 
L 703 3866 
L 703 4441 
L 1819 4666 
L 2450 4666 
L 2450 531 
L 3481 531 
L 3481 0 
L 794 0 
L 794 531 
z
" transform="scale(0.015625)"/>
       </defs>
       <use xlink:href="#DejaVuSans-30"/>
       <use xlink:href="#DejaVuSans-2e" transform="translate(63.623047 0)"/>
       <use xlink:href="#DejaVuSans-31" transform="translate(95.410156 0)"/>
      </g>
     </g>
    </g>
    <g id="xtick_7">
     <g id="line2d_7">
      <g>
       <use xlink:href="#mb8a4b74acd" x="290.029962" y="405.103307" style="stroke: #000000; stroke-width: 0.8"/>
      </g>
     </g>
     <g id="text_7">
      <!-- 0.12 -->
      <g transform="translate(276.670587 421.221432) scale(0.12 -0.12)">
       <use xlink:href="#DejaVuSans-30"/>
       <use xlink:href="#DejaVuSans-2e" transform="translate(63.623047 0)"/>
       <use xlink:href="#DejaVuSans-31" transform="translate(95.410156 0)"/>
       <use xlink:href="#DejaVuSans-32" transform="translate(159.033203 0)"/>
      </g>
     </g>
    </g>
    <g id="xtick_8">
     <g id="line2d_8">
      <g>
       <use xlink:href="#mb8a4b74acd" x="323.966261" y="405.103307" style="stroke: #000000; stroke-width: 0.8"/>
      </g>
     </g>
     <g id="text_8">
      <!-- 0.14 -->
      <g transform="translate(310.606886 421.221432) scale(0.12 -0.12)">
       <use xlink:href="#DejaVuSans-30"/>
       <use xlink:href="#DejaVuSans-2e" transform="translate(63.623047 0)"/>
       <use xlink:href="#DejaVuSans-31" transform="translate(95.410156 0)"/>
       <use xlink:href="#DejaVuSans-34" transform="translate(159.033203 0)"/>
      </g>
     </g>
    </g>
    <g id="xtick_9">
     <g id="line2d_9">
      <g>
       <use xlink:href="#mb8a4b74acd" x="357.90256" y="405.103307" style="stroke: #000000; stroke-width: 0.8"/>
      </g>
     </g>
     <g id="text_9">
      <!-- 0.16 -->
      <g transform="translate(344.543185 421.221432) scale(0.12 -0.12)">
       <use xlink:href="#DejaVuSans-30"/>
       <use xlink:href="#DejaVuSans-2e" transform="translate(63.623047 0)"/>
       <use xlink:href="#DejaVuSans-31" transform="translate(95.410156 0)"/>
       <use xlink:href="#DejaVuSans-36" transform="translate(159.033203 0)"/>
      </g>
     </g>
    </g>
    <g id="xtick_10">
     <g id="line2d_10">
      <g>
       <use xlink:href="#mb8a4b74acd" x="391.838859" y="405.103307" style="stroke: #000000; stroke-width: 0.8"/>
      </g>
     </g>
     <g id="text_10">
      <!-- 0.18 -->
      <g transform="translate(378.479484 421.221432) scale(0.12 -0.12)">
       <use xlink:href="#DejaVuSans-30"/>
       <use xlink:href="#DejaVuSans-2e" transform="translate(63.623047 0)"/>
       <use xlink:href="#DejaVuSans-31" transform="translate(95.410156 0)"/>
       <use xlink:href="#DejaVuSans-38" transform="translate(159.033203 0)"/>
      </g>
     </g>
    </g>
    <g id="xtick_11">
     <g id="line2d_11">
      <g>
       <use xlink:href="#mb8a4b74acd" x="425.775158" y="405.103307" style="stroke: #000000; stroke-width: 0.8"/>
      </g>
     </g>
     <g id="text_11">
      <!-- 0.2 -->
      <g transform="translate(416.233283 421.221432) scale(0.12 -0.12)">
       <use xlink:href="#DejaVuSans-30"/>
       <use xlink:href="#DejaVuSans-2e" transform="translate(63.623047 0)"/>
       <use xlink:href="#DejaVuSans-32" transform="translate(95.410156 0)"/>
      </g>
     </g>
    </g>
    <g id="text_12">
     <!-- $\sigma$ -->
     <g transform="translate(251.613663 438.35487) scale(0.14 -0.14)">
      <defs>
       <path id="DejaVuSans-Oblique-3c3" d="M 2219 3044 
Q 1744 3044 1422 2700 
Q 1081 2341 969 1747 
Q 844 1119 1044 756 
Q 1241 397 1706 397 
Q 2166 397 2503 759 
Q 2844 1122 2966 1747 
Q 3075 2319 2881 2700 
Q 2700 3044 2219 3044 
z
M 2309 3503 
L 4219 3500 
L 4106 2925 
L 3463 2925 
Q 3706 2438 3575 1747 
Q 3406 888 2884 400 
Q 2359 -91 1609 -91 
Q 856 -91 525 400 
Q 194 888 363 1747 
Q 528 2609 1050 3097 
Q 1484 3503 2309 3503 
z
" transform="scale(0.015625)"/>
      </defs>
      <use xlink:href="#DejaVuSans-Oblique-3c3" transform="translate(0 0.265625)"/>
     </g>
    </g>
   </g>
   <g id="matplotlib.axis_2">
    <g id="ytick_1">
     <g id="line2d_12">
      <defs>
       <path id="ma0eac88c7d" d="M 0 0 
L -3.5 0 
" style="stroke: #000000; stroke-width: 0.8"/>
      </defs>
      <g>
       <use xlink:href="#ma0eac88c7d" x="69.444018" y="405.103307" style="stroke: #000000; stroke-width: 0.8"/>
      </g>
     </g>
     <g id="text_13">
      <!-- $\mathdefault{10^{-17}}$ -->
      <g transform="translate(28.964018 409.66237) scale(0.12 -0.12)">
       <defs>
        <path id="DejaVuSans-2212" d="M 678 2272 
L 4684 2272 
L 4684 1741 
L 678 1741 
L 678 2272 
z
" transform="scale(0.015625)"/>
        <path id="DejaVuSans-37" d="M 525 4666 
L 3525 4666 
L 3525 4397 
L 1831 0 
L 1172 0 
L 2766 4134 
L 525 4134 
L 525 4666 
z
" transform="scale(0.015625)"/>
       </defs>
       <use xlink:href="#DejaVuSans-31" transform="translate(0 0.684375)"/>
       <use xlink:href="#DejaVuSans-30" transform="translate(63.623047 0.684375)"/>
       <use xlink:href="#DejaVuSans-2212" transform="translate(128.203125 38.965625) scale(0.7)"/>
       <use xlink:href="#DejaVuSans-31" transform="translate(186.855469 38.965625) scale(0.7)"/>
       <use xlink:href="#DejaVuSans-37" transform="translate(231.391602 38.965625) scale(0.7)"/>
      </g>
     </g>
    </g>
    <g id="ytick_2">
     <g id="line2d_13">
      <g>
       <use xlink:href="#ma0eac88c7d" x="69.444018" y="342.558089" style="stroke: #000000; stroke-width: 0.8"/>
      </g>
     </g>
     <g id="text_14">
      <!-- $\mathdefault{10^{-14}}$ -->
      <g transform="translate(28.964018 347.117152) scale(0.12 -0.12)">
       <use xlink:href="#DejaVuSans-31" transform="translate(0 0.684375)"/>
       <use xlink:href="#DejaVuSans-30" transform="translate(63.623047 0.684375)"/>
       <use xlink:href="#DejaVuSans-2212" transform="translate(128.203125 38.965625) scale(0.7)"/>
       <use xlink:href="#DejaVuSans-31" transform="translate(186.855469 38.965625) scale(0.7)"/>
       <use xlink:href="#DejaVuSans-34" transform="translate(231.391602 38.965625) scale(0.7)"/>
      </g>
     </g>
    </g>
    <g id="ytick_3">
     <g id="line2d_14">
      <g>
       <use xlink:href="#ma0eac88c7d" x="69.444018" y="280.012871" style="stroke: #000000; stroke-width: 0.8"/>
      </g>
     </g>
     <g id="text_15">
      <!-- $\mathdefault{10^{-11}}$ -->
      <g transform="translate(28.964018 284.571934) scale(0.12 -0.12)">
       <use xlink:href="#DejaVuSans-31" transform="translate(0 0.684375)"/>
       <use xlink:href="#DejaVuSans-30" transform="translate(63.623047 0.684375)"/>
       <use xlink:href="#DejaVuSans-2212" transform="translate(128.203125 38.965625) scale(0.7)"/>
       <use xlink:href="#DejaVuSans-31" transform="translate(186.855469 38.965625) scale(0.7)"/>
       <use xlink:href="#DejaVuSans-31" transform="translate(231.391602 38.965625) scale(0.7)"/>
      </g>
     </g>
    </g>
    <g id="ytick_4">
     <g id="line2d_15">
      <g>
       <use xlink:href="#ma0eac88c7d" x="69.444018" y="217.467654" style="stroke: #000000; stroke-width: 0.8"/>
      </g>
     </g>
     <g id="text_16">
      <!-- $\mathdefault{10^{-8}}$ -->
      <g transform="translate(34.244018 222.026716) scale(0.12 -0.12)">
       <use xlink:href="#DejaVuSans-31" transform="translate(0 0.765625)"/>
       <use xlink:href="#DejaVuSans-30" transform="translate(63.623047 0.765625)"/>
       <use xlink:href="#DejaVuSans-2212" transform="translate(128.203125 39.046875) scale(0.7)"/>
       <use xlink:href="#DejaVuSans-38" transform="translate(186.855469 39.046875) scale(0.7)"/>
      </g>
     </g>
    </g>
    <g id="ytick_5">
     <g id="line2d_16">
      <g>
       <use xlink:href="#ma0eac88c7d" x="69.444018" y="154.922436" style="stroke: #000000; stroke-width: 0.8"/>
      </g>
     </g>
     <g id="text_17">
      <!-- $\mathdefault{10^{-5}}$ -->
      <g transform="translate(34.244018 159.481498) scale(0.12 -0.12)">
       <defs>
        <path id="DejaVuSans-35" d="M 691 4666 
L 3169 4666 
L 3169 4134 
L 1269 4134 
L 1269 2991 
Q 1406 3038 1543 3061 
Q 1681 3084 1819 3084 
Q 2600 3084 3056 2656 
Q 3513 2228 3513 1497 
Q 3513 744 3044 326 
Q 2575 -91 1722 -91 
Q 1428 -91 1123 -41 
Q 819 9 494 109 
L 494 744 
Q 775 591 1075 516 
Q 1375 441 1709 441 
Q 2250 441 2565 725 
Q 2881 1009 2881 1497 
Q 2881 1984 2565 2268 
Q 2250 2553 1709 2553 
Q 1456 2553 1204 2497 
Q 953 2441 691 2322 
L 691 4666 
z
" transform="scale(0.015625)"/>
       </defs>
       <use xlink:href="#DejaVuSans-31" transform="translate(0 0.684375)"/>
       <use xlink:href="#DejaVuSans-30" transform="translate(63.623047 0.684375)"/>
       <use xlink:href="#DejaVuSans-2212" transform="translate(128.203125 38.965625) scale(0.7)"/>
       <use xlink:href="#DejaVuSans-35" transform="translate(186.855469 38.965625) scale(0.7)"/>
      </g>
     </g>
    </g>
    <g id="ytick_6">
     <g id="line2d_17">
      <g>
       <use xlink:href="#ma0eac88c7d" x="69.444018" y="92.377218" style="stroke: #000000; stroke-width: 0.8"/>
      </g>
     </g>
     <g id="text_18">
      <!-- $\mathdefault{10^{-2}}$ -->
      <g transform="translate(34.244018 96.93628) scale(0.12 -0.12)">
       <use xlink:href="#DejaVuSans-31" transform="translate(0 0.765625)"/>
       <use xlink:href="#DejaVuSans-30" transform="translate(63.623047 0.765625)"/>
       <use xlink:href="#DejaVuSans-2212" transform="translate(128.203125 39.046875) scale(0.7)"/>
       <use xlink:href="#DejaVuSans-32" transform="translate(186.855469 39.046875) scale(0.7)"/>
      </g>
     </g>
    </g>
    <g id="ytick_7">
     <g id="line2d_18">
      <g>
       <use xlink:href="#ma0eac88c7d" x="69.444018" y="29.832" style="stroke: #000000; stroke-width: 0.8"/>
      </g>
     </g>
     <g id="text_19">
      <!-- $\mathdefault{10^{1}}$ -->
      <g transform="translate(41.324018 34.391063) scale(0.12 -0.12)">
       <use xlink:href="#DejaVuSans-31" transform="translate(0 0.684375)"/>
       <use xlink:href="#DejaVuSans-30" transform="translate(63.623047 0.684375)"/>
       <use xlink:href="#DejaVuSans-31" transform="translate(128.203125 38.965625) scale(0.7)"/>
      </g>
     </g>
    </g>
    <g id="text_20">
     <!-- rmse approximation -->
     <g transform="translate(22.052456 287.785935) rotate(-90) scale(0.14 -0.14)">
      <defs>
       <path id="DejaVuSans-72" d="M 2631 2963 
Q 2534 3019 2420 3045 
Q 2306 3072 2169 3072 
Q 1681 3072 1420 2755 
Q 1159 2438 1159 1844 
L 1159 0 
L 581 0 
L 581 3500 
L 1159 3500 
L 1159 2956 
Q 1341 3275 1631 3429 
Q 1922 3584 2338 3584 
Q 2397 3584 2469 3576 
Q 2541 3569 2628 3553 
L 2631 2963 
z
" transform="scale(0.015625)"/>
       <path id="DejaVuSans-6d" d="M 3328 2828 
Q 3544 3216 3844 3400 
Q 4144 3584 4550 3584 
Q 5097 3584 5394 3201 
Q 5691 2819 5691 2113 
L 5691 0 
L 5113 0 
L 5113 2094 
Q 5113 2597 4934 2840 
Q 4756 3084 4391 3084 
Q 3944 3084 3684 2787 
Q 3425 2491 3425 1978 
L 3425 0 
L 2847 0 
L 2847 2094 
Q 2847 2600 2669 2842 
Q 2491 3084 2119 3084 
Q 1678 3084 1418 2786 
Q 1159 2488 1159 1978 
L 1159 0 
L 581 0 
L 581 3500 
L 1159 3500 
L 1159 2956 
Q 1356 3278 1631 3431 
Q 1906 3584 2284 3584 
Q 2666 3584 2933 3390 
Q 3200 3197 3328 2828 
z
" transform="scale(0.015625)"/>
       <path id="DejaVuSans-73" d="M 2834 3397 
L 2834 2853 
Q 2591 2978 2328 3040 
Q 2066 3103 1784 3103 
Q 1356 3103 1142 2972 
Q 928 2841 928 2578 
Q 928 2378 1081 2264 
Q 1234 2150 1697 2047 
L 1894 2003 
Q 2506 1872 2764 1633 
Q 3022 1394 3022 966 
Q 3022 478 2636 193 
Q 2250 -91 1575 -91 
Q 1294 -91 989 -36 
Q 684 19 347 128 
L 347 722 
Q 666 556 975 473 
Q 1284 391 1588 391 
Q 1994 391 2212 530 
Q 2431 669 2431 922 
Q 2431 1156 2273 1281 
Q 2116 1406 1581 1522 
L 1381 1569 
Q 847 1681 609 1914 
Q 372 2147 372 2553 
Q 372 3047 722 3315 
Q 1072 3584 1716 3584 
Q 2034 3584 2315 3537 
Q 2597 3491 2834 3397 
z
" transform="scale(0.015625)"/>
       <path id="DejaVuSans-65" d="M 3597 1894 
L 3597 1613 
L 953 1613 
Q 991 1019 1311 708 
Q 1631 397 2203 397 
Q 2534 397 2845 478 
Q 3156 559 3463 722 
L 3463 178 
Q 3153 47 2828 -22 
Q 2503 -91 2169 -91 
Q 1331 -91 842 396 
Q 353 884 353 1716 
Q 353 2575 817 3079 
Q 1281 3584 2069 3584 
Q 2775 3584 3186 3129 
Q 3597 2675 3597 1894 
z
M 3022 2063 
Q 3016 2534 2758 2815 
Q 2500 3097 2075 3097 
Q 1594 3097 1305 2825 
Q 1016 2553 972 2059 
L 3022 2063 
z
" transform="scale(0.015625)"/>
       <path id="DejaVuSans-20" transform="scale(0.015625)"/>
       <path id="DejaVuSans-61" d="M 2194 1759 
Q 1497 1759 1228 1600 
Q 959 1441 959 1056 
Q 959 750 1161 570 
Q 1363 391 1709 391 
Q 2188 391 2477 730 
Q 2766 1069 2766 1631 
L 2766 1759 
L 2194 1759 
z
M 3341 1997 
L 3341 0 
L 2766 0 
L 2766 531 
Q 2569 213 2275 61 
Q 1981 -91 1556 -91 
Q 1019 -91 701 211 
Q 384 513 384 1019 
Q 384 1609 779 1909 
Q 1175 2209 1959 2209 
L 2766 2209 
L 2766 2266 
Q 2766 2663 2505 2880 
Q 2244 3097 1772 3097 
Q 1472 3097 1187 3025 
Q 903 2953 641 2809 
L 641 3341 
Q 956 3463 1253 3523 
Q 1550 3584 1831 3584 
Q 2591 3584 2966 3190 
Q 3341 2797 3341 1997 
z
" transform="scale(0.015625)"/>
       <path id="DejaVuSans-70" d="M 1159 525 
L 1159 -1331 
L 581 -1331 
L 581 3500 
L 1159 3500 
L 1159 2969 
Q 1341 3281 1617 3432 
Q 1894 3584 2278 3584 
Q 2916 3584 3314 3078 
Q 3713 2572 3713 1747 
Q 3713 922 3314 415 
Q 2916 -91 2278 -91 
Q 1894 -91 1617 61 
Q 1341 213 1159 525 
z
M 3116 1747 
Q 3116 2381 2855 2742 
Q 2594 3103 2138 3103 
Q 1681 3103 1420 2742 
Q 1159 2381 1159 1747 
Q 1159 1113 1420 752 
Q 1681 391 2138 391 
Q 2594 391 2855 752 
Q 3116 1113 3116 1747 
z
" transform="scale(0.015625)"/>
       <path id="DejaVuSans-6f" d="M 1959 3097 
Q 1497 3097 1228 2736 
Q 959 2375 959 1747 
Q 959 1119 1226 758 
Q 1494 397 1959 397 
Q 2419 397 2687 759 
Q 2956 1122 2956 1747 
Q 2956 2369 2687 2733 
Q 2419 3097 1959 3097 
z
M 1959 3584 
Q 2709 3584 3137 3096 
Q 3566 2609 3566 1747 
Q 3566 888 3137 398 
Q 2709 -91 1959 -91 
Q 1206 -91 779 398 
Q 353 888 353 1747 
Q 353 2609 779 3096 
Q 1206 3584 1959 3584 
z
" transform="scale(0.015625)"/>
       <path id="DejaVuSans-78" d="M 3513 3500 
L 2247 1797 
L 3578 0 
L 2900 0 
L 1881 1375 
L 863 0 
L 184 0 
L 1544 1831 
L 300 3500 
L 978 3500 
L 1906 2253 
L 2834 3500 
L 3513 3500 
z
" transform="scale(0.015625)"/>
       <path id="DejaVuSans-69" d="M 603 3500 
L 1178 3500 
L 1178 0 
L 603 0 
L 603 3500 
z
M 603 4863 
L 1178 4863 
L 1178 4134 
L 603 4134 
L 603 4863 
z
" transform="scale(0.015625)"/>
       <path id="DejaVuSans-74" d="M 1172 4494 
L 1172 3500 
L 2356 3500 
L 2356 3053 
L 1172 3053 
L 1172 1153 
Q 1172 725 1289 603 
Q 1406 481 1766 481 
L 2356 481 
L 2356 0 
L 1766 0 
Q 1100 0 847 248 
Q 594 497 594 1153 
L 594 3053 
L 172 3053 
L 172 3500 
L 594 3500 
L 594 4494 
L 1172 4494 
z
" transform="scale(0.015625)"/>
       <path id="DejaVuSans-6e" d="M 3513 2113 
L 3513 0 
L 2938 0 
L 2938 2094 
Q 2938 2591 2744 2837 
Q 2550 3084 2163 3084 
Q 1697 3084 1428 2787 
Q 1159 2491 1159 1978 
L 1159 0 
L 581 0 
L 581 3500 
L 1159 3500 
L 1159 2956 
Q 1366 3272 1645 3428 
Q 1925 3584 2291 3584 
Q 2894 3584 3203 3211 
Q 3513 2838 3513 2113 
z
" transform="scale(0.015625)"/>
      </defs>
      <use xlink:href="#DejaVuSans-72"/>
      <use xlink:href="#DejaVuSans-6d" transform="translate(39.363281 0)"/>
      <use xlink:href="#DejaVuSans-73" transform="translate(136.775391 0)"/>
      <use xlink:href="#DejaVuSans-65" transform="translate(188.875 0)"/>
      <use xlink:href="#DejaVuSans-20" transform="translate(250.398438 0)"/>
      <use xlink:href="#DejaVuSans-61" transform="translate(282.185547 0)"/>
      <use xlink:href="#DejaVuSans-70" transform="translate(343.464844 0)"/>
      <use xlink:href="#DejaVuSans-70" transform="translate(406.941406 0)"/>
      <use xlink:href="#DejaVuSans-72" transform="translate(470.417969 0)"/>
      <use xlink:href="#DejaVuSans-6f" transform="translate(509.28125 0)"/>
      <use xlink:href="#DejaVuSans-78" transform="translate(567.337891 0)"/>
      <use xlink:href="#DejaVuSans-69" transform="translate(626.517578 0)"/>
      <use xlink:href="#DejaVuSans-6d" transform="translate(654.300781 0)"/>
      <use xlink:href="#DejaVuSans-61" transform="translate(751.712891 0)"/>
      <use xlink:href="#DejaVuSans-74" transform="translate(812.992188 0)"/>
      <use xlink:href="#DejaVuSans-69" transform="translate(852.201172 0)"/>
      <use xlink:href="#DejaVuSans-6f" transform="translate(879.984375 0)"/>
      <use xlink:href="#DejaVuSans-6e" transform="translate(941.166016 0)"/>
     </g>
    </g>
   </g>
   <g id="line2d_19">
    <path d="M 86.412168 93.271132 
L 120.348467 91.206598 
L 154.284766 90.766664 
L 188.221065 86.836918 
L 222.157364 82.719577 
L 256.093663 83.854262 
L 290.029962 79.750332 
L 323.966261 83.006699 
L 357.90256 75.603727 
L 391.838859 76.599505 
L 425.775158 73.637804 
" clip-path="url(#p8f871e6d01)" style="fill: none; stroke: #de2d26; stroke-width: 2.7; stroke-linecap: square"/>
    <defs>
     <path id="m312acf938a" d="M 0 5 
C 1.326016 5 2.597899 4.473168 3.535534 3.535534 
C 4.473168 2.597899 5 1.326016 5 0 
C 5 -1.326016 4.473168 -2.597899 3.535534 -3.535534 
C 2.597899 -4.473168 1.326016 -5 0 -5 
C -1.326016 -5 -2.597899 -4.473168 -3.535534 -3.535534 
C -4.473168 -2.597899 -5 -1.326016 -5 0 
C -5 1.326016 -4.473168 2.597899 -3.535534 3.535534 
C -2.597899 4.473168 -1.326016 5 0 5 
z
" style="stroke: #de2d26; stroke-width: 2.025"/>
    </defs>
    <g clip-path="url(#p8f871e6d01)">
     <use xlink:href="#m312acf938a" x="86.412168" y="93.271132" style="fill: #de2d26; stroke: #de2d26; stroke-width: 2.025"/>
     <use xlink:href="#m312acf938a" x="120.348467" y="91.206598" style="fill: #de2d26; stroke: #de2d26; stroke-width: 2.025"/>
     <use xlink:href="#m312acf938a" x="154.284766" y="90.766664" style="fill: #de2d26; stroke: #de2d26; stroke-width: 2.025"/>
     <use xlink:href="#m312acf938a" x="188.221065" y="86.836918" style="fill: #de2d26; stroke: #de2d26; stroke-width: 2.025"/>
     <use xlink:href="#m312acf938a" x="222.157364" y="82.719577" style="fill: #de2d26; stroke: #de2d26; stroke-width: 2.025"/>
     <use xlink:href="#m312acf938a" x="256.093663" y="83.854262" style="fill: #de2d26; stroke: #de2d26; stroke-width: 2.025"/>
     <use xlink:href="#m312acf938a" x="290.029962" y="79.750332" style="fill: #de2d26; stroke: #de2d26; stroke-width: 2.025"/>
     <use xlink:href="#m312acf938a" x="323.966261" y="83.006699" style="fill: #de2d26; stroke: #de2d26; stroke-width: 2.025"/>
     <use xlink:href="#m312acf938a" x="357.90256" y="75.603727" style="fill: #de2d26; stroke: #de2d26; stroke-width: 2.025"/>
     <use xlink:href="#m312acf938a" x="391.838859" y="76.599505" style="fill: #de2d26; stroke: #de2d26; stroke-width: 2.025"/>
     <use xlink:href="#m312acf938a" x="425.775158" y="73.637804" style="fill: #de2d26; stroke: #de2d26; stroke-width: 2.025"/>
    </g>
   </g>
   <g id="line2d_20">
    <path d="M 86.412168 95.000719 
L 86.412168 91.141302 
" clip-path="url(#p8f871e6d01)" style="fill: none; stroke: #de2d26; stroke-width: 2.7; stroke-linecap: square"/>
   </g>
   <g id="line2d_21">
    <path d="M 120.348467 92.872045 
L 120.348467 89.615833 
" clip-path="url(#p8f871e6d01)" style="fill: none; stroke: #de2d26; stroke-width: 2.7; stroke-linecap: square"/>
   </g>
   <g id="line2d_22">
    <path d="M 154.284766 91.690069 
L 154.284766 89.246442 
" clip-path="url(#p8f871e6d01)" style="fill: none; stroke: #de2d26; stroke-width: 2.7; stroke-linecap: square"/>
   </g>
   <g id="line2d_23">
    <path d="M 188.221065 89.566785 
L 188.221065 85.113328 
" clip-path="url(#p8f871e6d01)" style="fill: none; stroke: #de2d26; stroke-width: 2.7; stroke-linecap: square"/>
   </g>
   <g id="line2d_24">
    <path d="M 222.157364 87.883584 
L 222.157364 74.66721 
" clip-path="url(#p8f871e6d01)" style="fill: none; stroke: #de2d26; stroke-width: 2.7; stroke-linecap: square"/>
   </g>
   <g id="line2d_25">
    <path d="M 256.093663 84.236144 
L 256.093663 82.724972 
" clip-path="url(#p8f871e6d01)" style="fill: none; stroke: #de2d26; stroke-width: 2.7; stroke-linecap: square"/>
   </g>
   <g id="line2d_26">
    <path d="M 290.029962 82.167832 
L 290.029962 77.402433 
" clip-path="url(#p8f871e6d01)" style="fill: none; stroke: #de2d26; stroke-width: 2.7; stroke-linecap: square"/>
   </g>
   <g id="line2d_27">
    <path d="M 323.966261 86.78599 
L 323.966261 74.138464 
" clip-path="url(#p8f871e6d01)" style="fill: none; stroke: #de2d26; stroke-width: 2.7; stroke-linecap: square"/>
   </g>
   <g id="line2d_28">
    <path d="M 357.90256 78.675736 
L 357.90256 72.237324 
" clip-path="url(#p8f871e6d01)" style="fill: none; stroke: #de2d26; stroke-width: 2.7; stroke-linecap: square"/>
   </g>
   <g id="line2d_29">
    <path d="M 391.838859 76.913493 
L 391.838859 76.321606 
" clip-path="url(#p8f871e6d01)" style="fill: none; stroke: #de2d26; stroke-width: 2.7; stroke-linecap: square"/>
   </g>
   <g id="line2d_30">
    <path d="M 425.775158 74.714008 
L 425.775158 73.188089 
" clip-path="url(#p8f871e6d01)" style="fill: none; stroke: #de2d26; stroke-width: 2.7; stroke-linecap: square"/>
   </g>
   <g id="line2d_31">
    <path d="M 86.412168 237.951808 
L 120.348467 95.055721 
L 154.284766 88.651473 
L 188.221065 90.433388 
L 222.157364 88.202666 
L 256.093663 82.277294 
L 290.029962 82.691195 
L 323.966261 79.401974 
L 357.90256 79.458383 
L 391.838859 79.527575 
L 425.775158 67.132155 
" clip-path="url(#p8f871e6d01)" style="fill: none; stroke: #3182bd; stroke-width: 2.7; stroke-linecap: square"/>
    <defs>
     <path id="mc966496863" d="M -5 5 
L 5 5 
L 5 -5 
L -5 -5 
z
" style="stroke: #3182bd; stroke-width: 2.025; stroke-linejoin: miter"/>
    </defs>
    <g clip-path="url(#p8f871e6d01)">
     <use xlink:href="#mc966496863" x="86.412168" y="237.951808" style="fill: #3182bd; stroke: #3182bd; stroke-width: 2.025; stroke-linejoin: miter"/>
     <use xlink:href="#mc966496863" x="120.348467" y="95.055721" style="fill: #3182bd; stroke: #3182bd; stroke-width: 2.025; stroke-linejoin: miter"/>
     <use xlink:href="#mc966496863" x="154.284766" y="88.651473" style="fill: #3182bd; stroke: #3182bd; stroke-width: 2.025; stroke-linejoin: miter"/>
     <use xlink:href="#mc966496863" x="188.221065" y="90.433388" style="fill: #3182bd; stroke: #3182bd; stroke-width: 2.025; stroke-linejoin: miter"/>
     <use xlink:href="#mc966496863" x="222.157364" y="88.202666" style="fill: #3182bd; stroke: #3182bd; stroke-width: 2.025; stroke-linejoin: miter"/>
     <use xlink:href="#mc966496863" x="256.093663" y="82.277294" style="fill: #3182bd; stroke: #3182bd; stroke-width: 2.025; stroke-linejoin: miter"/>
     <use xlink:href="#mc966496863" x="290.029962" y="82.691195" style="fill: #3182bd; stroke: #3182bd; stroke-width: 2.025; stroke-linejoin: miter"/>
     <use xlink:href="#mc966496863" x="323.966261" y="79.401974" style="fill: #3182bd; stroke: #3182bd; stroke-width: 2.025; stroke-linejoin: miter"/>
     <use xlink:href="#mc966496863" x="357.90256" y="79.458383" style="fill: #3182bd; stroke: #3182bd; stroke-width: 2.025; stroke-linejoin: miter"/>
     <use xlink:href="#mc966496863" x="391.838859" y="79.527575" style="fill: #3182bd; stroke: #3182bd; stroke-width: 2.025; stroke-linejoin: miter"/>
     <use xlink:href="#mc966496863" x="425.775158" y="67.132155" style="fill: #3182bd; stroke: #3182bd; stroke-width: 2.025; stroke-linejoin: miter"/>
    </g>
   </g>
   <g id="line2d_32">
    <path d="M 86.412168 240.279228 
L 86.412168 233.211144 
" clip-path="url(#p8f871e6d01)" style="fill: none; stroke: #3182bd; stroke-width: 2.7; stroke-linecap: square"/>
   </g>
   <g id="line2d_33">
    <path d="M 120.348467 99.654093 
L 120.348467 93.430086 
" clip-path="url(#p8f871e6d01)" style="fill: none; stroke: #3182bd; stroke-width: 2.7; stroke-linecap: square"/>
   </g>
   <g id="line2d_34">
    <path d="M 154.284766 91.595241 
L 154.284766 87.144675 
" clip-path="url(#p8f871e6d01)" style="fill: none; stroke: #3182bd; stroke-width: 2.7; stroke-linecap: square"/>
   </g>
   <g id="line2d_35">
    <path d="M 188.221065 90.546022 
L 188.221065 87.117733 
" clip-path="url(#p8f871e6d01)" style="fill: none; stroke: #3182bd; stroke-width: 2.7; stroke-linecap: square"/>
   </g>
   <g id="line2d_36">
    <path d="M 222.157364 90.975586 
L 222.157364 82.812491 
" clip-path="url(#p8f871e6d01)" style="fill: none; stroke: #3182bd; stroke-width: 2.7; stroke-linecap: square"/>
   </g>
   <g id="line2d_37">
    <path d="M 256.093663 83.681956 
L 256.093663 78.968019 
" clip-path="url(#p8f871e6d01)" style="fill: none; stroke: #3182bd; stroke-width: 2.7; stroke-linecap: square"/>
   </g>
   <g id="line2d_38">
    <path d="M 290.029962 83.847283 
L 290.029962 81.357507 
" clip-path="url(#p8f871e6d01)" style="fill: none; stroke: #3182bd; stroke-width: 2.7; stroke-linecap: square"/>
   </g>
   <g id="line2d_39">
    <path d="M 323.966261 83.784697 
L 323.966261 73.603894 
" clip-path="url(#p8f871e6d01)" style="fill: none; stroke: #3182bd; stroke-width: 2.7; stroke-linecap: square"/>
   </g>
   <g id="line2d_40">
    <path d="M 357.90256 84.688069 
L 357.90256 73.963357 
" clip-path="url(#p8f871e6d01)" style="fill: none; stroke: #3182bd; stroke-width: 2.7; stroke-linecap: square"/>
   </g>
   <g id="line2d_41">
    <path d="M 391.838859 80.375247 
L 391.838859 77.56433 
" clip-path="url(#p8f871e6d01)" style="fill: none; stroke: #3182bd; stroke-width: 2.7; stroke-linecap: square"/>
   </g>
   <g id="line2d_42">
    <path d="M 425.775158 67.393582 
L 425.775158 66.855938 
" clip-path="url(#p8f871e6d01)" style="fill: none; stroke: #3182bd; stroke-width: 2.7; stroke-linecap: square"/>
   </g>
   <g id="line2d_43"/>
   <g id="line2d_44"/>
   <g id="patch_3">
    <path d="M 69.444018 405.103307 
L 69.444018 29.832 
" style="fill: none; stroke: #000000; stroke-width: 0.8; stroke-linejoin: miter; stroke-linecap: square"/>
   </g>
   <g id="patch_4">
    <path d="M 69.444018 405.103307 
L 442.743307 405.103307 
" style="fill: none; stroke: #000000; stroke-width: 0.8; stroke-linejoin: miter; stroke-linecap: square"/>
   </g>
   <g id="text_21">
    <!-- $y_5=\sin(x^2) \cos(x)$ -->
    <g transform="translate(204.073663 23.832) scale(0.12 -0.12)">
     <defs>
      <path id="DejaVuSans-Oblique-79" d="M 1588 -325 
Q 1188 -997 936 -1164 
Q 684 -1331 294 -1331 
L -159 -1331 
L -63 -850 
L 269 -850 
Q 509 -850 678 -719 
Q 847 -588 1056 -206 
L 1234 128 
L 459 3500 
L 1069 3500 
L 1650 819 
L 3256 3500 
L 3859 3500 
L 1588 -325 
z
" transform="scale(0.015625)"/>
      <path id="DejaVuSans-3d" d="M 678 2906 
L 4684 2906 
L 4684 2381 
L 678 2381 
L 678 2906 
z
M 678 1631 
L 4684 1631 
L 4684 1100 
L 678 1100 
L 678 1631 
z
" transform="scale(0.015625)"/>
      <path id="DejaVuSans-28" d="M 1984 4856 
Q 1566 4138 1362 3434 
Q 1159 2731 1159 2009 
Q 1159 1288 1364 580 
Q 1569 -128 1984 -844 
L 1484 -844 
Q 1016 -109 783 600 
Q 550 1309 550 2009 
Q 550 2706 781 3412 
Q 1013 4119 1484 4856 
L 1984 4856 
z
" transform="scale(0.015625)"/>
      <path id="DejaVuSans-Oblique-78" d="M 3841 3500 
L 2234 1784 
L 3219 0 
L 2559 0 
L 1819 1388 
L 531 0 
L -166 0 
L 1556 1844 
L 641 3500 
L 1300 3500 
L 1972 2234 
L 3144 3500 
L 3841 3500 
z
" transform="scale(0.015625)"/>
      <path id="DejaVuSans-29" d="M 513 4856 
L 1013 4856 
Q 1481 4119 1714 3412 
Q 1947 2706 1947 2009 
Q 1947 1309 1714 600 
Q 1481 -109 1013 -844 
L 513 -844 
Q 928 -128 1133 580 
Q 1338 1288 1338 2009 
Q 1338 2731 1133 3434 
Q 928 4138 513 4856 
z
" transform="scale(0.015625)"/>
      <path id="DejaVuSans-63" d="M 3122 3366 
L 3122 2828 
Q 2878 2963 2633 3030 
Q 2388 3097 2138 3097 
Q 1578 3097 1268 2742 
Q 959 2388 959 1747 
Q 959 1106 1268 751 
Q 1578 397 2138 397 
Q 2388 397 2633 464 
Q 2878 531 3122 666 
L 3122 134 
Q 2881 22 2623 -34 
Q 2366 -91 2075 -91 
Q 1284 -91 818 406 
Q 353 903 353 1747 
Q 353 2603 823 3093 
Q 1294 3584 2113 3584 
Q 2378 3584 2631 3529 
Q 2884 3475 3122 3366 
z
" transform="scale(0.015625)"/>
     </defs>
     <use xlink:href="#DejaVuSans-Oblique-79" transform="translate(0 0.765625)"/>
     <use xlink:href="#DejaVuSans-35" transform="translate(59.179688 -15.640625) scale(0.7)"/>
     <use xlink:href="#DejaVuSans-3d" transform="translate(125.932617 0.765625)"/>
     <use xlink:href="#DejaVuSans-73" transform="translate(229.204102 0.765625)"/>
     <use xlink:href="#DejaVuSans-69" transform="translate(281.303711 0.765625)"/>
     <use xlink:href="#DejaVuSans-6e" transform="translate(309.086914 0.765625)"/>
     <use xlink:href="#DejaVuSans-28" transform="translate(372.46582 0.765625)"/>
     <use xlink:href="#DejaVuSans-Oblique-78" transform="translate(411.479492 0.765625)"/>
     <use xlink:href="#DejaVuSans-32" transform="translate(475.125326 39.046875) scale(0.7)"/>
     <use xlink:href="#DejaVuSans-29" transform="translate(522.395833 0.765625)"/>
     <use xlink:href="#DejaVuSans-63" transform="translate(561.409505 0.765625)"/>
     <use xlink:href="#DejaVuSans-6f" transform="translate(616.389974 0.765625)"/>
     <use xlink:href="#DejaVuSans-73" transform="translate(677.571615 0.765625)"/>
     <use xlink:href="#DejaVuSans-28" transform="translate(729.671224 0.765625)"/>
     <use xlink:href="#DejaVuSans-Oblique-78" transform="translate(768.684896 0.765625)"/>
     <use xlink:href="#DejaVuSans-29" transform="translate(827.864583 0.765625)"/>
    </g>
   </g>
   <g id="legend_1">
    <g id="patch_5">
     <path d="M 76.444018 82.70075 
L 185.625268 82.70075 
Q 187.625268 82.70075 187.625268 80.70075 
L 187.625268 36.832 
Q 187.625268 34.832 185.625268 34.832 
L 76.444018 34.832 
Q 74.444018 34.832 74.444018 36.832 
L 74.444018 80.70075 
Q 74.444018 82.70075 76.444018 82.70075 
z
" style="fill: #ffffff; opacity: 0.8; stroke: #cccccc; stroke-linejoin: miter"/>
    </g>
    <g id="text_22">
     <!-- error_train -->
     <g transform="translate(104.794799 46.430438) scale(0.1 -0.1)">
      <defs>
       <path id="DejaVuSans-5f" d="M 3263 -1063 
L 3263 -1509 
L -63 -1509 
L -63 -1063 
L 3263 -1063 
z
" transform="scale(0.015625)"/>
      </defs>
      <use xlink:href="#DejaVuSans-65"/>
      <use xlink:href="#DejaVuSans-72" transform="translate(61.523438 0)"/>
      <use xlink:href="#DejaVuSans-72" transform="translate(100.886719 0)"/>
      <use xlink:href="#DejaVuSans-6f" transform="translate(139.75 0)"/>
      <use xlink:href="#DejaVuSans-72" transform="translate(200.931641 0)"/>
      <use xlink:href="#DejaVuSans-5f" transform="translate(242.044922 0)"/>
      <use xlink:href="#DejaVuSans-74" transform="translate(292.044922 0)"/>
      <use xlink:href="#DejaVuSans-72" transform="translate(331.253906 0)"/>
      <use xlink:href="#DejaVuSans-61" transform="translate(372.367188 0)"/>
      <use xlink:href="#DejaVuSans-69" transform="translate(433.646484 0)"/>
      <use xlink:href="#DejaVuSans-6e" transform="translate(461.429688 0)"/>
     </g>
    </g>
    <g id="line2d_45">
     <path d="M 78.444018 57.886688 
L 88.444018 57.886688 
L 98.444018 57.886688 
" style="fill: none; stroke: #de2d26; stroke-width: 2.7; stroke-linecap: square"/>
     <g>
      <use xlink:href="#m312acf938a" x="88.444018" y="57.886688" style="fill: #de2d26; stroke: #de2d26; stroke-width: 2.025"/>
     </g>
    </g>
    <g id="text_23">
     <!-- rmse_nn_train -->
     <g transform="translate(106.444018 61.386688) scale(0.1 -0.1)">
      <use xlink:href="#DejaVuSans-72"/>
      <use xlink:href="#DejaVuSans-6d" transform="translate(39.363281 0)"/>
      <use xlink:href="#DejaVuSans-73" transform="translate(136.775391 0)"/>
      <use xlink:href="#DejaVuSans-65" transform="translate(188.875 0)"/>
      <use xlink:href="#DejaVuSans-5f" transform="translate(250.398438 0)"/>
      <use xlink:href="#DejaVuSans-6e" transform="translate(300.398438 0)"/>
      <use xlink:href="#DejaVuSans-6e" transform="translate(363.777344 0)"/>
      <use xlink:href="#DejaVuSans-5f" transform="translate(427.15625 0)"/>
      <use xlink:href="#DejaVuSans-74" transform="translate(477.15625 0)"/>
      <use xlink:href="#DejaVuSans-72" transform="translate(516.365234 0)"/>
      <use xlink:href="#DejaVuSans-61" transform="translate(557.478516 0)"/>
      <use xlink:href="#DejaVuSans-69" transform="translate(618.757812 0)"/>
      <use xlink:href="#DejaVuSans-6e" transform="translate(646.541016 0)"/>
     </g>
    </g>
    <g id="line2d_46">
     <path d="M 78.444018 72.842938 
L 88.444018 72.842938 
L 98.444018 72.842938 
" style="fill: none; stroke: #3182bd; stroke-width: 2.7; stroke-linecap: square"/>
     <g>
      <use xlink:href="#mc966496863" x="88.444018" y="72.842938" style="fill: #3182bd; stroke: #3182bd; stroke-width: 2.025; stroke-linejoin: miter"/>
     </g>
    </g>
    <g id="text_24">
     <!-- rmse_mdl_train -->
     <g transform="translate(106.444018 76.342938) scale(0.1 -0.1)">
      <defs>
       <path id="DejaVuSans-64" d="M 2906 2969 
L 2906 4863 
L 3481 4863 
L 3481 0 
L 2906 0 
L 2906 525 
Q 2725 213 2448 61 
Q 2172 -91 1784 -91 
Q 1150 -91 751 415 
Q 353 922 353 1747 
Q 353 2572 751 3078 
Q 1150 3584 1784 3584 
Q 2172 3584 2448 3432 
Q 2725 3281 2906 2969 
z
M 947 1747 
Q 947 1113 1208 752 
Q 1469 391 1925 391 
Q 2381 391 2643 752 
Q 2906 1113 2906 1747 
Q 2906 2381 2643 2742 
Q 2381 3103 1925 3103 
Q 1469 3103 1208 2742 
Q 947 2381 947 1747 
z
" transform="scale(0.015625)"/>
       <path id="DejaVuSans-6c" d="M 603 4863 
L 1178 4863 
L 1178 0 
L 603 0 
L 603 4863 
z
" transform="scale(0.015625)"/>
      </defs>
      <use xlink:href="#DejaVuSans-72"/>
      <use xlink:href="#DejaVuSans-6d" transform="translate(39.363281 0)"/>
      <use xlink:href="#DejaVuSans-73" transform="translate(136.775391 0)"/>
      <use xlink:href="#DejaVuSans-65" transform="translate(188.875 0)"/>
      <use xlink:href="#DejaVuSans-5f" transform="translate(250.398438 0)"/>
      <use xlink:href="#DejaVuSans-6d" transform="translate(300.398438 0)"/>
      <use xlink:href="#DejaVuSans-64" transform="translate(397.810547 0)"/>
      <use xlink:href="#DejaVuSans-6c" transform="translate(461.287109 0)"/>
      <use xlink:href="#DejaVuSans-5f" transform="translate(489.070312 0)"/>
      <use xlink:href="#DejaVuSans-74" transform="translate(539.070312 0)"/>
      <use xlink:href="#DejaVuSans-72" transform="translate(578.279297 0)"/>
      <use xlink:href="#DejaVuSans-61" transform="translate(619.392578 0)"/>
      <use xlink:href="#DejaVuSans-69" transform="translate(680.671875 0)"/>
      <use xlink:href="#DejaVuSans-6e" transform="translate(708.455078 0)"/>
     </g>
    </g>
   </g>
  </g>
 </g>
 <defs>
  <clipPath id="p8f871e6d01">
   <rect x="69.444018" y="29.832" width="373.299289" height="375.271307"/>
  </clipPath>
 </defs>
</svg>
