<?xml version="1.0" encoding="utf-8" standalone="no"?>
<!DOCTYPE svg PUBLIC "-//W3C//DTD SVG 1.1//EN"
  "http://www.w3.org/Graphics/SVG/1.1/DTD/svg11.dtd">
<svg xmlns:xlink="http://www.w3.org/1999/xlink" width="283.464567pt" height="255.11811pt" viewBox="0 0 283.464567 255.11811" xmlns="http://www.w3.org/2000/svg" version="1.1">
 <metadata>
  <rdf:RDF xmlns:dc="http://purl.org/dc/elements/1.1/" xmlns:cc="http://creativecommons.org/ns#" xmlns:rdf="http://www.w3.org/1999/02/22-rdf-syntax-ns#">
   <cc:Work>
    <dc:type rdf:resource="http://purl.org/dc/dcmitype/StillImage"/>
    <dc:date>2024-10-31T15:29:32.399079</dc:date>
    <dc:format>image/svg+xml</dc:format>
    <dc:creator>
     <cc:Agent>
      <dc:title>Matplotlib v3.9.2, https://matplotlib.org/</dc:title>
     </cc:Agent>
    </dc:creator>
   </cc:Work>
  </rdf:RDF>
 </metadata>
 <defs>
  <style type="text/css">*{stroke-linejoin: round; stroke-linecap: butt}</style>
 </defs>
 <g id="figure_1">
  <g id="patch_1">
   <path d="M 0 255.11811 
L 283.464567 255.11811 
L 283.464567 0 
L 0 0 
z
" style="fill: #ffffff"/>
  </g>
  <g id="axes_1">
   <g id="patch_2">
    <path d="M 35.433071 227.055118 
L 255.11811 227.055118 
L 255.11811 30.614173 
L 35.433071 30.614173 
z
" style="fill: #ffffff"/>
   </g>
   <g id="matplotlib.axis_1">
    <g id="xtick_1">
     <g id="line2d_1">
      <defs>
       <path id="m4fbde375f1" d="M 0 0 
L 0 6 
" style="stroke: #262626; stroke-width: 1.25"/>
      </defs>
      <g>
       <use xlink:href="#m4fbde375f1" x="37.586846" y="227.055118" style="fill: #262626; stroke: #262626; stroke-width: 1.25"/>
      </g>
     </g>
     <g id="text_1">
      <!-- −2 -->
      <g style="fill: #262626" transform="translate(33.16419 241.114181) scale(0.06 -0.06)">
       <defs>
        <path id="DejaVuSans-2212" d="M 678 2272 
L 4684 2272 
L 4684 1741 
L 678 1741 
L 678 2272 
z
" transform="scale(0.015625)"/>
        <path id="DejaVuSans-32" d="M 1228 531 
L 3431 531 
L 3431 0 
L 469 0 
L 469 531 
Q 828 903 1448 1529 
Q 2069 2156 2228 2338 
Q 2531 2678 2651 2914 
Q 2772 3150 2772 3378 
Q 2772 3750 2511 3984 
Q 2250 4219 1831 4219 
Q 1534 4219 1204 4116 
Q 875 4013 500 3803 
L 500 4441 
Q 881 4594 1212 4672 
Q 1544 4750 1819 4750 
Q 2544 4750 2975 4387 
Q 3406 4025 3406 3419 
Q 3406 3131 3298 2873 
Q 3191 2616 2906 2266 
Q 2828 2175 2409 1742 
Q 1991 1309 1228 531 
z
" transform="scale(0.015625)"/>
       </defs>
       <use xlink:href="#DejaVuSans-2212"/>
       <use xlink:href="#DejaVuSans-32" x="83.789062"/>
      </g>
     </g>
    </g>
    <g id="xtick_2">
     <g id="line2d_2">
      <g>
       <use xlink:href="#m4fbde375f1" x="91.431218" y="227.055118" style="fill: #262626; stroke: #262626; stroke-width: 1.25"/>
      </g>
     </g>
     <g id="text_2">
      <!-- −1 -->
      <g style="fill: #262626" transform="translate(87.008562 241.114181) scale(0.06 -0.06)">
       <defs>
        <path id="DejaVuSans-31" d="M 794 531 
L 1825 531 
L 1825 4091 
L 703 3866 
L 703 4441 
L 1819 4666 
L 2450 4666 
L 2450 531 
L 3481 531 
L 3481 0 
L 794 0 
L 794 531 
z
" transform="scale(0.015625)"/>
       </defs>
       <use xlink:href="#DejaVuSans-2212"/>
       <use xlink:href="#DejaVuSans-31" x="83.789062"/>
      </g>
     </g>
    </g>
    <g id="xtick_3">
     <g id="line2d_3">
      <g>
       <use xlink:href="#m4fbde375f1" x="145.275591" y="227.055118" style="fill: #262626; stroke: #262626; stroke-width: 1.25"/>
      </g>
     </g>
     <g id="text_3">
      <!-- 0 -->
      <g style="fill: #262626" transform="translate(143.366841 241.114181) scale(0.06 -0.06)">
       <defs>
        <path id="DejaVuSans-30" d="M 2034 4250 
Q 1547 4250 1301 3770 
Q 1056 3291 1056 2328 
Q 1056 1369 1301 889 
Q 1547 409 2034 409 
Q 2525 409 2770 889 
Q 3016 1369 3016 2328 
Q 3016 3291 2770 3770 
Q 2525 4250 2034 4250 
z
M 2034 4750 
Q 2819 4750 3233 4129 
Q 3647 3509 3647 2328 
Q 3647 1150 3233 529 
Q 2819 -91 2034 -91 
Q 1250 -91 836 529 
Q 422 1150 422 2328 
Q 422 3509 836 4129 
Q 1250 4750 2034 4750 
z
" transform="scale(0.015625)"/>
       </defs>
       <use xlink:href="#DejaVuSans-30"/>
      </g>
     </g>
    </g>
    <g id="xtick_4">
     <g id="line2d_4">
      <g>
       <use xlink:href="#m4fbde375f1" x="199.119963" y="227.055118" style="fill: #262626; stroke: #262626; stroke-width: 1.25"/>
      </g>
     </g>
     <g id="text_4">
      <!-- 1 -->
      <g style="fill: #262626" transform="translate(197.211213 241.114181) scale(0.06 -0.06)">
       <use xlink:href="#DejaVuSans-31"/>
      </g>
     </g>
    </g>
    <g id="xtick_5">
     <g id="line2d_5">
      <g>
       <use xlink:href="#m4fbde375f1" x="252.964335" y="227.055118" style="fill: #262626; stroke: #262626; stroke-width: 1.25"/>
      </g>
     </g>
     <g id="text_5">
      <!-- 2 -->
      <g style="fill: #262626" transform="translate(251.055585 241.114181) scale(0.06 -0.06)">
       <use xlink:href="#DejaVuSans-32"/>
      </g>
     </g>
    </g>
    <g id="text_6">
     <!-- x -->
     <g style="fill: #262626" transform="translate(143.204028 251.680899) scale(0.07 -0.07)">
      <defs>
       <path id="DejaVuSans-78" d="M 3513 3500 
L 2247 1797 
L 3578 0 
L 2900 0 
L 1881 1375 
L 863 0 
L 184 0 
L 1544 1831 
L 300 3500 
L 978 3500 
L 1906 2253 
L 2834 3500 
L 3513 3500 
z
" transform="scale(0.015625)"/>
      </defs>
      <use xlink:href="#DejaVuSans-78"/>
     </g>
    </g>
   </g>
   <g id="matplotlib.axis_2">
    <g id="ytick_1">
     <g id="line2d_6">
      <defs>
       <path id="mb8a01e50d3" d="M 0 0 
L -6 0 
" style="stroke: #262626; stroke-width: 1.25"/>
      </defs>
      <g>
       <use xlink:href="#mb8a01e50d3" x="35.433071" y="210.982677" style="fill: #262626; stroke: #262626; stroke-width: 1.25"/>
      </g>
     </g>
     <g id="text_7">
      <!-- 0.0 -->
      <g style="fill: #262626" transform="translate(16.391196 213.262208) scale(0.06 -0.06)">
       <defs>
        <path id="DejaVuSans-2e" d="M 684 794 
L 1344 794 
L 1344 0 
L 684 0 
L 684 794 
z
" transform="scale(0.015625)"/>
       </defs>
       <use xlink:href="#DejaVuSans-30"/>
       <use xlink:href="#DejaVuSans-2e" x="63.623047"/>
       <use xlink:href="#DejaVuSans-30" x="95.410156"/>
      </g>
     </g>
    </g>
    <g id="ytick_2">
     <g id="line2d_7">
      <g>
       <use xlink:href="#mb8a01e50d3" x="35.433071" y="175.266142" style="fill: #262626; stroke: #262626; stroke-width: 1.25"/>
      </g>
     </g>
     <g id="text_8">
      <!-- 0.2 -->
      <g style="fill: #262626" transform="translate(16.391196 177.545673) scale(0.06 -0.06)">
       <use xlink:href="#DejaVuSans-30"/>
       <use xlink:href="#DejaVuSans-2e" x="63.623047"/>
       <use xlink:href="#DejaVuSans-32" x="95.410156"/>
      </g>
     </g>
    </g>
    <g id="ytick_3">
     <g id="line2d_8">
      <g>
       <use xlink:href="#mb8a01e50d3" x="35.433071" y="139.549606" style="fill: #262626; stroke: #262626; stroke-width: 1.25"/>
      </g>
     </g>
     <g id="text_9">
      <!-- 0.4 -->
      <g style="fill: #262626" transform="translate(16.391196 141.829138) scale(0.06 -0.06)">
       <defs>
        <path id="DejaVuSans-34" d="M 2419 4116 
L 825 1625 
L 2419 1625 
L 2419 4116 
z
M 2253 4666 
L 3047 4666 
L 3047 1625 
L 3713 1625 
L 3713 1100 
L 3047 1100 
L 3047 0 
L 2419 0 
L 2419 1100 
L 313 1100 
L 313 1709 
L 2253 4666 
z
" transform="scale(0.015625)"/>
       </defs>
       <use xlink:href="#DejaVuSans-30"/>
       <use xlink:href="#DejaVuSans-2e" x="63.623047"/>
       <use xlink:href="#DejaVuSans-34" x="95.410156"/>
      </g>
     </g>
    </g>
    <g id="ytick_4">
     <g id="line2d_9">
      <g>
       <use xlink:href="#mb8a01e50d3" x="35.433071" y="103.833071" style="fill: #262626; stroke: #262626; stroke-width: 1.25"/>
      </g>
     </g>
     <g id="text_10">
      <!-- 0.6 -->
      <g style="fill: #262626" transform="translate(16.391196 106.112602) scale(0.06 -0.06)">
       <defs>
        <path id="DejaVuSans-36" d="M 2113 2584 
Q 1688 2584 1439 2293 
Q 1191 2003 1191 1497 
Q 1191 994 1439 701 
Q 1688 409 2113 409 
Q 2538 409 2786 701 
Q 3034 994 3034 1497 
Q 3034 2003 2786 2293 
Q 2538 2584 2113 2584 
z
M 3366 4563 
L 3366 3988 
Q 3128 4100 2886 4159 
Q 2644 4219 2406 4219 
Q 1781 4219 1451 3797 
Q 1122 3375 1075 2522 
Q 1259 2794 1537 2939 
Q 1816 3084 2150 3084 
Q 2853 3084 3261 2657 
Q 3669 2231 3669 1497 
Q 3669 778 3244 343 
Q 2819 -91 2113 -91 
Q 1303 -91 875 529 
Q 447 1150 447 2328 
Q 447 3434 972 4092 
Q 1497 4750 2381 4750 
Q 2619 4750 2861 4703 
Q 3103 4656 3366 4563 
z
" transform="scale(0.015625)"/>
       </defs>
       <use xlink:href="#DejaVuSans-30"/>
       <use xlink:href="#DejaVuSans-2e" x="63.623047"/>
       <use xlink:href="#DejaVuSans-36" x="95.410156"/>
      </g>
     </g>
    </g>
    <g id="ytick_5">
     <g id="line2d_10">
      <g>
       <use xlink:href="#mb8a01e50d3" x="35.433071" y="68.116535" style="fill: #262626; stroke: #262626; stroke-width: 1.25"/>
      </g>
     </g>
     <g id="text_11">
      <!-- 0.8 -->
      <g style="fill: #262626" transform="translate(16.391196 70.396067) scale(0.06 -0.06)">
       <defs>
        <path id="DejaVuSans-38" d="M 2034 2216 
Q 1584 2216 1326 1975 
Q 1069 1734 1069 1313 
Q 1069 891 1326 650 
Q 1584 409 2034 409 
Q 2484 409 2743 651 
Q 3003 894 3003 1313 
Q 3003 1734 2745 1975 
Q 2488 2216 2034 2216 
z
M 1403 2484 
Q 997 2584 770 2862 
Q 544 3141 544 3541 
Q 544 4100 942 4425 
Q 1341 4750 2034 4750 
Q 2731 4750 3128 4425 
Q 3525 4100 3525 3541 
Q 3525 3141 3298 2862 
Q 3072 2584 2669 2484 
Q 3125 2378 3379 2068 
Q 3634 1759 3634 1313 
Q 3634 634 3220 271 
Q 2806 -91 2034 -91 
Q 1263 -91 848 271 
Q 434 634 434 1313 
Q 434 1759 690 2068 
Q 947 2378 1403 2484 
z
M 1172 3481 
Q 1172 3119 1398 2916 
Q 1625 2713 2034 2713 
Q 2441 2713 2670 2916 
Q 2900 3119 2900 3481 
Q 2900 3844 2670 4047 
Q 2441 4250 2034 4250 
Q 1625 4250 1398 4047 
Q 1172 3844 1172 3481 
z
" transform="scale(0.015625)"/>
       </defs>
       <use xlink:href="#DejaVuSans-30"/>
       <use xlink:href="#DejaVuSans-2e" x="63.623047"/>
       <use xlink:href="#DejaVuSans-38" x="95.410156"/>
      </g>
     </g>
    </g>
    <g id="ytick_6">
     <g id="line2d_11">
      <g>
       <use xlink:href="#mb8a01e50d3" x="35.433071" y="32.4" style="fill: #262626; stroke: #262626; stroke-width: 1.25"/>
      </g>
     </g>
     <g id="text_12">
      <!-- 1.0 -->
      <g style="fill: #262626" transform="translate(16.391196 34.679531) scale(0.06 -0.06)">
       <use xlink:href="#DejaVuSans-31"/>
       <use xlink:href="#DejaVuSans-2e" x="63.623047"/>
       <use xlink:href="#DejaVuSans-30" x="95.410156"/>
      </g>
     </g>
    </g>
    <g id="text_13">
     <!-- y -->
     <g style="fill: #262626" transform="translate(10.935415 130.906208) rotate(-90) scale(0.07 -0.07)">
      <defs>
       <path id="DejaVuSans-79" d="M 2059 -325 
Q 1816 -950 1584 -1140 
Q 1353 -1331 966 -1331 
L 506 -1331 
L 506 -850 
L 844 -850 
Q 1081 -850 1212 -737 
Q 1344 -625 1503 -206 
L 1606 56 
L 191 3500 
L 800 3500 
L 1894 763 
L 2988 3500 
L 3597 3500 
L 2059 -325 
z
" transform="scale(0.015625)"/>
      </defs>
      <use xlink:href="#DejaVuSans-79"/>
     </g>
    </g>
   </g>
   <g id="line2d_12">
    <defs>
     <path id="m630674c141" d="M 0 0.5 
C 0.132602 0.5 0.25979 0.447317 0.353553 0.353553 
C 0.447317 0.25979 0.5 0.132602 0.5 0 
C 0.5 -0.132602 0.447317 -0.25979 0.353553 -0.353553 
C 0.25979 -0.447317 0.132602 -0.5 0 -0.5 
C -0.132602 -0.5 -0.25979 -0.447317 -0.353553 -0.353553 
C -0.447317 -0.25979 -0.5 -0.132602 -0.5 0 
C -0.5 0.132602 -0.447317 0.25979 -0.353553 0.353553 
C -0.25979 0.447317 -0.132602 0.5 0 0.5 
z
" style="stroke: #0000ff"/>
    </defs>
    <g clip-path="url(#p7d5ac246c3)">
     <use xlink:href="#m630674c141" x="40.279064" y="210.850225" style="fill: #0000ff; stroke: #0000ff"/>
     <use xlink:href="#m630674c141" x="42.971283" y="210.883614" style="fill: #0000ff; stroke: #0000ff"/>
     <use xlink:href="#m630674c141" x="45.663502" y="210.914047" style="fill: #0000ff; stroke: #0000ff"/>
     <use xlink:href="#m630674c141" x="48.35572" y="210.940529" style="fill: #0000ff; stroke: #0000ff"/>
     <use xlink:href="#m630674c141" x="51.047939" y="210.961847" style="fill: #0000ff; stroke: #0000ff"/>
     <use xlink:href="#m630674c141" x="53.740157" y="210.976514" style="fill: #0000ff; stroke: #0000ff"/>
     <use xlink:href="#m630674c141" x="56.432376" y="210.982677" style="fill: #0000ff; stroke: #0000ff"/>
     <use xlink:href="#m630674c141" x="59.124595" y="210.978" style="fill: #0000ff; stroke: #0000ff"/>
     <use xlink:href="#m630674c141" x="61.816813" y="210.959471" style="fill: #0000ff; stroke: #0000ff"/>
     <use xlink:href="#m630674c141" x="64.509032" y="210.923127" style="fill: #0000ff; stroke: #0000ff"/>
     <use xlink:href="#m630674c141" x="67.201251" y="210.863634" style="fill: #0000ff; stroke: #0000ff"/>
     <use xlink:href="#m630674c141" x="69.893469" y="210.77363" style="fill: #0000ff; stroke: #0000ff"/>
     <use xlink:href="#m630674c141" x="72.585688" y="210.642721" style="fill: #0000ff; stroke: #0000ff"/>
     <use xlink:href="#m630674c141" x="75.277906" y="210.45589" style="fill: #0000ff; stroke: #0000ff"/>
     <use xlink:href="#m630674c141" x="77.970125" y="210.191003" style="fill: #0000ff; stroke: #0000ff"/>
     <use xlink:href="#m630674c141" x="80.662344" y="209.814886" style="fill: #0000ff; stroke: #0000ff"/>
     <use xlink:href="#m630674c141" x="83.354562" y="209.277286" style="fill: #0000ff; stroke: #0000ff"/>
     <use xlink:href="#m630674c141" x="86.046781" y="208.50197" style="fill: #0000ff; stroke: #0000ff"/>
     <use xlink:href="#m630674c141" x="88.739" y="207.374867" style="fill: #0000ff; stroke: #0000ff"/>
     <use xlink:href="#m630674c141" x="91.431218" y="205.731668" style="fill: #0000ff; stroke: #0000ff"/>
     <use xlink:href="#m630674c141" x="94.123437" y="203.353564" style="fill: #0000ff; stroke: #0000ff"/>
     <use xlink:href="#m630674c141" x="96.815655" y="199.990363" style="fill: #0000ff; stroke: #0000ff"/>
     <use xlink:href="#m630674c141" x="99.507874" y="195.436961" style="fill: #0000ff; stroke: #0000ff"/>
     <use xlink:href="#m630674c141" x="102.200093" y="189.668611" style="fill: #0000ff; stroke: #0000ff"/>
     <use xlink:href="#m630674c141" x="104.892311" y="182.97398" style="fill: #0000ff; stroke: #0000ff"/>
     <use xlink:href="#m630674c141" x="107.58453" y="175.962391" style="fill: #0000ff; stroke: #0000ff"/>
     <use xlink:href="#m630674c141" x="110.276748" y="169.377873" style="fill: #0000ff; stroke: #0000ff"/>
     <use xlink:href="#m630674c141" x="112.968967" y="163.823692" style="fill: #0000ff; stroke: #0000ff"/>
     <use xlink:href="#m630674c141" x="115.661186" y="159.587303" style="fill: #0000ff; stroke: #0000ff"/>
     <use xlink:href="#m630674c141" x="118.353404" y="156.650546" style="fill: #0000ff; stroke: #0000ff"/>
     <use xlink:href="#m630674c141" x="121.045623" y="154.820211" style="fill: #0000ff; stroke: #0000ff"/>
     <use xlink:href="#m630674c141" x="123.737842" y="153.869568" style="fill: #0000ff; stroke: #0000ff"/>
     <use xlink:href="#m630674c141" x="126.43006" y="153.627108" style="fill: #0000ff; stroke: #0000ff"/>
     <use xlink:href="#m630674c141" x="129.122279" y="154.004329" style="fill: #0000ff; stroke: #0000ff"/>
     <use xlink:href="#m630674c141" x="131.814497" y="154.980719" style="fill: #0000ff; stroke: #0000ff"/>
     <use xlink:href="#m630674c141" x="134.506716" y="156.566378" style="fill: #0000ff; stroke: #0000ff"/>
     <use xlink:href="#m630674c141" x="137.198935" y="158.757919" style="fill: #0000ff; stroke: #0000ff"/>
     <use xlink:href="#m630674c141" x="139.891153" y="161.50078" style="fill: #0000ff; stroke: #0000ff"/>
     <use xlink:href="#m630674c141" x="142.583372" y="164.670646" style="fill: #0000ff; stroke: #0000ff"/>
     <use xlink:href="#m630674c141" x="145.275591" y="168.082736" style="fill: #0000ff; stroke: #0000ff"/>
     <use xlink:href="#m630674c141" x="147.967809" y="171.52669" style="fill: #0000ff; stroke: #0000ff"/>
     <use xlink:href="#m630674c141" x="150.660028" y="174.81136" style="fill: #0000ff; stroke: #0000ff"/>
     <use xlink:href="#m630674c141" x="153.352246" y="177.799106" style="fill: #0000ff; stroke: #0000ff"/>
     <use xlink:href="#m630674c141" x="156.044465" y="180.417773" style="fill: #0000ff; stroke: #0000ff"/>
     <use xlink:href="#m630674c141" x="158.736684" y="182.65236" style="fill: #0000ff; stroke: #0000ff"/>
     <use xlink:href="#m630674c141" x="161.428902" y="184.526574" style="fill: #0000ff; stroke: #0000ff"/>
     <use xlink:href="#m630674c141" x="164.121121" y="186.084047" style="fill: #0000ff; stroke: #0000ff"/>
     <use xlink:href="#m630674c141" x="166.81334" y="187.3743" style="fill: #0000ff; stroke: #0000ff"/>
     <use xlink:href="#m630674c141" x="169.505558" y="188.444367" style="fill: #0000ff; stroke: #0000ff"/>
     <use xlink:href="#m630674c141" x="172.197777" y="189.334876" style="fill: #0000ff; stroke: #0000ff"/>
     <use xlink:href="#m630674c141" x="174.889995" y="190.078957" style="fill: #0000ff; stroke: #0000ff"/>
     <use xlink:href="#m630674c141" x="177.582214" y="190.70264" style="fill: #0000ff; stroke: #0000ff"/>
     <use xlink:href="#m630674c141" x="180.274433" y="191.225884" style="fill: #0000ff; stroke: #0000ff"/>
     <use xlink:href="#m630674c141" x="182.966651" y="191.663758" style="fill: #0000ff; stroke: #0000ff"/>
     <use xlink:href="#m630674c141" x="185.65887" y="192.027534" style="fill: #0000ff; stroke: #0000ff"/>
     <use xlink:href="#m630674c141" x="188.351088" y="192.325611" style="fill: #0000ff; stroke: #0000ff"/>
     <use xlink:href="#m630674c141" x="191.043307" y="192.564243" style="fill: #0000ff; stroke: #0000ff"/>
     <use xlink:href="#m630674c141" x="193.735526" y="192.748093" style="fill: #0000ff; stroke: #0000ff"/>
     <use xlink:href="#m630674c141" x="196.427744" y="192.880646" style="fill: #0000ff; stroke: #0000ff"/>
     <use xlink:href="#m630674c141" x="199.119963" y="192.964508" style="fill: #0000ff; stroke: #0000ff"/>
     <use xlink:href="#m630674c141" x="201.812182" y="193.001613" style="fill: #0000ff; stroke: #0000ff"/>
     <use xlink:href="#m630674c141" x="204.5044" y="192.993373" style="fill: #0000ff; stroke: #0000ff"/>
     <use xlink:href="#m630674c141" x="207.196619" y="192.940774" style="fill: #0000ff; stroke: #0000ff"/>
     <use xlink:href="#m630674c141" x="209.888837" y="192.84444" style="fill: #0000ff; stroke: #0000ff"/>
     <use xlink:href="#m630674c141" x="212.581056" y="192.70467" style="fill: #0000ff; stroke: #0000ff"/>
     <use xlink:href="#m630674c141" x="215.273275" y="192.52146" style="fill: #0000ff; stroke: #0000ff"/>
     <use xlink:href="#m630674c141" x="217.965493" y="192.294506" style="fill: #0000ff; stroke: #0000ff"/>
     <use xlink:href="#m630674c141" x="220.657712" y="192.023199" style="fill: #0000ff; stroke: #0000ff"/>
     <use xlink:href="#m630674c141" x="223.349931" y="191.706609" style="fill: #0000ff; stroke: #0000ff"/>
     <use xlink:href="#m630674c141" x="226.042149" y="191.343465" style="fill: #0000ff; stroke: #0000ff"/>
     <use xlink:href="#m630674c141" x="228.734368" y="190.932126" style="fill: #0000ff; stroke: #0000ff"/>
     <use xlink:href="#m630674c141" x="231.426586" y="190.470554" style="fill: #0000ff; stroke: #0000ff"/>
     <use xlink:href="#m630674c141" x="234.118805" y="189.956276" style="fill: #0000ff; stroke: #0000ff"/>
     <use xlink:href="#m630674c141" x="236.811024" y="189.386348" style="fill: #0000ff; stroke: #0000ff"/>
     <use xlink:href="#m630674c141" x="239.503242" y="188.757326" style="fill: #0000ff; stroke: #0000ff"/>
     <use xlink:href="#m630674c141" x="242.195461" y="188.065226" style="fill: #0000ff; stroke: #0000ff"/>
     <use xlink:href="#m630674c141" x="244.887679" y="187.305493" style="fill: #0000ff; stroke: #0000ff"/>
     <use xlink:href="#m630674c141" x="247.579898" y="186.472978" style="fill: #0000ff; stroke: #0000ff"/>
     <use xlink:href="#m630674c141" x="250.272117" y="185.561914" style="fill: #0000ff; stroke: #0000ff"/>
     <use xlink:href="#m630674c141" x="252.964335" y="184.565901" style="fill: #0000ff; stroke: #0000ff"/>
    </g>
   </g>
   <g id="line2d_13">
    <path d="M 40.279064 206.298403 
L 42.971283 217.084618 
L 45.663502 213.851957 
L 48.35572 215.334413 
L 51.047939 204.079537 
L 53.740157 212.740815 
L 56.432376 213.856552 
L 59.124595 214.855908 
L 61.816813 212.376271 
L 64.509032 225.004886 
L 67.201251 206.304105 
L 69.893469 196.267503 
L 72.585688 198.183479 
L 75.277906 212.374718 
L 77.970125 215.19894 
L 80.662344 203.679297 
L 83.354562 209.177085 
L 86.046781 221.041173 
L 88.739 203.963503 
L 91.431218 207.830921 
L 94.123437 208.978153 
L 96.815655 201.516668 
L 99.507874 198.179814 
L 102.200093 182.258145 
L 104.892311 189.892485 
L 107.58453 181.724053 
L 110.276748 169.184161 
L 112.968967 172.833356 
L 115.661186 150.003208 
L 118.353404 150.459124 
L 121.045623 147.699567 
L 123.737842 155.563613 
L 126.43006 165.957675 
L 129.122279 152.930224 
L 131.814497 147.921153 
L 134.506716 147.049099 
L 137.198935 153.255806 
L 139.891153 167.304508 
L 142.583372 157.60067 
L 145.275591 169.660243 
L 147.967809 175.286877 
L 150.660028 173.060768 
L 153.352246 178.030902 
L 156.044465 175.231051 
L 158.736684 172.1464 
L 161.428902 193.281241 
L 164.121121 187.247802 
L 166.81334 181.066961 
L 169.505558 185.055696 
L 172.197777 184.862959 
L 174.889995 190.090388 
L 177.582214 189.885965 
L 180.274433 194.363016 
L 182.966651 191.634157 
L 185.65887 201.42525 
L 188.351088 186.369583 
L 191.043307 195.403997 
L 193.735526 191.373017 
L 196.427744 192.087883 
L 199.119963 192.606676 
L 201.812182 199.80928 
L 204.5044 205.41152 
L 207.196619 191.473946 
L 209.888837 194.627834 
L 212.581056 185.988554 
L 215.273275 193.165369 
L 217.965493 193.654607 
L 220.657712 184.689398 
L 223.349931 190.392229 
L 226.042149 193.324561 
L 228.734368 190.016171 
L 231.426586 181.237209 
L 234.118805 187.798544 
L 236.811024 185.226267 
L 239.503242 194.655126 
L 242.195461 182.388292 
L 244.887679 185.776991 
L 247.579898 187.937628 
L 250.272117 173.987306 
L 252.964335 203.147688 
" clip-path="url(#p7d5ac246c3)" style="fill: none; stroke: #ffa500; stroke-linecap: round"/>
   </g>
   <g id="line2d_14">
    <path d="M 40.279064 208.418282 
L 42.971283 209.328323 
L 45.663502 210.18679 
L 48.35572 210.983343 
L 51.047939 211.706695 
L 53.740157 212.344579 
L 56.432376 212.883721 
L 59.124595 213.309802 
L 61.816813 213.607421 
L 64.509032 213.760051 
L 67.201251 213.749982 
L 69.893469 213.558265 
L 72.585688 213.164645 
L 75.277906 212.54751 
L 77.970125 211.68387 
L 80.662344 210.549388 
L 83.354562 209.118535 
L 86.046781 207.364924 
L 88.739 205.26194 
L 91.431218 202.783815 
L 94.123437 199.907338 
L 96.815655 196.614472 
L 99.507874 192.896154 
L 102.200093 188.757578 
L 104.892311 184.225168 
L 107.58453 179.355119 
L 110.276748 174.242808 
L 112.968967 169.031389 
L 115.661186 163.916651 
L 118.353404 159.144272 
L 121.045623 154.995817 
L 123.737842 151.762156 
L 126.43006 149.707248 
L 129.122279 149.029514 
L 131.814497 149.828909 
L 134.506716 152.082942 
L 137.198935 155.624503 
L 139.891153 160.103716 
L 142.583372 164.923818 
L 145.275591 169.222314 
L 147.967809 172.170318 
L 150.660028 173.79813 
L 153.352246 175.339686 
L 156.044465 177.785675 
L 158.736684 180.73169 
L 161.428902 183.263654 
L 164.121121 184.877626 
L 166.81334 185.502206 
L 169.505558 185.260944 
L 172.197777 184.326155 
L 174.889995 182.863218 
L 177.582214 181.014834 
L 180.274433 178.898943 
L 182.966651 176.610723 
L 185.65887 174.225605 
L 188.351088 171.802347 
L 191.043307 169.385848 
L 193.735526 167.00965 
L 196.427744 164.698093 
L 199.119963 162.468154 
L 201.812182 160.330991 
L 204.5044 158.293234 
L 207.196619 156.358039 
L 209.888837 154.525946 
L 212.581056 152.795576 
L 215.273275 151.164172 
L 217.965493 149.628031 
L 220.657712 148.182841 
L 223.349931 146.823925 
L 226.042149 145.546443 
L 228.734368 144.345523 
L 231.426586 143.216368 
L 234.118805 142.154328 
L 236.811024 141.154943 
L 239.503242 140.213974 
L 242.195461 139.327425 
L 244.887679 138.491543 
L 247.579898 137.702823 
L 250.272117 136.957998 
L 252.964335 136.254034 
" clip-path="url(#p7d5ac246c3)" style="fill: none; stroke: #ff0000; stroke-linecap: round"/>
   </g>
   <g id="line2d_15">
    <path d="M 40.279064 210.982677 
L 42.971283 210.982677 
L 45.663502 210.982677 
L 48.35572 210.982677 
L 51.047939 210.982677 
L 53.740157 210.982677 
L 56.432376 210.982677 
L 59.124595 210.982677 
L 61.816813 210.982677 
L 64.509032 210.982677 
L 67.201251 210.982675 
L 69.893469 210.982653 
L 72.585688 210.982446 
L 75.277906 210.981028 
L 77.970125 210.973599 
L 80.662344 210.94295 
L 83.354562 210.840835 
L 86.046781 210.559683 
L 88.739 209.906747 
L 91.431218 208.604082 
L 94.123437 206.334797 
L 96.815655 202.833284 
L 99.507874 197.98779 
L 102.200093 191.910119 
L 104.892311 184.940329 
L 107.58453 177.584604 
L 110.276748 170.412326 
L 112.968967 163.949401 
L 115.661186 158.598199 
L 118.353404 154.598204 
L 121.045623 152.025656 
L 123.737842 150.820681 
L 126.43006 150.827742 
L 129.122279 151.837469 
L 131.814497 153.622269 
L 134.506716 155.962355 
L 137.198935 158.661988 
L 139.891153 161.557474 
L 142.583372 164.51911 
L 145.275591 167.449258 
L 147.967809 170.278301 
L 150.660028 172.959773 
L 153.352246 175.465478 
L 156.044465 177.781061 
L 158.736684 179.902247 
L 161.428902 181.831798 
L 164.121121 183.577132 
L 166.81334 185.148536 
L 169.505558 186.557854 
L 172.197777 187.817557 
L 174.889995 188.940112 
L 177.582214 189.937563 
L 180.274433 190.821278 
L 182.966651 191.601807 
L 185.65887 192.288826 
L 188.351088 192.891122 
L 191.043307 193.416627 
L 193.735526 193.872463 
L 196.427744 194.265002 
L 199.119963 194.59993 
L 201.812182 194.882317 
L 204.5044 195.116677 
L 207.196619 195.307029 
L 209.888837 195.456955 
L 212.581056 195.56965 
L 215.273275 195.647969 
L 217.965493 195.694467 
L 220.657712 195.71144 
L 223.349931 195.700952 
L 226.042149 195.66487 
L 228.734368 195.604886 
L 231.426586 195.522541 
L 234.118805 195.419244 
L 236.811024 195.29629 
L 239.503242 195.154875 
L 242.195461 194.996107 
L 244.887679 194.821021 
L 247.579898 194.630587 
L 250.272117 194.425716 
L 252.964335 194.207274 
" clip-path="url(#p7d5ac246c3)" style="fill: none; stroke-dasharray: 5.55,2.4; stroke-dashoffset: 0; stroke: #008000; stroke-width: 1.5"/>
   </g>
   <g id="line2d_16">
    <path d="M 172.197777 227.055118 
L 172.197777 30.614173 
" clip-path="url(#p7d5ac246c3)" style="fill: none; stroke-dasharray: 3.7,1.6; stroke-dashoffset: 0; stroke: #c44e52"/>
   </g>
   <g id="line2d_17">
    <path d="M 199.119963 227.055118 
L 199.119963 30.614173 
" clip-path="url(#p7d5ac246c3)" style="fill: none; stroke-dasharray: 3.7,1.6; stroke-dashoffset: 0; stroke: #1a1a1a"/>
   </g>
   <g id="patch_3">
    <path d="M 35.433071 227.055118 
L 35.433071 30.614173 
" style="fill: none; stroke: #262626; stroke-width: 1.25; stroke-linejoin: miter; stroke-linecap: square"/>
   </g>
   <g id="patch_4">
    <path d="M 255.11811 227.055118 
L 255.11811 30.614173 
" style="fill: none; stroke: #262626; stroke-width: 1.25; stroke-linejoin: miter; stroke-linecap: square"/>
   </g>
   <g id="patch_5">
    <path d="M 35.433071 227.055118 
L 255.11811 227.055118 
" style="fill: none; stroke: #262626; stroke-width: 1.25; stroke-linejoin: miter; stroke-linecap: square"/>
   </g>
   <g id="patch_6">
    <path d="M 35.433071 30.614173 
L 255.11811 30.614173 
" style="fill: none; stroke: #262626; stroke-width: 1.25; stroke-linejoin: miter; stroke-linecap: square"/>
   </g>
   <g id="legend_1">
    <g id="patch_7">
     <path d="M 218.074673 53.027923 
L 250.91811 53.027923 
Q 252.11811 53.027923 252.11811 51.827923 
L 252.11811 34.814173 
Q 252.11811 33.614173 250.91811 33.614173 
L 218.074673 33.614173 
Q 216.874673 33.614173 216.874673 34.814173 
L 216.874673 51.827923 
Q 216.874673 53.027923 218.074673 53.027923 
z
" style="fill: #ffffff; opacity: 0.8; stroke: #cccccc; stroke-linejoin: miter"/>
    </g>
    <g id="line2d_18">
     <path d="M 219.274673 38.473236 
L 225.274673 38.473236 
L 231.274673 38.473236 
" style="fill: none; stroke: #ff0000; stroke-linecap: round"/>
    </g>
    <g id="text_14">
     <!-- f'(x) -->
     <g style="fill: #262626" transform="translate(236.074673 40.573236) scale(0.06 -0.06)">
      <defs>
       <path id="DejaVuSans-66" d="M 2375 4863 
L 2375 4384 
L 1825 4384 
Q 1516 4384 1395 4259 
Q 1275 4134 1275 3809 
L 1275 3500 
L 2222 3500 
L 2222 3053 
L 1275 3053 
L 1275 0 
L 697 0 
L 697 3053 
L 147 3053 
L 147 3500 
L 697 3500 
L 697 3744 
Q 697 4328 969 4595 
Q 1241 4863 1831 4863 
L 2375 4863 
z
" transform="scale(0.015625)"/>
       <path id="DejaVuSans-27" d="M 1147 4666 
L 1147 2931 
L 616 2931 
L 616 4666 
L 1147 4666 
z
" transform="scale(0.015625)"/>
       <path id="DejaVuSans-28" d="M 1984 4856 
Q 1566 4138 1362 3434 
Q 1159 2731 1159 2009 
Q 1159 1288 1364 580 
Q 1569 -128 1984 -844 
L 1484 -844 
Q 1016 -109 783 600 
Q 550 1309 550 2009 
Q 550 2706 781 3412 
Q 1013 4119 1484 4856 
L 1984 4856 
z
" transform="scale(0.015625)"/>
       <path id="DejaVuSans-29" d="M 513 4856 
L 1013 4856 
Q 1481 4119 1714 3412 
Q 1947 2706 1947 2009 
Q 1947 1309 1714 600 
Q 1481 -109 1013 -844 
L 513 -844 
Q 928 -128 1133 580 
Q 1338 1288 1338 2009 
Q 1338 2731 1133 3434 
Q 928 4138 513 4856 
z
" transform="scale(0.015625)"/>
      </defs>
      <use xlink:href="#DejaVuSans-66"/>
      <use xlink:href="#DejaVuSans-27" x="35.205078"/>
      <use xlink:href="#DejaVuSans-28" x="62.695312"/>
      <use xlink:href="#DejaVuSans-78" x="101.708984"/>
      <use xlink:href="#DejaVuSans-29" x="160.888672"/>
     </g>
    </g>
    <g id="line2d_19">
     <path d="M 219.274673 47.280111 
L 225.274673 47.280111 
L 231.274673 47.280111 
" style="fill: none; stroke-dasharray: 5.55,2.4; stroke-dashoffset: 0; stroke: #008000; stroke-width: 1.5"/>
    </g>
    <g id="text_15">
     <!-- f''(x) -->
     <g style="fill: #262626" transform="translate(236.074673 49.380111) scale(0.06 -0.06)">
      <use xlink:href="#DejaVuSans-66"/>
      <use xlink:href="#DejaVuSans-27" x="35.205078"/>
      <use xlink:href="#DejaVuSans-27" x="62.695312"/>
      <use xlink:href="#DejaVuSans-28" x="90.185547"/>
      <use xlink:href="#DejaVuSans-78" x="129.199219"/>
      <use xlink:href="#DejaVuSans-29" x="188.378906"/>
     </g>
    </g>
   </g>
  </g>
 </g>
 <defs>
  <clipPath id="p7d5ac246c3">
   <rect x="35.433071" y="30.614173" width="219.685039" height="196.440945"/>
  </clipPath>
 </defs>
</svg>
