<?xml version="1.0" encoding="utf-8" standalone="no"?>
<!DOCTYPE svg PUBLIC "-//W3C//DTD SVG 1.1//EN"
  "http://www.w3.org/Graphics/SVG/1.1/DTD/svg11.dtd">
<svg xmlns:xlink="http://www.w3.org/1999/xlink" width="396.850394pt" height="198.425197pt" viewBox="0 0 396.850394 198.425197" xmlns="http://www.w3.org/2000/svg" version="1.1">
 <metadata>
  <rdf:RDF xmlns:dc="http://purl.org/dc/elements/1.1/" xmlns:cc="http://creativecommons.org/ns#" xmlns:rdf="http://www.w3.org/1999/02/22-rdf-syntax-ns#">
   <cc:Work>
    <dc:type rdf:resource="http://purl.org/dc/dcmitype/StillImage"/>
    <dc:date>2024-10-07T15:18:06.595586</dc:date>
    <dc:format>image/svg+xml</dc:format>
    <dc:creator>
     <cc:Agent>
      <dc:title>Matplotlib v3.9.2, https://matplotlib.org/</dc:title>
     </cc:Agent>
    </dc:creator>
   </cc:Work>
  </rdf:RDF>
 </metadata>
 <defs>
  <style type="text/css">*{stroke-linejoin: round; stroke-linecap: butt}</style>
 </defs>
 <g id="figure_1">
  <g id="patch_1">
   <path d="M 0 198.425197 
L 396.850394 198.425197 
L 396.850394 0 
L 0 0 
z
" style="fill: #ffffff"/>
  </g>
  <g id="axes_1">
   <g id="patch_2">
    <path d="M 39.685039 168.661417 
L 188.292846 168.661417 
L 188.292846 19.84252 
L 39.685039 19.84252 
z
" style="fill: #ffffff"/>
   </g>
   <g id="matplotlib.axis_1">
    <g id="xtick_1">
     <g id="line2d_1">
      <defs>
       <path id="m21b9e41e43" d="M 0 0 
L 0 3.5 
" style="stroke: #000000; stroke-width: 0.8"/>
      </defs>
      <g>
       <use xlink:href="#m21b9e41e43" x="48.973027" y="168.661417" style="stroke: #000000; stroke-width: 0.8"/>
      </g>
     </g>
     <g id="text_1">
      <!-- 0.06 -->
      <g transform="translate(42.29334 180.22048) scale(0.06 -0.06)">
       <defs>
        <path id="DejaVuSans-30" d="M 2034 4250 
Q 1547 4250 1301 3770 
Q 1056 3291 1056 2328 
Q 1056 1369 1301 889 
Q 1547 409 2034 409 
Q 2525 409 2770 889 
Q 3016 1369 3016 2328 
Q 3016 3291 2770 3770 
Q 2525 4250 2034 4250 
z
M 2034 4750 
Q 2819 4750 3233 4129 
Q 3647 3509 3647 2328 
Q 3647 1150 3233 529 
Q 2819 -91 2034 -91 
Q 1250 -91 836 529 
Q 422 1150 422 2328 
Q 422 3509 836 4129 
Q 1250 4750 2034 4750 
z
" transform="scale(0.015625)"/>
        <path id="DejaVuSans-2e" d="M 684 794 
L 1344 794 
L 1344 0 
L 684 0 
L 684 794 
z
" transform="scale(0.015625)"/>
        <path id="DejaVuSans-36" d="M 2113 2584 
Q 1688 2584 1439 2293 
Q 1191 2003 1191 1497 
Q 1191 994 1439 701 
Q 1688 409 2113 409 
Q 2538 409 2786 701 
Q 3034 994 3034 1497 
Q 3034 2003 2786 2293 
Q 2538 2584 2113 2584 
z
M 3366 4563 
L 3366 3988 
Q 3128 4100 2886 4159 
Q 2644 4219 2406 4219 
Q 1781 4219 1451 3797 
Q 1122 3375 1075 2522 
Q 1259 2794 1537 2939 
Q 1816 3084 2150 3084 
Q 2853 3084 3261 2657 
Q 3669 2231 3669 1497 
Q 3669 778 3244 343 
Q 2819 -91 2113 -91 
Q 1303 -91 875 529 
Q 447 1150 447 2328 
Q 447 3434 972 4092 
Q 1497 4750 2381 4750 
Q 2619 4750 2861 4703 
Q 3103 4656 3366 4563 
z
" transform="scale(0.015625)"/>
       </defs>
       <use xlink:href="#DejaVuSans-30"/>
       <use xlink:href="#DejaVuSans-2e" x="63.623047"/>
       <use xlink:href="#DejaVuSans-30" x="95.410156"/>
       <use xlink:href="#DejaVuSans-36" x="159.033203"/>
      </g>
     </g>
    </g>
    <g id="xtick_2">
     <g id="line2d_2">
      <g>
       <use xlink:href="#m21b9e41e43" x="67.549003" y="168.661417" style="stroke: #000000; stroke-width: 0.8"/>
      </g>
     </g>
     <g id="text_2">
      <!-- 0.08 -->
      <g transform="translate(60.869316 180.22048) scale(0.06 -0.06)">
       <defs>
        <path id="DejaVuSans-38" d="M 2034 2216 
Q 1584 2216 1326 1975 
Q 1069 1734 1069 1313 
Q 1069 891 1326 650 
Q 1584 409 2034 409 
Q 2484 409 2743 651 
Q 3003 894 3003 1313 
Q 3003 1734 2745 1975 
Q 2488 2216 2034 2216 
z
M 1403 2484 
Q 997 2584 770 2862 
Q 544 3141 544 3541 
Q 544 4100 942 4425 
Q 1341 4750 2034 4750 
Q 2731 4750 3128 4425 
Q 3525 4100 3525 3541 
Q 3525 3141 3298 2862 
Q 3072 2584 2669 2484 
Q 3125 2378 3379 2068 
Q 3634 1759 3634 1313 
Q 3634 634 3220 271 
Q 2806 -91 2034 -91 
Q 1263 -91 848 271 
Q 434 634 434 1313 
Q 434 1759 690 2068 
Q 947 2378 1403 2484 
z
M 1172 3481 
Q 1172 3119 1398 2916 
Q 1625 2713 2034 2713 
Q 2441 2713 2670 2916 
Q 2900 3119 2900 3481 
Q 2900 3844 2670 4047 
Q 2441 4250 2034 4250 
Q 1625 4250 1398 4047 
Q 1172 3844 1172 3481 
z
" transform="scale(0.015625)"/>
       </defs>
       <use xlink:href="#DejaVuSans-30"/>
       <use xlink:href="#DejaVuSans-2e" x="63.623047"/>
       <use xlink:href="#DejaVuSans-30" x="95.410156"/>
       <use xlink:href="#DejaVuSans-38" x="159.033203"/>
      </g>
     </g>
    </g>
    <g id="xtick_3">
     <g id="line2d_3">
      <g>
       <use xlink:href="#m21b9e41e43" x="86.124979" y="168.661417" style="stroke: #000000; stroke-width: 0.8"/>
      </g>
     </g>
     <g id="text_3">
      <!-- 0.10 -->
      <g transform="translate(79.445292 180.22048) scale(0.06 -0.06)">
       <defs>
        <path id="DejaVuSans-31" d="M 794 531 
L 1825 531 
L 1825 4091 
L 703 3866 
L 703 4441 
L 1819 4666 
L 2450 4666 
L 2450 531 
L 3481 531 
L 3481 0 
L 794 0 
L 794 531 
z
" transform="scale(0.015625)"/>
       </defs>
       <use xlink:href="#DejaVuSans-30"/>
       <use xlink:href="#DejaVuSans-2e" x="63.623047"/>
       <use xlink:href="#DejaVuSans-31" x="95.410156"/>
       <use xlink:href="#DejaVuSans-30" x="159.033203"/>
      </g>
     </g>
    </g>
    <g id="xtick_4">
     <g id="line2d_4">
      <g>
       <use xlink:href="#m21b9e41e43" x="104.700955" y="168.661417" style="stroke: #000000; stroke-width: 0.8"/>
      </g>
     </g>
     <g id="text_4">
      <!-- 0.12 -->
      <g transform="translate(98.021267 180.22048) scale(0.06 -0.06)">
       <defs>
        <path id="DejaVuSans-32" d="M 1228 531 
L 3431 531 
L 3431 0 
L 469 0 
L 469 531 
Q 828 903 1448 1529 
Q 2069 2156 2228 2338 
Q 2531 2678 2651 2914 
Q 2772 3150 2772 3378 
Q 2772 3750 2511 3984 
Q 2250 4219 1831 4219 
Q 1534 4219 1204 4116 
Q 875 4013 500 3803 
L 500 4441 
Q 881 4594 1212 4672 
Q 1544 4750 1819 4750 
Q 2544 4750 2975 4387 
Q 3406 4025 3406 3419 
Q 3406 3131 3298 2873 
Q 3191 2616 2906 2266 
Q 2828 2175 2409 1742 
Q 1991 1309 1228 531 
z
" transform="scale(0.015625)"/>
       </defs>
       <use xlink:href="#DejaVuSans-30"/>
       <use xlink:href="#DejaVuSans-2e" x="63.623047"/>
       <use xlink:href="#DejaVuSans-31" x="95.410156"/>
       <use xlink:href="#DejaVuSans-32" x="159.033203"/>
      </g>
     </g>
    </g>
    <g id="xtick_5">
     <g id="line2d_5">
      <g>
       <use xlink:href="#m21b9e41e43" x="123.276931" y="168.661417" style="stroke: #000000; stroke-width: 0.8"/>
      </g>
     </g>
     <g id="text_5">
      <!-- 0.14 -->
      <g transform="translate(116.597243 180.22048) scale(0.06 -0.06)">
       <defs>
        <path id="DejaVuSans-34" d="M 2419 4116 
L 825 1625 
L 2419 1625 
L 2419 4116 
z
M 2253 4666 
L 3047 4666 
L 3047 1625 
L 3713 1625 
L 3713 1100 
L 3047 1100 
L 3047 0 
L 2419 0 
L 2419 1100 
L 313 1100 
L 313 1709 
L 2253 4666 
z
" transform="scale(0.015625)"/>
       </defs>
       <use xlink:href="#DejaVuSans-30"/>
       <use xlink:href="#DejaVuSans-2e" x="63.623047"/>
       <use xlink:href="#DejaVuSans-31" x="95.410156"/>
       <use xlink:href="#DejaVuSans-34" x="159.033203"/>
      </g>
     </g>
    </g>
    <g id="xtick_6">
     <g id="line2d_6">
      <g>
       <use xlink:href="#m21b9e41e43" x="141.852907" y="168.661417" style="stroke: #000000; stroke-width: 0.8"/>
      </g>
     </g>
     <g id="text_6">
      <!-- 0.16 -->
      <g transform="translate(135.173219 180.22048) scale(0.06 -0.06)">
       <use xlink:href="#DejaVuSans-30"/>
       <use xlink:href="#DejaVuSans-2e" x="63.623047"/>
       <use xlink:href="#DejaVuSans-31" x="95.410156"/>
       <use xlink:href="#DejaVuSans-36" x="159.033203"/>
      </g>
     </g>
    </g>
    <g id="xtick_7">
     <g id="line2d_7">
      <g>
       <use xlink:href="#m21b9e41e43" x="160.428883" y="168.661417" style="stroke: #000000; stroke-width: 0.8"/>
      </g>
     </g>
     <g id="text_7">
      <!-- 0.18 -->
      <g transform="translate(153.749195 180.22048) scale(0.06 -0.06)">
       <use xlink:href="#DejaVuSans-30"/>
       <use xlink:href="#DejaVuSans-2e" x="63.623047"/>
       <use xlink:href="#DejaVuSans-31" x="95.410156"/>
       <use xlink:href="#DejaVuSans-38" x="159.033203"/>
      </g>
     </g>
    </g>
    <g id="xtick_8">
     <g id="line2d_8">
      <g>
       <use xlink:href="#m21b9e41e43" x="179.004858" y="168.661417" style="stroke: #000000; stroke-width: 0.8"/>
      </g>
     </g>
     <g id="text_8">
      <!-- 0.20 -->
      <g transform="translate(172.325171 180.22048) scale(0.06 -0.06)">
       <use xlink:href="#DejaVuSans-30"/>
       <use xlink:href="#DejaVuSans-2e" x="63.623047"/>
       <use xlink:href="#DejaVuSans-32" x="95.410156"/>
       <use xlink:href="#DejaVuSans-30" x="159.033203"/>
      </g>
     </g>
    </g>
    <g id="text_9">
     <!-- $\sigma$ -->
     <g transform="translate(111.748943 190.787199) scale(0.07 -0.07)">
      <defs>
       <path id="DejaVuSans-Oblique-3c3" d="M 2219 3044 
Q 1744 3044 1422 2700 
Q 1081 2341 969 1747 
Q 844 1119 1044 756 
Q 1241 397 1706 397 
Q 2166 397 2503 759 
Q 2844 1122 2966 1747 
Q 3075 2319 2881 2700 
Q 2700 3044 2219 3044 
z
M 2309 3503 
L 4219 3500 
L 4106 2925 
L 3463 2925 
Q 3706 2438 3575 1747 
Q 3406 888 2884 400 
Q 2359 -91 1609 -91 
Q 856 -91 525 400 
Q 194 888 363 1747 
Q 528 2609 1050 3097 
Q 1484 3503 2309 3503 
z
" transform="scale(0.015625)"/>
      </defs>
      <use xlink:href="#DejaVuSans-Oblique-3c3" transform="translate(0 0.265625)"/>
     </g>
    </g>
   </g>
   <g id="matplotlib.axis_2">
    <g id="ytick_1">
     <g id="line2d_9">
      <defs>
       <path id="md68bc0577b" d="M 0 0 
L -3.5 0 
" style="stroke: #000000; stroke-width: 0.8"/>
      </defs>
      <g>
       <use xlink:href="#md68bc0577b" x="39.685039" y="147.579434" style="stroke: #000000; stroke-width: 0.8"/>
      </g>
     </g>
     <g id="text_10">
      <!-- 0.03 -->
      <g transform="translate(19.325664 149.858966) scale(0.06 -0.06)">
       <defs>
        <path id="DejaVuSans-33" d="M 2597 2516 
Q 3050 2419 3304 2112 
Q 3559 1806 3559 1356 
Q 3559 666 3084 287 
Q 2609 -91 1734 -91 
Q 1441 -91 1130 -33 
Q 819 25 488 141 
L 488 750 
Q 750 597 1062 519 
Q 1375 441 1716 441 
Q 2309 441 2620 675 
Q 2931 909 2931 1356 
Q 2931 1769 2642 2001 
Q 2353 2234 1838 2234 
L 1294 2234 
L 1294 2753 
L 1863 2753 
Q 2328 2753 2575 2939 
Q 2822 3125 2822 3475 
Q 2822 3834 2567 4026 
Q 2313 4219 1838 4219 
Q 1578 4219 1281 4162 
Q 984 4106 628 3988 
L 628 4550 
Q 988 4650 1302 4700 
Q 1616 4750 1894 4750 
Q 2613 4750 3031 4423 
Q 3450 4097 3450 3541 
Q 3450 3153 3228 2886 
Q 3006 2619 2597 2516 
z
" transform="scale(0.015625)"/>
       </defs>
       <use xlink:href="#DejaVuSans-30"/>
       <use xlink:href="#DejaVuSans-2e" x="63.623047"/>
       <use xlink:href="#DejaVuSans-30" x="95.410156"/>
       <use xlink:href="#DejaVuSans-33" x="159.033203"/>
      </g>
     </g>
    </g>
    <g id="ytick_2">
     <g id="line2d_10">
      <g>
       <use xlink:href="#md68bc0577b" x="39.685039" y="84.979389" style="stroke: #000000; stroke-width: 0.8"/>
      </g>
     </g>
     <g id="text_11">
      <!-- 0.10 -->
      <g transform="translate(19.325664 87.25892) scale(0.06 -0.06)">
       <use xlink:href="#DejaVuSans-30"/>
       <use xlink:href="#DejaVuSans-2e" x="63.623047"/>
       <use xlink:href="#DejaVuSans-31" x="95.410156"/>
       <use xlink:href="#DejaVuSans-30" x="159.033203"/>
      </g>
     </g>
    </g>
    <g id="ytick_3">
     <g id="line2d_11">
      <g>
       <use xlink:href="#md68bc0577b" x="39.685039" y="27.857518" style="stroke: #000000; stroke-width: 0.8"/>
      </g>
     </g>
     <g id="text_12">
      <!-- 0.30 -->
      <g transform="translate(19.325664 30.137049) scale(0.06 -0.06)">
       <use xlink:href="#DejaVuSans-30"/>
       <use xlink:href="#DejaVuSans-2e" x="63.623047"/>
       <use xlink:href="#DejaVuSans-33" x="95.410156"/>
       <use xlink:href="#DejaVuSans-30" x="159.033203"/>
      </g>
     </g>
    </g>
    <g id="ytick_4">
     <g id="line2d_12">
      <defs>
       <path id="maecb8d9e49" d="M 0 0 
L -2 0 
" style="stroke: #000000; stroke-width: 0.6"/>
      </defs>
      <g>
       <use xlink:href="#maecb8d9e49" x="39.685039" y="168.661417" style="stroke: #000000; stroke-width: 0.6"/>
      </g>
     </g>
    </g>
    <g id="ytick_5">
     <g id="line2d_13">
      <g>
       <use xlink:href="#maecb8d9e49" x="39.685039" y="132.621529" style="stroke: #000000; stroke-width: 0.6"/>
      </g>
     </g>
    </g>
    <g id="ytick_6">
     <g id="line2d_14">
      <g>
       <use xlink:href="#maecb8d9e49" x="39.685039" y="121.019277" style="stroke: #000000; stroke-width: 0.6"/>
      </g>
     </g>
    </g>
    <g id="ytick_7">
     <g id="line2d_15">
      <g>
       <use xlink:href="#maecb8d9e49" x="39.685039" y="111.539546" style="stroke: #000000; stroke-width: 0.6"/>
      </g>
     </g>
    </g>
    <g id="ytick_8">
     <g id="line2d_16">
      <g>
       <use xlink:href="#maecb8d9e49" x="39.685039" y="103.524548" style="stroke: #000000; stroke-width: 0.6"/>
      </g>
     </g>
    </g>
    <g id="ytick_9">
     <g id="line2d_17">
      <g>
       <use xlink:href="#maecb8d9e49" x="39.685039" y="96.581641" style="stroke: #000000; stroke-width: 0.6"/>
      </g>
     </g>
    </g>
    <g id="ytick_10">
     <g id="line2d_18">
      <g>
       <use xlink:href="#maecb8d9e49" x="39.685039" y="90.457563" style="stroke: #000000; stroke-width: 0.6"/>
      </g>
     </g>
    </g>
    <g id="ytick_11">
     <g id="line2d_19">
      <g>
       <use xlink:href="#maecb8d9e49" x="39.685039" y="48.939501" style="stroke: #000000; stroke-width: 0.6"/>
      </g>
     </g>
    </g>
    <g id="text_13">
     <!-- rmse train -->
     <g transform="translate(13.869883 112.274234) rotate(-90) scale(0.07 -0.07)">
      <defs>
       <path id="DejaVuSans-72" d="M 2631 2963 
Q 2534 3019 2420 3045 
Q 2306 3072 2169 3072 
Q 1681 3072 1420 2755 
Q 1159 2438 1159 1844 
L 1159 0 
L 581 0 
L 581 3500 
L 1159 3500 
L 1159 2956 
Q 1341 3275 1631 3429 
Q 1922 3584 2338 3584 
Q 2397 3584 2469 3576 
Q 2541 3569 2628 3553 
L 2631 2963 
z
" transform="scale(0.015625)"/>
       <path id="DejaVuSans-6d" d="M 3328 2828 
Q 3544 3216 3844 3400 
Q 4144 3584 4550 3584 
Q 5097 3584 5394 3201 
Q 5691 2819 5691 2113 
L 5691 0 
L 5113 0 
L 5113 2094 
Q 5113 2597 4934 2840 
Q 4756 3084 4391 3084 
Q 3944 3084 3684 2787 
Q 3425 2491 3425 1978 
L 3425 0 
L 2847 0 
L 2847 2094 
Q 2847 2600 2669 2842 
Q 2491 3084 2119 3084 
Q 1678 3084 1418 2786 
Q 1159 2488 1159 1978 
L 1159 0 
L 581 0 
L 581 3500 
L 1159 3500 
L 1159 2956 
Q 1356 3278 1631 3431 
Q 1906 3584 2284 3584 
Q 2666 3584 2933 3390 
Q 3200 3197 3328 2828 
z
" transform="scale(0.015625)"/>
       <path id="DejaVuSans-73" d="M 2834 3397 
L 2834 2853 
Q 2591 2978 2328 3040 
Q 2066 3103 1784 3103 
Q 1356 3103 1142 2972 
Q 928 2841 928 2578 
Q 928 2378 1081 2264 
Q 1234 2150 1697 2047 
L 1894 2003 
Q 2506 1872 2764 1633 
Q 3022 1394 3022 966 
Q 3022 478 2636 193 
Q 2250 -91 1575 -91 
Q 1294 -91 989 -36 
Q 684 19 347 128 
L 347 722 
Q 666 556 975 473 
Q 1284 391 1588 391 
Q 1994 391 2212 530 
Q 2431 669 2431 922 
Q 2431 1156 2273 1281 
Q 2116 1406 1581 1522 
L 1381 1569 
Q 847 1681 609 1914 
Q 372 2147 372 2553 
Q 372 3047 722 3315 
Q 1072 3584 1716 3584 
Q 2034 3584 2315 3537 
Q 2597 3491 2834 3397 
z
" transform="scale(0.015625)"/>
       <path id="DejaVuSans-65" d="M 3597 1894 
L 3597 1613 
L 953 1613 
Q 991 1019 1311 708 
Q 1631 397 2203 397 
Q 2534 397 2845 478 
Q 3156 559 3463 722 
L 3463 178 
Q 3153 47 2828 -22 
Q 2503 -91 2169 -91 
Q 1331 -91 842 396 
Q 353 884 353 1716 
Q 353 2575 817 3079 
Q 1281 3584 2069 3584 
Q 2775 3584 3186 3129 
Q 3597 2675 3597 1894 
z
M 3022 2063 
Q 3016 2534 2758 2815 
Q 2500 3097 2075 3097 
Q 1594 3097 1305 2825 
Q 1016 2553 972 2059 
L 3022 2063 
z
" transform="scale(0.015625)"/>
       <path id="DejaVuSans-20" transform="scale(0.015625)"/>
       <path id="DejaVuSans-74" d="M 1172 4494 
L 1172 3500 
L 2356 3500 
L 2356 3053 
L 1172 3053 
L 1172 1153 
Q 1172 725 1289 603 
Q 1406 481 1766 481 
L 2356 481 
L 2356 0 
L 1766 0 
Q 1100 0 847 248 
Q 594 497 594 1153 
L 594 3053 
L 172 3053 
L 172 3500 
L 594 3500 
L 594 4494 
L 1172 4494 
z
" transform="scale(0.015625)"/>
       <path id="DejaVuSans-61" d="M 2194 1759 
Q 1497 1759 1228 1600 
Q 959 1441 959 1056 
Q 959 750 1161 570 
Q 1363 391 1709 391 
Q 2188 391 2477 730 
Q 2766 1069 2766 1631 
L 2766 1759 
L 2194 1759 
z
M 3341 1997 
L 3341 0 
L 2766 0 
L 2766 531 
Q 2569 213 2275 61 
Q 1981 -91 1556 -91 
Q 1019 -91 701 211 
Q 384 513 384 1019 
Q 384 1609 779 1909 
Q 1175 2209 1959 2209 
L 2766 2209 
L 2766 2266 
Q 2766 2663 2505 2880 
Q 2244 3097 1772 3097 
Q 1472 3097 1187 3025 
Q 903 2953 641 2809 
L 641 3341 
Q 956 3463 1253 3523 
Q 1550 3584 1831 3584 
Q 2591 3584 2966 3190 
Q 3341 2797 3341 1997 
z
" transform="scale(0.015625)"/>
       <path id="DejaVuSans-69" d="M 603 3500 
L 1178 3500 
L 1178 0 
L 603 0 
L 603 3500 
z
M 603 4863 
L 1178 4863 
L 1178 4134 
L 603 4134 
L 603 4863 
z
" transform="scale(0.015625)"/>
       <path id="DejaVuSans-6e" d="M 3513 2113 
L 3513 0 
L 2938 0 
L 2938 2094 
Q 2938 2591 2744 2837 
Q 2550 3084 2163 3084 
Q 1697 3084 1428 2787 
Q 1159 2491 1159 1978 
L 1159 0 
L 581 0 
L 581 3500 
L 1159 3500 
L 1159 2956 
Q 1366 3272 1645 3428 
Q 1925 3584 2291 3584 
Q 2894 3584 3203 3211 
Q 3513 2838 3513 2113 
z
" transform="scale(0.015625)"/>
      </defs>
      <use xlink:href="#DejaVuSans-72"/>
      <use xlink:href="#DejaVuSans-6d" x="39.363281"/>
      <use xlink:href="#DejaVuSans-73" x="136.775391"/>
      <use xlink:href="#DejaVuSans-65" x="188.875"/>
      <use xlink:href="#DejaVuSans-20" x="250.398438"/>
      <use xlink:href="#DejaVuSans-74" x="282.185547"/>
      <use xlink:href="#DejaVuSans-72" x="321.394531"/>
      <use xlink:href="#DejaVuSans-61" x="362.507812"/>
      <use xlink:href="#DejaVuSans-69" x="423.787109"/>
      <use xlink:href="#DejaVuSans-6e" x="451.570312"/>
     </g>
    </g>
   </g>
   <g id="LineCollection_1">
    <path d="M 48.973027 134.472237 
L 48.973027 122.294549 
" clip-path="url(#pff7f6a7df7)" style="fill: none; stroke: #ff0000; stroke-width: 1.5"/>
    <path d="M 67.549003 119.737525 
L 67.549003 113.109627 
" clip-path="url(#pff7f6a7df7)" style="fill: none; stroke: #ff0000; stroke-width: 1.5"/>
    <path d="M 86.124979 111.7947 
L 86.124979 99.330622 
" clip-path="url(#pff7f6a7df7)" style="fill: none; stroke: #ff0000; stroke-width: 1.5"/>
    <path d="M 104.700955 102.900214 
L 104.700955 94.936684 
" clip-path="url(#pff7f6a7df7)" style="fill: none; stroke: #ff0000; stroke-width: 1.5"/>
    <path d="M 123.276931 95.053339 
L 123.276931 86.70436 
" clip-path="url(#pff7f6a7df7)" style="fill: none; stroke: #ff0000; stroke-width: 1.5"/>
    <path d="M 141.852907 94.832112 
L 141.852907 83.16321 
" clip-path="url(#pff7f6a7df7)" style="fill: none; stroke: #ff0000; stroke-width: 1.5"/>
    <path d="M 160.428883 75.176398 
L 160.428883 68.30989 
" clip-path="url(#pff7f6a7df7)" style="fill: none; stroke: #ff0000; stroke-width: 1.5"/>
    <path d="M 179.004858 73.278846 
L 179.004858 61.297551 
" clip-path="url(#pff7f6a7df7)" style="fill: none; stroke: #ff0000; stroke-width: 1.5"/>
   </g>
   <g id="LineCollection_2">
    <path d="M 48.973027 144.121366 
L 48.973027 134.95986 
" clip-path="url(#pff7f6a7df7)" style="fill: none; stroke: #008000; stroke-width: 1.5"/>
    <path d="M 67.549003 130.394586 
L 67.549003 119.021866 
" clip-path="url(#pff7f6a7df7)" style="fill: none; stroke: #008000; stroke-width: 1.5"/>
    <path d="M 86.124979 123.122988 
L 86.124979 114.929759 
" clip-path="url(#pff7f6a7df7)" style="fill: none; stroke: #008000; stroke-width: 1.5"/>
    <path d="M 104.700955 113.803563 
L 104.700955 106.429694 
" clip-path="url(#pff7f6a7df7)" style="fill: none; stroke: #008000; stroke-width: 1.5"/>
    <path d="M 123.276931 104.941361 
L 123.276931 95.094012 
" clip-path="url(#pff7f6a7df7)" style="fill: none; stroke: #008000; stroke-width: 1.5"/>
    <path d="M 141.852907 111.494831 
L 141.852907 98.999788 
" clip-path="url(#pff7f6a7df7)" style="fill: none; stroke: #008000; stroke-width: 1.5"/>
    <path d="M 160.428883 84.098511 
L 160.428883 77.374895 
" clip-path="url(#pff7f6a7df7)" style="fill: none; stroke: #008000; stroke-width: 1.5"/>
    <path d="M 179.004858 92.149081 
L 179.004858 84.989474 
" clip-path="url(#pff7f6a7df7)" style="fill: none; stroke: #008000; stroke-width: 1.5"/>
   </g>
   <g id="line2d_20">
    <defs>
     <path id="m8f58a92d11" d="M 0 3 
C 0.795609 3 1.55874 2.683901 2.12132 2.12132 
C 2.683901 1.55874 3 0.795609 3 0 
C 3 -0.795609 2.683901 -1.55874 2.12132 -2.12132 
C 1.55874 -2.683901 0.795609 -3 0 -3 
C -0.795609 -3 -1.55874 -2.683901 -2.12132 -2.12132 
C -2.683901 -1.55874 -3 -0.795609 -3 0 
C -3 0.795609 -2.683901 1.55874 -2.12132 2.12132 
C -1.55874 2.683901 -0.795609 3 0 3 
z
" style="stroke: #ff0000"/>
    </defs>
    <g clip-path="url(#pff7f6a7df7)">
     <use xlink:href="#m8f58a92d11" x="48.973027" y="128.027686" style="fill: #ff0000; stroke: #ff0000"/>
     <use xlink:href="#m8f58a92d11" x="67.549003" y="116.318038" style="fill: #ff0000; stroke: #ff0000"/>
     <use xlink:href="#m8f58a92d11" x="86.124979" y="105.190068" style="fill: #ff0000; stroke: #ff0000"/>
     <use xlink:href="#m8f58a92d11" x="104.700955" y="98.766135" style="fill: #ff0000; stroke: #ff0000"/>
     <use xlink:href="#m8f58a92d11" x="123.276931" y="90.711451" style="fill: #ff0000; stroke: #ff0000"/>
     <use xlink:href="#m8f58a92d11" x="141.852907" y="88.670996" style="fill: #ff0000; stroke: #ff0000"/>
     <use xlink:href="#m8f58a92d11" x="160.428883" y="71.629875" style="fill: #ff0000; stroke: #ff0000"/>
     <use xlink:href="#m8f58a92d11" x="179.004858" y="66.943847" style="fill: #ff0000; stroke: #ff0000"/>
    </g>
   </g>
   <g id="line2d_21">
    <defs>
     <path id="m050d5f2aef" d="M 0 3 
C 0.795609 3 1.55874 2.683901 2.12132 2.12132 
C 2.683901 1.55874 3 0.795609 3 0 
C 3 -0.795609 2.683901 -1.55874 2.12132 -2.12132 
C 1.55874 -2.683901 0.795609 -3 0 -3 
C -0.795609 -3 -1.55874 -2.683901 -2.12132 -2.12132 
C -2.683901 -1.55874 -3 -0.795609 -3 0 
C -3 0.795609 -2.683901 1.55874 -2.12132 2.12132 
C -1.55874 2.683901 -0.795609 3 0 3 
z
" style="stroke: #008000"/>
    </defs>
    <g clip-path="url(#pff7f6a7df7)">
     <use xlink:href="#m050d5f2aef" x="48.973027" y="139.33909" style="fill: #008000; stroke: #008000"/>
     <use xlink:href="#m050d5f2aef" x="67.549003" y="124.397901" style="fill: #008000; stroke: #008000"/>
     <use xlink:href="#m050d5f2aef" x="86.124979" y="118.865156" style="fill: #008000; stroke: #008000"/>
     <use xlink:href="#m050d5f2aef" x="104.700955" y="109.986017" style="fill: #008000; stroke: #008000"/>
     <use xlink:href="#m050d5f2aef" x="123.276931" y="99.784908" style="fill: #008000; stroke: #008000"/>
     <use xlink:href="#m050d5f2aef" x="141.852907" y="104.872867" style="fill: #008000; stroke: #008000"/>
     <use xlink:href="#m050d5f2aef" x="160.428883" y="80.628097" style="fill: #008000; stroke: #008000"/>
     <use xlink:href="#m050d5f2aef" x="179.004858" y="88.446141" style="fill: #008000; stroke: #008000"/>
    </g>
   </g>
   <g id="patch_3">
    <path d="M 39.685039 168.661417 
L 39.685039 19.84252 
" style="fill: none; stroke: #000000; stroke-width: 0.8; stroke-linejoin: miter; stroke-linecap: square"/>
   </g>
   <g id="patch_4">
    <path d="M 188.292846 168.661417 
L 188.292846 19.84252 
" style="fill: none; stroke: #000000; stroke-width: 0.8; stroke-linejoin: miter; stroke-linecap: square"/>
   </g>
   <g id="patch_5">
    <path d="M 39.685039 168.661417 
L 188.292846 168.661417 
" style="fill: none; stroke: #000000; stroke-width: 0.8; stroke-linejoin: miter; stroke-linecap: square"/>
   </g>
   <g id="patch_6">
    <path d="M 39.685039 19.84252 
L 188.292846 19.84252 
" style="fill: none; stroke: #000000; stroke-width: 0.8; stroke-linejoin: miter; stroke-linecap: square"/>
   </g>
   <g id="text_14">
    <!-- tanh -->
    <g transform="translate(100.35488 13.84252) scale(0.12 -0.12)">
     <defs>
      <path id="DejaVuSans-68" d="M 3513 2113 
L 3513 0 
L 2938 0 
L 2938 2094 
Q 2938 2591 2744 2837 
Q 2550 3084 2163 3084 
Q 1697 3084 1428 2787 
Q 1159 2491 1159 1978 
L 1159 0 
L 581 0 
L 581 4863 
L 1159 4863 
L 1159 2956 
Q 1366 3272 1645 3428 
Q 1925 3584 2291 3584 
Q 2894 3584 3203 3211 
Q 3513 2838 3513 2113 
z
" transform="scale(0.015625)"/>
     </defs>
     <use xlink:href="#DejaVuSans-74"/>
     <use xlink:href="#DejaVuSans-61" x="39.208984"/>
     <use xlink:href="#DejaVuSans-6e" x="100.488281"/>
     <use xlink:href="#DejaVuSans-68" x="163.867188"/>
    </g>
   </g>
   <g id="legend_1">
    <g id="LineCollection_3">
     <path d="M 142.348784 30.701582 
L 142.348784 24.701582 
" style="fill: none; stroke: #ff0000; stroke-width: 1.5"/>
    </g>
    <g id="line2d_22"/>
    <g id="line2d_23">
     <g>
      <use xlink:href="#m8f58a92d11" x="142.348784" y="27.701582" style="fill: #ff0000; stroke: #ff0000"/>
     </g>
    </g>
    <g id="text_15">
     <!-- nn_train -->
     <g transform="translate(153.148784 29.801582) scale(0.06 -0.06)">
      <defs>
       <path id="DejaVuSans-5f" d="M 3263 -1063 
L 3263 -1509 
L -63 -1509 
L -63 -1063 
L 3263 -1063 
z
" transform="scale(0.015625)"/>
      </defs>
      <use xlink:href="#DejaVuSans-6e"/>
      <use xlink:href="#DejaVuSans-6e" x="63.378906"/>
      <use xlink:href="#DejaVuSans-5f" x="126.757812"/>
      <use xlink:href="#DejaVuSans-74" x="176.757812"/>
      <use xlink:href="#DejaVuSans-72" x="215.966797"/>
      <use xlink:href="#DejaVuSans-61" x="257.080078"/>
      <use xlink:href="#DejaVuSans-69" x="318.359375"/>
      <use xlink:href="#DejaVuSans-6e" x="346.142578"/>
     </g>
    </g>
    <g id="LineCollection_4">
     <path d="M 142.348784 39.675332 
L 142.348784 33.675332 
" style="fill: none; stroke: #008000; stroke-width: 1.5"/>
    </g>
    <g id="line2d_24"/>
    <g id="line2d_25">
     <g>
      <use xlink:href="#m050d5f2aef" x="142.348784" y="36.675332" style="fill: #008000; stroke: #008000"/>
     </g>
    </g>
    <g id="text_16">
     <!-- bms_train -->
     <g transform="translate(153.148784 38.775332) scale(0.06 -0.06)">
      <defs>
       <path id="DejaVuSans-62" d="M 3116 1747 
Q 3116 2381 2855 2742 
Q 2594 3103 2138 3103 
Q 1681 3103 1420 2742 
Q 1159 2381 1159 1747 
Q 1159 1113 1420 752 
Q 1681 391 2138 391 
Q 2594 391 2855 752 
Q 3116 1113 3116 1747 
z
M 1159 2969 
Q 1341 3281 1617 3432 
Q 1894 3584 2278 3584 
Q 2916 3584 3314 3078 
Q 3713 2572 3713 1747 
Q 3713 922 3314 415 
Q 2916 -91 2278 -91 
Q 1894 -91 1617 61 
Q 1341 213 1159 525 
L 1159 0 
L 581 0 
L 581 4863 
L 1159 4863 
L 1159 2969 
z
" transform="scale(0.015625)"/>
      </defs>
      <use xlink:href="#DejaVuSans-62"/>
      <use xlink:href="#DejaVuSans-6d" x="63.476562"/>
      <use xlink:href="#DejaVuSans-73" x="160.888672"/>
      <use xlink:href="#DejaVuSans-5f" x="212.988281"/>
      <use xlink:href="#DejaVuSans-74" x="262.988281"/>
      <use xlink:href="#DejaVuSans-72" x="302.197266"/>
      <use xlink:href="#DejaVuSans-61" x="343.310547"/>
      <use xlink:href="#DejaVuSans-69" x="404.589844"/>
      <use xlink:href="#DejaVuSans-6e" x="432.373047"/>
     </g>
    </g>
   </g>
  </g>
  <g id="axes_2">
   <g id="patch_7">
    <path d="M 240.305579 168.661417 
L 388.913386 168.661417 
L 388.913386 19.84252 
L 240.305579 19.84252 
z
" style="fill: #ffffff"/>
   </g>
   <g id="matplotlib.axis_3">
    <g id="xtick_9">
     <g id="line2d_26">
      <g>
       <use xlink:href="#m21b9e41e43" x="249.593567" y="168.661417" style="stroke: #000000; stroke-width: 0.8"/>
      </g>
     </g>
     <g id="text_17">
      <!-- 0.06 -->
      <g transform="translate(242.913879 180.22048) scale(0.06 -0.06)">
       <use xlink:href="#DejaVuSans-30"/>
       <use xlink:href="#DejaVuSans-2e" x="63.623047"/>
       <use xlink:href="#DejaVuSans-30" x="95.410156"/>
       <use xlink:href="#DejaVuSans-36" x="159.033203"/>
      </g>
     </g>
    </g>
    <g id="xtick_10">
     <g id="line2d_27">
      <g>
       <use xlink:href="#m21b9e41e43" x="268.169543" y="168.661417" style="stroke: #000000; stroke-width: 0.8"/>
      </g>
     </g>
     <g id="text_18">
      <!-- 0.08 -->
      <g transform="translate(261.489855 180.22048) scale(0.06 -0.06)">
       <use xlink:href="#DejaVuSans-30"/>
       <use xlink:href="#DejaVuSans-2e" x="63.623047"/>
       <use xlink:href="#DejaVuSans-30" x="95.410156"/>
       <use xlink:href="#DejaVuSans-38" x="159.033203"/>
      </g>
     </g>
    </g>
    <g id="xtick_11">
     <g id="line2d_28">
      <g>
       <use xlink:href="#m21b9e41e43" x="286.745519" y="168.661417" style="stroke: #000000; stroke-width: 0.8"/>
      </g>
     </g>
     <g id="text_19">
      <!-- 0.10 -->
      <g transform="translate(280.065831 180.22048) scale(0.06 -0.06)">
       <use xlink:href="#DejaVuSans-30"/>
       <use xlink:href="#DejaVuSans-2e" x="63.623047"/>
       <use xlink:href="#DejaVuSans-31" x="95.410156"/>
       <use xlink:href="#DejaVuSans-30" x="159.033203"/>
      </g>
     </g>
    </g>
    <g id="xtick_12">
     <g id="line2d_29">
      <g>
       <use xlink:href="#m21b9e41e43" x="305.321494" y="168.661417" style="stroke: #000000; stroke-width: 0.8"/>
      </g>
     </g>
     <g id="text_20">
      <!-- 0.12 -->
      <g transform="translate(298.641807 180.22048) scale(0.06 -0.06)">
       <use xlink:href="#DejaVuSans-30"/>
       <use xlink:href="#DejaVuSans-2e" x="63.623047"/>
       <use xlink:href="#DejaVuSans-31" x="95.410156"/>
       <use xlink:href="#DejaVuSans-32" x="159.033203"/>
      </g>
     </g>
    </g>
    <g id="xtick_13">
     <g id="line2d_30">
      <g>
       <use xlink:href="#m21b9e41e43" x="323.89747" y="168.661417" style="stroke: #000000; stroke-width: 0.8"/>
      </g>
     </g>
     <g id="text_21">
      <!-- 0.14 -->
      <g transform="translate(317.217783 180.22048) scale(0.06 -0.06)">
       <use xlink:href="#DejaVuSans-30"/>
       <use xlink:href="#DejaVuSans-2e" x="63.623047"/>
       <use xlink:href="#DejaVuSans-31" x="95.410156"/>
       <use xlink:href="#DejaVuSans-34" x="159.033203"/>
      </g>
     </g>
    </g>
    <g id="xtick_14">
     <g id="line2d_31">
      <g>
       <use xlink:href="#m21b9e41e43" x="342.473446" y="168.661417" style="stroke: #000000; stroke-width: 0.8"/>
      </g>
     </g>
     <g id="text_22">
      <!-- 0.16 -->
      <g transform="translate(335.793759 180.22048) scale(0.06 -0.06)">
       <use xlink:href="#DejaVuSans-30"/>
       <use xlink:href="#DejaVuSans-2e" x="63.623047"/>
       <use xlink:href="#DejaVuSans-31" x="95.410156"/>
       <use xlink:href="#DejaVuSans-36" x="159.033203"/>
      </g>
     </g>
    </g>
    <g id="xtick_15">
     <g id="line2d_32">
      <g>
       <use xlink:href="#m21b9e41e43" x="361.049422" y="168.661417" style="stroke: #000000; stroke-width: 0.8"/>
      </g>
     </g>
     <g id="text_23">
      <!-- 0.18 -->
      <g transform="translate(354.369735 180.22048) scale(0.06 -0.06)">
       <use xlink:href="#DejaVuSans-30"/>
       <use xlink:href="#DejaVuSans-2e" x="63.623047"/>
       <use xlink:href="#DejaVuSans-31" x="95.410156"/>
       <use xlink:href="#DejaVuSans-38" x="159.033203"/>
      </g>
     </g>
    </g>
    <g id="xtick_16">
     <g id="line2d_33">
      <g>
       <use xlink:href="#m21b9e41e43" x="379.625398" y="168.661417" style="stroke: #000000; stroke-width: 0.8"/>
      </g>
     </g>
     <g id="text_24">
      <!-- 0.20 -->
      <g transform="translate(372.94571 180.22048) scale(0.06 -0.06)">
       <use xlink:href="#DejaVuSans-30"/>
       <use xlink:href="#DejaVuSans-2e" x="63.623047"/>
       <use xlink:href="#DejaVuSans-32" x="95.410156"/>
       <use xlink:href="#DejaVuSans-30" x="159.033203"/>
      </g>
     </g>
    </g>
    <g id="text_25">
     <!-- $\sigma$ -->
     <g transform="translate(312.369482 190.787199) scale(0.07 -0.07)">
      <use xlink:href="#DejaVuSans-Oblique-3c3" transform="translate(0 0.265625)"/>
     </g>
    </g>
   </g>
   <g id="matplotlib.axis_4">
    <g id="ytick_12">
     <g id="line2d_34">
      <g>
       <use xlink:href="#md68bc0577b" x="240.305579" y="158.344779" style="stroke: #000000; stroke-width: 0.8"/>
      </g>
     </g>
     <g id="text_26">
      <!-- 0.1 -->
      <g transform="translate(223.763704 160.62431) scale(0.06 -0.06)">
       <use xlink:href="#DejaVuSans-30"/>
       <use xlink:href="#DejaVuSans-2e" x="63.623047"/>
       <use xlink:href="#DejaVuSans-31" x="95.410156"/>
      </g>
     </g>
    </g>
    <g id="ytick_13">
     <g id="line2d_35">
      <g>
       <use xlink:href="#md68bc0577b" x="240.305579" y="51.888925" style="stroke: #000000; stroke-width: 0.8"/>
      </g>
     </g>
     <g id="text_27">
      <!-- 1.0 -->
      <g transform="translate(223.763704 54.168456) scale(0.06 -0.06)">
       <use xlink:href="#DejaVuSans-31"/>
       <use xlink:href="#DejaVuSans-2e" x="63.623047"/>
       <use xlink:href="#DejaVuSans-30" x="95.410156"/>
      </g>
     </g>
    </g>
    <g id="ytick_14">
     <g id="line2d_36">
      <g>
       <use xlink:href="#md68bc0577b" x="240.305579" y="19.84252" style="stroke: #000000; stroke-width: 0.8"/>
      </g>
     </g>
     <g id="text_28">
      <!-- 2.0 -->
      <g transform="translate(223.763704 22.122051) scale(0.06 -0.06)">
       <use xlink:href="#DejaVuSans-32"/>
       <use xlink:href="#DejaVuSans-2e" x="63.623047"/>
       <use xlink:href="#DejaVuSans-30" x="95.410156"/>
      </g>
     </g>
    </g>
    <g id="ytick_15">
     <g id="line2d_37">
      <g>
       <use xlink:href="#maecb8d9e49" x="240.305579" y="168.661417" style="stroke: #000000; stroke-width: 0.6"/>
      </g>
     </g>
    </g>
    <g id="ytick_16">
     <g id="line2d_38">
      <g>
       <use xlink:href="#maecb8d9e49" x="240.305579" y="163.215932" style="stroke: #000000; stroke-width: 0.6"/>
      </g>
     </g>
    </g>
    <g id="ytick_17">
     <g id="line2d_39">
      <g>
       <use xlink:href="#maecb8d9e49" x="240.305579" y="126.298374" style="stroke: #000000; stroke-width: 0.6"/>
      </g>
     </g>
    </g>
    <g id="ytick_18">
     <g id="line2d_40">
      <g>
       <use xlink:href="#maecb8d9e49" x="240.305579" y="107.552428" style="stroke: #000000; stroke-width: 0.6"/>
      </g>
     </g>
    </g>
    <g id="ytick_19">
     <g id="line2d_41">
      <g>
       <use xlink:href="#maecb8d9e49" x="240.305579" y="94.251969" style="stroke: #000000; stroke-width: 0.6"/>
      </g>
     </g>
    </g>
    <g id="ytick_20">
     <g id="line2d_42">
      <g>
       <use xlink:href="#maecb8d9e49" x="240.305579" y="83.93533" style="stroke: #000000; stroke-width: 0.6"/>
      </g>
     </g>
    </g>
    <g id="ytick_21">
     <g id="line2d_43">
      <g>
       <use xlink:href="#maecb8d9e49" x="240.305579" y="75.506023" style="stroke: #000000; stroke-width: 0.6"/>
      </g>
     </g>
    </g>
    <g id="ytick_22">
     <g id="line2d_44">
      <g>
       <use xlink:href="#maecb8d9e49" x="240.305579" y="68.379145" style="stroke: #000000; stroke-width: 0.6"/>
      </g>
     </g>
    </g>
    <g id="ytick_23">
     <g id="line2d_45">
      <g>
       <use xlink:href="#maecb8d9e49" x="240.305579" y="62.205563" style="stroke: #000000; stroke-width: 0.6"/>
      </g>
     </g>
    </g>
    <g id="ytick_24">
     <g id="line2d_46">
      <g>
       <use xlink:href="#maecb8d9e49" x="240.305579" y="56.760078" style="stroke: #000000; stroke-width: 0.6"/>
      </g>
     </g>
    </g>
    <g id="text_29">
     <!-- rmse test -->
     <g transform="translate(218.307923 110.849078) rotate(-90) scale(0.07 -0.07)">
      <use xlink:href="#DejaVuSans-72"/>
      <use xlink:href="#DejaVuSans-6d" x="39.363281"/>
      <use xlink:href="#DejaVuSans-73" x="136.775391"/>
      <use xlink:href="#DejaVuSans-65" x="188.875"/>
      <use xlink:href="#DejaVuSans-20" x="250.398438"/>
      <use xlink:href="#DejaVuSans-74" x="282.185547"/>
      <use xlink:href="#DejaVuSans-65" x="321.394531"/>
      <use xlink:href="#DejaVuSans-73" x="382.917969"/>
      <use xlink:href="#DejaVuSans-74" x="435.017578"/>
     </g>
    </g>
   </g>
   <g id="LineCollection_5">
    <path d="M 249.593567 132.504516 
L 249.593567 117.301751 
" clip-path="url(#p4207497f92)" style="fill: none; stroke: #ff0000; stroke-width: 1.5"/>
    <path d="M 268.169543 157.098624 
L 268.169543 141.025816 
" clip-path="url(#p4207497f92)" style="fill: none; stroke: #ff0000; stroke-width: 1.5"/>
    <path d="M 286.745519 129.305034 
L 286.745519 111.482678 
" clip-path="url(#p4207497f92)" style="fill: none; stroke: #ff0000; stroke-width: 1.5"/>
    <path d="M 305.321494 133.064628 
L 305.321494 118.352422 
" clip-path="url(#p4207497f92)" style="fill: none; stroke: #ff0000; stroke-width: 1.5"/>
    <path d="M 323.89747 148.293648 
L 323.89747 131.243132 
" clip-path="url(#p4207497f92)" style="fill: none; stroke: #ff0000; stroke-width: 1.5"/>
    <path d="M 342.473446 114.267104 
L 342.473446 98.806623 
" clip-path="url(#p4207497f92)" style="fill: none; stroke: #ff0000; stroke-width: 1.5"/>
    <path d="M 361.049422 115.813817 
L 361.049422 91.277955 
" clip-path="url(#p4207497f92)" style="fill: none; stroke: #ff0000; stroke-width: 1.5"/>
    <path d="M 379.625398 102.67813 
L 379.625398 80.719135 
" clip-path="url(#p4207497f92)" style="fill: none; stroke: #ff0000; stroke-width: 1.5"/>
   </g>
   <g id="LineCollection_6">
    <path d="M 249.593567 132.407398 
L 249.593567 106.520497 
" clip-path="url(#p4207497f92)" style="fill: none; stroke: #008000; stroke-width: 1.5"/>
    <path d="M 268.169543 116.598194 
L 268.169543 91.70311 
" clip-path="url(#p4207497f92)" style="fill: none; stroke: #008000; stroke-width: 1.5"/>
    <path d="M 286.745519 135.003438 
L 286.745519 105.102147 
" clip-path="url(#p4207497f92)" style="fill: none; stroke: #008000; stroke-width: 1.5"/>
    <path d="M 305.321494 98.998823 
L 305.321494 51.009393 
" clip-path="url(#p4207497f92)" style="fill: none; stroke: #008000; stroke-width: 1.5"/>
    <path d="M 323.89747 111.302514 
L 323.89747 86.006421 
" clip-path="url(#p4207497f92)" style="fill: none; stroke: #008000; stroke-width: 1.5"/>
    <path d="M 342.473446 130.576177 
L 342.473446 118.946962 
" clip-path="url(#p4207497f92)" style="fill: none; stroke: #008000; stroke-width: 1.5"/>
    <path d="M 361.049422 98.854819 
L 361.049422 85.472632 
" clip-path="url(#p4207497f92)" style="fill: none; stroke: #008000; stroke-width: 1.5"/>
    <path d="M 379.625398 199.425197 
L 379.625398 -1 
" clip-path="url(#p4207497f92)" style="fill: none; stroke: #008000; stroke-width: 1.5"/>
   </g>
   <g id="line2d_47">
    <g clip-path="url(#p4207497f92)">
     <use xlink:href="#m8f58a92d11" x="249.593567" y="124.281042" style="fill: #ff0000; stroke: #ff0000"/>
     <use xlink:href="#m8f58a92d11" x="268.169543" y="148.367252" style="fill: #ff0000; stroke: #ff0000"/>
     <use xlink:href="#m8f58a92d11" x="286.745519" y="119.540333" style="fill: #ff0000; stroke: #ff0000"/>
     <use xlink:href="#m8f58a92d11" x="305.321494" y="125.125767" style="fill: #ff0000; stroke: #ff0000"/>
     <use xlink:href="#m8f58a92d11" x="323.89747" y="138.986789" style="fill: #ff0000; stroke: #ff0000"/>
     <use xlink:href="#m8f58a92d11" x="342.473446" y="105.8936" style="fill: #ff0000; stroke: #ff0000"/>
     <use xlink:href="#m8f58a92d11" x="361.049422" y="101.936993" style="fill: #ff0000; stroke: #ff0000"/>
     <use xlink:href="#m8f58a92d11" x="379.625398" y="90.406996" style="fill: #ff0000; stroke: #ff0000"/>
    </g>
   </g>
   <g id="line2d_48">
    <g clip-path="url(#p4207497f92)">
     <use xlink:href="#m050d5f2aef" x="249.593567" y="117.675307" style="fill: #008000; stroke: #008000"/>
     <use xlink:href="#m050d5f2aef" x="268.169543" y="102.494863" style="fill: #008000; stroke: #008000"/>
     <use xlink:href="#m050d5f2aef" x="286.745519" y="117.676454" style="fill: #008000; stroke: #008000"/>
     <use xlink:href="#m050d5f2aef" x="305.321494" y="69.038517" style="fill: #008000; stroke: #008000"/>
     <use xlink:href="#m050d5f2aef" x="323.89747" y="96.945559" style="fill: #008000; stroke: #008000"/>
     <use xlink:href="#m050d5f2aef" x="342.473446" y="124.396886" style="fill: #008000; stroke: #008000"/>
     <use xlink:href="#m050d5f2aef" x="361.049422" y="91.681223" style="fill: #008000; stroke: #008000"/>
     <use xlink:href="#m050d5f2aef" x="361.561407" y="-1" style="fill: #008000; stroke: #008000"/>
    </g>
   </g>
   <g id="patch_8">
    <path d="M 240.305579 168.661417 
L 240.305579 19.84252 
" style="fill: none; stroke: #000000; stroke-width: 0.8; stroke-linejoin: miter; stroke-linecap: square"/>
   </g>
   <g id="patch_9">
    <path d="M 388.913386 168.661417 
L 388.913386 19.84252 
" style="fill: none; stroke: #000000; stroke-width: 0.8; stroke-linejoin: miter; stroke-linecap: square"/>
   </g>
   <g id="patch_10">
    <path d="M 240.305579 168.661417 
L 388.913386 168.661417 
" style="fill: none; stroke: #000000; stroke-width: 0.8; stroke-linejoin: miter; stroke-linecap: square"/>
   </g>
   <g id="patch_11">
    <path d="M 240.305579 19.84252 
L 388.913386 19.84252 
" style="fill: none; stroke: #000000; stroke-width: 0.8; stroke-linejoin: miter; stroke-linecap: square"/>
   </g>
   <g id="legend_2">
    <g id="LineCollection_7">
     <path d="M 251.705579 30.701582 
L 251.705579 24.701582 
" style="fill: none; stroke: #ff0000; stroke-width: 1.5"/>
    </g>
    <g id="line2d_49"/>
    <g id="line2d_50">
     <g>
      <use xlink:href="#m8f58a92d11" x="251.705579" y="27.701582" style="fill: #ff0000; stroke: #ff0000"/>
     </g>
    </g>
    <g id="text_30">
     <!-- nn_test -->
     <g transform="translate(262.505579 29.801582) scale(0.06 -0.06)">
      <use xlink:href="#DejaVuSans-6e"/>
      <use xlink:href="#DejaVuSans-6e" x="63.378906"/>
      <use xlink:href="#DejaVuSans-5f" x="126.757812"/>
      <use xlink:href="#DejaVuSans-74" x="176.757812"/>
      <use xlink:href="#DejaVuSans-65" x="215.966797"/>
      <use xlink:href="#DejaVuSans-73" x="277.490234"/>
      <use xlink:href="#DejaVuSans-74" x="329.589844"/>
     </g>
    </g>
    <g id="LineCollection_8">
     <path d="M 251.705579 39.675332 
L 251.705579 33.675332 
" style="fill: none; stroke: #008000; stroke-width: 1.5"/>
    </g>
    <g id="line2d_51"/>
    <g id="line2d_52">
     <g>
      <use xlink:href="#m050d5f2aef" x="251.705579" y="36.675332" style="fill: #008000; stroke: #008000"/>
     </g>
    </g>
    <g id="text_31">
     <!-- bms_test -->
     <g transform="translate(262.505579 38.775332) scale(0.06 -0.06)">
      <use xlink:href="#DejaVuSans-62"/>
      <use xlink:href="#DejaVuSans-6d" x="63.476562"/>
      <use xlink:href="#DejaVuSans-73" x="160.888672"/>
      <use xlink:href="#DejaVuSans-5f" x="212.988281"/>
      <use xlink:href="#DejaVuSans-74" x="262.988281"/>
      <use xlink:href="#DejaVuSans-65" x="302.197266"/>
      <use xlink:href="#DejaVuSans-73" x="363.720703"/>
      <use xlink:href="#DejaVuSans-74" x="415.820312"/>
     </g>
    </g>
   </g>
  </g>
 </g>
 <defs>
  <clipPath id="pff7f6a7df7">
   <rect x="39.685039" y="19.84252" width="148.607807" height="148.818898"/>
  </clipPath>
  <clipPath id="p4207497f92">
   <rect x="240.305579" y="19.84252" width="148.607807" height="148.818898"/>
  </clipPath>
 </defs>
</svg>
