<?xml version="1.0" encoding="utf-8" standalone="no"?>
<!DOCTYPE svg PUBLIC "-//W3C//DTD SVG 1.1//EN"
  "http://www.w3.org/Graphics/SVG/1.1/DTD/svg11.dtd">
<svg xmlns:xlink="http://www.w3.org/1999/xlink" width="396.850394pt" height="198.425197pt" viewBox="0 0 396.850394 198.425197" xmlns="http://www.w3.org/2000/svg" version="1.1">
 <metadata>
  <rdf:RDF xmlns:dc="http://purl.org/dc/elements/1.1/" xmlns:cc="http://creativecommons.org/ns#" xmlns:rdf="http://www.w3.org/1999/02/22-rdf-syntax-ns#">
   <cc:Work>
    <dc:type rdf:resource="http://purl.org/dc/dcmitype/StillImage"/>
    <dc:date>2024-10-11T16:57:57.791223</dc:date>
    <dc:format>image/svg+xml</dc:format>
    <dc:creator>
     <cc:Agent>
      <dc:title>Matplotlib v3.9.2, https://matplotlib.org/</dc:title>
     </cc:Agent>
    </dc:creator>
   </cc:Work>
  </rdf:RDF>
 </metadata>
 <defs>
  <style type="text/css">*{stroke-linejoin: round; stroke-linecap: butt}</style>
 </defs>
 <g id="figure_1">
  <g id="patch_1">
   <path d="M 0 198.425197 
L 396.850394 198.425197 
L 396.850394 0 
L 0 0 
z
" style="fill: #ffffff"/>
  </g>
  <g id="axes_1">
   <g id="patch_2">
    <path d="M 39.685039 168.661417 
L 188.292846 168.661417 
L 188.292846 19.84252 
L 39.685039 19.84252 
z
" style="fill: #ffffff"/>
   </g>
   <g id="matplotlib.axis_1">
    <g id="xtick_1">
     <g id="line2d_1">
      <defs>
       <path id="m0889a26dd8" d="M 0 0 
L 0 3.5 
" style="stroke: #000000; stroke-width: 0.8"/>
      </defs>
      <g>
       <use xlink:href="#m0889a26dd8" x="53.838164" y="168.661417" style="stroke: #000000; stroke-width: 0.8"/>
      </g>
     </g>
     <g id="text_1">
      <!-- 0.02 -->
      <g transform="translate(47.158476 180.22048) scale(0.06 -0.06)">
       <defs>
        <path id="DejaVuSans-30" d="M 2034 4250 
Q 1547 4250 1301 3770 
Q 1056 3291 1056 2328 
Q 1056 1369 1301 889 
Q 1547 409 2034 409 
Q 2525 409 2770 889 
Q 3016 1369 3016 2328 
Q 3016 3291 2770 3770 
Q 2525 4250 2034 4250 
z
M 2034 4750 
Q 2819 4750 3233 4129 
Q 3647 3509 3647 2328 
Q 3647 1150 3233 529 
Q 2819 -91 2034 -91 
Q 1250 -91 836 529 
Q 422 1150 422 2328 
Q 422 3509 836 4129 
Q 1250 4750 2034 4750 
z
" transform="scale(0.015625)"/>
        <path id="DejaVuSans-2e" d="M 684 794 
L 1344 794 
L 1344 0 
L 684 0 
L 684 794 
z
" transform="scale(0.015625)"/>
        <path id="DejaVuSans-32" d="M 1228 531 
L 3431 531 
L 3431 0 
L 469 0 
L 469 531 
Q 828 903 1448 1529 
Q 2069 2156 2228 2338 
Q 2531 2678 2651 2914 
Q 2772 3150 2772 3378 
Q 2772 3750 2511 3984 
Q 2250 4219 1831 4219 
Q 1534 4219 1204 4116 
Q 875 4013 500 3803 
L 500 4441 
Q 881 4594 1212 4672 
Q 1544 4750 1819 4750 
Q 2544 4750 2975 4387 
Q 3406 4025 3406 3419 
Q 3406 3131 3298 2873 
Q 3191 2616 2906 2266 
Q 2828 2175 2409 1742 
Q 1991 1309 1228 531 
z
" transform="scale(0.015625)"/>
       </defs>
       <use xlink:href="#DejaVuSans-30"/>
       <use xlink:href="#DejaVuSans-2e" x="63.623047"/>
       <use xlink:href="#DejaVuSans-30" x="95.410156"/>
       <use xlink:href="#DejaVuSans-32" x="159.033203"/>
      </g>
     </g>
    </g>
    <g id="xtick_2">
     <g id="line2d_2">
      <g>
       <use xlink:href="#m0889a26dd8" x="67.991288" y="168.661417" style="stroke: #000000; stroke-width: 0.8"/>
      </g>
     </g>
     <g id="text_2">
      <!-- 0.04 -->
      <g transform="translate(61.311601 180.22048) scale(0.06 -0.06)">
       <defs>
        <path id="DejaVuSans-34" d="M 2419 4116 
L 825 1625 
L 2419 1625 
L 2419 4116 
z
M 2253 4666 
L 3047 4666 
L 3047 1625 
L 3713 1625 
L 3713 1100 
L 3047 1100 
L 3047 0 
L 2419 0 
L 2419 1100 
L 313 1100 
L 313 1709 
L 2253 4666 
z
" transform="scale(0.015625)"/>
       </defs>
       <use xlink:href="#DejaVuSans-30"/>
       <use xlink:href="#DejaVuSans-2e" x="63.623047"/>
       <use xlink:href="#DejaVuSans-30" x="95.410156"/>
       <use xlink:href="#DejaVuSans-34" x="159.033203"/>
      </g>
     </g>
    </g>
    <g id="xtick_3">
     <g id="line2d_3">
      <g>
       <use xlink:href="#m0889a26dd8" x="82.144413" y="168.661417" style="stroke: #000000; stroke-width: 0.8"/>
      </g>
     </g>
     <g id="text_3">
      <!-- 0.06 -->
      <g transform="translate(75.464725 180.22048) scale(0.06 -0.06)">
       <defs>
        <path id="DejaVuSans-36" d="M 2113 2584 
Q 1688 2584 1439 2293 
Q 1191 2003 1191 1497 
Q 1191 994 1439 701 
Q 1688 409 2113 409 
Q 2538 409 2786 701 
Q 3034 994 3034 1497 
Q 3034 2003 2786 2293 
Q 2538 2584 2113 2584 
z
M 3366 4563 
L 3366 3988 
Q 3128 4100 2886 4159 
Q 2644 4219 2406 4219 
Q 1781 4219 1451 3797 
Q 1122 3375 1075 2522 
Q 1259 2794 1537 2939 
Q 1816 3084 2150 3084 
Q 2853 3084 3261 2657 
Q 3669 2231 3669 1497 
Q 3669 778 3244 343 
Q 2819 -91 2113 -91 
Q 1303 -91 875 529 
Q 447 1150 447 2328 
Q 447 3434 972 4092 
Q 1497 4750 2381 4750 
Q 2619 4750 2861 4703 
Q 3103 4656 3366 4563 
z
" transform="scale(0.015625)"/>
       </defs>
       <use xlink:href="#DejaVuSans-30"/>
       <use xlink:href="#DejaVuSans-2e" x="63.623047"/>
       <use xlink:href="#DejaVuSans-30" x="95.410156"/>
       <use xlink:href="#DejaVuSans-36" x="159.033203"/>
      </g>
     </g>
    </g>
    <g id="xtick_4">
     <g id="line2d_4">
      <g>
       <use xlink:href="#m0889a26dd8" x="96.297537" y="168.661417" style="stroke: #000000; stroke-width: 0.8"/>
      </g>
     </g>
     <g id="text_4">
      <!-- 0.08 -->
      <g transform="translate(89.61785 180.22048) scale(0.06 -0.06)">
       <defs>
        <path id="DejaVuSans-38" d="M 2034 2216 
Q 1584 2216 1326 1975 
Q 1069 1734 1069 1313 
Q 1069 891 1326 650 
Q 1584 409 2034 409 
Q 2484 409 2743 651 
Q 3003 894 3003 1313 
Q 3003 1734 2745 1975 
Q 2488 2216 2034 2216 
z
M 1403 2484 
Q 997 2584 770 2862 
Q 544 3141 544 3541 
Q 544 4100 942 4425 
Q 1341 4750 2034 4750 
Q 2731 4750 3128 4425 
Q 3525 4100 3525 3541 
Q 3525 3141 3298 2862 
Q 3072 2584 2669 2484 
Q 3125 2378 3379 2068 
Q 3634 1759 3634 1313 
Q 3634 634 3220 271 
Q 2806 -91 2034 -91 
Q 1263 -91 848 271 
Q 434 634 434 1313 
Q 434 1759 690 2068 
Q 947 2378 1403 2484 
z
M 1172 3481 
Q 1172 3119 1398 2916 
Q 1625 2713 2034 2713 
Q 2441 2713 2670 2916 
Q 2900 3119 2900 3481 
Q 2900 3844 2670 4047 
Q 2441 4250 2034 4250 
Q 1625 4250 1398 4047 
Q 1172 3844 1172 3481 
z
" transform="scale(0.015625)"/>
       </defs>
       <use xlink:href="#DejaVuSans-30"/>
       <use xlink:href="#DejaVuSans-2e" x="63.623047"/>
       <use xlink:href="#DejaVuSans-30" x="95.410156"/>
       <use xlink:href="#DejaVuSans-38" x="159.033203"/>
      </g>
     </g>
    </g>
    <g id="xtick_5">
     <g id="line2d_5">
      <g>
       <use xlink:href="#m0889a26dd8" x="110.450662" y="168.661417" style="stroke: #000000; stroke-width: 0.8"/>
      </g>
     </g>
     <g id="text_5">
      <!-- 0.10 -->
      <g transform="translate(103.770974 180.22048) scale(0.06 -0.06)">
       <defs>
        <path id="DejaVuSans-31" d="M 794 531 
L 1825 531 
L 1825 4091 
L 703 3866 
L 703 4441 
L 1819 4666 
L 2450 4666 
L 2450 531 
L 3481 531 
L 3481 0 
L 794 0 
L 794 531 
z
" transform="scale(0.015625)"/>
       </defs>
       <use xlink:href="#DejaVuSans-30"/>
       <use xlink:href="#DejaVuSans-2e" x="63.623047"/>
       <use xlink:href="#DejaVuSans-31" x="95.410156"/>
       <use xlink:href="#DejaVuSans-30" x="159.033203"/>
      </g>
     </g>
    </g>
    <g id="xtick_6">
     <g id="line2d_6">
      <g>
       <use xlink:href="#m0889a26dd8" x="124.603786" y="168.661417" style="stroke: #000000; stroke-width: 0.8"/>
      </g>
     </g>
     <g id="text_6">
      <!-- 0.12 -->
      <g transform="translate(117.924099 180.22048) scale(0.06 -0.06)">
       <use xlink:href="#DejaVuSans-30"/>
       <use xlink:href="#DejaVuSans-2e" x="63.623047"/>
       <use xlink:href="#DejaVuSans-31" x="95.410156"/>
       <use xlink:href="#DejaVuSans-32" x="159.033203"/>
      </g>
     </g>
    </g>
    <g id="xtick_7">
     <g id="line2d_7">
      <g>
       <use xlink:href="#m0889a26dd8" x="138.756911" y="168.661417" style="stroke: #000000; stroke-width: 0.8"/>
      </g>
     </g>
     <g id="text_7">
      <!-- 0.14 -->
      <g transform="translate(132.077223 180.22048) scale(0.06 -0.06)">
       <use xlink:href="#DejaVuSans-30"/>
       <use xlink:href="#DejaVuSans-2e" x="63.623047"/>
       <use xlink:href="#DejaVuSans-31" x="95.410156"/>
       <use xlink:href="#DejaVuSans-34" x="159.033203"/>
      </g>
     </g>
    </g>
    <g id="xtick_8">
     <g id="line2d_8">
      <g>
       <use xlink:href="#m0889a26dd8" x="152.910035" y="168.661417" style="stroke: #000000; stroke-width: 0.8"/>
      </g>
     </g>
     <g id="text_8">
      <!-- 0.16 -->
      <g transform="translate(146.230348 180.22048) scale(0.06 -0.06)">
       <use xlink:href="#DejaVuSans-30"/>
       <use xlink:href="#DejaVuSans-2e" x="63.623047"/>
       <use xlink:href="#DejaVuSans-31" x="95.410156"/>
       <use xlink:href="#DejaVuSans-36" x="159.033203"/>
      </g>
     </g>
    </g>
    <g id="xtick_9">
     <g id="line2d_9">
      <g>
       <use xlink:href="#m0889a26dd8" x="167.06316" y="168.661417" style="stroke: #000000; stroke-width: 0.8"/>
      </g>
     </g>
     <g id="text_9">
      <!-- 0.18 -->
      <g transform="translate(160.383472 180.22048) scale(0.06 -0.06)">
       <use xlink:href="#DejaVuSans-30"/>
       <use xlink:href="#DejaVuSans-2e" x="63.623047"/>
       <use xlink:href="#DejaVuSans-31" x="95.410156"/>
       <use xlink:href="#DejaVuSans-38" x="159.033203"/>
      </g>
     </g>
    </g>
    <g id="xtick_10">
     <g id="line2d_10">
      <g>
       <use xlink:href="#m0889a26dd8" x="181.216284" y="168.661417" style="stroke: #000000; stroke-width: 0.8"/>
      </g>
     </g>
     <g id="text_10">
      <!-- 0.20 -->
      <g transform="translate(174.536597 180.22048) scale(0.06 -0.06)">
       <use xlink:href="#DejaVuSans-30"/>
       <use xlink:href="#DejaVuSans-2e" x="63.623047"/>
       <use xlink:href="#DejaVuSans-32" x="95.410156"/>
       <use xlink:href="#DejaVuSans-30" x="159.033203"/>
      </g>
     </g>
    </g>
    <g id="text_11">
     <!-- $\sigma$ -->
     <g transform="translate(111.748943 190.787199) scale(0.07 -0.07)">
      <defs>
       <path id="DejaVuSans-Oblique-3c3" d="M 2219 3044 
Q 1744 3044 1422 2700 
Q 1081 2341 969 1747 
Q 844 1119 1044 756 
Q 1241 397 1706 397 
Q 2166 397 2503 759 
Q 2844 1122 2966 1747 
Q 3075 2319 2881 2700 
Q 2700 3044 2219 3044 
z
M 2309 3503 
L 4219 3500 
L 4106 2925 
L 3463 2925 
Q 3706 2438 3575 1747 
Q 3406 888 2884 400 
Q 2359 -91 1609 -91 
Q 856 -91 525 400 
Q 194 888 363 1747 
Q 528 2609 1050 3097 
Q 1484 3503 2309 3503 
z
" transform="scale(0.015625)"/>
      </defs>
      <use xlink:href="#DejaVuSans-Oblique-3c3" transform="translate(0 0.265625)"/>
     </g>
    </g>
   </g>
   <g id="matplotlib.axis_2">
    <g id="ytick_1">
     <g id="line2d_11">
      <defs>
       <path id="m7ed9410d0a" d="M 0 0 
L -3.5 0 
" style="stroke: #000000; stroke-width: 0.8"/>
      </defs>
      <g>
       <use xlink:href="#m7ed9410d0a" x="39.685039" y="144.381433" style="stroke: #000000; stroke-width: 0.8"/>
      </g>
     </g>
     <g id="text_12">
      <!-- 0.01 -->
      <g transform="translate(19.325664 146.660964) scale(0.06 -0.06)">
       <use xlink:href="#DejaVuSans-30"/>
       <use xlink:href="#DejaVuSans-2e" x="63.623047"/>
       <use xlink:href="#DejaVuSans-30" x="95.410156"/>
       <use xlink:href="#DejaVuSans-31" x="159.033203"/>
      </g>
     </g>
    </g>
    <g id="ytick_2">
     <g id="line2d_12">
      <g>
       <use xlink:href="#m7ed9410d0a" x="39.685039" y="63.725069" style="stroke: #000000; stroke-width: 0.8"/>
      </g>
     </g>
     <g id="text_13">
      <!-- 0.10 -->
      <g transform="translate(19.325664 66.004601) scale(0.06 -0.06)">
       <use xlink:href="#DejaVuSans-30"/>
       <use xlink:href="#DejaVuSans-2e" x="63.623047"/>
       <use xlink:href="#DejaVuSans-31" x="95.410156"/>
       <use xlink:href="#DejaVuSans-30" x="159.033203"/>
      </g>
     </g>
    </g>
    <g id="ytick_3">
     <g id="line2d_13">
      <g>
       <use xlink:href="#m7ed9410d0a" x="39.685039" y="39.445085" style="stroke: #000000; stroke-width: 0.8"/>
      </g>
     </g>
     <g id="text_14">
      <!-- 0.20 -->
      <g transform="translate(19.325664 41.724616) scale(0.06 -0.06)">
       <use xlink:href="#DejaVuSans-30"/>
       <use xlink:href="#DejaVuSans-2e" x="63.623047"/>
       <use xlink:href="#DejaVuSans-32" x="95.410156"/>
       <use xlink:href="#DejaVuSans-30" x="159.033203"/>
      </g>
     </g>
    </g>
    <g id="ytick_4">
     <g id="line2d_14">
      <defs>
       <path id="md595e5755c" d="M 0 0 
L -2 0 
" style="stroke: #000000; stroke-width: 0.6"/>
      </defs>
      <g>
       <use xlink:href="#md595e5755c" x="39.685039" y="168.661417" style="stroke: #000000; stroke-width: 0.6"/>
      </g>
     </g>
    </g>
    <g id="ytick_5">
     <g id="line2d_15">
      <g>
       <use xlink:href="#md595e5755c" x="39.685039" y="162.274946" style="stroke: #000000; stroke-width: 0.6"/>
      </g>
     </g>
    </g>
    <g id="ytick_6">
     <g id="line2d_16">
      <g>
       <use xlink:href="#md595e5755c" x="39.685039" y="156.875261" style="stroke: #000000; stroke-width: 0.6"/>
      </g>
     </g>
    </g>
    <g id="ytick_7">
     <g id="line2d_17">
      <g>
       <use xlink:href="#md595e5755c" x="39.685039" y="152.197842" style="stroke: #000000; stroke-width: 0.6"/>
      </g>
     </g>
    </g>
    <g id="ytick_8">
     <g id="line2d_18">
      <g>
       <use xlink:href="#md595e5755c" x="39.685039" y="148.072065" style="stroke: #000000; stroke-width: 0.6"/>
      </g>
     </g>
    </g>
    <g id="ytick_9">
     <g id="line2d_19">
      <g>
       <use xlink:href="#md595e5755c" x="39.685039" y="120.101448" style="stroke: #000000; stroke-width: 0.6"/>
      </g>
     </g>
    </g>
    <g id="ytick_10">
     <g id="line2d_20">
      <g>
       <use xlink:href="#md595e5755c" x="39.685039" y="105.898567" style="stroke: #000000; stroke-width: 0.6"/>
      </g>
     </g>
    </g>
    <g id="ytick_11">
     <g id="line2d_21">
      <g>
       <use xlink:href="#md595e5755c" x="39.685039" y="95.821463" style="stroke: #000000; stroke-width: 0.6"/>
      </g>
     </g>
    </g>
    <g id="ytick_12">
     <g id="line2d_22">
      <g>
       <use xlink:href="#md595e5755c" x="39.685039" y="88.005054" style="stroke: #000000; stroke-width: 0.6"/>
      </g>
     </g>
    </g>
    <g id="ytick_13">
     <g id="line2d_23">
      <g>
       <use xlink:href="#md595e5755c" x="39.685039" y="81.618583" style="stroke: #000000; stroke-width: 0.6"/>
      </g>
     </g>
    </g>
    <g id="ytick_14">
     <g id="line2d_24">
      <g>
       <use xlink:href="#md595e5755c" x="39.685039" y="76.218898" style="stroke: #000000; stroke-width: 0.6"/>
      </g>
     </g>
    </g>
    <g id="ytick_15">
     <g id="line2d_25">
      <g>
       <use xlink:href="#md595e5755c" x="39.685039" y="71.541479" style="stroke: #000000; stroke-width: 0.6"/>
      </g>
     </g>
    </g>
    <g id="ytick_16">
     <g id="line2d_26">
      <g>
       <use xlink:href="#md595e5755c" x="39.685039" y="67.415702" style="stroke: #000000; stroke-width: 0.6"/>
      </g>
     </g>
    </g>
    <g id="ytick_17">
     <g id="line2d_27">
      <g>
       <use xlink:href="#md595e5755c" x="39.685039" y="25.242204" style="stroke: #000000; stroke-width: 0.6"/>
      </g>
     </g>
    </g>
    <g id="text_15">
     <!-- rmse train -->
     <g transform="translate(13.869883 112.274234) rotate(-90) scale(0.07 -0.07)">
      <defs>
       <path id="DejaVuSans-72" d="M 2631 2963 
Q 2534 3019 2420 3045 
Q 2306 3072 2169 3072 
Q 1681 3072 1420 2755 
Q 1159 2438 1159 1844 
L 1159 0 
L 581 0 
L 581 3500 
L 1159 3500 
L 1159 2956 
Q 1341 3275 1631 3429 
Q 1922 3584 2338 3584 
Q 2397 3584 2469 3576 
Q 2541 3569 2628 3553 
L 2631 2963 
z
" transform="scale(0.015625)"/>
       <path id="DejaVuSans-6d" d="M 3328 2828 
Q 3544 3216 3844 3400 
Q 4144 3584 4550 3584 
Q 5097 3584 5394 3201 
Q 5691 2819 5691 2113 
L 5691 0 
L 5113 0 
L 5113 2094 
Q 5113 2597 4934 2840 
Q 4756 3084 4391 3084 
Q 3944 3084 3684 2787 
Q 3425 2491 3425 1978 
L 3425 0 
L 2847 0 
L 2847 2094 
Q 2847 2600 2669 2842 
Q 2491 3084 2119 3084 
Q 1678 3084 1418 2786 
Q 1159 2488 1159 1978 
L 1159 0 
L 581 0 
L 581 3500 
L 1159 3500 
L 1159 2956 
Q 1356 3278 1631 3431 
Q 1906 3584 2284 3584 
Q 2666 3584 2933 3390 
Q 3200 3197 3328 2828 
z
" transform="scale(0.015625)"/>
       <path id="DejaVuSans-73" d="M 2834 3397 
L 2834 2853 
Q 2591 2978 2328 3040 
Q 2066 3103 1784 3103 
Q 1356 3103 1142 2972 
Q 928 2841 928 2578 
Q 928 2378 1081 2264 
Q 1234 2150 1697 2047 
L 1894 2003 
Q 2506 1872 2764 1633 
Q 3022 1394 3022 966 
Q 3022 478 2636 193 
Q 2250 -91 1575 -91 
Q 1294 -91 989 -36 
Q 684 19 347 128 
L 347 722 
Q 666 556 975 473 
Q 1284 391 1588 391 
Q 1994 391 2212 530 
Q 2431 669 2431 922 
Q 2431 1156 2273 1281 
Q 2116 1406 1581 1522 
L 1381 1569 
Q 847 1681 609 1914 
Q 372 2147 372 2553 
Q 372 3047 722 3315 
Q 1072 3584 1716 3584 
Q 2034 3584 2315 3537 
Q 2597 3491 2834 3397 
z
" transform="scale(0.015625)"/>
       <path id="DejaVuSans-65" d="M 3597 1894 
L 3597 1613 
L 953 1613 
Q 991 1019 1311 708 
Q 1631 397 2203 397 
Q 2534 397 2845 478 
Q 3156 559 3463 722 
L 3463 178 
Q 3153 47 2828 -22 
Q 2503 -91 2169 -91 
Q 1331 -91 842 396 
Q 353 884 353 1716 
Q 353 2575 817 3079 
Q 1281 3584 2069 3584 
Q 2775 3584 3186 3129 
Q 3597 2675 3597 1894 
z
M 3022 2063 
Q 3016 2534 2758 2815 
Q 2500 3097 2075 3097 
Q 1594 3097 1305 2825 
Q 1016 2553 972 2059 
L 3022 2063 
z
" transform="scale(0.015625)"/>
       <path id="DejaVuSans-20" transform="scale(0.015625)"/>
       <path id="DejaVuSans-74" d="M 1172 4494 
L 1172 3500 
L 2356 3500 
L 2356 3053 
L 1172 3053 
L 1172 1153 
Q 1172 725 1289 603 
Q 1406 481 1766 481 
L 2356 481 
L 2356 0 
L 1766 0 
Q 1100 0 847 248 
Q 594 497 594 1153 
L 594 3053 
L 172 3053 
L 172 3500 
L 594 3500 
L 594 4494 
L 1172 4494 
z
" transform="scale(0.015625)"/>
       <path id="DejaVuSans-61" d="M 2194 1759 
Q 1497 1759 1228 1600 
Q 959 1441 959 1056 
Q 959 750 1161 570 
Q 1363 391 1709 391 
Q 2188 391 2477 730 
Q 2766 1069 2766 1631 
L 2766 1759 
L 2194 1759 
z
M 3341 1997 
L 3341 0 
L 2766 0 
L 2766 531 
Q 2569 213 2275 61 
Q 1981 -91 1556 -91 
Q 1019 -91 701 211 
Q 384 513 384 1019 
Q 384 1609 779 1909 
Q 1175 2209 1959 2209 
L 2766 2209 
L 2766 2266 
Q 2766 2663 2505 2880 
Q 2244 3097 1772 3097 
Q 1472 3097 1187 3025 
Q 903 2953 641 2809 
L 641 3341 
Q 956 3463 1253 3523 
Q 1550 3584 1831 3584 
Q 2591 3584 2966 3190 
Q 3341 2797 3341 1997 
z
" transform="scale(0.015625)"/>
       <path id="DejaVuSans-69" d="M 603 3500 
L 1178 3500 
L 1178 0 
L 603 0 
L 603 3500 
z
M 603 4863 
L 1178 4863 
L 1178 4134 
L 603 4134 
L 603 4863 
z
" transform="scale(0.015625)"/>
       <path id="DejaVuSans-6e" d="M 3513 2113 
L 3513 0 
L 2938 0 
L 2938 2094 
Q 2938 2591 2744 2837 
Q 2550 3084 2163 3084 
Q 1697 3084 1428 2787 
Q 1159 2491 1159 1978 
L 1159 0 
L 581 0 
L 581 3500 
L 1159 3500 
L 1159 2956 
Q 1366 3272 1645 3428 
Q 1925 3584 2291 3584 
Q 2894 3584 3203 3211 
Q 3513 2838 3513 2113 
z
" transform="scale(0.015625)"/>
      </defs>
      <use xlink:href="#DejaVuSans-72"/>
      <use xlink:href="#DejaVuSans-6d" x="39.363281"/>
      <use xlink:href="#DejaVuSans-73" x="136.775391"/>
      <use xlink:href="#DejaVuSans-65" x="188.875"/>
      <use xlink:href="#DejaVuSans-20" x="250.398438"/>
      <use xlink:href="#DejaVuSans-74" x="282.185547"/>
      <use xlink:href="#DejaVuSans-72" x="321.394531"/>
      <use xlink:href="#DejaVuSans-61" x="362.507812"/>
      <use xlink:href="#DejaVuSans-69" x="423.787109"/>
      <use xlink:href="#DejaVuSans-6e" x="451.570312"/>
     </g>
    </g>
   </g>
   <g id="LineCollection_1">
    <path d="M 53.838164 115.612434 
L 53.838164 82.477908 
" clip-path="url(#p2d649331c8)" style="fill: none; stroke: #ff0000; stroke-width: 1.5"/>
    <path d="M 67.991288 110.583797 
L 67.991288 96.092879 
" clip-path="url(#p2d649331c8)" style="fill: none; stroke: #ff0000; stroke-width: 1.5"/>
    <path d="M 82.144413 102.579359 
L 82.144413 85.045495 
" clip-path="url(#p2d649331c8)" style="fill: none; stroke: #ff0000; stroke-width: 1.5"/>
    <path d="M 96.297537 92.100347 
L 96.297537 78.825565 
" clip-path="url(#p2d649331c8)" style="fill: none; stroke: #ff0000; stroke-width: 1.5"/>
    <path d="M 110.450662 92.033412 
L 110.450662 67.021604 
" clip-path="url(#p2d649331c8)" style="fill: none; stroke: #ff0000; stroke-width: 1.5"/>
    <path d="M 124.603786 81.80968 
L 124.603786 65.988204 
" clip-path="url(#p2d649331c8)" style="fill: none; stroke: #ff0000; stroke-width: 1.5"/>
    <path d="M 138.756911 73.870032 
L 138.756911 62.260951 
" clip-path="url(#p2d649331c8)" style="fill: none; stroke: #ff0000; stroke-width: 1.5"/>
    <path d="M 152.910035 77.72988 
L 152.910035 57.558889 
" clip-path="url(#p2d649331c8)" style="fill: none; stroke: #ff0000; stroke-width: 1.5"/>
    <path d="M 167.06316 59.791403 
L 167.06316 50.311158 
" clip-path="url(#p2d649331c8)" style="fill: none; stroke: #ff0000; stroke-width: 1.5"/>
    <path d="M 181.216284 60.932612 
L 181.216284 44.19679 
" clip-path="url(#p2d649331c8)" style="fill: none; stroke: #ff0000; stroke-width: 1.5"/>
   </g>
   <g id="LineCollection_2">
    <path d="M 53.838164 148.288113 
L 53.838164 134.146254 
" clip-path="url(#p2d649331c8)" style="fill: none; stroke: #008000; stroke-width: 1.5"/>
    <path d="M 67.991288 126.780419 
L 67.991288 107.596515 
" clip-path="url(#p2d649331c8)" style="fill: none; stroke: #008000; stroke-width: 1.5"/>
    <path d="M 82.144413 108.218643 
L 82.144413 93.594014 
" clip-path="url(#p2d649331c8)" style="fill: none; stroke: #008000; stroke-width: 1.5"/>
    <path d="M 96.297537 104.322004 
L 96.297537 80.285454 
" clip-path="url(#p2d649331c8)" style="fill: none; stroke: #008000; stroke-width: 1.5"/>
    <path d="M 110.450662 94.092873 
L 110.450662 80.353494 
" clip-path="url(#p2d649331c8)" style="fill: none; stroke: #008000; stroke-width: 1.5"/>
    <path d="M 124.603786 88.89155 
L 124.603786 73.854029 
" clip-path="url(#p2d649331c8)" style="fill: none; stroke: #008000; stroke-width: 1.5"/>
    <path d="M 138.756911 83.920843 
L 138.756911 65.092983 
" clip-path="url(#p2d649331c8)" style="fill: none; stroke: #008000; stroke-width: 1.5"/>
    <path d="M 152.910035 93.411731 
L 152.910035 66.053978 
" clip-path="url(#p2d649331c8)" style="fill: none; stroke: #008000; stroke-width: 1.5"/>
    <path d="M 167.06316 68.399501 
L 167.06316 54.548198 
" clip-path="url(#p2d649331c8)" style="fill: none; stroke: #008000; stroke-width: 1.5"/>
    <path d="M 181.216284 71.975924 
L 181.216284 61.001392 
" clip-path="url(#p2d649331c8)" style="fill: none; stroke: #008000; stroke-width: 1.5"/>
   </g>
   <g id="line2d_28">
    <defs>
     <path id="m587bb366d5" d="M 0 3 
C 0.795609 3 1.55874 2.683901 2.12132 2.12132 
C 2.683901 1.55874 3 0.795609 3 0 
C 3 -0.795609 2.683901 -1.55874 2.12132 -2.12132 
C 1.55874 -2.683901 0.795609 -3 0 -3 
C -0.795609 -3 -1.55874 -2.683901 -2.12132 -2.12132 
C -2.683901 -1.55874 -3 -0.795609 -3 0 
C -3 0.795609 -2.683901 1.55874 -2.12132 2.12132 
C -1.55874 2.683901 -0.795609 3 0 3 
z
" style="stroke: #ff0000"/>
    </defs>
    <g clip-path="url(#p2d649331c8)">
     <use xlink:href="#m587bb366d5" x="53.838164" y="95.265219" style="fill: #ff0000; stroke: #ff0000"/>
     <use xlink:href="#m587bb366d5" x="67.991288" y="102.594281" style="fill: #ff0000; stroke: #ff0000"/>
     <use xlink:href="#m587bb366d5" x="82.144413" y="92.726603" style="fill: #ff0000; stroke: #ff0000"/>
     <use xlink:href="#m587bb366d5" x="96.297537" y="84.837841" style="fill: #ff0000; stroke: #ff0000"/>
     <use xlink:href="#m587bb366d5" x="110.450662" y="77.340954" style="fill: #ff0000; stroke: #ff0000"/>
     <use xlink:href="#m587bb366d5" x="124.603786" y="73.013167" style="fill: #ff0000; stroke: #ff0000"/>
     <use xlink:href="#m587bb366d5" x="138.756911" y="67.586746" style="fill: #ff0000; stroke: #ff0000"/>
     <use xlink:href="#m587bb366d5" x="152.910035" y="66.212096" style="fill: #ff0000; stroke: #ff0000"/>
     <use xlink:href="#m587bb366d5" x="167.06316" y="54.731535" style="fill: #ff0000; stroke: #ff0000"/>
     <use xlink:href="#m587bb366d5" x="181.216284" y="51.574569" style="fill: #ff0000; stroke: #ff0000"/>
    </g>
   </g>
   <g id="line2d_29">
    <defs>
     <path id="mafebd7c93e" d="M 0 3 
C 0.795609 3 1.55874 2.683901 2.12132 2.12132 
C 2.683901 1.55874 3 0.795609 3 0 
C 3 -0.795609 2.683901 -1.55874 2.12132 -2.12132 
C 1.55874 -2.683901 0.795609 -3 0 -3 
C -0.795609 -3 -1.55874 -2.683901 -2.12132 -2.12132 
C -2.683901 -1.55874 -3 -0.795609 -3 0 
C -3 0.795609 -2.683901 1.55874 -2.12132 2.12132 
C -1.55874 2.683901 -0.795609 3 0 3 
z
" style="stroke: #008000"/>
    </defs>
    <g clip-path="url(#p2d649331c8)">
     <use xlink:href="#mafebd7c93e" x="53.838164" y="140.508304" style="fill: #008000; stroke: #008000"/>
     <use xlink:href="#mafebd7c93e" x="67.991288" y="115.891268" style="fill: #008000; stroke: #008000"/>
     <use xlink:href="#mafebd7c93e" x="82.144413" y="100.148576" style="fill: #008000; stroke: #008000"/>
     <use xlink:href="#mafebd7c93e" x="96.297537" y="90.281225" style="fill: #008000; stroke: #008000"/>
     <use xlink:href="#mafebd7c93e" x="110.450662" y="86.553828" style="fill: #008000; stroke: #008000"/>
     <use xlink:href="#mafebd7c93e" x="124.603786" y="80.571974" style="fill: #008000; stroke: #008000"/>
     <use xlink:href="#mafebd7c93e" x="138.756911" y="73.256858" style="fill: #008000; stroke: #008000"/>
     <use xlink:href="#mafebd7c93e" x="152.910035" y="77.127257" style="fill: #008000; stroke: #008000"/>
     <use xlink:href="#mafebd7c93e" x="167.06316" y="60.793615" style="fill: #008000; stroke: #008000"/>
     <use xlink:href="#mafebd7c93e" x="181.216284" y="66.060612" style="fill: #008000; stroke: #008000"/>
    </g>
   </g>
   <g id="patch_3">
    <path d="M 39.685039 168.661417 
L 39.685039 19.84252 
" style="fill: none; stroke: #000000; stroke-width: 0.8; stroke-linejoin: miter; stroke-linecap: square"/>
   </g>
   <g id="patch_4">
    <path d="M 188.292846 168.661417 
L 188.292846 19.84252 
" style="fill: none; stroke: #000000; stroke-width: 0.8; stroke-linejoin: miter; stroke-linecap: square"/>
   </g>
   <g id="patch_5">
    <path d="M 39.685039 168.661417 
L 188.292846 168.661417 
" style="fill: none; stroke: #000000; stroke-width: 0.8; stroke-linejoin: miter; stroke-linecap: square"/>
   </g>
   <g id="patch_6">
    <path d="M 39.685039 19.84252 
L 188.292846 19.84252 
" style="fill: none; stroke: #000000; stroke-width: 0.8; stroke-linejoin: miter; stroke-linecap: square"/>
   </g>
   <g id="text_16">
    <!-- tanh -->
    <g transform="translate(100.35488 13.84252) scale(0.12 -0.12)">
     <defs>
      <path id="DejaVuSans-68" d="M 3513 2113 
L 3513 0 
L 2938 0 
L 2938 2094 
Q 2938 2591 2744 2837 
Q 2550 3084 2163 3084 
Q 1697 3084 1428 2787 
Q 1159 2491 1159 1978 
L 1159 0 
L 581 0 
L 581 4863 
L 1159 4863 
L 1159 2956 
Q 1366 3272 1645 3428 
Q 1925 3584 2291 3584 
Q 2894 3584 3203 3211 
Q 3513 2838 3513 2113 
z
" transform="scale(0.015625)"/>
     </defs>
     <use xlink:href="#DejaVuSans-74"/>
     <use xlink:href="#DejaVuSans-61" x="39.208984"/>
     <use xlink:href="#DejaVuSans-6e" x="100.488281"/>
     <use xlink:href="#DejaVuSans-68" x="163.867188"/>
    </g>
   </g>
   <g id="legend_1">
    <g id="LineCollection_3">
     <path d="M 142.348784 30.701582 
L 142.348784 24.701582 
" style="fill: none; stroke: #ff0000; stroke-width: 1.5"/>
    </g>
    <g id="line2d_30"/>
    <g id="line2d_31">
     <g>
      <use xlink:href="#m587bb366d5" x="142.348784" y="27.701582" style="fill: #ff0000; stroke: #ff0000"/>
     </g>
    </g>
    <g id="text_17">
     <!-- nn_train -->
     <g transform="translate(153.148784 29.801582) scale(0.06 -0.06)">
      <defs>
       <path id="DejaVuSans-5f" d="M 3263 -1063 
L 3263 -1509 
L -63 -1509 
L -63 -1063 
L 3263 -1063 
z
" transform="scale(0.015625)"/>
      </defs>
      <use xlink:href="#DejaVuSans-6e"/>
      <use xlink:href="#DejaVuSans-6e" x="63.378906"/>
      <use xlink:href="#DejaVuSans-5f" x="126.757812"/>
      <use xlink:href="#DejaVuSans-74" x="176.757812"/>
      <use xlink:href="#DejaVuSans-72" x="215.966797"/>
      <use xlink:href="#DejaVuSans-61" x="257.080078"/>
      <use xlink:href="#DejaVuSans-69" x="318.359375"/>
      <use xlink:href="#DejaVuSans-6e" x="346.142578"/>
     </g>
    </g>
    <g id="LineCollection_4">
     <path d="M 142.348784 39.675332 
L 142.348784 33.675332 
" style="fill: none; stroke: #008000; stroke-width: 1.5"/>
    </g>
    <g id="line2d_32"/>
    <g id="line2d_33">
     <g>
      <use xlink:href="#mafebd7c93e" x="142.348784" y="36.675332" style="fill: #008000; stroke: #008000"/>
     </g>
    </g>
    <g id="text_18">
     <!-- bms_train -->
     <g transform="translate(153.148784 38.775332) scale(0.06 -0.06)">
      <defs>
       <path id="DejaVuSans-62" d="M 3116 1747 
Q 3116 2381 2855 2742 
Q 2594 3103 2138 3103 
Q 1681 3103 1420 2742 
Q 1159 2381 1159 1747 
Q 1159 1113 1420 752 
Q 1681 391 2138 391 
Q 2594 391 2855 752 
Q 3116 1113 3116 1747 
z
M 1159 2969 
Q 1341 3281 1617 3432 
Q 1894 3584 2278 3584 
Q 2916 3584 3314 3078 
Q 3713 2572 3713 1747 
Q 3713 922 3314 415 
Q 2916 -91 2278 -91 
Q 1894 -91 1617 61 
Q 1341 213 1159 525 
L 1159 0 
L 581 0 
L 581 4863 
L 1159 4863 
L 1159 2969 
z
" transform="scale(0.015625)"/>
      </defs>
      <use xlink:href="#DejaVuSans-62"/>
      <use xlink:href="#DejaVuSans-6d" x="63.476562"/>
      <use xlink:href="#DejaVuSans-73" x="160.888672"/>
      <use xlink:href="#DejaVuSans-5f" x="212.988281"/>
      <use xlink:href="#DejaVuSans-74" x="262.988281"/>
      <use xlink:href="#DejaVuSans-72" x="302.197266"/>
      <use xlink:href="#DejaVuSans-61" x="343.310547"/>
      <use xlink:href="#DejaVuSans-69" x="404.589844"/>
      <use xlink:href="#DejaVuSans-6e" x="432.373047"/>
     </g>
    </g>
   </g>
  </g>
  <g id="axes_2">
   <g id="patch_7">
    <path d="M 240.305579 168.661417 
L 388.913386 168.661417 
L 388.913386 19.84252 
L 240.305579 19.84252 
z
" style="fill: #ffffff"/>
   </g>
   <g id="matplotlib.axis_3">
    <g id="xtick_11">
     <g id="line2d_34">
      <g>
       <use xlink:href="#m0889a26dd8" x="254.458703" y="168.661417" style="stroke: #000000; stroke-width: 0.8"/>
      </g>
     </g>
     <g id="text_19">
      <!-- 0.02 -->
      <g transform="translate(247.779016 180.22048) scale(0.06 -0.06)">
       <use xlink:href="#DejaVuSans-30"/>
       <use xlink:href="#DejaVuSans-2e" x="63.623047"/>
       <use xlink:href="#DejaVuSans-30" x="95.410156"/>
       <use xlink:href="#DejaVuSans-32" x="159.033203"/>
      </g>
     </g>
    </g>
    <g id="xtick_12">
     <g id="line2d_35">
      <g>
       <use xlink:href="#m0889a26dd8" x="268.611828" y="168.661417" style="stroke: #000000; stroke-width: 0.8"/>
      </g>
     </g>
     <g id="text_20">
      <!-- 0.04 -->
      <g transform="translate(261.93214 180.22048) scale(0.06 -0.06)">
       <use xlink:href="#DejaVuSans-30"/>
       <use xlink:href="#DejaVuSans-2e" x="63.623047"/>
       <use xlink:href="#DejaVuSans-30" x="95.410156"/>
       <use xlink:href="#DejaVuSans-34" x="159.033203"/>
      </g>
     </g>
    </g>
    <g id="xtick_13">
     <g id="line2d_36">
      <g>
       <use xlink:href="#m0889a26dd8" x="282.764952" y="168.661417" style="stroke: #000000; stroke-width: 0.8"/>
      </g>
     </g>
     <g id="text_21">
      <!-- 0.06 -->
      <g transform="translate(276.085265 180.22048) scale(0.06 -0.06)">
       <use xlink:href="#DejaVuSans-30"/>
       <use xlink:href="#DejaVuSans-2e" x="63.623047"/>
       <use xlink:href="#DejaVuSans-30" x="95.410156"/>
       <use xlink:href="#DejaVuSans-36" x="159.033203"/>
      </g>
     </g>
    </g>
    <g id="xtick_14">
     <g id="line2d_37">
      <g>
       <use xlink:href="#m0889a26dd8" x="296.918077" y="168.661417" style="stroke: #000000; stroke-width: 0.8"/>
      </g>
     </g>
     <g id="text_22">
      <!-- 0.08 -->
      <g transform="translate(290.238389 180.22048) scale(0.06 -0.06)">
       <use xlink:href="#DejaVuSans-30"/>
       <use xlink:href="#DejaVuSans-2e" x="63.623047"/>
       <use xlink:href="#DejaVuSans-30" x="95.410156"/>
       <use xlink:href="#DejaVuSans-38" x="159.033203"/>
      </g>
     </g>
    </g>
    <g id="xtick_15">
     <g id="line2d_38">
      <g>
       <use xlink:href="#m0889a26dd8" x="311.071201" y="168.661417" style="stroke: #000000; stroke-width: 0.8"/>
      </g>
     </g>
     <g id="text_23">
      <!-- 0.10 -->
      <g transform="translate(304.391514 180.22048) scale(0.06 -0.06)">
       <use xlink:href="#DejaVuSans-30"/>
       <use xlink:href="#DejaVuSans-2e" x="63.623047"/>
       <use xlink:href="#DejaVuSans-31" x="95.410156"/>
       <use xlink:href="#DejaVuSans-30" x="159.033203"/>
      </g>
     </g>
    </g>
    <g id="xtick_16">
     <g id="line2d_39">
      <g>
       <use xlink:href="#m0889a26dd8" x="325.224326" y="168.661417" style="stroke: #000000; stroke-width: 0.8"/>
      </g>
     </g>
     <g id="text_24">
      <!-- 0.12 -->
      <g transform="translate(318.544638 180.22048) scale(0.06 -0.06)">
       <use xlink:href="#DejaVuSans-30"/>
       <use xlink:href="#DejaVuSans-2e" x="63.623047"/>
       <use xlink:href="#DejaVuSans-31" x="95.410156"/>
       <use xlink:href="#DejaVuSans-32" x="159.033203"/>
      </g>
     </g>
    </g>
    <g id="xtick_17">
     <g id="line2d_40">
      <g>
       <use xlink:href="#m0889a26dd8" x="339.37745" y="168.661417" style="stroke: #000000; stroke-width: 0.8"/>
      </g>
     </g>
     <g id="text_25">
      <!-- 0.14 -->
      <g transform="translate(332.697763 180.22048) scale(0.06 -0.06)">
       <use xlink:href="#DejaVuSans-30"/>
       <use xlink:href="#DejaVuSans-2e" x="63.623047"/>
       <use xlink:href="#DejaVuSans-31" x="95.410156"/>
       <use xlink:href="#DejaVuSans-34" x="159.033203"/>
      </g>
     </g>
    </g>
    <g id="xtick_18">
     <g id="line2d_41">
      <g>
       <use xlink:href="#m0889a26dd8" x="353.530575" y="168.661417" style="stroke: #000000; stroke-width: 0.8"/>
      </g>
     </g>
     <g id="text_26">
      <!-- 0.16 -->
      <g transform="translate(346.850887 180.22048) scale(0.06 -0.06)">
       <use xlink:href="#DejaVuSans-30"/>
       <use xlink:href="#DejaVuSans-2e" x="63.623047"/>
       <use xlink:href="#DejaVuSans-31" x="95.410156"/>
       <use xlink:href="#DejaVuSans-36" x="159.033203"/>
      </g>
     </g>
    </g>
    <g id="xtick_19">
     <g id="line2d_42">
      <g>
       <use xlink:href="#m0889a26dd8" x="367.683699" y="168.661417" style="stroke: #000000; stroke-width: 0.8"/>
      </g>
     </g>
     <g id="text_27">
      <!-- 0.18 -->
      <g transform="translate(361.004012 180.22048) scale(0.06 -0.06)">
       <use xlink:href="#DejaVuSans-30"/>
       <use xlink:href="#DejaVuSans-2e" x="63.623047"/>
       <use xlink:href="#DejaVuSans-31" x="95.410156"/>
       <use xlink:href="#DejaVuSans-38" x="159.033203"/>
      </g>
     </g>
    </g>
    <g id="xtick_20">
     <g id="line2d_43">
      <g>
       <use xlink:href="#m0889a26dd8" x="381.836824" y="168.661417" style="stroke: #000000; stroke-width: 0.8"/>
      </g>
     </g>
     <g id="text_28">
      <!-- 0.20 -->
      <g transform="translate(375.157136 180.22048) scale(0.06 -0.06)">
       <use xlink:href="#DejaVuSans-30"/>
       <use xlink:href="#DejaVuSans-2e" x="63.623047"/>
       <use xlink:href="#DejaVuSans-32" x="95.410156"/>
       <use xlink:href="#DejaVuSans-30" x="159.033203"/>
      </g>
     </g>
    </g>
    <g id="text_29">
     <!-- $\sigma$ -->
     <g transform="translate(312.369482 190.787199) scale(0.07 -0.07)">
      <use xlink:href="#DejaVuSans-Oblique-3c3" transform="translate(0 0.265625)"/>
     </g>
    </g>
   </g>
   <g id="matplotlib.axis_4">
    <g id="ytick_18">
     <g id="line2d_44">
      <g>
       <use xlink:href="#m7ed9410d0a" x="240.305579" y="127.92497" style="stroke: #000000; stroke-width: 0.8"/>
      </g>
     </g>
     <g id="text_30">
      <!-- 0.1 -->
      <g transform="translate(223.763704 130.204502) scale(0.06 -0.06)">
       <use xlink:href="#DejaVuSans-30"/>
       <use xlink:href="#DejaVuSans-2e" x="63.623047"/>
       <use xlink:href="#DejaVuSans-31" x="95.410156"/>
      </g>
     </g>
    </g>
    <g id="ytick_19">
     <g id="line2d_45">
      <g>
       <use xlink:href="#m7ed9410d0a" x="240.305579" y="87.188523" style="stroke: #000000; stroke-width: 0.8"/>
      </g>
     </g>
     <g id="text_31">
      <!-- 1.0 -->
      <g transform="translate(223.763704 89.468055) scale(0.06 -0.06)">
       <use xlink:href="#DejaVuSans-31"/>
       <use xlink:href="#DejaVuSans-2e" x="63.623047"/>
       <use xlink:href="#DejaVuSans-30" x="95.410156"/>
      </g>
     </g>
    </g>
    <g id="ytick_20">
     <g id="line2d_46">
      <g>
       <use xlink:href="#m7ed9410d0a" x="240.305579" y="46.452077" style="stroke: #000000; stroke-width: 0.8"/>
      </g>
     </g>
     <g id="text_32">
      <!-- 10.0 -->
      <g transform="translate(219.946204 48.731608) scale(0.06 -0.06)">
       <use xlink:href="#DejaVuSans-31"/>
       <use xlink:href="#DejaVuSans-30" x="63.623047"/>
       <use xlink:href="#DejaVuSans-2e" x="127.246094"/>
       <use xlink:href="#DejaVuSans-30" x="159.033203"/>
      </g>
     </g>
    </g>
    <g id="ytick_21">
     <g id="line2d_47">
      <g>
       <use xlink:href="#md595e5755c" x="240.305579" y="156.398525" style="stroke: #000000; stroke-width: 0.6"/>
      </g>
     </g>
    </g>
    <g id="ytick_22">
     <g id="line2d_48">
      <g>
       <use xlink:href="#md595e5755c" x="240.305579" y="149.225193" style="stroke: #000000; stroke-width: 0.6"/>
      </g>
     </g>
    </g>
    <g id="ytick_23">
     <g id="line2d_49">
      <g>
       <use xlink:href="#md595e5755c" x="240.305579" y="144.135632" style="stroke: #000000; stroke-width: 0.6"/>
      </g>
     </g>
    </g>
    <g id="ytick_24">
     <g id="line2d_50">
      <g>
       <use xlink:href="#md595e5755c" x="240.305579" y="140.187863" style="stroke: #000000; stroke-width: 0.6"/>
      </g>
     </g>
    </g>
    <g id="ytick_25">
     <g id="line2d_51">
      <g>
       <use xlink:href="#md595e5755c" x="240.305579" y="136.9623" style="stroke: #000000; stroke-width: 0.6"/>
      </g>
     </g>
    </g>
    <g id="ytick_26">
     <g id="line2d_52">
      <g>
       <use xlink:href="#md595e5755c" x="240.305579" y="134.235126" style="stroke: #000000; stroke-width: 0.6"/>
      </g>
     </g>
    </g>
    <g id="ytick_27">
     <g id="line2d_53">
      <g>
       <use xlink:href="#md595e5755c" x="240.305579" y="131.87274" style="stroke: #000000; stroke-width: 0.6"/>
      </g>
     </g>
    </g>
    <g id="ytick_28">
     <g id="line2d_54">
      <g>
       <use xlink:href="#md595e5755c" x="240.305579" y="129.788968" style="stroke: #000000; stroke-width: 0.6"/>
      </g>
     </g>
    </g>
    <g id="ytick_29">
     <g id="line2d_55">
      <g>
       <use xlink:href="#md595e5755c" x="240.305579" y="115.662078" style="stroke: #000000; stroke-width: 0.6"/>
      </g>
     </g>
    </g>
    <g id="ytick_30">
     <g id="line2d_56">
      <g>
       <use xlink:href="#md595e5755c" x="240.305579" y="108.488746" style="stroke: #000000; stroke-width: 0.6"/>
      </g>
     </g>
    </g>
    <g id="ytick_31">
     <g id="line2d_57">
      <g>
       <use xlink:href="#md595e5755c" x="240.305579" y="103.399186" style="stroke: #000000; stroke-width: 0.6"/>
      </g>
     </g>
    </g>
    <g id="ytick_32">
     <g id="line2d_58">
      <g>
       <use xlink:href="#md595e5755c" x="240.305579" y="99.451416" style="stroke: #000000; stroke-width: 0.6"/>
      </g>
     </g>
    </g>
    <g id="ytick_33">
     <g id="line2d_59">
      <g>
       <use xlink:href="#md595e5755c" x="240.305579" y="96.225853" style="stroke: #000000; stroke-width: 0.6"/>
      </g>
     </g>
    </g>
    <g id="ytick_34">
     <g id="line2d_60">
      <g>
       <use xlink:href="#md595e5755c" x="240.305579" y="93.498679" style="stroke: #000000; stroke-width: 0.6"/>
      </g>
     </g>
    </g>
    <g id="ytick_35">
     <g id="line2d_61">
      <g>
       <use xlink:href="#md595e5755c" x="240.305579" y="91.136293" style="stroke: #000000; stroke-width: 0.6"/>
      </g>
     </g>
    </g>
    <g id="ytick_36">
     <g id="line2d_62">
      <g>
       <use xlink:href="#md595e5755c" x="240.305579" y="89.052521" style="stroke: #000000; stroke-width: 0.6"/>
      </g>
     </g>
    </g>
    <g id="ytick_37">
     <g id="line2d_63">
      <g>
       <use xlink:href="#md595e5755c" x="240.305579" y="74.925631" style="stroke: #000000; stroke-width: 0.6"/>
      </g>
     </g>
    </g>
    <g id="ytick_38">
     <g id="line2d_64">
      <g>
       <use xlink:href="#md595e5755c" x="240.305579" y="67.752299" style="stroke: #000000; stroke-width: 0.6"/>
      </g>
     </g>
    </g>
    <g id="ytick_39">
     <g id="line2d_65">
      <g>
       <use xlink:href="#md595e5755c" x="240.305579" y="62.662739" style="stroke: #000000; stroke-width: 0.6"/>
      </g>
     </g>
    </g>
    <g id="ytick_40">
     <g id="line2d_66">
      <g>
       <use xlink:href="#md595e5755c" x="240.305579" y="58.714969" style="stroke: #000000; stroke-width: 0.6"/>
      </g>
     </g>
    </g>
    <g id="ytick_41">
     <g id="line2d_67">
      <g>
       <use xlink:href="#md595e5755c" x="240.305579" y="55.489406" style="stroke: #000000; stroke-width: 0.6"/>
      </g>
     </g>
    </g>
    <g id="ytick_42">
     <g id="line2d_68">
      <g>
       <use xlink:href="#md595e5755c" x="240.305579" y="52.762232" style="stroke: #000000; stroke-width: 0.6"/>
      </g>
     </g>
    </g>
    <g id="ytick_43">
     <g id="line2d_69">
      <g>
       <use xlink:href="#md595e5755c" x="240.305579" y="50.399846" style="stroke: #000000; stroke-width: 0.6"/>
      </g>
     </g>
    </g>
    <g id="ytick_44">
     <g id="line2d_70">
      <g>
       <use xlink:href="#md595e5755c" x="240.305579" y="48.316074" style="stroke: #000000; stroke-width: 0.6"/>
      </g>
     </g>
    </g>
    <g id="ytick_45">
     <g id="line2d_71">
      <g>
       <use xlink:href="#md595e5755c" x="240.305579" y="34.189184" style="stroke: #000000; stroke-width: 0.6"/>
      </g>
     </g>
    </g>
    <g id="ytick_46">
     <g id="line2d_72">
      <g>
       <use xlink:href="#md595e5755c" x="240.305579" y="27.015852" style="stroke: #000000; stroke-width: 0.6"/>
      </g>
     </g>
    </g>
    <g id="ytick_47">
     <g id="line2d_73">
      <g>
       <use xlink:href="#md595e5755c" x="240.305579" y="21.926292" style="stroke: #000000; stroke-width: 0.6"/>
      </g>
     </g>
    </g>
    <g id="text_33">
     <!-- rmse test -->
     <g transform="translate(214.490423 110.849078) rotate(-90) scale(0.07 -0.07)">
      <use xlink:href="#DejaVuSans-72"/>
      <use xlink:href="#DejaVuSans-6d" x="39.363281"/>
      <use xlink:href="#DejaVuSans-73" x="136.775391"/>
      <use xlink:href="#DejaVuSans-65" x="188.875"/>
      <use xlink:href="#DejaVuSans-20" x="250.398438"/>
      <use xlink:href="#DejaVuSans-74" x="282.185547"/>
      <use xlink:href="#DejaVuSans-65" x="321.394531"/>
      <use xlink:href="#DejaVuSans-73" x="382.917969"/>
      <use xlink:href="#DejaVuSans-74" x="435.017578"/>
     </g>
    </g>
   </g>
   <g id="LineCollection_5">
    <path d="M 254.458703 141.658263 
L 254.458703 114.192976 
" clip-path="url(#pb6d636ec64)" style="fill: none; stroke: #ff0000; stroke-width: 1.5"/>
    <path d="M 268.611828 134.32059 
L 268.611828 120.000636 
" clip-path="url(#pb6d636ec64)" style="fill: none; stroke: #ff0000; stroke-width: 1.5"/>
    <path d="M 282.764952 120.02816 
L 282.764952 110.913334 
" clip-path="url(#pb6d636ec64)" style="fill: none; stroke: #ff0000; stroke-width: 1.5"/>
    <path d="M 296.918077 136.261742 
L 296.918077 116.969819 
" clip-path="url(#pb6d636ec64)" style="fill: none; stroke: #ff0000; stroke-width: 1.5"/>
    <path d="M 311.071201 126.405547 
L 311.071201 105.561 
" clip-path="url(#pb6d636ec64)" style="fill: none; stroke: #ff0000; stroke-width: 1.5"/>
    <path d="M 325.224326 126.869114 
L 325.224326 108.247138 
" clip-path="url(#pb6d636ec64)" style="fill: none; stroke: #ff0000; stroke-width: 1.5"/>
    <path d="M 339.37745 131.897289 
L 339.37745 113.648519 
" clip-path="url(#pb6d636ec64)" style="fill: none; stroke: #ff0000; stroke-width: 1.5"/>
    <path d="M 353.530575 117.548485 
L 353.530575 101.626898 
" clip-path="url(#pb6d636ec64)" style="fill: none; stroke: #ff0000; stroke-width: 1.5"/>
    <path d="M 367.683699 121.743583 
L 367.683699 98.232459 
" clip-path="url(#pb6d636ec64)" style="fill: none; stroke: #ff0000; stroke-width: 1.5"/>
    <path d="M 381.836824 110.979832 
L 381.836824 95.968861 
" clip-path="url(#pb6d636ec64)" style="fill: none; stroke: #ff0000; stroke-width: 1.5"/>
   </g>
   <g id="LineCollection_6">
    <path d="M 254.458703 199.425197 
L 254.458703 6.02919 
" clip-path="url(#pb6d636ec64)" style="fill: none; stroke: #008000; stroke-width: 1.5"/>
    <path d="M 268.611828 144.996825 
L 268.611828 122.430115 
" clip-path="url(#pb6d636ec64)" style="fill: none; stroke: #008000; stroke-width: 1.5"/>
    <path d="M 282.764952 129.416682 
L 282.764952 106.407876 
" clip-path="url(#pb6d636ec64)" style="fill: none; stroke: #008000; stroke-width: 1.5"/>
    <path d="M 296.918077 120.067378 
L 296.918077 98.981976 
" clip-path="url(#pb6d636ec64)" style="fill: none; stroke: #008000; stroke-width: 1.5"/>
    <path d="M 311.071201 165.792647 
L 311.071201 100.536929 
" clip-path="url(#pb6d636ec64)" style="fill: none; stroke: #008000; stroke-width: 1.5"/>
    <path d="M 325.224326 129.942947 
L 325.224326 82.670399 
" clip-path="url(#pb6d636ec64)" style="fill: none; stroke: #008000; stroke-width: 1.5"/>
    <path d="M 339.37745 130.22263 
L 339.37745 94.174093 
" clip-path="url(#pb6d636ec64)" style="fill: none; stroke: #008000; stroke-width: 1.5"/>
    <path d="M 353.530575 123.648456 
L 353.530575 109.122116 
" clip-path="url(#pb6d636ec64)" style="fill: none; stroke: #008000; stroke-width: 1.5"/>
    <path d="M 367.683699 112.865549 
L 367.683699 95.890168 
" clip-path="url(#pb6d636ec64)" style="fill: none; stroke: #008000; stroke-width: 1.5"/>
    <path d="M 381.836824 199.425197 
L 381.836824 -1 
" clip-path="url(#pb6d636ec64)" style="fill: none; stroke: #008000; stroke-width: 1.5"/>
   </g>
   <g id="line2d_74">
    <g clip-path="url(#pb6d636ec64)">
     <use xlink:href="#m587bb366d5" x="254.458703" y="123.05822" style="fill: #ff0000; stroke: #ff0000"/>
     <use xlink:href="#m587bb366d5" x="268.611828" y="125.74966" style="fill: #ff0000; stroke: #ff0000"/>
     <use xlink:href="#m587bb366d5" x="282.764952" y="114.890125" style="fill: #ff0000; stroke: #ff0000"/>
     <use xlink:href="#m587bb366d5" x="296.918077" y="124.106965" style="fill: #ff0000; stroke: #ff0000"/>
     <use xlink:href="#m587bb366d5" x="311.071201" y="113.076043" style="fill: #ff0000; stroke: #ff0000"/>
     <use xlink:href="#m587bb366d5" x="325.224326" y="115.213368" style="fill: #ff0000; stroke: #ff0000"/>
     <use xlink:href="#m587bb366d5" x="339.37745" y="120.517433" style="fill: #ff0000; stroke: #ff0000"/>
     <use xlink:href="#m587bb366d5" x="353.530575" y="107.853978" style="fill: #ff0000; stroke: #ff0000"/>
     <use xlink:href="#m587bb366d5" x="367.683699" y="106.339941" style="fill: #ff0000; stroke: #ff0000"/>
     <use xlink:href="#m587bb366d5" x="381.836824" y="101.927866" style="fill: #ff0000; stroke: #ff0000"/>
    </g>
   </g>
   <g id="line2d_75">
    <g clip-path="url(#pb6d636ec64)">
     <use xlink:href="#mafebd7c93e" x="254.458703" y="24.228468" style="fill: #008000; stroke: #008000"/>
     <use xlink:href="#mafebd7c93e" x="268.611828" y="130.335683" style="fill: #008000; stroke: #008000"/>
     <use xlink:href="#mafebd7c93e" x="282.764952" y="114.409018" style="fill: #008000; stroke: #008000"/>
     <use xlink:href="#mafebd7c93e" x="296.918077" y="106.553415" style="fill: #008000; stroke: #008000"/>
     <use xlink:href="#mafebd7c93e" x="311.071201" y="112.36281" style="fill: #008000; stroke: #008000"/>
     <use xlink:href="#mafebd7c93e" x="325.224326" y="93.750995" style="fill: #008000; stroke: #008000"/>
     <use xlink:href="#mafebd7c93e" x="339.37745" y="104.26943" style="fill: #008000; stroke: #008000"/>
     <use xlink:href="#mafebd7c93e" x="353.530575" y="114.934454" style="fill: #008000; stroke: #008000"/>
     <use xlink:href="#mafebd7c93e" x="367.683699" y="102.415463" style="fill: #008000; stroke: #008000"/>
     <use xlink:href="#mafebd7c93e" x="368.821163" y="-1" style="fill: #008000; stroke: #008000"/>
    </g>
   </g>
   <g id="patch_8">
    <path d="M 240.305579 168.661417 
L 240.305579 19.84252 
" style="fill: none; stroke: #000000; stroke-width: 0.8; stroke-linejoin: miter; stroke-linecap: square"/>
   </g>
   <g id="patch_9">
    <path d="M 388.913386 168.661417 
L 388.913386 19.84252 
" style="fill: none; stroke: #000000; stroke-width: 0.8; stroke-linejoin: miter; stroke-linecap: square"/>
   </g>
   <g id="patch_10">
    <path d="M 240.305579 168.661417 
L 388.913386 168.661417 
" style="fill: none; stroke: #000000; stroke-width: 0.8; stroke-linejoin: miter; stroke-linecap: square"/>
   </g>
   <g id="patch_11">
    <path d="M 240.305579 19.84252 
L 388.913386 19.84252 
" style="fill: none; stroke: #000000; stroke-width: 0.8; stroke-linejoin: miter; stroke-linecap: square"/>
   </g>
  </g>
 </g>
 <defs>
  <clipPath id="p2d649331c8">
   <rect x="39.685039" y="19.84252" width="148.607807" height="148.818898"/>
  </clipPath>
  <clipPath id="pb6d636ec64">
   <rect x="240.305579" y="19.84252" width="148.607807" height="148.818898"/>
  </clipPath>
 </defs>
</svg>
