<?xml version="1.0" encoding="utf-8" standalone="no"?>
<!DOCTYPE svg PUBLIC "-//W3C//DTD SVG 1.1//EN"
  "http://www.w3.org/Graphics/SVG/1.1/DTD/svg11.dtd">
<svg xmlns:xlink="http://www.w3.org/1999/xlink" width="283.464567pt" height="255.11811pt" viewBox="0 0 283.464567 255.11811" xmlns="http://www.w3.org/2000/svg" version="1.1">
 <metadata>
  <rdf:RDF xmlns:dc="http://purl.org/dc/elements/1.1/" xmlns:cc="http://creativecommons.org/ns#" xmlns:rdf="http://www.w3.org/1999/02/22-rdf-syntax-ns#">
   <cc:Work>
    <dc:type rdf:resource="http://purl.org/dc/dcmitype/StillImage"/>
    <dc:date>2025-02-03T12:07:19.316172</dc:date>
    <dc:format>image/svg+xml</dc:format>
    <dc:creator>
     <cc:Agent>
      <dc:title>Matplotlib v3.10.0, https://matplotlib.org/</dc:title>
     </cc:Agent>
    </dc:creator>
   </cc:Work>
  </rdf:RDF>
 </metadata>
 <defs>
  <style type="text/css">*{stroke-linejoin: round; stroke-linecap: butt}</style>
 </defs>
 <g id="figure_1">
  <g id="patch_1">
   <path d="M 0 255.11811 
L 283.464567 255.11811 
L 283.464567 0 
L 0 0 
z
" style="fill: #ffffff"/>
  </g>
  <g id="axes_1">
   <g id="patch_2">
    <path d="M 61.35 201.29811 
L 268.848342 201.29811 
L 268.848342 15.734173 
L 61.35 15.734173 
z
" style="fill: #ffffff"/>
   </g>
   <g id="matplotlib.axis_1">
    <g id="xtick_1">
     <g id="line2d_1">
      <defs>
       <path id="mc74c110ea1" d="M 0 0 
L 0 6 
" style="stroke: #262626; stroke-width: 1.25"/>
      </defs>
      <g>
       <use xlink:href="#mc74c110ea1" x="63.384297" y="201.29811" style="fill: #262626; stroke: #262626; stroke-width: 1.25"/>
      </g>
     </g>
     <g id="text_1">
      <!-- −2 -->
      <g style="fill: #262626" transform="translate(54.538985 219.916235) scale(0.12 -0.12)">
       <defs>
        <path id="DejaVuSans-2212" d="M 678 2272 
L 4684 2272 
L 4684 1741 
L 678 1741 
L 678 2272 
z
" transform="scale(0.015625)"/>
        <path id="DejaVuSans-32" d="M 1228 531 
L 3431 531 
L 3431 0 
L 469 0 
L 469 531 
Q 828 903 1448 1529 
Q 2069 2156 2228 2338 
Q 2531 2678 2651 2914 
Q 2772 3150 2772 3378 
Q 2772 3750 2511 3984 
Q 2250 4219 1831 4219 
Q 1534 4219 1204 4116 
Q 875 4013 500 3803 
L 500 4441 
Q 881 4594 1212 4672 
Q 1544 4750 1819 4750 
Q 2544 4750 2975 4387 
Q 3406 4025 3406 3419 
Q 3406 3131 3298 2873 
Q 3191 2616 2906 2266 
Q 2828 2175 2409 1742 
Q 1991 1309 1228 531 
z
" transform="scale(0.015625)"/>
       </defs>
       <use xlink:href="#DejaVuSans-2212"/>
       <use xlink:href="#DejaVuSans-32" transform="translate(83.789062 0)"/>
      </g>
     </g>
    </g>
    <g id="xtick_2">
     <g id="line2d_2">
      <g>
       <use xlink:href="#mc74c110ea1" x="165.099171" y="201.29811" style="fill: #262626; stroke: #262626; stroke-width: 1.25"/>
      </g>
     </g>
     <g id="text_2">
      <!-- 0 -->
      <g style="fill: #262626" transform="translate(161.281671 219.916235) scale(0.12 -0.12)">
       <defs>
        <path id="DejaVuSans-30" d="M 2034 4250 
Q 1547 4250 1301 3770 
Q 1056 3291 1056 2328 
Q 1056 1369 1301 889 
Q 1547 409 2034 409 
Q 2525 409 2770 889 
Q 3016 1369 3016 2328 
Q 3016 3291 2770 3770 
Q 2525 4250 2034 4250 
z
M 2034 4750 
Q 2819 4750 3233 4129 
Q 3647 3509 3647 2328 
Q 3647 1150 3233 529 
Q 2819 -91 2034 -91 
Q 1250 -91 836 529 
Q 422 1150 422 2328 
Q 422 3509 836 4129 
Q 1250 4750 2034 4750 
z
" transform="scale(0.015625)"/>
       </defs>
       <use xlink:href="#DejaVuSans-30"/>
      </g>
     </g>
    </g>
    <g id="xtick_3">
     <g id="line2d_3">
      <g>
       <use xlink:href="#mc74c110ea1" x="266.814044" y="201.29811" style="fill: #262626; stroke: #262626; stroke-width: 1.25"/>
      </g>
     </g>
     <g id="text_3">
      <!-- 2 -->
      <g style="fill: #262626" transform="translate(262.996544 219.916235) scale(0.12 -0.12)">
       <use xlink:href="#DejaVuSans-32"/>
      </g>
     </g>
    </g>
    <g id="text_4">
     <!-- x -->
     <g style="fill: #262626" transform="translate(160.364171 238.56936) scale(0.16 -0.16)">
      <defs>
       <path id="DejaVuSans-78" d="M 3513 3500 
L 2247 1797 
L 3578 0 
L 2900 0 
L 1881 1375 
L 863 0 
L 184 0 
L 1544 1831 
L 300 3500 
L 978 3500 
L 1906 2253 
L 2834 3500 
L 3513 3500 
z
" transform="scale(0.015625)"/>
      </defs>
      <use xlink:href="#DejaVuSans-78"/>
     </g>
    </g>
   </g>
   <g id="matplotlib.axis_2">
    <g id="ytick_1">
     <g id="line2d_4">
      <defs>
       <path id="m485a80930c" d="M 0 0 
L -6 0 
" style="stroke: #262626; stroke-width: 1.25"/>
      </defs>
      <g>
       <use xlink:href="#m485a80930c" x="61.35" y="186.115606" style="fill: #262626; stroke: #262626; stroke-width: 1.25"/>
      </g>
     </g>
     <g id="text_5">
      <!-- 0.0 -->
      <g style="fill: #262626" transform="translate(32.76625 190.674669) scale(0.12 -0.12)">
       <defs>
        <path id="DejaVuSans-2e" d="M 684 794 
L 1344 794 
L 1344 0 
L 684 0 
L 684 794 
z
" transform="scale(0.015625)"/>
       </defs>
       <use xlink:href="#DejaVuSans-30"/>
       <use xlink:href="#DejaVuSans-2e" transform="translate(63.623047 0)"/>
       <use xlink:href="#DejaVuSans-30" transform="translate(95.410156 0)"/>
      </g>
     </g>
    </g>
    <g id="ytick_2">
     <g id="line2d_5">
      <g>
       <use xlink:href="#m485a80930c" x="61.35" y="101.768362" style="fill: #262626; stroke: #262626; stroke-width: 1.25"/>
      </g>
     </g>
     <g id="text_6">
      <!-- 0.5 -->
      <g style="fill: #262626" transform="translate(32.76625 106.327425) scale(0.12 -0.12)">
       <defs>
        <path id="DejaVuSans-35" d="M 691 4666 
L 3169 4666 
L 3169 4134 
L 1269 4134 
L 1269 2991 
Q 1406 3038 1543 3061 
Q 1681 3084 1819 3084 
Q 2600 3084 3056 2656 
Q 3513 2228 3513 1497 
Q 3513 744 3044 326 
Q 2575 -91 1722 -91 
Q 1428 -91 1123 -41 
Q 819 9 494 109 
L 494 744 
Q 775 591 1075 516 
Q 1375 441 1709 441 
Q 2250 441 2565 725 
Q 2881 1009 2881 1497 
Q 2881 1984 2565 2268 
Q 2250 2553 1709 2553 
Q 1456 2553 1204 2497 
Q 953 2441 691 2322 
L 691 4666 
z
" transform="scale(0.015625)"/>
       </defs>
       <use xlink:href="#DejaVuSans-30"/>
       <use xlink:href="#DejaVuSans-2e" transform="translate(63.623047 0)"/>
       <use xlink:href="#DejaVuSans-35" transform="translate(95.410156 0)"/>
      </g>
     </g>
    </g>
    <g id="ytick_3">
     <g id="line2d_6">
      <g>
       <use xlink:href="#m485a80930c" x="61.35" y="17.421118" style="fill: #262626; stroke: #262626; stroke-width: 1.25"/>
      </g>
     </g>
     <g id="text_7">
      <!-- 1.0 -->
      <g style="fill: #262626" transform="translate(32.76625 21.980181) scale(0.12 -0.12)">
       <defs>
        <path id="DejaVuSans-31" d="M 794 531 
L 1825 531 
L 1825 4091 
L 703 3866 
L 703 4441 
L 1819 4666 
L 2450 4666 
L 2450 531 
L 3481 531 
L 3481 0 
L 794 0 
L 794 531 
z
" transform="scale(0.015625)"/>
       </defs>
       <use xlink:href="#DejaVuSans-31"/>
       <use xlink:href="#DejaVuSans-2e" transform="translate(63.623047 0)"/>
       <use xlink:href="#DejaVuSans-30" transform="translate(95.410156 0)"/>
      </g>
     </g>
    </g>
    <g id="text_8">
     <!-- y -->
     <g style="fill: #262626" transform="translate(25.43875 113.251142) rotate(-90) scale(0.16 -0.16)">
      <defs>
       <path id="DejaVuSans-79" d="M 2059 -325 
Q 1816 -950 1584 -1140 
Q 1353 -1331 966 -1331 
L 506 -1331 
L 506 -850 
L 844 -850 
Q 1081 -850 1212 -737 
Q 1344 -625 1503 -206 
L 1606 56 
L 191 3500 
L 800 3500 
L 1894 763 
L 2988 3500 
L 3597 3500 
L 2059 -325 
z
" transform="scale(0.015625)"/>
      </defs>
      <use xlink:href="#DejaVuSans-79"/>
     </g>
    </g>
   </g>
   <g id="line2d_7">
    <defs>
     <path id="m8fa3d0ff0f" d="M 0 0.75 
C 0.198902 0.75 0.389685 0.670975 0.53033 0.53033 
C 0.670975 0.389685 0.75 0.198902 0.75 0 
C 0.75 -0.198902 0.670975 -0.389685 0.53033 -0.53033 
C 0.389685 -0.670975 0.198902 -0.75 0 -0.75 
C -0.198902 -0.75 -0.389685 -0.670975 -0.53033 -0.53033 
C -0.670975 -0.389685 -0.75 -0.198902 -0.75 0 
C -0.75 0.198902 -0.670975 0.389685 -0.53033 0.53033 
C -0.389685 0.670975 -0.198902 0.75 0 0.75 
z
" style="stroke: #4c72b0"/>
    </defs>
    <g clip-path="url(#p5c0bf2ba58)">
     <use xlink:href="#m8fa3d0ff0f" x="65.927169" y="185.990488" style="fill: #4c72b0; stroke: #4c72b0"/>
     <use xlink:href="#m8fa3d0ff0f" x="68.470041" y="186.022028" style="fill: #4c72b0; stroke: #4c72b0"/>
     <use xlink:href="#m8fa3d0ff0f" x="71.012913" y="186.050776" style="fill: #4c72b0; stroke: #4c72b0"/>
     <use xlink:href="#m8fa3d0ff0f" x="73.555785" y="186.075792" style="fill: #4c72b0; stroke: #4c72b0"/>
     <use xlink:href="#m8fa3d0ff0f" x="76.098657" y="186.09593" style="fill: #4c72b0; stroke: #4c72b0"/>
     <use xlink:href="#m8fa3d0ff0f" x="78.641528" y="186.109784" style="fill: #4c72b0; stroke: #4c72b0"/>
     <use xlink:href="#m8fa3d0ff0f" x="81.1844" y="186.115606" style="fill: #4c72b0; stroke: #4c72b0"/>
     <use xlink:href="#m8fa3d0ff0f" x="83.727272" y="186.111188" style="fill: #4c72b0; stroke: #4c72b0"/>
     <use xlink:href="#m8fa3d0ff0f" x="86.270144" y="186.093685" style="fill: #4c72b0; stroke: #4c72b0"/>
     <use xlink:href="#m8fa3d0ff0f" x="88.813016" y="186.059354" style="fill: #4c72b0; stroke: #4c72b0"/>
     <use xlink:href="#m8fa3d0ff0f" x="91.355888" y="186.003154" style="fill: #4c72b0; stroke: #4c72b0"/>
     <use xlink:href="#m8fa3d0ff0f" x="93.89876" y="185.918134" style="fill: #4c72b0; stroke: #4c72b0"/>
     <use xlink:href="#m8fa3d0ff0f" x="96.441631" y="185.794473" style="fill: #4c72b0; stroke: #4c72b0"/>
     <use xlink:href="#m8fa3d0ff0f" x="98.984503" y="185.617987" style="fill: #4c72b0; stroke: #4c72b0"/>
     <use xlink:href="#m8fa3d0ff0f" x="101.527375" y="185.367767" style="fill: #4c72b0; stroke: #4c72b0"/>
     <use xlink:href="#m8fa3d0ff0f" x="104.070247" y="185.012476" style="fill: #4c72b0; stroke: #4c72b0"/>
     <use xlink:href="#m8fa3d0ff0f" x="106.613119" y="184.504643" style="fill: #4c72b0; stroke: #4c72b0"/>
     <use xlink:href="#m8fa3d0ff0f" x="109.155991" y="183.772257" style="fill: #4c72b0; stroke: #4c72b0"/>
     <use xlink:href="#m8fa3d0ff0f" x="111.698862" y="182.707562" style="fill: #4c72b0; stroke: #4c72b0"/>
     <use xlink:href="#m8fa3d0ff0f" x="114.241734" y="181.155347" style="fill: #4c72b0; stroke: #4c72b0"/>
     <use xlink:href="#m8fa3d0ff0f" x="116.784606" y="178.90892" style="fill: #4c72b0; stroke: #4c72b0"/>
     <use xlink:href="#m8fa3d0ff0f" x="119.327478" y="175.731941" style="fill: #4c72b0; stroke: #4c72b0"/>
     <use xlink:href="#m8fa3d0ff0f" x="121.87035" y="171.430662" style="fill: #4c72b0; stroke: #4c72b0"/>
     <use xlink:href="#m8fa3d0ff0f" x="124.413222" y="165.981708" style="fill: #4c72b0; stroke: #4c72b0"/>
     <use xlink:href="#m8fa3d0ff0f" x="126.956093" y="159.657761" style="fill: #4c72b0; stroke: #4c72b0"/>
     <use xlink:href="#m8fa3d0ff0f" x="129.498965" y="153.034407" style="fill: #4c72b0; stroke: #4c72b0"/>
     <use xlink:href="#m8fa3d0ff0f" x="132.041837" y="146.814475" style="fill: #4c72b0; stroke: #4c72b0"/>
     <use xlink:href="#m8fa3d0ff0f" x="134.584709" y="141.567832" style="fill: #4c72b0; stroke: #4c72b0"/>
     <use xlink:href="#m8fa3d0ff0f" x="137.127581" y="137.566013" style="fill: #4c72b0; stroke: #4c72b0"/>
     <use xlink:href="#m8fa3d0ff0f" x="139.670453" y="134.791865" style="fill: #4c72b0; stroke: #4c72b0"/>
     <use xlink:href="#m8fa3d0ff0f" x="142.213324" y="133.062877" style="fill: #4c72b0; stroke: #4c72b0"/>
     <use xlink:href="#m8fa3d0ff0f" x="144.756196" y="132.164871" style="fill: #4c72b0; stroke: #4c72b0"/>
     <use xlink:href="#m8fa3d0ff0f" x="147.299068" y="131.935837" style="fill: #4c72b0; stroke: #4c72b0"/>
     <use xlink:href="#m8fa3d0ff0f" x="149.84194" y="132.29217" style="fill: #4c72b0; stroke: #4c72b0"/>
     <use xlink:href="#m8fa3d0ff0f" x="152.384812" y="133.214497" style="fill: #4c72b0; stroke: #4c72b0"/>
     <use xlink:href="#m8fa3d0ff0f" x="154.927684" y="134.712358" style="fill: #4c72b0; stroke: #4c72b0"/>
     <use xlink:href="#m8fa3d0ff0f" x="157.470555" y="136.782552" style="fill: #4c72b0; stroke: #4c72b0"/>
     <use xlink:href="#m8fa3d0ff0f" x="160.013427" y="139.37354" style="fill: #4c72b0; stroke: #4c72b0"/>
     <use xlink:href="#m8fa3d0ff0f" x="162.556299" y="142.367889" style="fill: #4c72b0; stroke: #4c72b0"/>
     <use xlink:href="#m8fa3d0ff0f" x="165.099171" y="145.591051" style="fill: #4c72b0; stroke: #4c72b0"/>
     <use xlink:href="#m8fa3d0ff0f" x="167.642043" y="148.844312" style="fill: #4c72b0; stroke: #4c72b0"/>
     <use xlink:href="#m8fa3d0ff0f" x="170.184915" y="151.947108" style="fill: #4c72b0; stroke: #4c72b0"/>
     <use xlink:href="#m8fa3d0ff0f" x="172.727786" y="154.769422" style="fill: #4c72b0; stroke: #4c72b0"/>
     <use xlink:href="#m8fa3d0ff0f" x="175.270658" y="157.243093" style="fill: #4c72b0; stroke: #4c72b0"/>
     <use xlink:href="#m8fa3d0ff0f" x="177.81353" y="159.353949" style="fill: #4c72b0; stroke: #4c72b0"/>
     <use xlink:href="#m8fa3d0ff0f" x="180.356402" y="161.124387" style="fill: #4c72b0; stroke: #4c72b0"/>
     <use xlink:href="#m8fa3d0ff0f" x="182.899274" y="162.595623" style="fill: #4c72b0; stroke: #4c72b0"/>
     <use xlink:href="#m8fa3d0ff0f" x="185.442146" y="163.814434" style="fill: #4c72b0; stroke: #4c72b0"/>
     <use xlink:href="#m8fa3d0ff0f" x="187.985017" y="164.82525" style="fill: #4c72b0; stroke: #4c72b0"/>
     <use xlink:href="#m8fa3d0ff0f" x="190.527889" y="165.666452" style="fill: #4c72b0; stroke: #4c72b0"/>
     <use xlink:href="#m8fa3d0ff0f" x="193.070761" y="166.369333" style="fill: #4c72b0; stroke: #4c72b0"/>
     <use xlink:href="#m8fa3d0ff0f" x="195.613633" y="166.958483" style="fill: #4c72b0; stroke: #4c72b0"/>
     <use xlink:href="#m8fa3d0ff0f" x="198.156505" y="167.452754" style="fill: #4c72b0; stroke: #4c72b0"/>
     <use xlink:href="#m8fa3d0ff0f" x="200.699377" y="167.866382" style="fill: #4c72b0; stroke: #4c72b0"/>
     <use xlink:href="#m8fa3d0ff0f" x="203.242248" y="168.210016" style="fill: #4c72b0; stroke: #4c72b0"/>
     <use xlink:href="#m8fa3d0ff0f" x="205.78512" y="168.491589" style="fill: #4c72b0; stroke: #4c72b0"/>
     <use xlink:href="#m8fa3d0ff0f" x="208.327992" y="168.717008" style="fill: #4c72b0; stroke: #4c72b0"/>
     <use xlink:href="#m8fa3d0ff0f" x="210.870864" y="168.890678" style="fill: #4c72b0; stroke: #4c72b0"/>
     <use xlink:href="#m8fa3d0ff0f" x="213.413736" y="169.015891" style="fill: #4c72b0; stroke: #4c72b0"/>
     <use xlink:href="#m8fa3d0ff0f" x="215.956608" y="169.095109" style="fill: #4c72b0; stroke: #4c72b0"/>
     <use xlink:href="#m8fa3d0ff0f" x="218.499479" y="169.13016" style="fill: #4c72b0; stroke: #4c72b0"/>
     <use xlink:href="#m8fa3d0ff0f" x="221.042351" y="169.122377" style="fill: #4c72b0; stroke: #4c72b0"/>
     <use xlink:href="#m8fa3d0ff0f" x="223.585223" y="169.07269" style="fill: #4c72b0; stroke: #4c72b0"/>
     <use xlink:href="#m8fa3d0ff0f" x="226.128095" y="168.98169" style="fill: #4c72b0; stroke: #4c72b0"/>
     <use xlink:href="#m8fa3d0ff0f" x="228.670967" y="168.849659" style="fill: #4c72b0; stroke: #4c72b0"/>
     <use xlink:href="#m8fa3d0ff0f" x="231.213839" y="168.676594" style="fill: #4c72b0; stroke: #4c72b0"/>
     <use xlink:href="#m8fa3d0ff0f" x="233.75671" y="168.462207" style="fill: #4c72b0; stroke: #4c72b0"/>
     <use xlink:href="#m8fa3d0ff0f" x="236.299582" y="168.205922" style="fill: #4c72b0; stroke: #4c72b0"/>
     <use xlink:href="#m8fa3d0ff0f" x="238.842454" y="167.906861" style="fill: #4c72b0; stroke: #4c72b0"/>
     <use xlink:href="#m8fa3d0ff0f" x="241.385326" y="167.563824" style="fill: #4c72b0; stroke: #4c72b0"/>
     <use xlink:href="#m8fa3d0ff0f" x="243.928198" y="167.175262" style="fill: #4c72b0; stroke: #4c72b0"/>
     <use xlink:href="#m8fa3d0ff0f" x="246.47107" y="166.739247" style="fill: #4c72b0; stroke: #4c72b0"/>
     <use xlink:href="#m8fa3d0ff0f" x="249.013942" y="166.253444" style="fill: #4c72b0; stroke: #4c72b0"/>
     <use xlink:href="#m8fa3d0ff0f" x="251.556813" y="165.715074" style="fill: #4c72b0; stroke: #4c72b0"/>
     <use xlink:href="#m8fa3d0ff0f" x="254.099685" y="165.120881" style="fill: #4c72b0; stroke: #4c72b0"/>
     <use xlink:href="#m8fa3d0ff0f" x="256.642557" y="164.467103" style="fill: #4c72b0; stroke: #4c72b0"/>
     <use xlink:href="#m8fa3d0ff0f" x="259.185429" y="163.749436" style="fill: #4c72b0; stroke: #4c72b0"/>
     <use xlink:href="#m8fa3d0ff0f" x="261.728301" y="162.963018" style="fill: #4c72b0; stroke: #4c72b0"/>
     <use xlink:href="#m8fa3d0ff0f" x="264.271173" y="162.1024" style="fill: #4c72b0; stroke: #4c72b0"/>
     <use xlink:href="#m8fa3d0ff0f" x="266.814044" y="161.161537" style="fill: #4c72b0; stroke: #4c72b0"/>
    </g>
   </g>
   <g id="patch_3">
    <path d="M 61.35 201.29811 
L 61.35 15.734173 
" style="fill: none; stroke: #262626; stroke-width: 1.25; stroke-linejoin: miter; stroke-linecap: square"/>
   </g>
   <g id="patch_4">
    <path d="M 61.35 201.29811 
L 268.848342 201.29811 
" style="fill: none; stroke: #262626; stroke-width: 1.25; stroke-linejoin: miter; stroke-linecap: square"/>
   </g>
  </g>
 </g>
 <defs>
  <clipPath id="p5c0bf2ba58">
   <rect x="61.35" y="15.734173" width="207.498342" height="185.563937"/>
  </clipPath>
 </defs>
</svg>
