<?xml version="1.0" encoding="utf-8" standalone="no"?>
<!DOCTYPE svg PUBLIC "-//W3C//DTD SVG 1.1//EN"
  "http://www.w3.org/Graphics/SVG/1.1/DTD/svg11.dtd">
<svg xmlns:xlink="http://www.w3.org/1999/xlink" width="226.771654pt" height="198.425197pt" viewBox="0 0 226.771654 198.425197" xmlns="http://www.w3.org/2000/svg" version="1.1">
 <metadata>
  <rdf:RDF xmlns:dc="http://purl.org/dc/elements/1.1/" xmlns:cc="http://creativecommons.org/ns#" xmlns:rdf="http://www.w3.org/1999/02/22-rdf-syntax-ns#">
   <cc:Work>
    <dc:type rdf:resource="http://purl.org/dc/dcmitype/StillImage"/>
    <dc:date>2025-05-12T10:59:08.324999</dc:date>
    <dc:format>image/svg+xml</dc:format>
    <dc:creator>
     <cc:Agent>
      <dc:title>Matplotlib v3.10.3, https://matplotlib.org/</dc:title>
     </cc:Agent>
    </dc:creator>
   </cc:Work>
  </rdf:RDF>
 </metadata>
 <defs>
  <style type="text/css">*{stroke-linejoin: round; stroke-linecap: butt}</style>
 </defs>
 <g id="figure_1">
  <g id="patch_1">
   <path d="M 0 198.425197 
L 226.771654 198.425197 
L 226.771654 0 
L 0 0 
z
" style="fill: #ffffff"/>
  </g>
  <g id="axes_1">
   <g id="patch_2">
    <path d="M 61.35 144.605197 
L 211.724673 144.605197 
L 211.724673 29.916798 
L 61.35 29.916798 
z
" style="fill: #ffffff"/>
   </g>
   <g id="matplotlib.axis_1">
    <g id="xtick_1">
     <g id="line2d_1">
      <defs>
       <path id="m89c0e6f486" d="M 0 0 
L 0 6 
" style="stroke: #262626; stroke-width: 1.25"/>
      </defs>
      <g>
       <use xlink:href="#m89c0e6f486" x="62.824262" y="144.605197" style="fill: #262626; stroke: #262626; stroke-width: 1.25"/>
      </g>
     </g>
     <g id="text_1">
      <!-- −2 -->
      <g style="fill: #262626" transform="translate(53.978949 163.223322) scale(0.12 -0.12)">
       <defs>
        <path id="DejaVuSans-2212" d="M 678 2272 
L 4684 2272 
L 4684 1741 
L 678 1741 
L 678 2272 
z
" transform="scale(0.015625)"/>
        <path id="DejaVuSans-32" d="M 1228 531 
L 3431 531 
L 3431 0 
L 469 0 
L 469 531 
Q 828 903 1448 1529 
Q 2069 2156 2228 2338 
Q 2531 2678 2651 2914 
Q 2772 3150 2772 3378 
Q 2772 3750 2511 3984 
Q 2250 4219 1831 4219 
Q 1534 4219 1204 4116 
Q 875 4013 500 3803 
L 500 4441 
Q 881 4594 1212 4672 
Q 1544 4750 1819 4750 
Q 2544 4750 2975 4387 
Q 3406 4025 3406 3419 
Q 3406 3131 3298 2873 
Q 3191 2616 2906 2266 
Q 2828 2175 2409 1742 
Q 1991 1309 1228 531 
z
" transform="scale(0.015625)"/>
       </defs>
       <use xlink:href="#DejaVuSans-2212"/>
       <use xlink:href="#DejaVuSans-32" transform="translate(83.789062 0)"/>
      </g>
     </g>
    </g>
    <g id="xtick_2">
     <g id="line2d_2">
      <g>
       <use xlink:href="#m89c0e6f486" x="136.537337" y="144.605197" style="fill: #262626; stroke: #262626; stroke-width: 1.25"/>
      </g>
     </g>
     <g id="text_2">
      <!-- 0 -->
      <g style="fill: #262626" transform="translate(132.719837 163.223322) scale(0.12 -0.12)">
       <defs>
        <path id="DejaVuSans-30" d="M 2034 4250 
Q 1547 4250 1301 3770 
Q 1056 3291 1056 2328 
Q 1056 1369 1301 889 
Q 1547 409 2034 409 
Q 2525 409 2770 889 
Q 3016 1369 3016 2328 
Q 3016 3291 2770 3770 
Q 2525 4250 2034 4250 
z
M 2034 4750 
Q 2819 4750 3233 4129 
Q 3647 3509 3647 2328 
Q 3647 1150 3233 529 
Q 2819 -91 2034 -91 
Q 1250 -91 836 529 
Q 422 1150 422 2328 
Q 422 3509 836 4129 
Q 1250 4750 2034 4750 
z
" transform="scale(0.015625)"/>
       </defs>
       <use xlink:href="#DejaVuSans-30"/>
      </g>
     </g>
    </g>
    <g id="xtick_3">
     <g id="line2d_3">
      <g>
       <use xlink:href="#m89c0e6f486" x="210.250412" y="144.605197" style="fill: #262626; stroke: #262626; stroke-width: 1.25"/>
      </g>
     </g>
     <g id="text_3">
      <!-- 2 -->
      <g style="fill: #262626" transform="translate(206.432912 163.223322) scale(0.12 -0.12)">
       <use xlink:href="#DejaVuSans-32"/>
      </g>
     </g>
    </g>
    <g id="text_4">
     <!-- x -->
     <g style="fill: #262626" transform="translate(131.802337 181.876447) scale(0.16 -0.16)">
      <defs>
       <path id="DejaVuSans-78" d="M 3513 3500 
L 2247 1797 
L 3578 0 
L 2900 0 
L 1881 1375 
L 863 0 
L 184 0 
L 1544 1831 
L 300 3500 
L 978 3500 
L 1906 2253 
L 2834 3500 
L 3513 3500 
z
" transform="scale(0.015625)"/>
      </defs>
      <use xlink:href="#DejaVuSans-78"/>
     </g>
    </g>
   </g>
   <g id="matplotlib.axis_2">
    <g id="ytick_1">
     <g id="line2d_4">
      <defs>
       <path id="m7c7efea585" d="M 0 0 
L -6 0 
" style="stroke: #262626; stroke-width: 1.25"/>
      </defs>
      <g>
       <use xlink:href="#m7c7efea585" x="61.35" y="135.221601" style="fill: #262626; stroke: #262626; stroke-width: 1.25"/>
      </g>
     </g>
     <g id="text_5">
      <!-- 0.0 -->
      <g style="fill: #262626" transform="translate(32.76625 139.780663) scale(0.12 -0.12)">
       <defs>
        <path id="DejaVuSans-2e" d="M 684 794 
L 1344 794 
L 1344 0 
L 684 0 
L 684 794 
z
" transform="scale(0.015625)"/>
       </defs>
       <use xlink:href="#DejaVuSans-30"/>
       <use xlink:href="#DejaVuSans-2e" transform="translate(63.623047 0)"/>
       <use xlink:href="#DejaVuSans-30" transform="translate(95.410156 0)"/>
      </g>
     </g>
    </g>
    <g id="ytick_2">
     <g id="line2d_5">
      <g>
       <use xlink:href="#m7c7efea585" x="61.35" y="83.09051" style="fill: #262626; stroke: #262626; stroke-width: 1.25"/>
      </g>
     </g>
     <g id="text_6">
      <!-- 0.5 -->
      <g style="fill: #262626" transform="translate(32.76625 87.649573) scale(0.12 -0.12)">
       <defs>
        <path id="DejaVuSans-35" d="M 691 4666 
L 3169 4666 
L 3169 4134 
L 1269 4134 
L 1269 2991 
Q 1406 3038 1543 3061 
Q 1681 3084 1819 3084 
Q 2600 3084 3056 2656 
Q 3513 2228 3513 1497 
Q 3513 744 3044 326 
Q 2575 -91 1722 -91 
Q 1428 -91 1123 -41 
Q 819 9 494 109 
L 494 744 
Q 775 591 1075 516 
Q 1375 441 1709 441 
Q 2250 441 2565 725 
Q 2881 1009 2881 1497 
Q 2881 1984 2565 2268 
Q 2250 2553 1709 2553 
Q 1456 2553 1204 2497 
Q 953 2441 691 2322 
L 691 4666 
z
" transform="scale(0.015625)"/>
       </defs>
       <use xlink:href="#DejaVuSans-30"/>
       <use xlink:href="#DejaVuSans-2e" transform="translate(63.623047 0)"/>
       <use xlink:href="#DejaVuSans-35" transform="translate(95.410156 0)"/>
      </g>
     </g>
    </g>
    <g id="ytick_3">
     <g id="line2d_6">
      <g>
       <use xlink:href="#m7c7efea585" x="61.35" y="30.95942" style="fill: #262626; stroke: #262626; stroke-width: 1.25"/>
      </g>
     </g>
     <g id="text_7">
      <!-- 1.0 -->
      <g style="fill: #262626" transform="translate(32.76625 35.518482) scale(0.12 -0.12)">
       <defs>
        <path id="DejaVuSans-31" d="M 794 531 
L 1825 531 
L 1825 4091 
L 703 3866 
L 703 4441 
L 1819 4666 
L 2450 4666 
L 2450 531 
L 3481 531 
L 3481 0 
L 794 0 
L 794 531 
z
" transform="scale(0.015625)"/>
       </defs>
       <use xlink:href="#DejaVuSans-31"/>
       <use xlink:href="#DejaVuSans-2e" transform="translate(63.623047 0)"/>
       <use xlink:href="#DejaVuSans-30" transform="translate(95.410156 0)"/>
      </g>
     </g>
    </g>
    <g id="text_8">
     <!-- y -->
     <g style="fill: #262626" transform="translate(25.43875 91.995997) rotate(-90) scale(0.16 -0.16)">
      <defs>
       <path id="DejaVuSans-79" d="M 2059 -325 
Q 1816 -950 1584 -1140 
Q 1353 -1331 966 -1331 
L 506 -1331 
L 506 -850 
L 844 -850 
Q 1081 -850 1212 -737 
Q 1344 -625 1503 -206 
L 1606 56 
L 191 3500 
L 800 3500 
L 1894 763 
L 2988 3500 
L 3597 3500 
L 2059 -325 
z
" transform="scale(0.015625)"/>
      </defs>
      <use xlink:href="#DejaVuSans-79"/>
     </g>
    </g>
   </g>
   <g id="line2d_7">
    <defs>
     <path id="m8df8d55e12" d="M 0 0.5 
C 0.132602 0.5 0.25979 0.447317 0.353553 0.353553 
C 0.447317 0.25979 0.5 0.132602 0.5 0 
C 0.5 -0.132602 0.447317 -0.25979 0.353553 -0.353553 
C 0.25979 -0.447317 0.132602 -0.5 0 -0.5 
C -0.132602 -0.5 -0.25979 -0.447317 -0.353553 -0.353553 
C -0.447317 -0.25979 -0.5 -0.132602 -0.5 0 
C -0.5 0.132602 -0.447317 0.25979 -0.353553 0.353553 
C -0.25979 0.447317 -0.132602 0.5 0 0.5 
z
" style="stroke: #0000ff"/>
    </defs>
    <g clip-path="url(#p22f130fd8e)">
     <use xlink:href="#m8df8d55e12" x="64.667088" y="135.144271" style="fill: #0000ff; stroke: #0000ff"/>
     <use xlink:href="#m8df8d55e12" x="66.509915" y="135.163764" style="fill: #0000ff; stroke: #0000ff"/>
     <use xlink:href="#m8df8d55e12" x="68.352742" y="135.181532" style="fill: #0000ff; stroke: #0000ff"/>
     <use xlink:href="#m8df8d55e12" x="70.195569" y="135.196993" style="fill: #0000ff; stroke: #0000ff"/>
     <use xlink:href="#m8df8d55e12" x="72.038396" y="135.209439" style="fill: #0000ff; stroke: #0000ff"/>
     <use xlink:href="#m8df8d55e12" x="73.881223" y="135.218002" style="fill: #0000ff; stroke: #0000ff"/>
     <use xlink:href="#m8df8d55e12" x="75.72405" y="135.221601" style="fill: #0000ff; stroke: #0000ff"/>
     <use xlink:href="#m8df8d55e12" x="77.566877" y="135.21887" style="fill: #0000ff; stroke: #0000ff"/>
     <use xlink:href="#m8df8d55e12" x="79.409703" y="135.208052" style="fill: #0000ff; stroke: #0000ff"/>
     <use xlink:href="#m8df8d55e12" x="81.25253" y="135.186833" style="fill: #0000ff; stroke: #0000ff"/>
     <use xlink:href="#m8df8d55e12" x="83.095357" y="135.152099" style="fill: #0000ff; stroke: #0000ff"/>
     <use xlink:href="#m8df8d55e12" x="84.938184" y="135.099552" style="fill: #0000ff; stroke: #0000ff"/>
     <use xlink:href="#m8df8d55e12" x="86.781011" y="135.023123" style="fill: #0000ff; stroke: #0000ff"/>
     <use xlink:href="#m8df8d55e12" x="88.623838" y="134.914046" style="fill: #0000ff; stroke: #0000ff"/>
     <use xlink:href="#m8df8d55e12" x="90.466665" y="134.759396" style="fill: #0000ff; stroke: #0000ff"/>
     <use xlink:href="#m8df8d55e12" x="92.309492" y="134.539807" style="fill: #0000ff; stroke: #0000ff"/>
     <use xlink:href="#m8df8d55e12" x="94.152318" y="134.22594" style="fill: #0000ff; stroke: #0000ff"/>
     <use xlink:href="#m8df8d55e12" x="95.995145" y="133.773286" style="fill: #0000ff; stroke: #0000ff"/>
     <use xlink:href="#m8df8d55e12" x="97.837972" y="133.115248" style="fill: #0000ff; stroke: #0000ff"/>
     <use xlink:href="#m8df8d55e12" x="99.680799" y="132.155896" style="fill: #0000ff; stroke: #0000ff"/>
     <use xlink:href="#m8df8d55e12" x="101.523626" y="130.767484" style="fill: #0000ff; stroke: #0000ff"/>
     <use xlink:href="#m8df8d55e12" x="103.366453" y="128.803942" style="fill: #0000ff; stroke: #0000ff"/>
     <use xlink:href="#m8df8d55e12" x="105.20928" y="126.145523" style="fill: #0000ff; stroke: #0000ff"/>
     <use xlink:href="#m8df8d55e12" x="107.052107" y="122.777779" style="fill: #0000ff; stroke: #0000ff"/>
     <use xlink:href="#m8df8d55e12" x="108.894934" y="118.869243" style="fill: #0000ff; stroke: #0000ff"/>
     <use xlink:href="#m8df8d55e12" x="110.73776" y="114.775657" style="fill: #0000ff; stroke: #0000ff"/>
     <use xlink:href="#m8df8d55e12" x="112.580587" y="110.931408" style="fill: #0000ff; stroke: #0000ff"/>
     <use xlink:href="#m8df8d55e12" x="114.423414" y="107.688703" style="fill: #0000ff; stroke: #0000ff"/>
     <use xlink:href="#m8df8d55e12" x="116.266241" y="105.215365" style="fill: #0000ff; stroke: #0000ff"/>
     <use xlink:href="#m8df8d55e12" x="118.109068" y="103.500795" style="fill: #0000ff; stroke: #0000ff"/>
     <use xlink:href="#m8df8d55e12" x="119.951895" y="102.432187" style="fill: #0000ff; stroke: #0000ff"/>
     <use xlink:href="#m8df8d55e12" x="121.794722" y="101.877172" style="fill: #0000ff; stroke: #0000ff"/>
     <use xlink:href="#m8df8d55e12" x="123.637549" y="101.735617" style="fill: #0000ff; stroke: #0000ff"/>
     <use xlink:href="#m8df8d55e12" x="125.480375" y="101.95585" style="fill: #0000ff; stroke: #0000ff"/>
     <use xlink:href="#m8df8d55e12" x="127.323202" y="102.525897" style="fill: #0000ff; stroke: #0000ff"/>
     <use xlink:href="#m8df8d55e12" x="129.166029" y="103.451655" style="fill: #0000ff; stroke: #0000ff"/>
     <use xlink:href="#m8df8d55e12" x="131.008856" y="104.731145" style="fill: #0000ff; stroke: #0000ff"/>
     <use xlink:href="#m8df8d55e12" x="132.851683" y="106.332514" style="fill: #0000ff; stroke: #0000ff"/>
     <use xlink:href="#m8df8d55e12" x="134.69451" y="108.183181" style="fill: #0000ff; stroke: #0000ff"/>
     <use xlink:href="#m8df8d55e12" x="136.537337" y="110.175266" style="fill: #0000ff; stroke: #0000ff"/>
     <use xlink:href="#m8df8d55e12" x="138.380164" y="112.185955" style="fill: #0000ff; stroke: #0000ff"/>
     <use xlink:href="#m8df8d55e12" x="140.22299" y="114.103648" style="fill: #0000ff; stroke: #0000ff"/>
     <use xlink:href="#m8df8d55e12" x="142.065817" y="115.847989" style="fill: #0000ff; stroke: #0000ff"/>
     <use xlink:href="#m8df8d55e12" x="143.908644" y="117.376849" style="fill: #0000ff; stroke: #0000ff"/>
     <use xlink:href="#m8df8d55e12" x="145.751471" y="118.681471" style="fill: #0000ff; stroke: #0000ff"/>
     <use xlink:href="#m8df8d55e12" x="147.594298" y="119.775696" style="fill: #0000ff; stroke: #0000ff"/>
     <use xlink:href="#m8df8d55e12" x="149.437125" y="120.684998" style="fill: #0000ff; stroke: #0000ff"/>
     <use xlink:href="#m8df8d55e12" x="151.279952" y="121.438288" style="fill: #0000ff; stroke: #0000ff"/>
     <use xlink:href="#m8df8d55e12" x="153.122779" y="122.063026" style="fill: #0000ff; stroke: #0000ff"/>
     <use xlink:href="#m8df8d55e12" x="154.965606" y="122.582934" style="fill: #0000ff; stroke: #0000ff"/>
     <use xlink:href="#m8df8d55e12" x="156.808432" y="123.017352" style="fill: #0000ff; stroke: #0000ff"/>
     <use xlink:href="#m8df8d55e12" x="158.651259" y="123.381478" style="fill: #0000ff; stroke: #0000ff"/>
     <use xlink:href="#m8df8d55e12" x="160.494086" y="123.686964" style="fill: #0000ff; stroke: #0000ff"/>
     <use xlink:href="#m8df8d55e12" x="162.336913" y="123.942608" style="fill: #0000ff; stroke: #0000ff"/>
     <use xlink:href="#m8df8d55e12" x="164.17974" y="124.154992" style="fill: #0000ff; stroke: #0000ff"/>
     <use xlink:href="#m8df8d55e12" x="166.022567" y="124.329019" style="fill: #0000ff; stroke: #0000ff"/>
     <use xlink:href="#m8df8d55e12" x="167.865394" y="124.46834" style="fill: #0000ff; stroke: #0000ff"/>
     <use xlink:href="#m8df8d55e12" x="169.708221" y="124.575677" style="fill: #0000ff; stroke: #0000ff"/>
     <use xlink:href="#m8df8d55e12" x="171.551047" y="124.653066" style="fill: #0000ff; stroke: #0000ff"/>
     <use xlink:href="#m8df8d55e12" x="173.393874" y="124.702027" style="fill: #0000ff; stroke: #0000ff"/>
     <use xlink:href="#m8df8d55e12" x="175.236701" y="124.72369" style="fill: #0000ff; stroke: #0000ff"/>
     <use xlink:href="#m8df8d55e12" x="177.079528" y="124.718879" style="fill: #0000ff; stroke: #0000ff"/>
     <use xlink:href="#m8df8d55e12" x="178.922355" y="124.688171" style="fill: #0000ff; stroke: #0000ff"/>
     <use xlink:href="#m8df8d55e12" x="180.765182" y="124.631927" style="fill: #0000ff; stroke: #0000ff"/>
     <use xlink:href="#m8df8d55e12" x="182.608009" y="124.550325" style="fill: #0000ff; stroke: #0000ff"/>
     <use xlink:href="#m8df8d55e12" x="184.450836" y="124.443362" style="fill: #0000ff; stroke: #0000ff"/>
     <use xlink:href="#m8df8d55e12" x="186.293663" y="124.310859" style="fill: #0000ff; stroke: #0000ff"/>
     <use xlink:href="#m8df8d55e12" x="188.136489" y="124.152461" style="fill: #0000ff; stroke: #0000ff"/>
     <use xlink:href="#m8df8d55e12" x="189.979316" y="123.967626" style="fill: #0000ff; stroke: #0000ff"/>
     <use xlink:href="#m8df8d55e12" x="191.822143" y="123.755611" style="fill: #0000ff; stroke: #0000ff"/>
     <use xlink:href="#m8df8d55e12" x="193.66497" y="123.515459" style="fill: #0000ff; stroke: #0000ff"/>
     <use xlink:href="#m8df8d55e12" x="195.507797" y="123.245979" style="fill: #0000ff; stroke: #0000ff"/>
     <use xlink:href="#m8df8d55e12" x="197.350624" y="122.945726" style="fill: #0000ff; stroke: #0000ff"/>
     <use xlink:href="#m8df8d55e12" x="199.193451" y="122.612985" style="fill: #0000ff; stroke: #0000ff"/>
     <use xlink:href="#m8df8d55e12" x="201.036278" y="122.245742" style="fill: #0000ff; stroke: #0000ff"/>
     <use xlink:href="#m8df8d55e12" x="202.879104" y="121.841672" style="fill: #0000ff; stroke: #0000ff"/>
     <use xlink:href="#m8df8d55e12" x="204.721931" y="121.398116" style="fill: #0000ff; stroke: #0000ff"/>
     <use xlink:href="#m8df8d55e12" x="206.564758" y="120.912068" style="fill: #0000ff; stroke: #0000ff"/>
     <use xlink:href="#m8df8d55e12" x="208.407585" y="120.38016" style="fill: #0000ff; stroke: #0000ff"/>
     <use xlink:href="#m8df8d55e12" x="210.250412" y="119.798656" style="fill: #0000ff; stroke: #0000ff"/>
    </g>
   </g>
   <g id="line2d_8">
    <path d="M 64.667088 135.18457 
L 66.509915 135.185811 
L 68.352742 135.185902 
L 70.195569 135.184808 
L 72.038396 135.18239 
L 73.881223 135.178371 
L 75.72405 135.172285 
L 77.566877 135.163403 
L 79.409703 135.150594 
L 81.25253 135.132126 
L 83.095357 135.105329 
L 84.938184 135.066085 
L 86.781011 135.008021 
L 88.623838 134.921279 
L 90.466665 134.790664 
L 92.309492 134.592955 
L 94.152318 134.293223 
L 95.995145 133.840221 
L 97.837972 133.161599 
L 99.680799 132.161043 
L 101.523626 130.721644 
L 103.366453 128.722072 
L 105.20928 126.071992 
L 107.052107 122.765967 
L 108.894934 118.938133 
L 110.73776 114.880898 
L 112.580587 110.992128 
L 114.423414 107.654543 
L 116.266241 105.107514 
L 118.109068 103.388963 
L 119.951895 102.376906 
L 121.794722 101.89121 
L 123.637549 101.788544 
L 125.480375 102.006777 
L 127.323202 102.55405 
L 129.166029 103.464084 
L 131.008856 104.747643 
L 132.851683 106.36414 
L 134.69451 108.222245 
L 136.537337 110.202164 
L 138.380164 112.184146 
L 140.22299 114.070209 
L 142.065817 115.793941 
L 143.908644 117.320066 
L 145.751471 118.638292 
L 147.594298 119.755531 
L 149.437125 120.688969 
L 151.279952 121.46091 
L 153.122779 122.09538 
L 154.965606 122.616066 
L 156.808432 123.045064 
L 158.651259 123.401958 
L 160.494086 123.702858 
L 162.336913 123.959292 
L 164.17974 124.177307 
L 166.022567 124.357727 
L 167.865394 124.498603 
L 169.708221 124.599261 
L 171.551047 124.662624 
L 173.393874 124.693632 
L 175.236701 124.696837 
L 177.079528 124.675714 
L 178.922355 124.632723 
L 180.765182 124.569427 
L 182.608009 124.486598 
L 184.450836 124.384296 
L 186.293663 124.261948 
L 188.136489 124.118408 
L 189.979316 123.952002 
L 191.822143 123.760574 
L 193.66497 123.541504 
L 195.507797 123.291733 
L 197.350624 123.007767 
L 199.193451 122.685679 
L 201.036278 122.3211 
L 202.879104 121.909215 
L 204.721931 121.444753 
L 206.564758 120.921994 
L 208.407585 120.334779 
L 210.250412 119.676562 
" clip-path="url(#p22f130fd8e)" style="fill: none; stroke: #008000; stroke-width: 1.5; stroke-linecap: round"/>
   </g>
   <g id="patch_3">
    <path d="M 61.35 144.605197 
L 61.35 29.916798 
" style="fill: none; stroke: #262626; stroke-width: 1.25; stroke-linejoin: miter; stroke-linecap: square"/>
   </g>
   <g id="patch_4">
    <path d="M 61.35 144.605197 
L 211.724673 144.605197 
" style="fill: none; stroke: #262626; stroke-width: 1.25; stroke-linejoin: miter; stroke-linecap: square"/>
   </g>
   <g id="text_9">
    <!-- MDL: $\frac{\left(c_{1} + c_{2} \sin^{c_{3}}{\left(\left(\left(c_{2} x_{1} + c_{3} + c_{4} + c_{5}^{\tanh{\left(c_{1} \left(x_{1} + \left(c_{4}^{2}\right)^{c_{6}^{\left(c_{7}^{3}\right)^{x_{1}}}}\right) \right)}} \left(c_{1} - c_{5}\right)^{x_{1}^{2}}\right)^{2}\right)^{c_{7}} \right)}\right)^{e^{c_{7}}}}{c_{8}}$ -->
    <g style="fill: #262626" transform="translate(61.35 23.916798) scale(0.062 -0.062)">
     <defs>
      <path id="DejaVuSans-4d" d="M 628 4666 
L 1569 4666 
L 2759 1491 
L 3956 4666 
L 4897 4666 
L 4897 0 
L 4281 0 
L 4281 4097 
L 3078 897 
L 2444 897 
L 1241 4097 
L 1241 0 
L 628 0 
L 628 4666 
z
" transform="scale(0.015625)"/>
      <path id="DejaVuSans-44" d="M 1259 4147 
L 1259 519 
L 2022 519 
Q 2988 519 3436 956 
Q 3884 1394 3884 2338 
Q 3884 3275 3436 3711 
Q 2988 4147 2022 4147 
L 1259 4147 
z
M 628 4666 
L 1925 4666 
Q 3281 4666 3915 4102 
Q 4550 3538 4550 2338 
Q 4550 1131 3912 565 
Q 3275 0 1925 0 
L 628 0 
L 628 4666 
z
" transform="scale(0.015625)"/>
      <path id="DejaVuSans-4c" d="M 628 4666 
L 1259 4666 
L 1259 531 
L 3531 531 
L 3531 0 
L 628 0 
L 628 4666 
z
" transform="scale(0.015625)"/>
      <path id="DejaVuSans-3a" d="M 750 794 
L 1409 794 
L 1409 0 
L 750 0 
L 750 794 
z
M 750 3309 
L 1409 3309 
L 1409 2516 
L 750 2516 
L 750 3309 
z
" transform="scale(0.015625)"/>
      <path id="DejaVuSans-20" transform="scale(0.015625)"/>
      <path id="STIXSizeTwoSym-Regular-28" d="M 3219 -1555 
L 3219 -1786 
Q 2144 -774 1517 730 
Q 890 2234 890 4115 
Q 890 6003 1533 7593 
Q 2176 9184 3219 10022 
L 3219 9811 
Q 2490 9062 1994 7606 
Q 1498 6150 1498 4115 
Q 1498 563 3219 -1555 
z
" transform="scale(0.015625)"/>
      <path id="DejaVuSans-Oblique-63" d="M 3431 3366 
L 3316 2797 
Q 3109 2947 2876 3022 
Q 2644 3097 2394 3097 
Q 2119 3097 1870 3000 
Q 1622 2903 1453 2725 
Q 1184 2453 1037 2087 
Q 891 1722 891 1331 
Q 891 859 1127 628 
Q 1363 397 1844 397 
Q 2081 397 2348 469 
Q 2616 541 2906 684 
L 2797 116 
Q 2547 13 2283 -39 
Q 2019 -91 1741 -91 
Q 1044 -91 669 257 
Q 294 606 294 1253 
Q 294 1797 489 2255 
Q 684 2713 1069 3078 
Q 1331 3328 1684 3456 
Q 2038 3584 2456 3584 
Q 2700 3584 2940 3529 
Q 3181 3475 3431 3366 
z
" transform="scale(0.015625)"/>
      <path id="DejaVuSans-2b" d="M 2944 4013 
L 2944 2272 
L 4684 2272 
L 4684 1741 
L 2944 1741 
L 2944 0 
L 2419 0 
L 2419 1741 
L 678 1741 
L 678 2272 
L 2419 2272 
L 2419 4013 
L 2944 4013 
z
" transform="scale(0.015625)"/>
      <path id="DejaVuSans-73" d="M 2834 3397 
L 2834 2853 
Q 2591 2978 2328 3040 
Q 2066 3103 1784 3103 
Q 1356 3103 1142 2972 
Q 928 2841 928 2578 
Q 928 2378 1081 2264 
Q 1234 2150 1697 2047 
L 1894 2003 
Q 2506 1872 2764 1633 
Q 3022 1394 3022 966 
Q 3022 478 2636 193 
Q 2250 -91 1575 -91 
Q 1294 -91 989 -36 
Q 684 19 347 128 
L 347 722 
Q 666 556 975 473 
Q 1284 391 1588 391 
Q 1994 391 2212 530 
Q 2431 669 2431 922 
Q 2431 1156 2273 1281 
Q 2116 1406 1581 1522 
L 1381 1569 
Q 847 1681 609 1914 
Q 372 2147 372 2553 
Q 372 3047 722 3315 
Q 1072 3584 1716 3584 
Q 2034 3584 2315 3537 
Q 2597 3491 2834 3397 
z
" transform="scale(0.015625)"/>
      <path id="DejaVuSans-69" d="M 603 3500 
L 1178 3500 
L 1178 0 
L 603 0 
L 603 3500 
z
M 603 4863 
L 1178 4863 
L 1178 4134 
L 603 4134 
L 603 4863 
z
" transform="scale(0.015625)"/>
      <path id="DejaVuSans-6e" d="M 3513 2113 
L 3513 0 
L 2938 0 
L 2938 2094 
Q 2938 2591 2744 2837 
Q 2550 3084 2163 3084 
Q 1697 3084 1428 2787 
Q 1159 2491 1159 1978 
L 1159 0 
L 581 0 
L 581 3500 
L 1159 3500 
L 1159 2956 
Q 1366 3272 1645 3428 
Q 1925 3584 2291 3584 
Q 2894 3584 3203 3211 
Q 3513 2838 3513 2113 
z
" transform="scale(0.015625)"/>
      <path id="DejaVuSans-33" d="M 2597 2516 
Q 3050 2419 3304 2112 
Q 3559 1806 3559 1356 
Q 3559 666 3084 287 
Q 2609 -91 1734 -91 
Q 1441 -91 1130 -33 
Q 819 25 488 141 
L 488 750 
Q 750 597 1062 519 
Q 1375 441 1716 441 
Q 2309 441 2620 675 
Q 2931 909 2931 1356 
Q 2931 1769 2642 2001 
Q 2353 2234 1838 2234 
L 1294 2234 
L 1294 2753 
L 1863 2753 
Q 2328 2753 2575 2939 
Q 2822 3125 2822 3475 
Q 2822 3834 2567 4026 
Q 2313 4219 1838 4219 
Q 1578 4219 1281 4162 
Q 984 4106 628 3988 
L 628 4550 
Q 988 4650 1302 4700 
Q 1616 4750 1894 4750 
Q 2613 4750 3031 4423 
Q 3450 4097 3450 3541 
Q 3450 3153 3228 2886 
Q 3006 2619 2597 2516 
z
" transform="scale(0.015625)"/>
      <path id="DejaVuSans-Oblique-78" d="M 3841 3500 
L 2234 1784 
L 3219 0 
L 2559 0 
L 1819 1388 
L 531 0 
L -166 0 
L 1556 1844 
L 641 3500 
L 1300 3500 
L 1972 2234 
L 3144 3500 
L 3841 3500 
z
" transform="scale(0.015625)"/>
      <path id="DejaVuSans-34" d="M 2419 4116 
L 825 1625 
L 2419 1625 
L 2419 4116 
z
M 2253 4666 
L 3047 4666 
L 3047 1625 
L 3713 1625 
L 3713 1100 
L 3047 1100 
L 3047 0 
L 2419 0 
L 2419 1100 
L 313 1100 
L 313 1709 
L 2253 4666 
z
" transform="scale(0.015625)"/>
      <path id="DejaVuSans-74" d="M 1172 4494 
L 1172 3500 
L 2356 3500 
L 2356 3053 
L 1172 3053 
L 1172 1153 
Q 1172 725 1289 603 
Q 1406 481 1766 481 
L 2356 481 
L 2356 0 
L 1766 0 
Q 1100 0 847 248 
Q 594 497 594 1153 
L 594 3053 
L 172 3053 
L 172 3500 
L 594 3500 
L 594 4494 
L 1172 4494 
z
" transform="scale(0.015625)"/>
      <path id="DejaVuSans-61" d="M 2194 1759 
Q 1497 1759 1228 1600 
Q 959 1441 959 1056 
Q 959 750 1161 570 
Q 1363 391 1709 391 
Q 2188 391 2477 730 
Q 2766 1069 2766 1631 
L 2766 1759 
L 2194 1759 
z
M 3341 1997 
L 3341 0 
L 2766 0 
L 2766 531 
Q 2569 213 2275 61 
Q 1981 -91 1556 -91 
Q 1019 -91 701 211 
Q 384 513 384 1019 
Q 384 1609 779 1909 
Q 1175 2209 1959 2209 
L 2766 2209 
L 2766 2266 
Q 2766 2663 2505 2880 
Q 2244 3097 1772 3097 
Q 1472 3097 1187 3025 
Q 903 2953 641 2809 
L 641 3341 
Q 956 3463 1253 3523 
Q 1550 3584 1831 3584 
Q 2591 3584 2966 3190 
Q 3341 2797 3341 1997 
z
" transform="scale(0.015625)"/>
      <path id="DejaVuSans-68" d="M 3513 2113 
L 3513 0 
L 2938 0 
L 2938 2094 
Q 2938 2591 2744 2837 
Q 2550 3084 2163 3084 
Q 1697 3084 1428 2787 
Q 1159 2491 1159 1978 
L 1159 0 
L 581 0 
L 581 4863 
L 1159 4863 
L 1159 2956 
Q 1366 3272 1645 3428 
Q 1925 3584 2291 3584 
Q 2894 3584 3203 3211 
Q 3513 2838 3513 2113 
z
" transform="scale(0.015625)"/>
      <path id="STIXSizeOneSym-Regular-28" d="M 2445 -858 
L 2445 -1050 
Q 1728 -371 1309 630 
Q 890 1632 890 2886 
Q 890 4122 1309 5136 
Q 1728 6150 2445 6822 
L 2445 6630 
Q 1408 5363 1408 2886 
Q 1408 410 2445 -858 
z
" transform="scale(0.015625)"/>
      <path id="STIXSizeOneSym-Regular-29" d="M 550 6630 
L 550 6822 
Q 1267 6144 1686 5142 
Q 2106 4141 2106 2886 
Q 2106 1651 1686 636 
Q 1267 -378 550 -1050 
L 550 -858 
Q 1587 410 1587 2886 
Q 1587 5363 550 6630 
z
" transform="scale(0.015625)"/>
      <path id="DejaVuSans-37" d="M 525 4666 
L 3525 4666 
L 3525 4397 
L 1831 0 
L 1172 0 
L 2766 4134 
L 525 4134 
L 525 4666 
z
" transform="scale(0.015625)"/>
      <path id="DejaVuSans-36" d="M 2113 2584 
Q 1688 2584 1439 2293 
Q 1191 2003 1191 1497 
Q 1191 994 1439 701 
Q 1688 409 2113 409 
Q 2538 409 2786 701 
Q 3034 994 3034 1497 
Q 3034 2003 2786 2293 
Q 2538 2584 2113 2584 
z
M 3366 4563 
L 3366 3988 
Q 3128 4100 2886 4159 
Q 2644 4219 2406 4219 
Q 1781 4219 1451 3797 
Q 1122 3375 1075 2522 
Q 1259 2794 1537 2939 
Q 1816 3084 2150 3084 
Q 2853 3084 3261 2657 
Q 3669 2231 3669 1497 
Q 3669 778 3244 343 
Q 2819 -91 2113 -91 
Q 1303 -91 875 529 
Q 447 1150 447 2328 
Q 447 3434 972 4092 
Q 1497 4750 2381 4750 
Q 2619 4750 2861 4703 
Q 3103 4656 3366 4563 
z
" transform="scale(0.015625)"/>
      <path id="STIXSizeTwoSym-Regular-29" d="M 730 9792 
L 730 10022 
Q 1805 9011 2432 7507 
Q 3059 6003 3059 4115 
Q 3059 2234 2416 643 
Q 1773 -947 730 -1786 
L 730 -1574 
Q 1459 -826 1955 633 
Q 2451 2093 2451 4115 
Q 2451 7674 730 9792 
z
" transform="scale(0.015625)"/>
      <path id="DejaVuSans-28" d="M 1984 4856 
Q 1566 4138 1362 3434 
Q 1159 2731 1159 2009 
Q 1159 1288 1364 580 
Q 1569 -128 1984 -844 
L 1484 -844 
Q 1016 -109 783 600 
Q 550 1309 550 2009 
Q 550 2706 781 3412 
Q 1013 4119 1484 4856 
L 1984 4856 
z
" transform="scale(0.015625)"/>
      <path id="DejaVuSans-29" d="M 513 4856 
L 1013 4856 
Q 1481 4119 1714 3412 
Q 1947 2706 1947 2009 
Q 1947 1309 1714 600 
Q 1481 -109 1013 -844 
L 513 -844 
Q 928 -128 1133 580 
Q 1338 1288 1338 2009 
Q 1338 2731 1133 3434 
Q 928 4138 513 4856 
z
" transform="scale(0.015625)"/>
      <path id="DejaVuSans-Oblique-65" d="M 3078 2063 
Q 3088 2113 3092 2166 
Q 3097 2219 3097 2272 
Q 3097 2653 2873 2875 
Q 2650 3097 2266 3097 
Q 1838 3097 1509 2826 
Q 1181 2556 1013 2059 
L 3078 2063 
z
M 3578 1613 
L 903 1613 
Q 884 1494 878 1425 
Q 872 1356 872 1306 
Q 872 872 1139 634 
Q 1406 397 1894 397 
Q 2269 397 2603 481 
Q 2938 566 3225 728 
L 3116 159 
Q 2806 34 2476 -28 
Q 2147 -91 1806 -91 
Q 1078 -91 686 257 
Q 294 606 294 1247 
Q 294 1794 489 2264 
Q 684 2734 1063 3103 
Q 1306 3334 1642 3459 
Q 1978 3584 2356 3584 
Q 2950 3584 3301 3228 
Q 3653 2872 3653 2272 
Q 3653 2128 3634 1964 
Q 3616 1800 3578 1613 
z
" transform="scale(0.015625)"/>
      <path id="DejaVuSans-38" d="M 2034 2216 
Q 1584 2216 1326 1975 
Q 1069 1734 1069 1313 
Q 1069 891 1326 650 
Q 1584 409 2034 409 
Q 2484 409 2743 651 
Q 3003 894 3003 1313 
Q 3003 1734 2745 1975 
Q 2488 2216 2034 2216 
z
M 1403 2484 
Q 997 2584 770 2862 
Q 544 3141 544 3541 
Q 544 4100 942 4425 
Q 1341 4750 2034 4750 
Q 2731 4750 3128 4425 
Q 3525 4100 3525 3541 
Q 3525 3141 3298 2862 
Q 3072 2584 2669 2484 
Q 3125 2378 3379 2068 
Q 3634 1759 3634 1313 
Q 3634 634 3220 271 
Q 2806 -91 2034 -91 
Q 1263 -91 848 271 
Q 434 634 434 1313 
Q 434 1759 690 2068 
Q 947 2378 1403 2484 
z
M 1172 3481 
Q 1172 3119 1398 2916 
Q 1625 2713 2034 2713 
Q 2441 2713 2670 2916 
Q 2900 3119 2900 3481 
Q 2900 3844 2670 4047 
Q 2441 4250 2034 4250 
Q 1625 4250 1398 4047 
Q 1172 3844 1172 3481 
z
" transform="scale(0.015625)"/>
     </defs>
     <use xlink:href="#DejaVuSans-4d" transform="translate(0 0.378125)"/>
     <use xlink:href="#DejaVuSans-44" transform="translate(86.279297 0.378125)"/>
     <use xlink:href="#DejaVuSans-4c" transform="translate(163.28125 0.378125)"/>
     <use xlink:href="#DejaVuSans-3a" transform="translate(218.994141 0.378125)"/>
     <use xlink:href="#DejaVuSans-20" transform="translate(252.685547 0.378125)"/>
     <use xlink:href="#STIXSizeTwoSym-Regular-28" transform="translate(284.472656 62.145313) scale(0.644038)"/>
     <use xlink:href="#DejaVuSans-Oblique-63" transform="translate(322.404259 64.012344) scale(0.7)"/>
     <use xlink:href="#DejaVuSans-31" transform="translate(360.890587 52.527969) scale(0.49)"/>
     <use xlink:href="#DejaVuSans-2b" transform="translate(407.617638 64.012344) scale(0.7)"/>
     <use xlink:href="#DejaVuSans-Oblique-63" transform="translate(479.907677 64.012344) scale(0.7)"/>
     <use xlink:href="#DejaVuSans-32" transform="translate(518.394005 52.527969) scale(0.49)"/>
     <use xlink:href="#DejaVuSans-73" transform="translate(551.48336 64.012344) scale(0.7)"/>
     <use xlink:href="#DejaVuSans-69" transform="translate(587.953087 64.012344) scale(0.7)"/>
     <use xlink:href="#DejaVuSans-6e" transform="translate(607.401329 64.012344) scale(0.7)"/>
     <use xlink:href="#DejaVuSans-Oblique-63" transform="translate(652.436485 90.809219) scale(0.49)"/>
     <use xlink:href="#DejaVuSans-33" transform="translate(679.376915 82.770156) scale(0.343)"/>
     <use xlink:href="#STIXSizeTwoSym-Regular-28" transform="translate(712.409008 62.145313) scale(0.644038)"/>
     <use xlink:href="#STIXSizeTwoSym-Regular-28" transform="translate(750.34061 62.145313) scale(0.644038)"/>
     <use xlink:href="#STIXSizeTwoSym-Regular-28" transform="translate(788.272213 62.145313) scale(0.641788)"/>
     <use xlink:href="#DejaVuSans-Oblique-63" transform="translate(826.049195 64.012344) scale(0.7)"/>
     <use xlink:href="#DejaVuSans-32" transform="translate(864.535523 52.527969) scale(0.49)"/>
     <use xlink:href="#DejaVuSans-Oblique-78" transform="translate(897.624878 64.012344) scale(0.7)"/>
     <use xlink:href="#DejaVuSans-31" transform="translate(939.05066 52.527969) scale(0.49)"/>
     <use xlink:href="#DejaVuSans-2b" transform="translate(985.77771 64.012344) scale(0.7)"/>
     <use xlink:href="#DejaVuSans-Oblique-63" transform="translate(1058.067749 64.012344) scale(0.7)"/>
     <use xlink:href="#DejaVuSans-33" transform="translate(1096.554078 52.527969) scale(0.49)"/>
     <use xlink:href="#DejaVuSans-2b" transform="translate(1143.281128 64.012344) scale(0.7)"/>
     <use xlink:href="#DejaVuSans-Oblique-63" transform="translate(1215.571167 64.012344) scale(0.7)"/>
     <use xlink:href="#DejaVuSans-34" transform="translate(1254.057496 52.527969) scale(0.49)"/>
     <use xlink:href="#DejaVuSans-2b" transform="translate(1300.784546 64.012344) scale(0.7)"/>
     <use xlink:href="#DejaVuSans-Oblique-63" transform="translate(1373.074585 64.012344) scale(0.7)"/>
     <use xlink:href="#DejaVuSans-74" transform="translate(1414.815841 102.744219) scale(0.49)"/>
     <use xlink:href="#DejaVuSans-61" transform="translate(1434.028243 102.744219) scale(0.49)"/>
     <use xlink:href="#DejaVuSans-6e" transform="translate(1464.055098 102.744219) scale(0.49)"/>
     <use xlink:href="#DejaVuSans-68" transform="translate(1495.110762 102.744219) scale(0.49)"/>
     <use xlink:href="#STIXSizeTwoSym-Regular-28" transform="translate(1534.121908 100.416719) scale(0.39696)"/>
     <use xlink:href="#DejaVuSans-Oblique-63" transform="translate(1557.499318 102.744219) scale(0.49)"/>
     <use xlink:href="#DejaVuSans-31" transform="translate(1584.439747 94.705156) scale(0.343)"/>
     <use xlink:href="#STIXSizeTwoSym-Regular-28" transform="translate(1607.602296 100.416719) scale(0.39696)"/>
     <use xlink:href="#DejaVuSans-Oblique-78" transform="translate(1630.979706 102.744219) scale(0.49)"/>
     <use xlink:href="#DejaVuSans-31" transform="translate(1659.977753 94.705156) scale(0.343)"/>
     <use xlink:href="#DejaVuSans-2b" transform="translate(1692.686688 102.744219) scale(0.49)"/>
     <use xlink:href="#STIXSizeOneSym-Regular-28" transform="translate(1743.289716 97.063281) scale(0.468401)"/>
     <use xlink:href="#DejaVuSans-Oblique-63" transform="translate(1765.218442 102.744219) scale(0.49)"/>
     <use xlink:href="#DejaVuSans-32" transform="translate(1794.437321 121.502031) scale(0.343)"/>
     <use xlink:href="#DejaVuSans-34" transform="translate(1792.158872 89.345781) scale(0.343)"/>
     <use xlink:href="#STIXSizeOneSym-Regular-29" transform="translate(1817.599869 97.063281) scale(0.468401)"/>
     <use xlink:href="#DejaVuSans-Oblique-63" transform="translate(1839.997541 121.502031) scale(0.343)"/>
     <use xlink:href="#STIXSizeOneSym-Regular-28" transform="translate(1860.450756 138.012122) scale(0.229516)"/>
     <use xlink:href="#DejaVuSans-Oblique-63" transform="translate(1871.195832 140.795781) scale(0.2401)"/>
     <use xlink:href="#DejaVuSans-33" transform="translate(1885.513082 149.987109) scale(0.16807)"/>
     <use xlink:href="#DejaVuSans-37" transform="translate(1884.396642 134.230547) scale(0.16807)"/>
     <use xlink:href="#STIXSizeOneSym-Regular-29" transform="translate(1896.862731 138.012122) scale(0.229516)"/>
     <use xlink:href="#DejaVuSans-Oblique-78" transform="translate(1907.83759 149.987109) scale(0.16807)"/>
     <use xlink:href="#DejaVuSans-31" transform="translate(1917.78392 146.047969) scale(0.16807)"/>
     <use xlink:href="#DejaVuSans-36" transform="translate(1858.855842 112.123125) scale(0.2401)"/>
     <use xlink:href="#STIXSizeTwoSym-Regular-29" transform="translate(1928.662933 100.416719) scale(0.39696)"/>
     <use xlink:href="#STIXSizeTwoSym-Regular-29" transform="translate(1952.794453 100.416719) scale(0.39696)"/>
     <use xlink:href="#DejaVuSans-35" transform="translate(1411.560914 44.871719) scale(0.49)"/>
     <use xlink:href="#DejaVuSans-28" transform="translate(1978.840036 64.012344) scale(0.7)"/>
     <use xlink:href="#DejaVuSans-Oblique-63" transform="translate(2006.149606 64.012344) scale(0.7)"/>
     <use xlink:href="#DejaVuSans-31" transform="translate(2044.635935 52.527969) scale(0.49)"/>
     <use xlink:href="#DejaVuSans-2212" transform="translate(2091.362985 64.012344) scale(0.7)"/>
     <use xlink:href="#DejaVuSans-Oblique-63" transform="translate(2163.653024 64.012344) scale(0.7)"/>
     <use xlink:href="#DejaVuSans-35" transform="translate(2202.139353 52.527969) scale(0.49)"/>
     <use xlink:href="#DejaVuSans-29" transform="translate(2235.228708 64.012344) scale(0.7)"/>
     <use xlink:href="#DejaVuSans-Oblique-78" transform="translate(2263.2082 90.809219) scale(0.49)"/>
     <use xlink:href="#DejaVuSans-32" transform="translate(2294.394658 109.567031) scale(0.343)"/>
     <use xlink:href="#DejaVuSans-31" transform="translate(2292.206247 77.410781) scale(0.343)"/>
     <use xlink:href="#STIXSizeTwoSym-Regular-29" transform="translate(2319.47127 62.145313) scale(0.641788)"/>
     <use xlink:href="#DejaVuSans-32" transform="translate(2359.136786 90.809219) scale(0.49)"/>
     <use xlink:href="#STIXSizeTwoSym-Regular-29" transform="translate(2392.226142 62.145313) scale(0.644038)"/>
     <use xlink:href="#DejaVuSans-Oblique-63" transform="translate(2432.051267 90.809219) scale(0.49)"/>
     <use xlink:href="#DejaVuSans-37" transform="translate(2458.991697 82.770156) scale(0.343)"/>
     <use xlink:href="#STIXSizeTwoSym-Regular-29" transform="translate(2484.068308 62.145313) scale(0.644038)"/>
     <use xlink:href="#STIXSizeTwoSym-Regular-29" transform="translate(2523.223511 62.145313) scale(0.644038)"/>
     <use xlink:href="#DejaVuSans-Oblique-65" transform="translate(2563.048636 90.809219) scale(0.49)"/>
     <use xlink:href="#DejaVuSans-Oblique-63" transform="translate(2595.47357 109.567031) scale(0.343)"/>
     <use xlink:href="#DejaVuSans-37" transform="translate(2614.331871 103.939688) scale(0.2401)"/>
     <use xlink:href="#DejaVuSans-Oblique-63" transform="translate(1423.472656 -26.275) scale(0.7)"/>
     <use xlink:href="#DejaVuSans-38" transform="translate(1461.958984 -37.759375) scale(0.49)"/>
     <path d="M 284.472656 19.175 
L 284.472656 25.425 
L 2633.799561 25.425 
L 2633.799561 19.175 
L 284.472656 19.175 
z
"/>
    </g>
   </g>
   <g id="legend_1">
    <g id="patch_5">
     <path d="M 95.737173 48.059298 
L 206.124673 48.059298 
Q 207.724673 48.059298 207.724673 46.459298 
L 207.724673 35.516798 
Q 207.724673 33.916798 206.124673 33.916798 
L 95.737173 33.916798 
Q 94.137173 33.916798 94.137173 35.516798 
L 94.137173 46.459298 
Q 94.137173 48.059298 95.737173 48.059298 
z
" style="fill: #ffffff; opacity: 0.8; stroke: #cccccc; stroke-linejoin: miter"/>
    </g>
    <g id="line2d_9">
     <path d="M 97.337173 40.395548 
L 105.337173 40.395548 
L 113.337173 40.395548 
" style="fill: none; stroke: #008000; stroke-width: 1.5; stroke-linecap: round"/>
    </g>
    <g id="text_10">
     <!-- bms.  rmse= 4.6E-04 -->
     <g style="fill: #262626" transform="translate(119.737173 43.195548) scale(0.08 -0.08)">
      <defs>
       <path id="DejaVuSans-62" d="M 3116 1747 
Q 3116 2381 2855 2742 
Q 2594 3103 2138 3103 
Q 1681 3103 1420 2742 
Q 1159 2381 1159 1747 
Q 1159 1113 1420 752 
Q 1681 391 2138 391 
Q 2594 391 2855 752 
Q 3116 1113 3116 1747 
z
M 1159 2969 
Q 1341 3281 1617 3432 
Q 1894 3584 2278 3584 
Q 2916 3584 3314 3078 
Q 3713 2572 3713 1747 
Q 3713 922 3314 415 
Q 2916 -91 2278 -91 
Q 1894 -91 1617 61 
Q 1341 213 1159 525 
L 1159 0 
L 581 0 
L 581 4863 
L 1159 4863 
L 1159 2969 
z
" transform="scale(0.015625)"/>
       <path id="DejaVuSans-6d" d="M 3328 2828 
Q 3544 3216 3844 3400 
Q 4144 3584 4550 3584 
Q 5097 3584 5394 3201 
Q 5691 2819 5691 2113 
L 5691 0 
L 5113 0 
L 5113 2094 
Q 5113 2597 4934 2840 
Q 4756 3084 4391 3084 
Q 3944 3084 3684 2787 
Q 3425 2491 3425 1978 
L 3425 0 
L 2847 0 
L 2847 2094 
Q 2847 2600 2669 2842 
Q 2491 3084 2119 3084 
Q 1678 3084 1418 2786 
Q 1159 2488 1159 1978 
L 1159 0 
L 581 0 
L 581 3500 
L 1159 3500 
L 1159 2956 
Q 1356 3278 1631 3431 
Q 1906 3584 2284 3584 
Q 2666 3584 2933 3390 
Q 3200 3197 3328 2828 
z
" transform="scale(0.015625)"/>
       <path id="DejaVuSans-72" d="M 2631 2963 
Q 2534 3019 2420 3045 
Q 2306 3072 2169 3072 
Q 1681 3072 1420 2755 
Q 1159 2438 1159 1844 
L 1159 0 
L 581 0 
L 581 3500 
L 1159 3500 
L 1159 2956 
Q 1341 3275 1631 3429 
Q 1922 3584 2338 3584 
Q 2397 3584 2469 3576 
Q 2541 3569 2628 3553 
L 2631 2963 
z
" transform="scale(0.015625)"/>
       <path id="DejaVuSans-65" d="M 3597 1894 
L 3597 1613 
L 953 1613 
Q 991 1019 1311 708 
Q 1631 397 2203 397 
Q 2534 397 2845 478 
Q 3156 559 3463 722 
L 3463 178 
Q 3153 47 2828 -22 
Q 2503 -91 2169 -91 
Q 1331 -91 842 396 
Q 353 884 353 1716 
Q 353 2575 817 3079 
Q 1281 3584 2069 3584 
Q 2775 3584 3186 3129 
Q 3597 2675 3597 1894 
z
M 3022 2063 
Q 3016 2534 2758 2815 
Q 2500 3097 2075 3097 
Q 1594 3097 1305 2825 
Q 1016 2553 972 2059 
L 3022 2063 
z
" transform="scale(0.015625)"/>
       <path id="DejaVuSans-3d" d="M 678 2906 
L 4684 2906 
L 4684 2381 
L 678 2381 
L 678 2906 
z
M 678 1631 
L 4684 1631 
L 4684 1100 
L 678 1100 
L 678 1631 
z
" transform="scale(0.015625)"/>
       <path id="DejaVuSans-45" d="M 628 4666 
L 3578 4666 
L 3578 4134 
L 1259 4134 
L 1259 2753 
L 3481 2753 
L 3481 2222 
L 1259 2222 
L 1259 531 
L 3634 531 
L 3634 0 
L 628 0 
L 628 4666 
z
" transform="scale(0.015625)"/>
       <path id="DejaVuSans-2d" d="M 313 2009 
L 1997 2009 
L 1997 1497 
L 313 1497 
L 313 2009 
z
" transform="scale(0.015625)"/>
      </defs>
      <use xlink:href="#DejaVuSans-62"/>
      <use xlink:href="#DejaVuSans-6d" transform="translate(63.476562 0)"/>
      <use xlink:href="#DejaVuSans-73" transform="translate(160.888672 0)"/>
      <use xlink:href="#DejaVuSans-2e" transform="translate(212.988281 0)"/>
      <use xlink:href="#DejaVuSans-20" transform="translate(244.775391 0)"/>
      <use xlink:href="#DejaVuSans-20" transform="translate(276.5625 0)"/>
      <use xlink:href="#DejaVuSans-72" transform="translate(308.349609 0)"/>
      <use xlink:href="#DejaVuSans-6d" transform="translate(347.712891 0)"/>
      <use xlink:href="#DejaVuSans-73" transform="translate(445.125 0)"/>
      <use xlink:href="#DejaVuSans-65" transform="translate(497.224609 0)"/>
      <use xlink:href="#DejaVuSans-3d" transform="translate(558.748047 0)"/>
      <use xlink:href="#DejaVuSans-20" transform="translate(642.537109 0)"/>
      <use xlink:href="#DejaVuSans-34" transform="translate(674.324219 0)"/>
      <use xlink:href="#DejaVuSans-2e" transform="translate(737.947266 0)"/>
      <use xlink:href="#DejaVuSans-36" transform="translate(769.734375 0)"/>
      <use xlink:href="#DejaVuSans-45" transform="translate(833.357422 0)"/>
      <use xlink:href="#DejaVuSans-2d" transform="translate(896.541016 0)"/>
      <use xlink:href="#DejaVuSans-30" transform="translate(932.625 0)"/>
      <use xlink:href="#DejaVuSans-34" transform="translate(996.248047 0)"/>
     </g>
    </g>
   </g>
  </g>
 </g>
 <defs>
  <clipPath id="p22f130fd8e">
   <rect x="61.35" y="29.916798" width="150.374673" height="114.688399"/>
  </clipPath>
 </defs>
</svg>
