<?xml version="1.0" encoding="utf-8" standalone="no"?>
<!DOCTYPE svg PUBLIC "-//W3C//DTD SVG 1.1//EN"
  "http://www.w3.org/Graphics/SVG/1.1/DTD/svg11.dtd">
<svg xmlns:xlink="http://www.w3.org/1999/xlink" width="226.771654pt" height="198.425197pt" viewBox="0 0 226.771654 198.425197" xmlns="http://www.w3.org/2000/svg" version="1.1">
 <metadata>
  <rdf:RDF xmlns:dc="http://purl.org/dc/elements/1.1/" xmlns:cc="http://creativecommons.org/ns#" xmlns:rdf="http://www.w3.org/1999/02/22-rdf-syntax-ns#">
   <cc:Work>
    <dc:type rdf:resource="http://purl.org/dc/dcmitype/StillImage"/>
    <dc:date>2025-05-12T10:58:52.395244</dc:date>
    <dc:format>image/svg+xml</dc:format>
    <dc:creator>
     <cc:Agent>
      <dc:title>Matplotlib v3.10.3, https://matplotlib.org/</dc:title>
     </cc:Agent>
    </dc:creator>
   </cc:Work>
  </rdf:RDF>
 </metadata>
 <defs>
  <style type="text/css">*{stroke-linejoin: round; stroke-linecap: butt}</style>
 </defs>
 <g id="figure_1">
  <g id="patch_1">
   <path d="M 0 198.425197 
L 226.771654 198.425197 
L 226.771654 0 
L 0 0 
z
" style="fill: #ffffff"/>
  </g>
  <g id="axes_1">
   <g id="patch_2">
    <path d="M 61.35 144.605197 
L 211.724673 144.605197 
L 211.724673 16.131024 
L 61.35 16.131024 
z
" style="fill: #ffffff"/>
   </g>
   <g id="matplotlib.axis_1">
    <g id="xtick_1">
     <g id="line2d_1">
      <defs>
       <path id="m622725d0b8" d="M 0 0 
L 0 6 
" style="stroke: #262626; stroke-width: 1.25"/>
      </defs>
      <g>
       <use xlink:href="#m622725d0b8" x="62.824262" y="144.605197" style="fill: #262626; stroke: #262626; stroke-width: 1.25"/>
      </g>
     </g>
     <g id="text_1">
      <!-- −2 -->
      <g style="fill: #262626" transform="translate(53.978949 163.223322) scale(0.12 -0.12)">
       <defs>
        <path id="DejaVuSans-2212" d="M 678 2272 
L 4684 2272 
L 4684 1741 
L 678 1741 
L 678 2272 
z
" transform="scale(0.015625)"/>
        <path id="DejaVuSans-32" d="M 1228 531 
L 3431 531 
L 3431 0 
L 469 0 
L 469 531 
Q 828 903 1448 1529 
Q 2069 2156 2228 2338 
Q 2531 2678 2651 2914 
Q 2772 3150 2772 3378 
Q 2772 3750 2511 3984 
Q 2250 4219 1831 4219 
Q 1534 4219 1204 4116 
Q 875 4013 500 3803 
L 500 4441 
Q 881 4594 1212 4672 
Q 1544 4750 1819 4750 
Q 2544 4750 2975 4387 
Q 3406 4025 3406 3419 
Q 3406 3131 3298 2873 
Q 3191 2616 2906 2266 
Q 2828 2175 2409 1742 
Q 1991 1309 1228 531 
z
" transform="scale(0.015625)"/>
       </defs>
       <use xlink:href="#DejaVuSans-2212"/>
       <use xlink:href="#DejaVuSans-32" transform="translate(83.789062 0)"/>
      </g>
     </g>
    </g>
    <g id="xtick_2">
     <g id="line2d_2">
      <g>
       <use xlink:href="#m622725d0b8" x="136.537337" y="144.605197" style="fill: #262626; stroke: #262626; stroke-width: 1.25"/>
      </g>
     </g>
     <g id="text_2">
      <!-- 0 -->
      <g style="fill: #262626" transform="translate(132.719837 163.223322) scale(0.12 -0.12)">
       <defs>
        <path id="DejaVuSans-30" d="M 2034 4250 
Q 1547 4250 1301 3770 
Q 1056 3291 1056 2328 
Q 1056 1369 1301 889 
Q 1547 409 2034 409 
Q 2525 409 2770 889 
Q 3016 1369 3016 2328 
Q 3016 3291 2770 3770 
Q 2525 4250 2034 4250 
z
M 2034 4750 
Q 2819 4750 3233 4129 
Q 3647 3509 3647 2328 
Q 3647 1150 3233 529 
Q 2819 -91 2034 -91 
Q 1250 -91 836 529 
Q 422 1150 422 2328 
Q 422 3509 836 4129 
Q 1250 4750 2034 4750 
z
" transform="scale(0.015625)"/>
       </defs>
       <use xlink:href="#DejaVuSans-30"/>
      </g>
     </g>
    </g>
    <g id="xtick_3">
     <g id="line2d_3">
      <g>
       <use xlink:href="#m622725d0b8" x="210.250412" y="144.605197" style="fill: #262626; stroke: #262626; stroke-width: 1.25"/>
      </g>
     </g>
     <g id="text_3">
      <!-- 2 -->
      <g style="fill: #262626" transform="translate(206.432912 163.223322) scale(0.12 -0.12)">
       <use xlink:href="#DejaVuSans-32"/>
      </g>
     </g>
    </g>
    <g id="text_4">
     <!-- x -->
     <g style="fill: #262626" transform="translate(131.802337 181.876447) scale(0.16 -0.16)">
      <defs>
       <path id="DejaVuSans-78" d="M 3513 3500 
L 2247 1797 
L 3578 0 
L 2900 0 
L 1881 1375 
L 863 0 
L 184 0 
L 1544 1831 
L 300 3500 
L 978 3500 
L 1906 2253 
L 2834 3500 
L 3513 3500 
z
" transform="scale(0.015625)"/>
      </defs>
      <use xlink:href="#DejaVuSans-78"/>
     </g>
    </g>
   </g>
   <g id="matplotlib.axis_2">
    <g id="ytick_1">
     <g id="line2d_4">
      <defs>
       <path id="m0c1a131250" d="M 0 0 
L -6 0 
" style="stroke: #262626; stroke-width: 1.25"/>
      </defs>
      <g>
       <use xlink:href="#m0c1a131250" x="61.35" y="134.093674" style="fill: #262626; stroke: #262626; stroke-width: 1.25"/>
      </g>
     </g>
     <g id="text_5">
      <!-- 0.0 -->
      <g style="fill: #262626" transform="translate(32.76625 138.652736) scale(0.12 -0.12)">
       <defs>
        <path id="DejaVuSans-2e" d="M 684 794 
L 1344 794 
L 1344 0 
L 684 0 
L 684 794 
z
" transform="scale(0.015625)"/>
       </defs>
       <use xlink:href="#DejaVuSans-30"/>
       <use xlink:href="#DejaVuSans-2e" transform="translate(63.623047 0)"/>
       <use xlink:href="#DejaVuSans-30" transform="translate(95.410156 0)"/>
      </g>
     </g>
    </g>
    <g id="ytick_2">
     <g id="line2d_5">
      <g>
       <use xlink:href="#m0c1a131250" x="61.35" y="75.696322" style="fill: #262626; stroke: #262626; stroke-width: 1.25"/>
      </g>
     </g>
     <g id="text_6">
      <!-- 0.5 -->
      <g style="fill: #262626" transform="translate(32.76625 80.255385) scale(0.12 -0.12)">
       <defs>
        <path id="DejaVuSans-35" d="M 691 4666 
L 3169 4666 
L 3169 4134 
L 1269 4134 
L 1269 2991 
Q 1406 3038 1543 3061 
Q 1681 3084 1819 3084 
Q 2600 3084 3056 2656 
Q 3513 2228 3513 1497 
Q 3513 744 3044 326 
Q 2575 -91 1722 -91 
Q 1428 -91 1123 -41 
Q 819 9 494 109 
L 494 744 
Q 775 591 1075 516 
Q 1375 441 1709 441 
Q 2250 441 2565 725 
Q 2881 1009 2881 1497 
Q 2881 1984 2565 2268 
Q 2250 2553 1709 2553 
Q 1456 2553 1204 2497 
Q 953 2441 691 2322 
L 691 4666 
z
" transform="scale(0.015625)"/>
       </defs>
       <use xlink:href="#DejaVuSans-30"/>
       <use xlink:href="#DejaVuSans-2e" transform="translate(63.623047 0)"/>
       <use xlink:href="#DejaVuSans-35" transform="translate(95.410156 0)"/>
      </g>
     </g>
    </g>
    <g id="ytick_3">
     <g id="line2d_6">
      <g>
       <use xlink:href="#m0c1a131250" x="61.35" y="17.298971" style="fill: #262626; stroke: #262626; stroke-width: 1.25"/>
      </g>
     </g>
     <g id="text_7">
      <!-- 1.0 -->
      <g style="fill: #262626" transform="translate(32.76625 21.858033) scale(0.12 -0.12)">
       <defs>
        <path id="DejaVuSans-31" d="M 794 531 
L 1825 531 
L 1825 4091 
L 703 3866 
L 703 4441 
L 1819 4666 
L 2450 4666 
L 2450 531 
L 3481 531 
L 3481 0 
L 794 0 
L 794 531 
z
" transform="scale(0.015625)"/>
       </defs>
       <use xlink:href="#DejaVuSans-31"/>
       <use xlink:href="#DejaVuSans-2e" transform="translate(63.623047 0)"/>
       <use xlink:href="#DejaVuSans-30" transform="translate(95.410156 0)"/>
      </g>
     </g>
    </g>
    <g id="text_8">
     <!-- y -->
     <g style="fill: #262626" transform="translate(25.43875 85.10311) rotate(-90) scale(0.16 -0.16)">
      <defs>
       <path id="DejaVuSans-79" d="M 2059 -325 
Q 1816 -950 1584 -1140 
Q 1353 -1331 966 -1331 
L 506 -1331 
L 506 -850 
L 844 -850 
Q 1081 -850 1212 -737 
Q 1344 -625 1503 -206 
L 1606 56 
L 191 3500 
L 800 3500 
L 1894 763 
L 2988 3500 
L 3597 3500 
L 2059 -325 
z
" transform="scale(0.015625)"/>
      </defs>
      <use xlink:href="#DejaVuSans-79"/>
     </g>
    </g>
   </g>
   <g id="line2d_7">
    <defs>
     <path id="m606f6a03d3" d="M 0 0.75 
C 0.198902 0.75 0.389685 0.670975 0.53033 0.53033 
C 0.670975 0.389685 0.75 0.198902 0.75 0 
C 0.75 -0.198902 0.670975 -0.389685 0.53033 -0.53033 
C 0.389685 -0.670975 0.198902 -0.75 0 -0.75 
C -0.198902 -0.75 -0.389685 -0.670975 -0.53033 -0.53033 
C -0.670975 -0.389685 -0.75 -0.198902 -0.75 0 
C -0.75 0.198902 -0.670975 0.389685 -0.53033 0.53033 
C -0.389685 0.670975 -0.198902 0.75 0 0.75 
z
" style="stroke: #4c72b0"/>
    </defs>
    <g clip-path="url(#p809a70e30e)">
     <use xlink:href="#m606f6a03d3" x="64.667088" y="134.007049" style="fill: #4c72b0; stroke: #4c72b0"/>
     <use xlink:href="#m606f6a03d3" x="66.509915" y="134.028885" style="fill: #4c72b0; stroke: #4c72b0"/>
     <use xlink:href="#m606f6a03d3" x="68.352742" y="134.048789" style="fill: #4c72b0; stroke: #4c72b0"/>
     <use xlink:href="#m606f6a03d3" x="70.195569" y="134.066108" style="fill: #4c72b0; stroke: #4c72b0"/>
     <use xlink:href="#m606f6a03d3" x="72.038396" y="134.080051" style="fill: #4c72b0; stroke: #4c72b0"/>
     <use xlink:href="#m606f6a03d3" x="73.881223" y="134.089643" style="fill: #4c72b0; stroke: #4c72b0"/>
     <use xlink:href="#m606f6a03d3" x="75.72405" y="134.093674" style="fill: #4c72b0; stroke: #4c72b0"/>
     <use xlink:href="#m606f6a03d3" x="77.566877" y="134.090615" style="fill: #4c72b0; stroke: #4c72b0"/>
     <use xlink:href="#m606f6a03d3" x="79.409703" y="134.078496" style="fill: #4c72b0; stroke: #4c72b0"/>
     <use xlink:href="#m606f6a03d3" x="81.25253" y="134.054727" style="fill: #4c72b0; stroke: #4c72b0"/>
     <use xlink:href="#m606f6a03d3" x="83.095357" y="134.015818" style="fill: #4c72b0; stroke: #4c72b0"/>
     <use xlink:href="#m606f6a03d3" x="84.938184" y="133.956955" style="fill: #4c72b0; stroke: #4c72b0"/>
     <use xlink:href="#m606f6a03d3" x="86.781011" y="133.871339" style="fill: #4c72b0; stroke: #4c72b0"/>
     <use xlink:href="#m606f6a03d3" x="88.623838" y="133.74915" style="fill: #4c72b0; stroke: #4c72b0"/>
     <use xlink:href="#m606f6a03d3" x="90.466665" y="133.575911" style="fill: #4c72b0; stroke: #4c72b0"/>
     <use xlink:href="#m606f6a03d3" x="92.309492" y="133.329928" style="fill: #4c72b0; stroke: #4c72b0"/>
     <use xlink:href="#m606f6a03d3" x="94.152318" y="132.978332" style="fill: #4c72b0; stroke: #4c72b0"/>
     <use xlink:href="#m606f6a03d3" x="95.995145" y="132.471268" style="fill: #4c72b0; stroke: #4c72b0"/>
     <use xlink:href="#m606f6a03d3" x="97.837972" y="131.734133" style="fill: #4c72b0; stroke: #4c72b0"/>
     <use xlink:href="#m606f6a03d3" x="99.680799" y="130.659465" style="fill: #4c72b0; stroke: #4c72b0"/>
     <use xlink:href="#m606f6a03d3" x="101.523626" y="129.104164" style="fill: #4c72b0; stroke: #4c72b0"/>
     <use xlink:href="#m606f6a03d3" x="103.366453" y="126.9046" style="fill: #4c72b0; stroke: #4c72b0"/>
     <use xlink:href="#m606f6a03d3" x="105.20928" y="123.926633" style="fill: #4c72b0; stroke: #4c72b0"/>
     <use xlink:href="#m606f6a03d3" x="107.052107" y="120.15408" style="fill: #4c72b0; stroke: #4c72b0"/>
     <use xlink:href="#m606f6a03d3" x="108.894934" y="115.77573" style="fill: #4c72b0; stroke: #4c72b0"/>
     <use xlink:href="#m606f6a03d3" x="110.73776" y="111.190087" style="fill: #4c72b0; stroke: #4c72b0"/>
     <use xlink:href="#m606f6a03d3" x="112.580587" y="106.883751" style="fill: #4c72b0; stroke: #4c72b0"/>
     <use xlink:href="#m606f6a03d3" x="114.423414" y="103.251266" style="fill: #4c72b0; stroke: #4c72b0"/>
     <use xlink:href="#m606f6a03d3" x="116.266241" y="100.480629" style="fill: #4c72b0; stroke: #4c72b0"/>
     <use xlink:href="#m606f6a03d3" x="118.109068" y="98.559963" style="fill: #4c72b0; stroke: #4c72b0"/>
     <use xlink:href="#m606f6a03d3" x="119.951895" y="97.362907" style="fill: #4c72b0; stroke: #4c72b0"/>
     <use xlink:href="#m606f6a03d3" x="121.794722" y="96.741178" style="fill: #4c72b0; stroke: #4c72b0"/>
     <use xlink:href="#m606f6a03d3" x="123.637549" y="96.582607" style="fill: #4c72b0; stroke: #4c72b0"/>
     <use xlink:href="#m606f6a03d3" x="125.480375" y="96.829313" style="fill: #4c72b0; stroke: #4c72b0"/>
     <use xlink:href="#m606f6a03d3" x="127.323202" y="97.467881" style="fill: #4c72b0; stroke: #4c72b0"/>
     <use xlink:href="#m606f6a03d3" x="129.166029" y="98.504917" style="fill: #4c72b0; stroke: #4c72b0"/>
     <use xlink:href="#m606f6a03d3" x="131.008856" y="99.938204" style="fill: #4c72b0; stroke: #4c72b0"/>
     <use xlink:href="#m606f6a03d3" x="132.851683" y="101.732061" style="fill: #4c72b0; stroke: #4c72b0"/>
     <use xlink:href="#m606f6a03d3" x="134.69451" y="103.805182" style="fill: #4c72b0; stroke: #4c72b0"/>
     <use xlink:href="#m606f6a03d3" x="136.537337" y="106.03672" style="fill: #4c72b0; stroke: #4c72b0"/>
     <use xlink:href="#m606f6a03d3" x="138.380164" y="108.289098" style="fill: #4c72b0; stroke: #4c72b0"/>
     <use xlink:href="#m606f6a03d3" x="140.22299" y="110.437301" style="fill: #4c72b0; stroke: #4c72b0"/>
     <use xlink:href="#m606f6a03d3" x="142.065817" y="112.391315" style="fill: #4c72b0; stroke: #4c72b0"/>
     <use xlink:href="#m606f6a03d3" x="143.908644" y="114.103947" style="fill: #4c72b0; stroke: #4c72b0"/>
     <use xlink:href="#m606f6a03d3" x="145.751471" y="115.565387" style="fill: #4c72b0; stroke: #4c72b0"/>
     <use xlink:href="#m606f6a03d3" x="147.594298" y="116.79114" style="fill: #4c72b0; stroke: #4c72b0"/>
     <use xlink:href="#m606f6a03d3" x="149.437125" y="117.809742" style="fill: #4c72b0; stroke: #4c72b0"/>
     <use xlink:href="#m606f6a03d3" x="151.279952" y="118.653579" style="fill: #4c72b0; stroke: #4c72b0"/>
     <use xlink:href="#m606f6a03d3" x="153.122779" y="119.353412" style="fill: #4c72b0; stroke: #4c72b0"/>
     <use xlink:href="#m606f6a03d3" x="154.965606" y="119.935814" style="fill: #4c72b0; stroke: #4c72b0"/>
     <use xlink:href="#m606f6a03d3" x="156.808432" y="120.42245" style="fill: #4c72b0; stroke: #4c72b0"/>
     <use xlink:href="#m606f6a03d3" x="158.651259" y="120.830344" style="fill: #4c72b0; stroke: #4c72b0"/>
     <use xlink:href="#m606f6a03d3" x="160.494086" y="121.17255" style="fill: #4c72b0; stroke: #4c72b0"/>
     <use xlink:href="#m606f6a03d3" x="162.336913" y="121.458924" style="fill: #4c72b0; stroke: #4c72b0"/>
     <use xlink:href="#m606f6a03d3" x="164.17974" y="121.696837" style="fill: #4c72b0; stroke: #4c72b0"/>
     <use xlink:href="#m606f6a03d3" x="166.022567" y="121.891782" style="fill: #4c72b0; stroke: #4c72b0"/>
     <use xlink:href="#m606f6a03d3" x="167.865394" y="122.047849" style="fill: #4c72b0; stroke: #4c72b0"/>
     <use xlink:href="#m606f6a03d3" x="169.708221" y="122.168089" style="fill: #4c72b0; stroke: #4c72b0"/>
     <use xlink:href="#m606f6a03d3" x="171.551047" y="122.25478" style="fill: #4c72b0; stroke: #4c72b0"/>
     <use xlink:href="#m606f6a03d3" x="173.393874" y="122.309626" style="fill: #4c72b0; stroke: #4c72b0"/>
     <use xlink:href="#m606f6a03d3" x="175.236701" y="122.333893" style="fill: #4c72b0; stroke: #4c72b0"/>
     <use xlink:href="#m606f6a03d3" x="177.079528" y="122.328504" style="fill: #4c72b0; stroke: #4c72b0"/>
     <use xlink:href="#m606f6a03d3" x="178.922355" y="122.294104" style="fill: #4c72b0; stroke: #4c72b0"/>
     <use xlink:href="#m606f6a03d3" x="180.765182" y="122.231101" style="fill: #4c72b0; stroke: #4c72b0"/>
     <use xlink:href="#m606f6a03d3" x="182.608009" y="122.13969" style="fill: #4c72b0; stroke: #4c72b0"/>
     <use xlink:href="#m606f6a03d3" x="184.450836" y="122.019869" style="fill: #4c72b0; stroke: #4c72b0"/>
     <use xlink:href="#m606f6a03d3" x="186.293663" y="121.871439" style="fill: #4c72b0; stroke: #4c72b0"/>
     <use xlink:href="#m606f6a03d3" x="188.136489" y="121.694002" style="fill: #4c72b0; stroke: #4c72b0"/>
     <use xlink:href="#m606f6a03d3" x="189.979316" y="121.486949" style="fill: #4c72b0; stroke: #4c72b0"/>
     <use xlink:href="#m606f6a03d3" x="191.822143" y="121.249449" style="fill: #4c72b0; stroke: #4c72b0"/>
     <use xlink:href="#m606f6a03d3" x="193.66497" y="120.98043" style="fill: #4c72b0; stroke: #4c72b0"/>
     <use xlink:href="#m606f6a03d3" x="195.507797" y="120.678558" style="fill: #4c72b0; stroke: #4c72b0"/>
     <use xlink:href="#m606f6a03d3" x="197.350624" y="120.342215" style="fill: #4c72b0; stroke: #4c72b0"/>
     <use xlink:href="#m606f6a03d3" x="199.193451" y="119.969477" style="fill: #4c72b0; stroke: #4c72b0"/>
     <use xlink:href="#m606f6a03d3" x="201.036278" y="119.558091" style="fill: #4c72b0; stroke: #4c72b0"/>
     <use xlink:href="#m606f6a03d3" x="202.879104" y="119.105451" style="fill: #4c72b0; stroke: #4c72b0"/>
     <use xlink:href="#m606f6a03d3" x="204.721931" y="118.608579" style="fill: #4c72b0; stroke: #4c72b0"/>
     <use xlink:href="#m606f6a03d3" x="206.564758" y="118.064107" style="fill: #4c72b0; stroke: #4c72b0"/>
     <use xlink:href="#m606f6a03d3" x="208.407585" y="117.468262" style="fill: #4c72b0; stroke: #4c72b0"/>
     <use xlink:href="#m606f6a03d3" x="210.250412" y="116.81686" style="fill: #4c72b0; stroke: #4c72b0"/>
    </g>
   </g>
   <g id="patch_3">
    <path d="M 61.35 144.605197 
L 61.35 16.131024 
" style="fill: none; stroke: #262626; stroke-width: 1.25; stroke-linejoin: miter; stroke-linecap: square"/>
   </g>
   <g id="patch_4">
    <path d="M 61.35 144.605197 
L 211.724673 144.605197 
" style="fill: none; stroke: #262626; stroke-width: 1.25; stroke-linejoin: miter; stroke-linecap: square"/>
   </g>
  </g>
 </g>
 <defs>
  <clipPath id="p809a70e30e">
   <rect x="61.35" y="16.131024" width="150.374673" height="128.474173"/>
  </clipPath>
 </defs>
</svg>
